<?xml version="1.0" encoding="utf-8"?>
<!-- Generator: Adobe Illustrator 22.0.1, SVG Export Plug-In . SVG Version: 6.00 Build 0)  -->
<svg version="1.1" id="Fondo" xmlns="http://www.w3.org/2000/svg" xmlns:xlink="http://www.w3.org/1999/xlink" x="0px" y="0px"
	 viewBox="0 0 500 500" style="enable-background:new 0 0 500 500;" xml:space="preserve">
<style type="text/css">
	.st0{fill:url(#SVGID_1_);}
	.st1{fill:#A3AC7A;stroke:#1D1D1B;stroke-miterlimit:10;}
	.st2{fill:#077EAD;}
	.st3{font-family:'ArialMT';}
	.st4{font-size:16px;}
	.st5{font-size:27.61px;}
	.st6{fill:none;stroke:#231F20;stroke-width:0.75;stroke-miterlimit:10;}
	.st7{fill:#FFFFFF;}
	.st8{font-size:11.5762px;}
	.st9{font-size:12px;}
	.st10{fill:#F9F9F9;}
	.st11{fill:#FCFCFC;}
	.st12{font-size:10px;}
	.st13{font-size:13px;}
	.st14{opacity:0.8;}
	.st15{fill:#F59C22;stroke:#FFFFFF;stroke-miterlimit:10;}
	.st16{display:none;fill:#FFFFFF;enable-background:new    ;}
	.st17{font-size:7.0165px;}
	.st18{font-size:7.6295px;}
	.st19{font-size:5.7548px;}
	.st20{font-size:6.876px;}
	.st21{font-size:7.3592px;}
	.st22{display:none;enable-background:new    ;}
	.st23{font-family:'MyriadPro-Regular';}
	.st24{font-size:3.7063px;}
	.st25{font-size:6px;}
	.st26{font-size:5.0897px;}
	.st27{font-size:4.0257px;}
	.st28{font-size:4.0803px;}
	.st29{font-size:6.4373px;}
	.st30{font-size:5.8685px;}
	.st31{font-size:5.1454px;}
	.st32{font-size:8.4756px;}
	.st33{font-size:9.6975px;}
</style>
<g id="fondo">
	
		<linearGradient id="SVGID_1_" gradientUnits="userSpaceOnUse" x1="-347.13" y1="-5440" x2="854.67" y2="-5440" gradientTransform="matrix(1 0 0 1 3.000000e-02 5698)">
		<stop  offset="0" style="stop-color:#74BCD8"/>
		<stop  offset="1" style="stop-color:#CFEBFC"/>
	</linearGradient>
	<rect x="-347.1" y="-242" class="st0" width="1201.8" height="1000"/>
	<path class="st1" d="M-139.5,6.9c0,0-3,0.9-3.5-3.5c-0.2-1.6-1.3-3-2.9-3.6c-0.3-0.8-0.1-1.6,0.5-2.2c-0.3-0.8-2.6-2.5-4-2
		c-1,0.4-1.8,1.2-2,2.3c-1.2-0.3-3.5-2.2-4.5-1.8s-3,4.1-3.4,6.1c-0.8,1.5-3.1,1.5-3.2,2s-1,2.8-2.1,3.1c-1.9,0.5-1.9,1.9-2.7,3.5
		s-4.5,0.6-5,0.9s-1,1.3-1.6,1.6s-1.9,0.2-2.5,1.5s-2.3-1.4-4.7,0s-2.5,2.8-3.5,3s-1.9-0.1-3.3,0.8s-5.3-1.1-6.7-1.1s-1,1.7-2,1.8
		s-3.4-0.7-5.3-0.4s-2.3,2.3-2.7,2.4s-3.5-1.3-5,2.7s-0.3,3.9-0.4,5.9s-2.1,0.6-2.5,5.3c-0.5,2.7-3.1,0.8-3.9,2.6s-0.4,3.9-0.9,4.4
		s-1.7-0.9-3.8,3.3s-0.8,2.5-3.1,3.4c-2.2,1.2-4.8,3.1-6.1,3.1s-5.8,2.5-6.1,2.9c-0.3,0.4-2.3-0.4-2.8,0.8s-2.5,1-3.6,1.1
		s-1.1,2.7-1.6,3s-3.9-0.6-4.6,0.8s-1.8,2.2-1.8,3.9s-1.5,1.8,0,3.6c1.3,1.5,2.8,2.8,4.5,3.8c1.2,0.8,3.4,3.4,3.5,4.7
		s2.7,5.6,2.7,6.6s2.5,3.1,2.9,2c0.4-1.1,0.7-2,2.3-1.6s2.2,0.9,3.4-0.4s5.5-3.8,6.5-3.5c2.1,0.4,4.3,0.1,6.3-0.8
		c2.6-1.3,5.1-2.8,7.5-4.4c2.9-1.7,5.9-3.2,8.9-4.6c1.2-0.3,8.8-0.8,10.4,0c1.5,0.6,3,1,4.6,1c1,0.2,3.1,2.2,5,3.3s4.1,5.4,5,5.5
		s2.3,5.1,3,6.4s1.2,2.5-0.3,3.6c-1.1,1.3-0.2,6.7,0,7.2s1.4,9,0.8,12c0.5,3.1-1.5,3.4,0,8.8s-0.7,8.9,0.9,12.1s2.3,3.3,3.5,5.2
		s1.1,3.4,4.7,7.3c1,3.2,0.6,5.2-0.9,5.8s-2.8,0-2.3,2.5c0.1,2.4-0.6,2.3-0.6,4.4s0.9,3.7,1.1,5c0.2,1.1,0.6,2.1,1.3,2.9
		c0.4,0.4-0.2,5.5,0.5,6.7s2.7,3.6,4,2.4s1.8-2.8,2.8-1.9s0,3.4,1.6,6.1s1.1,5.1,2.9,6.5s-0.3,5.1,4.3,8.3s3.5,6.1,5.9,7.7
		c2.6,1.9,5.4,3.5,8.4,4.7c3.4,1.2,7.8,2.2,9.8,3.7s2,0,3.3,3s2.9,3.5,3.4,5.2s5,5.5,7.2,5s4.3,1.1,6,1.2s5.9-0.1,6.4,0.9
		s0.2,8.9-0.4,11.4s0.6,5.4-0.3,9.4s1.4,12.4,2.7,14.2s6.4,7.6,10.8,9.3c4.4,1.7,5.4,3.6,9.2,6.7s9,11.5,14.8,14.8s7.5,6,12.9,7.6
		c5,2.2,0.5,6.1,2.2,6.7s5.2-0.4,5.5,0.3s0.6,2.7,1.4,2.8s3.6-0.2,3.6,0.7s-2.4,0.5-2.4,2s0.6,3,1.7,4c1.3,1.4-0.3,2.8-1.4,2.8
		s-1.6,2.3-2.3,3.4s-2.2-0.2-2.1,2.5c0.1,1.9-1.3,3.6-3.2,3.8c-0.9,0-3.3,0-3.9-0.6s-0.6-1.8-2.4-1s-2,1.7-2.8,3.4s-0.6,3.2-1.9,3.7
		s-2.8,1.1-4,0s-5.1,0.1-5.3,2.7c0.1,1,2.9,2,2.1,3.5s-6.9,2.8-8,3.4s-2.6,1.5-2.7,2.6s-2.3,1.5-2.7,1.5s-4.3,0.8-4.9,0
		s-1.2-3.5-3.4-3.5s-4-0.4-4.9-1.6c-0.9-1.2-2.1-0.9-2.5-1.6s0.4-2.2-3.6-1.7c-1.5,0.2-2.5,2-5,1.8s-4.9,0.2-6.9,3.9
		c-0.4,1.5,0.6,3.4-3.1,3.6c-0.9-0.2-1.7-0.5-2.5-1c-1.6-0.9-1.8,1.8-3.1,1.8s-5.8,0.4-6.1,0s-0.9-0.5-2.7,0.2s-5.5,0-6.9-0.5
		s-1.7,0.2-2.3,0.2s-1.7-0.5-2.5,0.6c-1,1.4-2,2.7-3.1,3.9c-0.5,0.5,0.6,1.6,0.4,2.8s0,2.4-0.8,2.4s-1.5,0.7-1.6,0s-1.2-0.6-2,0.3
		s-0.9,1.8-1.9,2.6s-2.7,0-3.5,1.4s-2,3.8-3.6,4.2c-1,0.3-2,0.7-2.9,1.2c-0.4,0-1.1,1.2-1.6,3.9s-2.2,1.3-3.5,2.4s-1.1,2.3-2.5,2.8
		s-5,0-6.5,1s-3.4,0.8-5.2,4.5c-0.8,1.5-3.1,1.7-4.1,1.9c-1.8,0.9-3.3,2.4-4.2,4.2c-1,1.9-2.3,3.7-3.8,5.2c-0.8,0.7-5.7,7.3-7,7.9
		c-2.2,1.4-4.2,3.2-5.8,5.3c-1.9,2.5-6.3,4.1-7.3,5.5s-1.7,3.2-2.8,4.1s-1.1,3.8-1.4,4.1s-3.5,2.5-3.9,8.6s1.4,11.4,6.1,15.4
		s9.1,6.5,11.6,7s7.7,1.6,8.8,6.8s-0.5,6.2-0.5,8s2,7.8,7.2,8.6s3,4.5,6,4.3s2.4,0.2,6.6,2.5s12.5,0.7,14.2,0
		c3.4-1.1,7-1.4,10.5-0.7c4.5,0.9,10-1.3,14.7-0.5s9.5,0.9,11.4,2.4s7.4,2.1,9.5,2.1s8.7,0.4,9.6,1.1c2.1,1.5,4.1,3.3,5.8,5.3
		c1.7,2.3,2.7,0.9,3.4,0.8s9.3-1.5,11.5,2s3.3-2.8,4.4-2s-0.6,2.9,0.4,2.8s3.2-2.3,2.2-4.2s-0.7-2.3,0.8-2.2s3.9-1.3,4.3-1.4
		s3.5-0.4,3.9-1s-0.1-3,0.5-3.4s1.3,0.5,2.7,0.7s2.7-2.3,3.3-2.4c1,0,2,0,3-0.2c0.8-0.3,1.9-2.2,2.7-2.2s5-0.7,5.7-1.6
		s6.5-2.2,7.6-2.2s3,1.4,4,2s3,0.5,3-0.8s0.7-3.5,3-2.8s1-1.4,2-1.5c1.4,0,2.8-0.8,3.5-2c1-1.6,4-0.6,4.7-1.1s1.2-0.7,2.1,0.3
		s2,0.2,2.2-1.2s2.1-2,3.2-2.3s1.9-2.3,1.9-3.7s8.6-8.5,14.1-5.9s4.2,0.9,7.4,0.9s2.9,1.4,7.3,1.1s4.4-1,7-1.7s6-3.2,6.6-4.8
		s0.8-4.1,1.9-4.5c1.5-1,2.7-2.5,3.3-4.2c0.1-0.9,0.5-5.5,2.9-4.9s6.9,2.3,10,1.3s3.7-4.9,3.7-6.1s-2.5-7.3-0.8-8s1.9-1.3,1.2-3.5
		s2.1-5.3,2.9-5.3s-0.3-2-0.3-2.7s-1-5.7-0.1-6.8s4.4-2.3,4.4-3.4c-0.1-1.5-0.1-3,0-4.5c0.2-1,0.7-2.7,1.3-2.7s-0.8-3.3,0-4.6
		s0.1-3,0.6-3.7s6.7-0.9,8.8-1.8s3.7-3.6,3.5-5s1.7-1.2,2.5-1.2s1.5-0.8,1.4-1.6v-0.1c0-0.9,1.2,0.3,1.2-0.4s-1.3-5.6-3.5-6.1
		s0.9-0.8,0.9-1.1s-1.4-3.5-3.6-2.4s-7.3-0.5-7.3-1.9s2.3-1.3,2.9-1.3s1.3-3.7-0.3-3.7s-7.4,1.7-8,0.3c0,0-1.8-3.3,0.6-3.8
		s0.6-1.7,0.1-2.4c-1-1.1-2.3-1.9-3.7-2.4c-1.6-0.4-3,1-4.3,1s-4.4-1.2-3.6-2.7s2.7-3.1,2.9-4.6s1.8-0.5,1.8-1.5s-1.9-1-2.7-1.7
		s-2.7-3.4-3.7-3.4s-0.2-3.6,0.6-4.8s-3.8-6-4.6-6s-3.1,0.7-4.2-0.2c-1.1-1-1.6-2.5-1.4-4c0.4-1-0.4-4.1-4.1-6s0.7-5.1-1.8-5.9
		s-5.8,4.8-7.1,5.1s-5.1,2.9-5.9,2.5c-0.9-0.7-2.1-0.9-3.2-0.6c-1.5,0.4-2.3-3.8-3.7-3.8s-3.3,1.7-5-0.4s1.3-2.3,1.3-2.9
		s-3.4-2.2-2.3-3.9s2.5-5,2.5-6.1s-3-4-4.8-3.8S2,299.3,1,299.3s-1.8-0.1-1.8-1.4s3.5-1.5,3.5-2s0.6-3.5,2-3.5s3.5-0.2,3.7-1
		s2.2-4.6,2.6-4.6s0.9-2,0.4-3.4s0.9-8.2,0.1-8.8s-1.7-1.1-0.9-2.4s3.1-2.8,3.1-4.1s-1.8-2.2-1.5-4.4s1.8-2,1.8-3s-0.6-8.3-1.2-9.7
		s-2.9-1.9-3.5-2.7s0.9-5.7,0.9-6.6s-1-1.9,0.6-2s1.6-5.7-1.5-4.8s-2.5,3.2-3.7,3.2s-3.2-3.4-3.7-4.4s-3.2-3.3-4.4-4.1
		s-3.9-6.4-5.4-6.8s-3.3-5.7-4.6-6.3s-5.1-4.3-7.4-5.9s-4.6-5.1-6-5.7s-5.6-3.2-7.9-3.8s-12.5-5.9-13.2-7.4s-5.3-3.3-6.7-4.3
		s0.4-1.7,1.7-1.7s0.9-2.6-0.4-3c-1.4-0.7-2.5-2-2.9-3.5c0-0.9-0.8-3-2.2-3.3s0.3-2.8-1.2-3.7s-9.8-5.4-10.2-6.5s-3.6-7-6-9.1
		s-8.3-7.4-9.1-9.1c-1.1-3.2-1.7-6.5-2-9.8c0.1-0.9-1.2-10.4-1.3-10.9s-1.5-7.2-0.1-10.6s2.3-15,2.3-15.9s-0.6-13.1-3.5-16.7
		c-2.8-3.8-0.1-6.9-3.4-13.8c-3.3-6.9-3.4-1.2-8.6-8s-6.7-2.7-8.1-5.2s-1-4.6-4.1-6.1s-11-12.3-11.8-13.5s-2-0.4-1.5-2.8
		s-3.3-0.4-2.5-6.5c-1.5-2.3-2.8-1.4-1.5-3.7s-3.2-4.4-3.1-5.9s0.5-3.8-0.2-5.4s-2.2-2.5-2.3-3s0.5-2.6-0.7-3.2
		S-136.5,6.3-139.5,6.9z"/>
	<path class="st1" d="M-163.4,354"/>
	<path class="st1" d="M-187.2,174.1c0,0,0.5,1.3-1.2,1.3s-0.4-4-2-4.1c-2.5-0.4-5.1-0.5-7.6-0.5c-3.1,0.1-5.7,0.9-7.7,0.9
		c-2.9,0.1-5.6,1.6-7.2,4.1c-2.3,3.3-12.3,3.1-13.5,3.1c-1.1,0.1-2.1,0.6-2.8,1.4c-2.3,2-5.2,3.2-8.3,3.5c-4.3,0.1-8.6,0.6-10.4,0.6
		c-1.8,0-4.2,0.1-6.5,0c-2.3-0.1-4.6-0.3-6.3-0.3s-3,0.9-5,0.9s-9.7-0.9-12,2.9c-2.3,3.8-0.9,7.9,1,13c1.9,5.1,1.4,14.1,1.4,15.7
		s-0.9,8.7,2.4,12.9c3.3,4.2,8.8,14.8,9.3,17.3s5.2,8.5,5.2,10.1c0,0-0.1,3.3,8.7,4.1c5.3,0.6,10.7,1.5,15.9,2.7
		c1.6,0.2,9.9,2.6,11.7,3.7s5.9,4.1,11.5,1.4c5.6-2.7,17.1-1.4,19.9-2.6s6.4,0.6,8.3-0.1s3.4-3.9,4.3-4.4s4.2-3.4,6-3.7
		s1.2-3.9,2.4-4.7s2.7-0.7,2.5-2.5s1.5-0.9,0.8-4.2s-1.5-3.5-2.3-6.2s2.2-2.4,2.5-3.3s0.5-9.3,2.5-11.2s0.4-6.5,0-8.1
		c-0.3-2.1-0.3-4.3,0.1-6.4c0.4-1.1-0.5-3.8-2.3-6.9s2.2-2.4-2.5-6.6c-1.2-1.1-0.9-5.9-1.5-7.4s-4.7-3.6-4.7-4.4s1.2-3-3.4-5.7
		s-4.2-2.2-5.1-3.3S-188.2,171.8-187.2,174.1z"/>
	<path class="st1" d="M98.4,129.8c0,0-2.7-5.1-5.5-5c-3.9,0.1-7.8-0.4-11.6-1.5c-5.6-1.3-15.6,2.3-17.7,6.5c-0.5,1.1-2.1,0.3-2.1,0
		c-0.5,1.1-0.5,2.5,0,3.6c-0.9,1.1-4.2,0.9-3.2,4.8s1.7,4.1,1.7,6.2s0.9,3.6-3.9,7.1c-4.6,4.1-2.5,7.9-4.9,10.2s-6.3-1.2-6.6,4.2
		s0.9,4.2-0.5,8.5c1.5,4.6,8,0.3,10.3,3.7s-1.1,3.9,1.8,5.2s4,5.3,3.2,10s3.5,4.1,5.5,3.7s5.2,3.2,6.8,3.2s3.4-3.4,5.2-3.3
		s2.8,3.9,4.2,3.8s3.2-1,4-0.9s4.2,4.6,5.9,5.7c0,0,5.9,5.8,9.1,4.6s3.5-1.6,6.4-1.2s5.8-1.5,8.3-1.3s-0.1,2,1.8,1.6s2.1-2.1,5-1.7
		s2.6-2.3,4.3-2.3s1.5,2.7,3.2,3.3s2.4,2.4,4.2,2.9s7.1,0.1,8.5,1.3s5.3,1.5,10.2,2.9s5.2,0.1,7.1-1.4c1.3-1.2,2.7-2.2,4.3-2.9
		c1.1-0.3-0.1-4.7,0.9-5.7c1-1,4.2-4.6,4.2-6.6s0.1-3.9,1.8-3.9s7.2,2.2,6.6-2.4s0.8-7.3-2.6-7.7s-5.5-1.2-5.5-2.7s0.7-4.2-2.2-4.2
		s-1.6-4.9-1.6-6.2s-0.5-4.7-2.5-5.4s-0.8-9.1-5.1-9.6s-3.6-5.7-5.4-5.7s-6.7-3.6-7.8-3.6s-6.3-1-7.3-1.7s-0.5-2.9-7.3-2.7
		s-9.5-3.5-12-3.5s-3.9-0.4-3.9-2.5s-1.2-4.4-4.1-4.4s-7.6-0.5-8.8-1.1C100.1,131.1,99.2,130.5,98.4,129.8z"/>
	<path class="st1" d="M177.3,177.2c-1.2,0.3-2.4,0.9-3.4,1.6c-1.2,0.1-4.6,2.7-2.1,2.7s3-0.8,4,0s3.3-1.4,3.3-2.2
		S178.9,176.6,177.3,177.2z"/>
	<path class="st1" d="M113.5,228.6c0,0-2.1-1.2-1-2.9c0.5-1.8-2.9-1.2-2.9,0.9s-3,2.5-3,4.3s1.7,5.4,3.5,5.4s1.4,1.8,2.3,1.2
		s-0.4-2.8,1.2-3.2s2.5-3.7,1.8-4.5C114.8,229.4,114.2,229,113.5,228.6z"/>
	<path class="st1" d="M133.8,308.9c0,0-1.2-3.5-3.1-3.8s-4.5-1-4.8-1.7s-3.5,0.8-4,2s-2.9,1.1-2.9,3.5s1.3,4.5,1.3,6.3
		s3.2,4.3,4.3,4.3s5.6,3.5,6.7,3.2s1.3-1.7,2.6-1.7s1.6-1.7,2-3.1s2.1-0.7,1.8-2.1s-2-1.9-1.2-3.5S136.2,309.8,133.8,308.9z"/>
	<path class="st1" d="M207.2,276.2c0,0-0.8-1.5-1.4-1.5s-0.3,1.1-0.8,1.5s-4.6,0.7-4.6,2.1c-0.1,1.3-1,2.3-2.3,2.5
		c-0.8,0-7.1-0.5-7.4,0.5c-0.3,1.7-0.3,3.4,0,5.1l0.2,0.3c0,0-1,4.6-2,4.6s-6.5,1-6.5,2.3s-0.1,5.7,0.7,6.1s-2.3,5.7-2.7,6.8
		s0,3.4,0,4s-3.6,4.3-3.6,5.7s-0.2,4.5,0.7,5s0.2,6.7-0.7,8.7c0.3,0.9,3,2.9,3.3,4.5c0.4,1.8,0.7,3.6,0.9,5.4c0,1.4-0.5,2.9,1.1,4.5
		s3.7,7.5,7.4,7.5s11.2,0.2,13.3,5.5c4.2,0.7,6.6,0,6.8-0.5c1.4,0.1,3.7,5.5,4.8,7.2s7.1,6.5,9.8,6.2s12.1,7.9,13.9,7.8
		s6.8-2.9,9.2-2.8s6.4,3.6,7.6,3.6s0.9-4.9,2.6-4.9s2,2.2,2.8,2.2s1.1-2.7,3.3-2.7c1.8,0,3.7,0.3,5.4,0.9c1.6,0.7,3.3,0.9,5,0.5
		c1.8-0.4,2.8-2.7,1.2-2.7s-3-0.4-3-0.9s2-2.1,1.2-2.9s0.5-2.9,1.8-2.7s14.1,0.3,15.6,1s9.8,1,11.9-0.5s3.2-7.1,2.8-8.6
		s2.9-4.8,4.3-5.8s-0.8-3.9-0.8-4.2s0.2-1.9,2-0.9s4.4,2.9,6.8,2.3s5.9-3.9,3.2-6s5.7-4,6.4-4.7s1.1-2.7,0-3.5s-3.8-2.7-3.4-4
		s3.6-3.8,3.6-5.9s0-3.5,1.1-3.9s-2-4.4-2.2-6.5s-0.3-5,1.3-6.2s3.1-6.2,3.1-7.1s1.7-4.7-1.3-5.5s-5-4.8-6.7-5s-3.8-4.6-6-4.6
		s-8.7-2.7-11.6-7.2s-4.3-7.1-4.3-8.6s-1.8-2.9-1.9-4.7s0-4.3-1.4-4.5s-2.5,2.4-5.3,2.5s-4.8-0.4-6,0c-1.3,0.4-2.5,1.2-3.4,2.2
		c-1.7,1.5-5.4,0.2-6,0.2s-2.2,0.3-3.9,0.5s-5-1.5-5.3,0.6s-0.2,2.5-1,2.5s-2,0-1.4-0.9s1.3-2-0.1-2.1s-2.8-0.4-2.8-0.9
		s-2.5-0.7-3.7,0.3s-0.9-0.6-3.2,0.2s-3.4,1.6-2.9,3.6s2.2,3.4,0.8,4c-0.7,0.5-1.6,0.7-2.5,0.7c-1.6,0.1-2.1-1.7-2.7-1.7
		s-3.5-1.1-3.8,0s-3,0.2-3.5,0.3s-1.8,1-1.8-0.2c-0.3-1.6-1.7-2.8-3.3-2.8c-1.7,0-5-0.9-6,1.4c-1,2.3-2.5,1.7-4.4,1.7
		s-5.4,0.9-6.1,0.4c-1.2-0.9-2.8-1.1-4.2-0.5C213.9,273.7,208.9,277.4,207.2,276.2z"/>
	<path class="st1" d="M288.8,231.5c0,0,2.9,6.5,4.6,10.1s2.7,4.3,3.3,5.8s3.3,4.5,0.8,6.8s-6.1,5.5-7.2,5.8c-2.5,0.6-5,0.9-7.6,0.9
		c-1.5-0.2-3.7-2.9-2.9-5.2s-0.3-5.4,0.3-6.3c1.5-1.7,3.1-3.4,4.8-5c0.8-0.7,1.7-4-1.1-2.7s0.3-2.9,0.3-2.9s1.9-2.5-2.6-5.5
		c-0.3-0.2-0.4-0.7-0.2-1l0.3-0.3C283.5,230.9,288.2,229.9,288.8,231.5z"/>
	<path class="st1" d="M284.5,222.9c-0.6,0.3-2.5-0.9-3.1,0s-0.7,3.9,0.4,3.9c1.2-0.2,2.4-0.4,3.5-0.8c1.4-0.3,2.2-1.1,2-2
		c-0.3-1-1.4-1.6-2.4-1.3C284.8,222.8,284.6,222.8,284.5,222.9z"/>
	<path class="st1" d="M230.4,566.2c0,0-3.4-1.1-2.5-3.2s-1.2-2.7-2.9-1s-2.8,0.4-3.3,0.5s-2,3.9-3.7,3.6s-1,1.6-2,1.6
		s-4.2,1.6-4.9,0s-1.1-3-2.4-3s-4.1-0.1-4.3,1.1s-4.6,9.5-4.6,11.8s1.2,8.4-0.7,8.4s-2.5,4-2.5,4.7c-0.6,1.8-1.5,3.5-2.6,5
		c-0.7,0.7-4.1,7.1,0,10s4.5,2.3,5,4.2s3.9,1.3,6,1.6s5.5,3.6,6.2,3.8s5.7,2.8,9.2,2.1s7,0.5,8.8-1.6s3.3-2.8,6.7-3.9
		c3.1-1,5.7-3.2,7.3-6c1.1-2.2,1.8-4.6,2.2-7c0-1.3,3.5-4.1,6.6-5.7s2-8.3,3.7-9s1.4-2.4,0-4.3s-6.3-2.4-6.4-3.4s-1.7-4.8-5.4-5.2
		s-5.3,0.8-5.7-0.8S232.8,566,230.4,566.2z"/>
	<path class="st1" d="M385.5,391.9c0,0-3.6-2.3-7-2.2s-9.8,0.4-11.3,0s-2.2,1.6-1.6,3.8s-1.7,4.6-1.7,4.6s0.7,4.2,3.9,4.3
		s3.3,2.5,5.7,2.5s6.1-1.3,8.1,0s2.9,2.6,5.4,1.5s3.5-2.5,2.5-6.4S387.9,391.9,385.5,391.9z"/>
	<path class="st1" d="M548.1,620.4c0,0-6.1-5.1-8.3-5.1c-1.4-2.6-3.6-1.3-6.4-1.2s-8.7-1.2-10.3-0.5s-7.1,0.5-7.8,2.2
		s-3.3,1.5-4.6,2.8s-3.9,2.6-4.8,3.9c-1,1.9,1.3,3.9,3.5,3.9s6.5,2.5,7,3.2s9.2,3.3,10.5,3.3s2.4,2.2,2.4,3s2.5-0.9,3.8-0.9
		c2.5,0.1,5,0.5,7.4,1.1c2.2,0.6,3.8,2.1,5.5,1.9s2.6-1.3,4.1,0s4.2,1.3,4.2-1.5s0.1-4.5,2.2-4.5s2.2-3.6,0-3.8s-2.6-0.7-2.6-3.2
		S551.8,621.1,548.1,620.4z"/>
	<path class="st1" d="M706.9,348.3c0,0-3.5,4.9,0,4.9s6.1,2.9,1.7,7.8s0,8.7-7,9s-7,11.3-13.3,15.4s-4.1,9.6-10.1,11
		s-12.2,1.5-12.5,3.5s-3.2,3.2-3.5,9.8s-7,8.1-7,10.4s-8.1,9.6-8.1,14.2s-6.1,7.3-9.8,7.3s-7,5.5-14.2,5.5s-15.4-0.9-26.7,5.5
		s-41.7-9.8-41.7-17.7s9.8-11.3,12.8-12.8s16.8-9.6,16.8-12.2s5.8-0.9,5.8-4.3s-3.2-8.4,0-8.4s6.7,0,6.7,0.9s2.9,4.6,5.8,0.9
		s8.1-0.3,10.4-1.7s5.5-7.8,5.5-11s4.1-8.7,4.1-9.6s-4.6-5.2-1.2-6.1s11.4-7.8,11.4-7.8s5.7-1.8,8.2-3.4s2.8-3.5,5-3.5
		s5.3,0.1,5.3-1.1s3.9-0.1,5.8-1.2s3-3.5,4.3-3.5s0.7-5.3,2.3-5.4s6.6-1.8,8.8,0s7.9,2.7,9,1.5s3.9-1.4,8.5,2.9s5.8,2.6,6.7,2.3
		c1.9-0.7,3.5-1.9,4.8-3.5c0.5-1,1.6-1.6,2.7-1.5C704.7,346.4,707.2,346.8,706.9,348.3z"/>
	<path class="st1" d="M427.4-72.4c0,0-3.6-6.5-5.5-6.5s-3.1,2.8-4.9,2.8s-5.9,1.7-6.1,3.8s-1,8.2,2.5,9.8s3.3-0.8,3.3-1.7
		s2.5-2.2,4-1.8s3.6,3.9,1.5,4.8s-2.9,2.3-1.2,2.7s4.7-1.4,4.8-3c0.3-1.8,1.2-3.4,2.5-4.7C428.9-66.5,429.1-69.6,427.4-72.4z"/>
	<path class="st1" d="M223.3-83.6c-2.8-2-5.3-4.3-7.4-7c-2.8-3.7-17.9-7.4-26.7,0s-10.5,8.1-10.2,16.5s4.9,10.2,7,12.3
		s4,0.9,5.6,2.8s5.1,9.5,11.1,8.1s7.7,0.7,14.2-1.4s14.3-4,14.9-6.7s2.5-6.3,4.6-7.4S229.6-83.8,223.3-83.6z"/>
	<g>
		<text transform="matrix(1 0 0 1 232.8 235.4001)" class="st2 st3 st4">Baltra</text>
	</g>
	<g>
		<text transform="matrix(1 0 0 1 241.4052 636.111)" class="st2 st3 st5">Floreana</text>
	</g>
	<g>
		<text transform="matrix(1 0 0 1 558.0553 671.6211)" class="st2 st3 st5">Española</text>
	</g>
	<g>
		<text transform="matrix(1 0 0 1 360.4152 441.2811)" class="st2 st3 st5">Santa Fé</text>
	</g>
	<g>
		<text transform="matrix(1 0 0 1 115.5852 406.8511)" class="st2 st3 st5">Santa Cruz</text>
	</g>
	<rect x="-355.7" y="-256.6" class="st6" width="200.8" height="156.5"/>
	<path class="st1" d="M-251.1-138.3c0,0-0.4-18.9-6.7-18.9s-30.2,6.3-18.9,21.4c11.3,15.1,10.5-6.7,13.8-6.3s-1.3,13.8,3.4,13.8
		S-250.7-133.3-251.1-138.3z"/>
	<text transform="matrix(1 0 0 1 -270.4581 -209.8931)" class="st7 st3" style="font-size:20.12px;">Darwin</text>
	<text transform="matrix(1 0 0 1 -236.8605 -157.2428)" class="st7 st3" style="font-size:20.12px;">Wolf</text>
	<path class="st1" d="M-279.9-207.4c0,0-3.4-7.1-9.2-7.1c-5.8,0-29.7,16.3-13.8,27.7C-287-175.4-279.9-207.4-279.9-207.4z"/>
	<text transform="matrix(1 0 0 1 -330.4079 297.6858)" class="st2 st3 st5">Fernandina</text>
	<g>
		<text transform="matrix(1 0 0 1 115.5856 123.0514)" class="st2 st3 st5">Santiago</text>
	</g>
	<g>
		<text transform="matrix(1 0 0 1 636.7762 310.3831)" class="st2 st3 st5">San Cristobal</text>
	</g>
	<g>
		<text transform="matrix(1 0 0 1 236.6588 -35.3147)" class="st2 st3 st5">Marchena</text>
	</g>
	<g>
		<text transform="matrix(1 0 0 1 434.6241 -78.8789)" class="st2 st3 st5">Genovesa</text>
	</g>
	<text transform="matrix(1 0 0 1 -308.2807 720.1617)" class="st2 st3" style="font-size:64.21px;">PACIFIC OCEAN</text>
	<g>
		<text transform="matrix(1 0 0 1 -123.4146 528.8345)" class="st2 st3 st5">Isabela</text>
	</g>
	<g>
		<text transform="matrix(1 0 0 1 342.5698 -57.3006)" class="st7 st3" style="font-size:14px;">El Barranco </text>
	</g>
	<g>
		<text transform="matrix(1 0 0 1 400.8895 -42.3149)" class="st7 st3 st9">DARWIN BAY</text>
	</g>
	<g>
		<text transform="matrix(1 0 0 1 -341.6344 85.2709)" class="st7 st3 st9">Pta. Vicente Roca</text>
	</g>
	<g>
		<text transform="matrix(1 0 0 1 -282.2805 174.1861)" class="st7 st3 st9">Punta Espinosa</text>
	</g>
	<g>
		<text transform="matrix(1 0 0 1 -153.4717 176.6724)" class="st7 st3 st9">TAGUS COVE</text>
	</g>
	<g>
		<g>
			<text transform="matrix(1 0 0 1 -151.0967 225.2412)" class="st7 st3 st9">URBINA</text>
			<text transform="matrix(1 0 0 1 -151.0967 239.6412)" class="st7 st3 st9">BAY</text>
		</g>
	</g>
	<g>
		<text transform="matrix(1 0 0 1 -173.9 263.8965)" class="st7 st3 st9">Punta Mangle</text>
	</g>
	<g>
		<text transform="matrix(1 0 0 1 -69.0002 165.2)" class="st7 st3 st8">BUCCANEER COVE</text>
	</g>
	<g>
		<text transform="matrix(1 0 0 1 -35.2 131.5584)" class="st7 st3 st9">Espumilla Beach</text>
	</g>
	<g>
		<text transform="matrix(1 0 0 1 -27.1436 178.5405)" class="st7 st3 st9">Puerto Egas</text>
	</g>
	<g>
		<text transform="matrix(1 0 0 1 173.9042 176.6149)" class="st7 st3 st9">SULLIVAN BAY</text>
	</g>
	<g>
		<text transform="matrix(1 0 0 1 178.3457 187.9636)" class="st7 st3 st9">Bartholomew</text>
	</g>
	<g>
		<text transform="matrix(1 0 0 1 -136.6859 319.0999)" class="st7 st3 st9">ELIZABETH BAY</text>
	</g>
	<g>
		<text transform="matrix(1 0 0 1 -220.4272 350.9139)" class="st7 st3 st9">Punta Moreno</text>
	</g>
	<g>
		<text transform="matrix(1 0 0 1 -146.1287 398.2996)" class="st7 st3 st9">Sierra Negra</text>
	</g>
	<g>
		<g>
			<text transform="matrix(1 0 0 1 -155.9 464.7211)" class="st7 st3 st9">Tortoise Breeding Center</text>
		</g>
	</g>
	<g>
		<g>
			<text transform="matrix(1 0 0 1 -59.5072 492.5668)" class="st7 st3 st9">Wetlands</text>
		</g>
	</g>
	<g>
		<g>
			<text transform="matrix(1 0 0 1 -35.4858 443.9282)" class="st7 st3 st9">Wall of Tears</text>
		</g>
	</g>
	<g>
		<g>
			<text transform="matrix(1 0 0 1 -3.9141 470.9736)" class="st7 st3 st9">Tintoteras</text>
		</g>
	</g>
	<g>
		<g>
			<text transform="matrix(1 0 0 1 47.9999 270.6877)" class="st2 st3 st5">Rabida</text>
		</g>
	</g>
	<g>
		<text transform="matrix(1 0 0 1 161.497 217.1985)" class="st7 st3 st9">Chinese Hat</text>
	</g>
	<g>
		<text transform="matrix(1 0 0 1 166.3998 246.7438)" class="st7 st3 st9">Daphne</text>
	</g>
	<g>
		<text transform="matrix(1 0 0 1 299.5434 223.6794)" class="st10 st3 st9">North Seymour </text>
	</g>
	<g>
		<text transform="matrix(1 0 0 1 299.9915 234.7436)" class="st11 st3 st9">Mosquera Islet</text>
	</g>
	<g>
		<text transform="matrix(1 0 0 1 307.448 258.0997)" class="st7 st3 st9">Punta Carrion</text>
	</g>
	<g>
		<text transform="matrix(1 0 0 1 337.0381 298.8574)" class="st7 st3 st9">South Plaza</text>
	</g>
	<g>
		<text transform="matrix(1 0 0 1 256.2622 281.3005)" class="st7 st3 st12">Black Turtle</text>
		<text transform="matrix(1 0 0 1 270.9622 289.3005)" class="st7 st3 st12">Cove</text>
	</g>
	<g>
		<text transform="matrix(1 0 0 1 170.4 269.0999)" class="st7 st3 st13">Bachas Beach</text>
	</g>
	<g>
		<text transform="matrix(1 0 0 1 114.6 298.8573)" class="st7 st3 st9">Cerro Dragón </text>
	</g>
	<g>
		<g>
			<text transform="matrix(1 0 0 1 94.6 343.8774)" class="st2 st3 st13">PINZÓN</text>
		</g>
	</g>
	<g>
		<text transform="matrix(1 0 0 1 262.8509 315.9211)" class="st7 st3 st9">Twin Craters</text>
	</g>
	<g>
		<text transform="matrix(1 0 0 1 263.9698 331.9143)" class="st7 st3 st9">Highlands</text>
	</g>
	<g>
		<text transform="matrix(1 0 0 1 200.3459 377.014)" class="st7 st3 st9">Tortuga Bay</text>
	</g>
	<g>
		<text transform="matrix(1 0 0 1 286.8511 366.5857)" class="st7 st3 st9">Charles Darwin Station </text>
	</g>
	<g>
		<text transform="matrix(1 0 0 1 204.8666 362.7003)" class="st7 st3 st9">Pto. Ayora</text>
	</g>
	<g>
		<text transform="matrix(1 0 0 1 715.2787 360.6116)" class="st7 st3 st9">Pitt Point</text>
	</g>
	<g>
		<text transform="matrix(1 0 0 1 589.6003 357)" class="st7 st3 st9">Cerro Brujo</text>
	</g>
	<g>
		<text transform="matrix(1 0 0 1 513.2164 391.649)" class="st7 st3 st9">Leon Dormido</text>
	</g>
	<g>
		<text transform="matrix(1 0 0 1 527.6593 406.113)" class="st7 st3 st9">Isla Lobos</text>
	</g>
	<g>
		<text transform="matrix(1 0 0 1 625.8093 417.113)" class="st7 st3 st9">El Junco</text>
	</g>
	<g>
		<text transform="matrix(1 0 0 1 654.2529 436.2811)" class="st7 st3 st9">Galapaguera</text>
	</g>
	<g>
		<text transform="matrix(1 0 0 1 575.1001 459.7665)" class="st7 st3" style="font-size:15px;">Interpretation </text>
		<text transform="matrix(1 0 0 1 575.1001 477.7665)" class="st7 st3" style="font-size:15px;">Center</text>
	</g>
	<g>
		<text transform="matrix(1 0 0 1 509.4334 436.2001)" class="st7 st3 st9">Puerto </text>
		<text transform="matrix(1 0 0 1 509.4334 450.6001)" class="st7 st3 st9">Baqueizo</text>
		<text transform="matrix(1 0 0 1 509.4334 465.0001)" class="st7 st3 st9"> Moreno</text>
	</g>
	<g>
		<text transform="matrix(1 0 0 1 545.5259 616.6003)" class="st7 st3 st9">GARDENS BAY</text>
	</g>
	<g>
		<text transform="matrix(1 0 0 1 563.8069 632.6001)" class="st7 st3 st9">Osborn Islet</text>
	</g>
	<g>
		<text transform="matrix(1 0 0 1 423.8832 626.3921)" class="st7 st3 st9">Punta Suares</text>
	</g>
	<g>
		<text transform="matrix(1 0 0 1 253.8002 559.7001)" class="st7 st3 st9">Devils`s Crown </text>
	</g>
	<g>
		<text transform="matrix(1 0 0 1 232.4052 598.1)" class="st7 st3 st9">Baroness`Observatory</text>
	</g>
	<g>
		<text transform="matrix(1 0 0 1 127.5701 563.7004)" class="st7 st3 st9">Punta Cormorant</text>
	</g>
	<g>
		<text transform="matrix(1 0 0 1 127.9884 576.2656)" class="st7 st3 st9">Post Ofiice Bay</text>
	</g>
	<path class="st7" d="M560.7,428c0.1-0.1,0.2-0.2,0.3-0.3h0.1c0.7,0.3,1.3,0.5,2,0.8s1.4,0.6,2.1,0.8c0.1,0,0.1,0,0.2,0
		c0.1-0.1,0.1-0.1,0.2-0.2c0.1-0.1,0.2-0.1,0.3,0s0.1,0.2,0,0.3l-0.1,0.1c0.2,0.1,0.4,0.1,0.5,0.2c0.2,0.1,0.3,0.1,0.5-0.1
		c0.5-0.5,1-1,1.5-1.6c0.2-0.2,0.4-0.3,0.6-0.3c0.5,0,0.8,0.4,0.6,0.8c0,0.2-0.1,0.3-0.3,0.5c-0.5,0.5-1.1,1.1-1.6,1.6
		c-0.1,0.1-0.1,0.1,0,0.2c0.1,0.2,0.2,0.5,0.3,0.8c0-0.1,0.1-0.1,0.1-0.2c0.1-0.1,0.2-0.1,0.3,0s0.1,0.2,0,0.3l0,0
		c-0.2,0.2-0.2,0.3-0.1,0.6c0.5,1.2,1,2.5,1.5,3.7c0,0.1,0,0.1,0,0.2c-0.1,0.1-0.2,0.2-0.3,0.3c-1.1-1.4-2.2-2.9-3.5-4.1
		c0,0-0.1,0-0.1,0.1c-0.5,0.5-1,1-1.5,1.5c-0.2,0.2-0.3,0.3-0.6,0.4c0,0.1,0.1,0.1,0.1,0.1c0.3,0.5,0.6,1,0.9,1.5c0,0.1,0,0.1,0,0.2
		c-0.1,0.1-0.2,0.2-0.3,0.3c-0.1-0.1-0.2-0.2-0.3-0.3c-0.3-0.4-0.7-0.9-1-1.3c-0.1-0.1-0.1-0.1-0.2,0c-0.2,0.1-0.4,0.2-0.6,0.3h-0.1
		c0.1-0.3,0.3-0.6,0.4-0.8c-0.4-0.3-0.7-0.6-1.1-0.9c-0.2-0.1-0.4-0.3-0.5-0.4c-0.1-0.1-0.1-0.1,0-0.2c0.1-0.1,0.1-0.1,0.2-0.2
		c0.1-0.1,0.1-0.1,0.2,0c0.3,0.2,0.6,0.4,0.9,0.5c0.2,0.1,0.4,0.2,0.6,0.4c0,0,0.1,0,0.1,0.1c0-0.3,0.3-0.5,0.5-0.6
		c0.5-0.5,1-1,1.5-1.4c0,0,0.1,0,0.1-0.1C563.6,430.2,562.2,429.1,560.7,428z"/>
	<path class="st7" d="M284.6,250.8c0.1-0.1,0.2-0.2,0.3-0.3h0.1c0.7,0.3,1.3,0.5,2,0.8s1.4,0.6,2.1,0.8c0.1,0,0.1,0,0.2,0
		c0.1-0.1,0.1-0.1,0.2-0.2c0.1-0.1,0.2-0.1,0.3,0s0.1,0.2,0,0.3l-0.1,0.1c0.2,0.1,0.4,0.1,0.5,0.2c0.2,0.1,0.3,0.1,0.5-0.1
		c0.5-0.5,1-1,1.5-1.6c0.2-0.2,0.4-0.3,0.6-0.3c0.5,0,0.8,0.4,0.6,0.8c0,0.2-0.1,0.3-0.3,0.5c-0.5,0.5-1.1,1.1-1.6,1.6
		c-0.1,0.1-0.1,0.1,0,0.2c0.1,0.2,0.2,0.5,0.3,0.8c0-0.1,0.1-0.1,0.1-0.2c0.1-0.1,0.2-0.1,0.3,0s0.1,0.2,0,0.3l0,0
		c-0.2,0.2-0.2,0.3-0.1,0.6c0.5,1.2,1,2.5,1.5,3.7c0,0.1,0,0.1,0,0.2c-0.1,0.1-0.2,0.2-0.3,0.3c-1.1-1.4-2.2-2.9-3.5-4.1
		c0,0-0.1,0-0.1,0.1c-0.5,0.5-1,1-1.5,1.5c-0.2,0.2-0.3,0.3-0.6,0.4c0,0.1,0.1,0.1,0.1,0.1c0.3,0.5,0.6,1,0.9,1.5c0,0.1,0,0.1,0,0.2
		c-0.1,0.1-0.2,0.2-0.3,0.3c-0.1-0.1-0.2-0.2-0.3-0.3c-0.3-0.4-0.7-0.9-1-1.3c-0.1-0.1-0.1-0.1-0.2,0c-0.2,0.1-0.4,0.2-0.6,0.3h-0.1
		c0.1-0.3,0.3-0.6,0.4-0.8c-0.4-0.3-0.7-0.6-1.1-0.9c-0.2-0.1-0.4-0.3-0.5-0.4s-0.1-0.1,0-0.2s0.1-0.1,0.2-0.2
		c0.1-0.1,0.1-0.1,0.2,0c0.3,0.2,0.6,0.4,0.9,0.5c0.2,0.1,0.4,0.2,0.6,0.4c0,0,0.1,0,0.1,0.1c0-0.3,0.3-0.5,0.5-0.6
		c0.5-0.5,1-1,1.5-1.4c0,0,0.1,0,0.1-0.1C287.5,253,286,251.9,284.6,250.8z"/>
	<g>
		<text transform="matrix(1 0 0 1 91.0196 593.6003)" class="st7 st3 st9">Pto. Velasco Ibarra</text>
	</g>
</g>
<g id="pop51" class="st14">
	<circle id="p4-2_10_" class="st15" cx="589.6" cy="403.1" r="4.5"/>
	<text transform="matrix(1 0 0 1 588.023 405.3643)" class="st16 st3" style="font-size:6.5905px;">8</text>
</g>
<g id="pop50" class="st14">
	<circle id="p4-2_1_" class="st15" cx="658.8" cy="353" r="4.5"/>
	<text transform="matrix(1 0 0 1 657.1002 354.9385)" class="st16 st3" style="font-size:6.2087px;">8</text>
</g>
<g id="pop49" class="st14">
	<circle id="p4-2_2_" class="st15" cx="710.2" cy="356.1" r="4.5"/>
	<text transform="matrix(1 0 0 1 708.4963 358.1977)" class="st16 st3" style="font-size:6.6189px;">8</text>
</g>
<g id="pop48" class="st14">
	<circle id="p4-2_4_" class="st15" cx="615.2" cy="413.6" r="4.5"/>
	<text transform="matrix(1.1418 0 0 1 612.9756 415.9756)" class="st16 st3" style="font-size:6.7828px;">8</text>
</g>
<g id="pop47" class="st14">
	<circle id="p4-2_5_" class="st15" cx="642.7" cy="434.1" r="4.5"/>
	<text transform="matrix(1.1733 0 0 1 640.0205 437.2646)" class="st16 st3" style="font-size:8.8613px;">8</text>
</g>
<g id="pop46" class="st14">
	<circle id="p4-2_6_" class="st15" cx="570.6" cy="443.9" r="4.5"/>
	<text transform="matrix(1.3129 0 0 1 567.293 447.2598)" class="st16 st3" style="font-size:8.999px;">8</text>
</g>
<g id="pop45" class="st14">
	<circle id="p4-2_8_" class="st15" cx="272.4" cy="374.7" r="4.5"/>
	<text transform="matrix(1.335 0 0 1 270.2178 377.3027)" class="st16 st3 st17">8</text>
</g>
<g id="pop44" class="st14">
	<circle id="p4-2_9_" class="st15" cx="280.3" cy="362.7" r="4.5"/>
	<text transform="matrix(1.2688 0 0 1 277.6396 365.6563)" class="st16 st3 st18">8</text>
</g>
<g id="pop43" class="st14">
	<circle id="p4-2_7_" class="st15" cx="387" cy="402.8" r="4.5"/>
	<text transform="matrix(1.3101 0 0 1 385.0938 404.7285)" class="st16 st3 st19">8</text>
</g>
<g id="pop42" class="st14">
	<circle id="p4-3" class="st15" cx="255.6" cy="310.7" r="4.5"/>
	<text transform="matrix(1.049 0 0 1 254.0801 312.8828)" class="st16 st3 st20">2</text>
</g>
<g id="pop41" class="st14">
	<circle id="p4-3_1_" class="st15" cx="254.3" cy="327.4" r="4.5"/>
	<text transform="matrix(1.2101 0 0 1 252.042 329.3584)" class="st16 st3 st21">2</text>
</g>
<g id="pop40">
	<circle id="p37" class="st15" cx="192.9" cy="295.2" r="4.5"/>
	<text transform="matrix(1.0241 0 0 1 190.7178 296.418)" class="st22 st23 st24">40</text>
</g>
<g id="pop39">
	<circle id="p36" class="st15" cx="260.1" cy="266.2" r="4.5"/>
	<text transform="matrix(1 0 0 1 257.093 267.8479)" class="st22 st23 st25">39</text>
</g>
<g id="pop38">
	<circle id="p35" class="st15" cx="155.2" cy="214" r="4.5"/>
	<text transform="matrix(1 0 0 1 152.1227 215.7475)" class="st22 st23 st25">38</text>
</g>
<g id="pop37">
	<circle id="p34" class="st15" cx="171.9" cy="183.9" r="4.5"/>
	<text transform="matrix(1.0416 0 0 1 169.3867 185.4326)" class="st22 st23 st26">37</text>
</g>
<g id="pop36">
	
		<ellipse id="p33" transform="matrix(0.1602 -0.9871 0.9871 0.1602 -33.9096 307.744)" class="st15" cx="163.9" cy="173.8" rx="4.5" ry="4.5"/>
	<text transform="matrix(1 0 0 1 160.9969 175.3763)" class="st22 st23 st25">33</text>
</g>
<g id="pop35" class="st14">
	<circle id="p4-3_3_" class="st15" cx="283" cy="265.8" r="4.5"/>
	<text transform="matrix(1.5018 0 0 1 281.2891 267.4512)" class="st16 st3 st27">2</text>
</g>
<g id="pop34" class="st14">
	<circle id="p4-3_6_" class="st15" cx="111.9" cy="238.6" r="4.5"/>
	<text transform="matrix(1.8112 0 0 1 110.0205 239.6416)" class="st16 st3 st28">2</text>
</g>
<g id="pop33" class="st14">
	<circle id="p4-3_4_" class="st15" cx="219" cy="242.6" r="4.5"/>
	<text transform="matrix(1.3496 0 0 1 216.8418 244.4668)" class="st16 st3 st29">2</text>
</g>
<g id="pop32" class="st14">
	<circle id="p4-3_5_" class="st15" cx="288.3" cy="219.1" r="4.5"/>
	<text transform="matrix(1.5846 0 0 1 285.6445 221.251)" class="st16 st3 st30">2</text>
</g>
<g id="pop31" class="st14">
	<circle id="p4-4" class="st15" cx="245.6" cy="555.2" r="4.5"/>
	<text transform="matrix(1.1149 0 0 1 243.9053 557.5039)" class="st16 st3" style="font-size:6.1581px;">5</text>
</g>
<g id="pop30" class="st14">
	<circle id="p4-5" class="st15" cx="555.6" cy="629.6" r="4.5"/>
	<text transform="matrix(1.4044 0 0 1 553.9531 631.4287)" class="st16 st3" style="font-size:4.8861px;">7</text>
</g>
<g id="pop29" class="st14">
	<circle id="p4-5_1_" class="st15" cx="537" cy="612.9" r="4.5"/>
	<text transform="matrix(1.3522 0 0 1 534.7451 615.0654)" class="st16 st3" style="font-size:5.8753px;">7</text>
</g>
<g id="pop28" class="st14">
	<circle id="p4-7" class="st15" cx="219" cy="572.4" r="4.5"/>
	<text transform="matrix(1.3658 0 0 1 216.9297 574.1719)" class="st16 st3" style="font-size:5.6598px;">4</text>
</g>
<g id="pop27" class="st14">
	<circle id="p4-8" class="st15" cx="505.7" cy="622.6" r="4.5"/>
	<text transform="matrix(1.2739 0 0 1 503.8867 624.3477)" class="st16 st3" style="font-size:5.6878px;">6</text>
</g>
<g id="pop26" class="st14">
	<circle id="p4-9" class="st15" cx="226.6" cy="560.7" r="4.5"/>
	<text transform="matrix(1 0 0 1 224.027 564.0168)" class="st16 st3" style="font-size:9.6569px;">3</text>
</g>
<g id="pop25">
	<circle id="p26" class="st15" cx="226.9" cy="-60.7" r="4.5"/>
	<text transform="matrix(1 0 0 1 222.761 -60.0316)" class="st22 st23 st25">25</text>
</g>
<g id="pop24">
	<circle id="p25" class="st15" cx="422" cy="-61.6" r="4.5"/>
	<text transform="matrix(1.066 0 0 1 419.707 -60.7471)" class="st22 st23" style="font-size:4.4667px;">24</text>
</g>
<g id="pop23">
	<circle id="p23" class="st15" cx="-283.5" cy="-185.2" r="7.7"/>
	<text transform="matrix(1 0 0 1 -287.1634 -183.7048)" class="st22 st23 st25">23</text>
</g>
<g id="pop22">
	<circle id="p24" class="st15" cx="-250.1" cy="-157.2" r="7.7"/>
	<text transform="matrix(1 0 0 1 -253.4158 -156.0256)" class="st22 st23 st25">24</text>
</g>
<g id="pop21">
	<circle id="p21" class="st15" cx="63" cy="129.9" r="4.5"/>
	<text transform="matrix(1 0 0 1 60.5337 131.5585)" class="st22 st23 st25">21</text>
</g>
<g id="pop20">
	<circle id="p20" class="st15" cx="48" cy="160.7" r="4.5"/>
	<text transform="matrix(1.1661 0 0 1 44.9844 161.9268)" class="st22 st23 st31">20</text>
</g>
<g id="pop19">
	<circle id="p19" class="st15" cx="-237.3" cy="82.2" r="4.5"/>
	<text transform="matrix(1 0 0 1 -240.411 84.5336)" class="st22 st23 st25">13</text>
</g>
<g id="pop18">
	<circle id="p18" class="st15" cx="-190.1" cy="172.5" r="3.9"/>
	<text transform="matrix(1 0 0 1 -193.2943 174.5303)" class="st22 st23 st25">13</text>
</g>
<g id="pop17">
	<circle id="p17" class="st15" cx="-162.1" cy="172.2" r="4.5"/>
	<text transform="matrix(1 0 0 1 -165.3384 174.2438)" class="st22 st23 st25">13</text>
</g>
<g id="pop16">
	<circle id="p16" class="st15" cx="-97.6" cy="220.9" r="4.5"/>
	<text transform="matrix(1 0 0 1 -100.452 222.6688)" class="st22 st23 st25">13</text>
</g>
<g id="pop15">
	<circle id="p15" class="st15" cx="-181.6" cy="260.8" r="4.5"/>
	<text transform="matrix(1 0 0 1 -184.619 262.4648)" class="st22 st23 st25">13</text>
</g>
<g id="pop14">
	<circle id="p14" class="st15" cx="-38.2" cy="313.9" r="4.5"/>
	<text transform="matrix(1 0 0 1 -41.185 315.921)" class="st22 st23 st25">13</text>
</g>
<g id="pop13">
	<circle id="p13" class="st15" cx="-137.4" cy="348" r="4.5"/>
	<text transform="matrix(1 0 0 1 -140.7402 349.485)" class="st22 st23 st25">13</text>
</g>
<g id="pop12">
	<circle id="p12" class="st15" cx="-69" cy="395.1" r="4.5"/>
	<text transform="matrix(1.0811 0 0 1 -70.8291 396.1514)" class="st22 st23" style="font-size:3.7653px;">12</text>
</g>
<g id="pop11">
	<circle id="p11" class="st15" cx="-15.6" cy="464" r="4.5"/>
	<text transform="matrix(1.1193 0 0 1 -17.9131 465.6826)" class="st22 st23" style="font-size:4.3159px;">11</text>
</g>
<g id="pop10">
	<circle id="p10" class="st15" cx="-31.6" cy="473" r="4.5"/>
	<text transform="matrix(0.932 0 0 1 -33.7734 474.8232)" class="st22 st23" style="font-size:5.071px;">10</text>
</g>
<g id="pop9">
	<path id="p9" class="st15" d="M-4.7,448.1c3-0.5,5.6,2.1,5.2,5.2c-0.3,1.9-1.8,3.4-3.7,3.7c-3,0.5-5.6-2.1-5.2-5.2
		C-8.2,449.9-6.6,448.3-4.7,448.1z"/>
	<text transform="matrix(1.225 0 0 1 -5.4023 453.5156)" class="st22 st23" style="font-size:3.9595px;">9</text>
</g>
<g id="pop8">
	<circle id="p8_11_" class="st15" cx="329.5" cy="295.1" r="4.5"/>
	<text transform="matrix(1 0 0 1 328.2191 296.6434)" class="st22 st23 st25">8</text>
</g>
<g id="pop7">
	<circle id="p7_2_" class="st15" cx="269.4" cy="364.6" r="4.5"/>
	<text transform="matrix(1 0 0 1 267.9 366.5857)" class="st22 st23 st25">7</text>
</g>
<g id="pop6">
	<circle id="p6_1_" class="st15" cx="200" cy="589.6" r="4.5"/>
	<text transform="matrix(1 0 0 1 198.7064 590.9824)" class="st22 st23 st25">6</text>
</g>
<g id="pop5">
	<circle id="p5_1_" class="st15" cx="224.4" cy="594.1" r="4.5"/>
	
		<text transform="matrix(1 0 0 1 222.9369 596.2625)" class="st23" style="display:none;fill:#F9F7F7;enable-background:new    ; font-size:7px;">h</text>
</g>
<g id="pop4">
	<circle id="trazo" class="st15" cx="596.2" cy="388.6" r="4.5"/>
	
		<text transform="matrix(1 0 0 1 594.3616 391.1886)" class="st23" style="display:none;fill:#F9F9F9;enable-background:new    ; font-size:8.6654px;">2</text>
</g>
<g id="pop3" class="st14">
	<circle class="st15" cx="290.9" cy="229.9" r="4.5"/>
	<text transform="matrix(1 0 0 1 288.3 233.1311)" class="st16 st3 st32">1</text>
</g>
<g id="pop2" class="st14">
	<circle id="p4-2" class="st15" cx="553.8" cy="432.7" r="4.5"/>
	<text transform="matrix(1 0 0 1 551.2959 436.2001)" class="st16 st3" style="font-size:9.4243px;">8</text>
</g>
<g id="pop1" class="st14">
	<circle class="st15" cx="299" cy="254.6" r="4.5"/>
	<text transform="matrix(1 0 0 1 296.2335 258.0997)" class="st16 st3 st33">1</text>
</g>
<text transform="matrix(1 0 0 1 535.5645 187.4541)" class="st23 st9">Lorem ipsum</text>
</svg>
