<?xml version="1.0" encoding="utf-8"?>
<!-- Generator: Adobe Illustrator 22.1.0, SVG Export Plug-In . SVG Version: 6.00 Build 0)  -->
<svg version="1.1" id="Capa_1" xmlns="http://www.w3.org/2000/svg" xmlns:xlink="http://www.w3.org/1999/xlink" x="0px" y="0px"
	 viewBox="0 0 1200 1000" style="enable-background:new 0 0 1200 1000;" xml:space="preserve">
<style type="text/css">
	.st0{fill:url(#SVGID_1_);}
	.st1{fill:#A3AC7A;stroke:#1D1D1B;stroke-miterlimit:10;}
	.st2{fill:#077EAD;}
	.st3{font-family:'ArialMT';}
	.st4{font-size:16px;}
	.st5{font-size:27.61px;}
	.st6{fill:none;stroke:#231F20;stroke-width:0.75;stroke-miterlimit:10;}
	.st7{font-size:64.21px;}
	.st8{fill:#F9F9F9;}
	.st9{font-size:12px;}
	.st10{fill:#FCFCFC;}
	.st11{fill:#FFFFFF;}
	.st12{enable-background:new    ;}
	.st13{font-size:15px;}
	.st14{clip-path:url(#SVGID_3_);fill:#5A98D3;}
	.st15{fill:#E2AE3F;}
	.st16{fill:#C22B2C;}
	.st17{fill:none;stroke:#FFFFFF;stroke-miterlimit:10;}
	.st18{opacity:0.8;}
	.st19{fill:#F59C22;stroke:#FFFFFF;stroke-miterlimit:10;}
	.st20{font-size:14.7px;}
	.st21{font-size:11.7834px;}
	.st22{fill:#39C8C6;}
	.st23{fill:#D3500C;}
	.st24{fill:#F7D0BC;}
	.st25{fill:#FFB13A;}
	.st26{fill:#460929;}
	.st27{fill:#D88F2D;}
	.st28{fill:#FFFFFF;stroke:#F9F7F4;stroke-width:0.75;stroke-miterlimit:10;}
	.st29{fill:#FAA522;}
	.st30{fill:#3A568E;}
	.st31{fill:#4C70B7;}
	.st32{fill:#FFF8A5;}
	.st33{fill:#F58225;}
	.st34{fill:#2E4575;}
	.st35{fill:#357180;}
</style>
<g id="fondo_1_">
	
		<linearGradient id="SVGID_1_" gradientUnits="userSpaceOnUse" x1="-2.13" y1="7517.3999" x2="1199.67" y2="7517.3999" gradientTransform="matrix(1 0 0 -1 3.000000e-02 8018)">
		<stop  offset="0" style="stop-color:#74BCD8"/>
		<stop  offset="1" style="stop-color:#CFEBFC"/>
	</linearGradient>
	<rect x="-2.1" y="0.6" class="st0" width="1201.8" height="1000"/>
	<path class="st1" d="M205.5,249.5c0,0-3,0.9-3.5-3.5c-0.2-1.6-1.3-3-2.9-3.6c-0.3-0.8-0.1-1.6,0.5-2.2c-0.3-0.8-2.6-2.5-4-2
		c-1,0.4-1.8,1.2-2,2.3c-1.2-0.3-3.5-2.2-4.5-1.8s-3,4.1-3.4,6.1c-0.8,1.5-3.1,1.5-3.2,2s-1,2.8-2.1,3.1c-1.9,0.5-1.9,1.9-2.7,3.5
		s-4.5,0.6-5,0.9s-1,1.3-1.6,1.6s-1.9,0.2-2.5,1.5s-2.3-1.4-4.7,0s-2.5,2.8-3.5,3s-1.9-0.1-3.3,0.8s-5.3-1.1-6.7-1.1s-1,1.7-2,1.8
		s-3.4-0.7-5.3-0.4s-2.3,2.3-2.7,2.4s-3.5-1.3-5,2.7s-0.3,3.9-0.4,5.9s-2.1,0.6-2.5,5.3c-0.5,2.7-3.1,0.8-3.9,2.6s-0.4,3.9-0.9,4.4
		s-1.7-0.9-3.8,3.3s-0.8,2.5-3.1,3.4c-2.2,1.2-4.8,3.1-6.1,3.1s-5.8,2.5-6.1,2.9s-2.3-0.4-2.8,0.8s-2.5,1-3.6,1.1s-1.1,2.7-1.6,3
		s-3.9-0.6-4.6,0.8s-1.8,2.2-1.8,3.9s-1.5,1.8,0,3.6c1.3,1.5,2.8,2.8,4.5,3.8c1.2,0.8,3.4,3.4,3.5,4.7s2.7,5.6,2.7,6.6
		s2.5,3.1,2.9,2s0.7-2,2.3-1.6s2.2,0.9,3.4-0.4s5.5-3.8,6.5-3.5c2.1,0.4,4.3,0.1,6.3-0.8c2.6-1.3,5.1-2.8,7.5-4.4
		c2.9-1.7,5.9-3.2,8.9-4.6c1.2-0.3,8.8-0.8,10.4,0c1.5,0.6,3,1,4.6,1c1,0.2,3.1,2.2,5,3.3s4.1,5.4,5,5.5s2.3,5.1,3,6.4
		s1.2,2.5-0.3,3.6c-1.1,1.3-0.2,6.7,0,7.2s1.4,9,0.8,12c0.5,3.1-1.5,3.4,0,8.8s-0.7,8.9,0.9,12.1s2.3,3.3,3.5,5.2s1.1,3.4,4.7,7.3
		c1,3.2,0.6,5.2-0.9,5.8s-2.8,0-2.3,2.5c0.1,2.4-0.6,2.3-0.6,4.4s0.9,3.7,1.1,5c0.2,1.1,0.6,2.1,1.3,2.9c0.4,0.4-0.2,5.5,0.5,6.7
		s2.7,3.6,4,2.4s1.8-2.8,2.8-1.9s0,3.4,1.6,6.1s1.1,5.1,2.9,6.5s-0.3,5.1,4.3,8.3s3.5,6.1,5.9,7.7c2.6,1.9,5.4,3.5,8.4,4.7
		c3.4,1.2,7.8,2.2,9.8,3.7s2,0,3.3,3s2.9,3.5,3.4,5.2s5,5.5,7.2,5s4.3,1.1,6,1.2s5.9-0.1,6.4,0.9s0.2,8.9-0.4,11.4s0.6,5.4-0.3,9.4
		s1.4,12.4,2.7,14.2s6.4,7.6,10.8,9.3c4.4,1.7,5.4,3.6,9.2,6.7s9,11.5,14.8,14.8s7.5,6,12.9,7.6c5,2.2,0.5,6.1,2.2,6.7
		s5.2-0.4,5.5,0.3s0.6,2.7,1.4,2.8s3.6-0.2,3.6,0.7s-2.4,0.5-2.4,2s0.6,3,1.7,4c1.3,1.4-0.3,2.8-1.4,2.8s-1.6,2.3-2.3,3.4
		s-2.2-0.2-2.1,2.5c0.1,1.9-1.3,3.6-3.2,3.8c-0.9,0-3.3,0-3.9-0.6s-0.6-1.8-2.4-1s-2,1.7-2.8,3.4s-0.6,3.2-1.9,3.7s-2.8,1.1-4,0
		s-5.1,0.1-5.3,2.7c0.1,1,2.9,2,2.1,3.5s-6.9,2.8-8,3.4s-2.6,1.5-2.7,2.6s-2.3,1.5-2.7,1.5s-4.3,0.8-4.9,0s-1.2-3.5-3.4-3.5
		s-4-0.4-4.9-1.6c-0.9-1.2-2.1-0.9-2.5-1.6s0.4-2.2-3.6-1.7c-1.5,0.2-2.5,2-5,1.8s-4.9,0.2-6.9,3.9c-0.4,1.5,0.6,3.4-3.1,3.6
		c-0.9-0.2-1.7-0.5-2.5-1c-1.6-0.9-1.8,1.8-3.1,1.8s-5.8,0.4-6.1,0s-0.9-0.5-2.7,0.2s-5.5,0-6.9-0.5s-1.7,0.2-2.3,0.2
		s-1.7-0.5-2.5,0.6c-1,1.4-2,2.7-3.1,3.9c-0.5,0.5,0.6,1.6,0.4,2.8s0,2.4-0.8,2.4s-1.5,0.7-1.6,0s-1.2-0.6-2,0.3s-0.9,1.8-1.9,2.6
		s-2.7,0-3.5,1.4s-2,3.8-3.6,4.2c-1,0.3-2,0.7-2.9,1.2c-0.4,0-1.1,1.2-1.6,3.9s-2.2,1.3-3.5,2.4s-1.1,2.3-2.5,2.8s-5,0-6.5,1
		s-3.4,0.8-5.2,4.5c-0.8,1.5-3.1,1.7-4.1,1.9c-1.8,0.9-3.3,2.4-4.2,4.2c-1,1.9-2.3,3.7-3.8,5.2c-0.8,0.7-5.7,7.3-7,7.9
		c-2.2,1.4-4.2,3.2-5.8,5.3c-1.9,2.5-6.3,4.1-7.3,5.5s-1.7,3.2-2.8,4.1s-1.1,3.8-1.4,4.1s-3.5,2.5-3.9,8.6s1.4,11.4,6.1,15.4
		s9.1,6.5,11.6,7s7.7,1.6,8.8,6.8s-0.5,6.2-0.5,8s2,7.8,7.2,8.6s3,4.5,6,4.3s2.4,0.2,6.6,2.5s12.5,0.7,14.2,0
		c3.4-1.1,7-1.4,10.5-0.7c4.5,0.9,10-1.3,14.7-0.5s9.5,0.9,11.4,2.4s7.4,2.1,9.5,2.1s8.7,0.4,9.6,1.1c2.1,1.5,4.1,3.3,5.8,5.3
		c1.7,2.3,2.7,0.9,3.4,0.8s9.3-1.5,11.5,2s3.3-2.8,4.4-2s-0.6,2.9,0.4,2.8s3.2-2.3,2.2-4.2s-0.7-2.3,0.8-2.2s3.9-1.3,4.3-1.4
		s3.5-0.4,3.9-1s-0.1-3,0.5-3.4s1.3,0.5,2.7,0.7s2.7-2.3,3.3-2.4c1,0,2,0,3-0.2c0.8-0.3,1.9-2.2,2.7-2.2s5-0.7,5.7-1.6
		s6.5-2.2,7.6-2.2s3,1.4,4,2s3,0.5,3-0.8s0.7-3.5,3-2.8s1-1.4,2-1.5c1.4,0,2.8-0.8,3.5-2c1-1.6,4-0.6,4.7-1.1s1.2-0.7,2.1,0.3
		s2,0.2,2.2-1.2s2.1-2,3.2-2.3s1.9-2.3,1.9-3.7s8.6-8.5,14.1-5.9s4.2,0.9,7.4,0.9s2.9,1.4,7.3,1.1s4.4-1,7-1.7s6-3.2,6.6-4.8
		s0.8-4.1,1.9-4.5c1.5-1,2.7-2.5,3.3-4.2c0.1-0.9,0.5-5.5,2.9-4.9s6.9,2.3,10,1.3s3.7-4.9,3.7-6.1s-2.5-7.3-0.8-8s1.9-1.3,1.2-3.5
		s2.1-5.3,2.9-5.3s-0.3-2-0.3-2.7s-1-5.7-0.1-6.8s4.4-2.3,4.4-3.4c-0.1-1.5-0.1-3,0-4.5c0.2-1,0.7-2.7,1.3-2.7s-0.8-3.3,0-4.6
		s0.1-3,0.6-3.7s6.7-0.9,8.8-1.8s3.7-3.6,3.5-5s1.7-1.2,2.5-1.2s1.5-0.8,1.4-1.6V618c0-0.9,1.2,0.3,1.2-0.4s-1.3-5.6-3.5-6.1
		s0.9-0.8,0.9-1.1s-1.4-3.5-3.6-2.4s-7.3-0.5-7.3-1.9s2.3-1.3,2.9-1.3s1.3-3.7-0.3-3.7s-7.4,1.7-8,0.3c0,0-1.8-3.3,0.6-3.8
		s0.6-1.7,0.1-2.4c-1-1.1-2.3-1.9-3.7-2.4c-1.6-0.4-3,1-4.3,1s-4.4-1.2-3.6-2.7s2.7-3.1,2.9-4.6s1.8-0.5,1.8-1.5s-1.9-1-2.7-1.7
		s-2.7-3.4-3.7-3.4s-0.2-3.6,0.6-4.8s-3.8-6-4.6-6s-3.1,0.7-4.2-0.2c-1.1-1-1.6-2.5-1.4-4c0.4-1-0.4-4.1-4.1-6s0.7-5.1-1.8-5.9
		s-5.8,4.8-7.1,5.1s-5.1,2.9-5.9,2.5c-0.9-0.7-2.1-0.9-3.2-0.6c-1.5,0.4-2.3-3.8-3.7-3.8s-3.3,1.7-5-0.4s1.3-2.3,1.3-2.9
		s-3.4-2.2-2.3-3.9s2.5-5,2.5-6.1s-3-4-4.8-3.8s-3.6,2.8-4.6,2.8s-1.8-0.1-1.8-1.4s3.5-1.5,3.5-2s0.6-3.5,2-3.5s3.5-0.2,3.7-1
		s2.2-4.6,2.6-4.6s0.9-2,0.4-3.4s0.9-8.2,0.1-8.8s-1.7-1.1-0.9-2.4s3.1-2.8,3.1-4.1s-1.8-2.2-1.5-4.4s1.8-2,1.8-3s-0.6-8.3-1.2-9.7
		s-2.9-1.9-3.5-2.7s0.9-5.7,0.9-6.6s-1-1.9,0.6-2s1.6-5.7-1.5-4.8s-2.5,3.2-3.7,3.2s-3.2-3.4-3.7-4.4s-3.2-3.3-4.4-4.1
		s-3.9-6.4-5.4-6.8s-3.3-5.7-4.6-6.3s-5.1-4.3-7.4-5.9s-4.6-5.1-6-5.7s-5.6-3.2-7.9-3.8s-12.5-5.9-13.2-7.4s-5.3-3.3-6.7-4.3
		s0.4-1.7,1.7-1.7s0.9-2.6-0.4-3c-1.4-0.7-2.5-2-2.9-3.5c0-0.9-0.8-3-2.2-3.3s0.3-2.8-1.2-3.7s-9.8-5.4-10.2-6.5s-3.6-7-6-9.1
		s-8.3-7.4-9.1-9.1c-1.1-3.2-1.7-6.5-2-9.8c0.1-0.9-1.2-10.4-1.3-10.9s-1.5-7.2-0.1-10.6s2.3-15,2.3-15.9s-0.6-13.1-3.5-16.7
		c-2.8-3.8-0.1-6.9-3.4-13.8c-3.3-6.9-3.4-1.2-8.6-8s-6.7-2.7-8.1-5.2s-1-4.6-4.1-6.1s-11-12.3-11.8-13.5s-2-0.4-1.5-2.8
		s-3.3-0.4-2.5-6.5c-1.5-2.3-2.8-1.4-1.5-3.7s-3.2-4.4-3.1-5.9s0.5-3.8-0.2-5.4s-2.2-2.5-2.3-3s0.5-2.6-0.7-3.2
		S208.5,248.9,205.5,249.5z"/>
	<path class="st1" d="M157.8,416.7c0,0,0.5,1.3-1.2,1.3s-0.4-4-2-4.1c-2.5-0.4-5.1-0.5-7.6-0.5c-3.1,0.1-5.7,0.9-7.7,0.9
		c-2.9,0.1-5.6,1.6-7.2,4.1c-2.3,3.3-12.3,3.1-13.5,3.1c-1.1,0.1-2.1,0.6-2.8,1.4c-2.3,2-5.2,3.2-8.3,3.5c-4.3,0.1-8.6,0.6-10.4,0.6
		s-4.2,0.1-6.5,0s-4.6-0.3-6.3-0.3s-3,0.9-5,0.9s-9.7-0.9-12,2.9s-0.9,7.9,1,13s1.4,14.1,1.4,15.7s-0.9,8.7,2.4,12.9
		s8.8,14.8,9.3,17.3s5.2,8.5,5.2,10.1c0,0-0.1,3.3,8.7,4.1c5.3,0.6,10.7,1.5,15.9,2.7c1.6,0.2,9.9,2.6,11.7,3.7
		c1.8,1.1,5.9,4.1,11.5,1.4s17.1-1.4,19.9-2.6c2.8-1.2,6.4,0.6,8.3-0.1s3.4-3.9,4.3-4.4s4.2-3.4,6-3.7s1.2-3.9,2.4-4.7
		s2.7-0.7,2.5-2.5s1.5-0.9,0.8-4.2s-1.5-3.5-2.3-6.2s2.2-2.4,2.5-3.3s0.5-9.3,2.5-11.2s0.4-6.5,0-8.1c-0.3-2.1-0.3-4.3,0.1-6.4
		c0.4-1.1-0.5-3.8-2.3-6.9s2.2-2.4-2.5-6.6c-1.2-1.1-0.9-5.9-1.5-7.4s-4.7-3.6-4.7-4.4s1.2-3-3.4-5.7s-4.2-2.2-5.1-3.3
		S156.8,414.4,157.8,416.7z"/>
	<path class="st1" d="M443.4,372.4c0,0-2.7-5.1-5.5-5c-3.9,0.1-7.8-0.4-11.6-1.5c-5.6-1.3-15.6,2.3-17.7,6.5c-0.5,1.1-2.1,0.3-2.1,0
		c-0.5,1.1-0.5,2.5,0,3.6c-0.9,1.1-4.2,0.9-3.2,4.8s1.7,4.1,1.7,6.2s0.9,3.6-3.9,7.1c-4.6,4.1-2.5,7.9-4.9,10.2s-6.3-1.2-6.6,4.2
		s0.9,4.2-0.5,8.5c1.5,4.6,8,0.3,10.3,3.7s-1.1,3.9,1.8,5.2s4,5.3,3.2,10s3.5,4.1,5.5,3.7s5.2,3.2,6.8,3.2s3.4-3.4,5.2-3.3
		s2.8,3.9,4.2,3.8s3.2-1,4-0.9s4.2,4.6,5.9,5.7c0,0,5.9,5.8,9.1,4.6s3.5-1.6,6.4-1.2s5.8-1.5,8.3-1.3s-0.1,2,1.8,1.6s2.1-2.1,5-1.7
		s2.6-2.3,4.3-2.3s1.5,2.7,3.2,3.3s2.4,2.4,4.2,2.9s7.1,0.1,8.5,1.3s5.3,1.5,10.2,2.9s5.2,0.1,7.1-1.4c1.3-1.2,2.7-2.2,4.3-2.9
		c1.1-0.3-0.1-4.7,0.9-5.7s4.2-4.6,4.2-6.6s0.1-3.9,1.8-3.9s7.2,2.2,6.6-2.4s0.8-7.3-2.6-7.7s-5.5-1.2-5.5-2.7s0.7-4.2-2.2-4.2
		s-1.6-4.9-1.6-6.2s-0.5-4.7-2.5-5.4s-0.8-9.1-5.1-9.6s-3.6-5.7-5.4-5.7s-6.7-3.6-7.8-3.6s-6.3-1-7.3-1.7s-0.5-2.9-7.3-2.7
		s-9.5-3.5-12-3.5s-3.9-0.4-3.9-2.5s-1.2-4.4-4.1-4.4s-7.6-0.5-8.8-1.1C445.1,373.7,444.2,373.1,443.4,372.4z"/>
	<path class="st1" d="M522.3,419.8c-1.2,0.3-2.4,0.9-3.4,1.6c-1.2,0.1-4.6,2.7-2.1,2.7s3-0.8,4,0s3.3-1.4,3.3-2.2
		S523.9,419.2,522.3,419.8z"/>
	<path class="st1" d="M458.5,471.2c0,0-2.1-1.2-1-2.9c0.5-1.8-2.9-1.2-2.9,0.9s-3,2.5-3,4.3s1.7,5.4,3.5,5.4s1.4,1.8,2.3,1.2
		s-0.4-2.8,1.2-3.2s2.5-3.7,1.8-4.5C459.8,472,459.2,471.6,458.5,471.2z"/>
	<path class="st1" d="M478.8,551.5c0,0-1.2-3.5-3.1-3.8s-4.5-1-4.8-1.7s-3.5,0.8-4,2s-2.9,1.1-2.9,3.5s1.3,4.5,1.3,6.3
		s3.2,4.3,4.3,4.3s5.6,3.5,6.7,3.2s1.3-1.7,2.6-1.7s1.6-1.7,2-3.1s2.1-0.7,1.8-2.1s-2-1.9-1.2-3.5S481.2,552.4,478.8,551.5z"/>
	<path class="st1" d="M552.2,518.8c0,0-0.8-1.5-1.4-1.5s-0.3,1.1-0.8,1.5s-4.6,0.7-4.6,2.1c-0.1,1.3-1,2.3-2.3,2.5
		c-0.8,0-7.1-0.5-7.4,0.5c-0.3,1.7-0.3,3.4,0,5.1l0.2,0.3c0,0-1,4.6-2,4.6s-6.5,1-6.5,2.3s-0.1,5.7,0.7,6.1s-2.3,5.7-2.7,6.8
		s0,3.4,0,4s-3.6,4.3-3.6,5.7s-0.2,4.5,0.7,5s0.2,6.7-0.7,8.7c0.3,0.9,3,2.9,3.3,4.5c0.4,1.8,0.7,3.6,0.9,5.4c0,1.4-0.5,2.9,1.1,4.5
		s3.7,7.5,7.4,7.5s11.2,0.2,13.3,5.5c4.2,0.7,6.6,0,6.8-0.5c1.4,0.1,3.7,5.5,4.8,7.2s7.1,6.5,9.8,6.2s12.1,7.9,13.9,7.8
		s6.8-2.9,9.2-2.8s6.4,3.6,7.6,3.6s0.9-4.9,2.6-4.9s2,2.2,2.8,2.2s1.1-2.7,3.3-2.7c1.8,0,3.7,0.3,5.4,0.9c1.6,0.7,3.3,0.9,5,0.5
		c1.8-0.4,2.8-2.7,1.2-2.7s-3-0.4-3-0.9s2-2.1,1.2-2.9s0.5-2.9,1.8-2.7s14.1,0.3,15.6,1s9.8,1,11.9-0.5s3.2-7.1,2.8-8.6
		s2.9-4.8,4.3-5.8s-0.8-3.9-0.8-4.2s0.2-1.9,2-0.9s4.4,2.9,6.8,2.3s5.9-3.9,3.2-6s5.7-4,6.4-4.7s1.1-2.7,0-3.5s-3.8-2.7-3.4-4
		s3.6-3.8,3.6-5.9s0-3.5,1.1-3.9s-2-4.4-2.2-6.5s-0.3-5,1.3-6.2s3.1-6.2,3.1-7.1s1.7-4.7-1.3-5.5s-5-4.8-6.7-5s-3.8-4.6-6-4.6
		s-8.7-2.7-11.6-7.2s-4.3-7.1-4.3-8.6s-1.8-2.9-1.9-4.7s0-4.3-1.4-4.5s-2.5,2.4-5.3,2.5s-4.8-0.4-6,0c-1.3,0.4-2.5,1.2-3.4,2.2
		c-1.7,1.5-5.4,0.2-6,0.2s-2.2,0.3-3.9,0.5s-5-1.5-5.3,0.6s-0.2,2.5-1,2.5s-2,0-1.4-0.9s1.3-2-0.1-2.1s-2.8-0.4-2.8-0.9
		s-2.5-0.7-3.7,0.3s-0.9-0.6-3.2,0.2s-3.4,1.6-2.9,3.6s2.2,3.4,0.8,4c-0.7,0.5-1.6,0.7-2.5,0.7c-1.6,0.1-2.1-1.7-2.7-1.7
		s-3.5-1.1-3.8,0s-3,0.2-3.5,0.3s-1.8,1-1.8-0.2c-0.3-1.6-1.7-2.8-3.3-2.8c-1.7,0-5-0.9-6,1.4c-1,2.3-2.5,1.7-4.4,1.7
		s-5.4,0.9-6.1,0.4c-1.2-0.9-2.8-1.1-4.2-0.5C558.9,516.3,553.9,520,552.2,518.8z"/>
	<path class="st1" d="M633.8,474.1c0,0,2.9,6.5,4.6,10.1s2.7,4.3,3.3,5.8s3.3,4.5,0.8,6.8s-6.1,5.5-7.2,5.8c-2.5,0.6-5,0.9-7.6,0.9
		c-1.5-0.2-3.7-2.9-2.9-5.2s-0.3-5.4,0.3-6.3c1.5-1.7,3.1-3.4,4.8-5c0.8-0.7,1.7-4-1.1-2.7s0.3-2.9,0.3-2.9s1.9-2.5-2.6-5.5
		c-0.3-0.2-0.4-0.7-0.2-1l0.3-0.3C628.5,473.5,633.2,472.5,633.8,474.1z"/>
	<path class="st1" d="M629.5,465.5c-0.6,0.3-2.5-0.9-3.1,0s-0.7,3.9,0.4,3.9c1.2-0.2,2.4-0.4,3.5-0.8c1.4-0.3,2.2-1.1,2-2
		c-0.3-1-1.4-1.6-2.4-1.3C629.8,465.4,629.6,465.4,629.5,465.5z"/>
	<path class="st1" d="M575.4,808.8c0,0-3.4-1.1-2.5-3.2s-1.2-2.7-2.9-1s-2.8,0.4-3.3,0.5s-2,3.9-3.7,3.6s-1,1.6-2,1.6
		s-4.2,1.6-4.9,0s-1.1-3-2.4-3s-4.1-0.1-4.3,1.1s-4.6,9.5-4.6,11.8s1.2,8.4-0.7,8.4s-2.5,4-2.5,4.7c-0.6,1.8-1.5,3.5-2.6,5
		c-0.7,0.7-4.1,7.1,0,10s4.5,2.3,5,4.2s3.9,1.3,6,1.6s5.5,3.6,6.2,3.8s5.7,2.8,9.2,2.1s7,0.5,8.8-1.6s3.3-2.8,6.7-3.9
		c3.1-1,5.7-3.2,7.3-6c1.1-2.2,1.8-4.6,2.2-7c0-1.3,3.5-4.1,6.6-5.7s2-8.3,3.7-9s1.4-2.4,0-4.3s-6.3-2.4-6.4-3.4s-1.7-4.8-5.4-5.2
		s-5.3,0.8-5.7-0.8S577.8,808.6,575.4,808.8z"/>
	<path class="st1" d="M730.5,634.5c0,0-3.6-2.3-7-2.2s-9.8,0.4-11.3,0s-2.2,1.6-1.6,3.8s-1.7,4.6-1.7,4.6s0.7,4.2,3.9,4.3
		s3.3,2.5,5.7,2.5s6.1-1.3,8.1,0s2.9,2.6,5.4,1.5s3.5-2.5,2.5-6.4S732.9,634.5,730.5,634.5z"/>
	<path class="st1" d="M893.1,863c0,0-6.1-5.1-8.3-5.1c-1.4-2.6-3.6-1.3-6.4-1.2s-8.7-1.2-10.3-0.5s-7.1,0.5-7.8,2.2
		s-3.3,1.5-4.6,2.8s-3.9,2.6-4.8,3.9c-1,1.9,1.3,3.9,3.5,3.9s6.5,2.5,7,3.2s9.2,3.3,10.5,3.3s2.4,2.2,2.4,3s2.5-0.9,3.8-0.9
		c2.5,0.1,5,0.5,7.4,1.1c2.2,0.6,3.8,2.1,5.5,1.9s2.6-1.3,4.1,0s4.2,1.3,4.2-1.5s0.1-4.5,2.2-4.5s2.2-3.6,0-3.8s-2.6-0.7-2.6-3.2
		S896.8,863.7,893.1,863z"/>
	<path class="st1" d="M1051.9,590.9c0,0-3.5,4.9,0,4.9s6.1,2.9,1.7,7.8s0,8.7-7,9s-7,11.3-13.3,15.4s-4.1,9.6-10.1,11
		s-12.2,1.5-12.5,3.5s-3.2,3.2-3.5,9.8s-7,8.1-7,10.4s-8.1,9.6-8.1,14.2s-6.1,7.3-9.8,7.3s-7,5.5-14.2,5.5s-15.4-0.9-26.7,5.5
		s-41.7-9.8-41.7-17.7s9.8-11.3,12.8-12.8s16.8-9.6,16.8-12.2s5.8-0.9,5.8-4.3s-3.2-8.4,0-8.4s6.7,0,6.7,0.9s2.9,4.6,5.8,0.9
		s8.1-0.3,10.4-1.7s5.5-7.8,5.5-11s4.1-8.7,4.1-9.6s-4.6-5.2-1.2-6.1s11.4-7.8,11.4-7.8s5.7-1.8,8.2-3.4s2.8-3.5,5-3.5
		s5.3,0.1,5.3-1.1s3.9-0.1,5.8-1.2s3-3.5,4.3-3.5s0.7-5.3,2.3-5.4s6.6-1.8,8.8,0s7.9,2.7,9,1.5s3.9-1.4,8.5,2.9s5.8,2.6,6.7,2.3
		c1.9-0.7,3.5-1.9,4.8-3.5c0.5-1,1.6-1.6,2.7-1.5C1049.7,589,1052.2,589.4,1051.9,590.9z"/>
	<path class="st1" d="M772.4,170.2c0,0-3.6-6.5-5.5-6.5s-3.1,2.8-4.9,2.8s-5.9,1.7-6.1,3.8s-1,8.2,2.5,9.8s3.3-0.8,3.3-1.7
		s2.5-2.2,4-1.8s3.6,3.9,1.5,4.8s-2.9,2.3-1.2,2.7s4.7-1.4,4.8-3c0.3-1.8,1.2-3.4,2.5-4.7C773.9,176.1,774.1,173,772.4,170.2z"/>
	<path class="st1" d="M568.3,159c-2.8-2-5.3-4.3-7.4-7c-2.8-3.7-17.9-7.4-26.7,0s-10.5,8.1-10.2,16.5s4.9,10.2,7,12.3s4,0.9,5.6,2.8
		s5.1,9.5,11.1,8.1s7.7,0.7,14.2-1.4s14.3-4,14.9-6.7s2.5-6.3,4.6-7.4S574.6,158.8,568.3,159z"/>
	<g>
		<text transform="matrix(1 0 0 1 577.8 478.0092)" class="st2 st3 st4">Baltra</text>
	</g>
	<g>
		<text transform="matrix(1 0 0 1 586.4052 878.7202)" class="st2 st3 st5">Floreana</text>
	</g>
	<g>
		<text transform="matrix(1 0 0 1 903.0553 914.2302)" class="st2 st3 st5">Española</text>
	</g>
	<g>
		<text transform="matrix(1 0 0 1 705.4152 683.8902)" class="st2 st3 st5">Santa Fé</text>
	</g>
	<g>
		<text transform="matrix(1 0 0 1 460.5852 649.4602)" class="st2 st3 st5">Santa Cruz</text>
	</g>
	<rect x="-10.7" y="-14" class="st6" width="200.8" height="156.5"/>
	<path class="st1" d="M93.9,104.3c0,0-0.4-18.9-6.7-18.9S57,91.7,68.3,106.8s10.5-6.7,13.8-6.3s-1.3,13.8,3.4,13.8
		S94.3,109.3,93.9,104.3z"/>
	<path class="st1" d="M65.1,35.2c0,0-3.4-7.1-9.2-7.1S26.2,44.4,42.1,55.8S65.1,35.2,65.1,35.2z"/>
	<g>
		<text transform="matrix(1 0 0 1 981.7762 552.9923)" class="st2 st3 st5">San Cristobal</text>
	</g>
	<text transform="matrix(1 0 0 1 36.7193 962.7708)" class="st2 st3 st7">PACIFIC OCEAN</text>
	<g>
		<text transform="matrix(1 0 0 1 636.5434 462.0385)" class="st8 st3 st9">North Seymour </text>
	</g>
	<g>
		<text transform="matrix(1 0 0 1 655.9915 483.8527)" class="st10 st3 st9">Mosquera Islet</text>
	</g>
	<g>
		<text transform="matrix(1 0 0 1 686.7881 541.7165)" class="st11 st3 st9">South Plaza</text>
	</g>
	<g>
		<text transform="matrix(1 0 0 1 503.5381 509.2165)" class="st11 st3 st9">Bachas Beach</text>
	</g>
	<g>
		<text transform="matrix(1 0 0 1 1003.2529 668.1402)" class="st11 st3 st9">Breeding Center</text>
	</g>
	<g>
		<text transform="matrix(1 0 0 1 976.3501 701.8756)" class="st12"><tspan x="0" y="0" class="st11 st3 st13">Chinese Port</tspan><tspan x="0" y="18" class="st11 st3 st13">Beach</tspan></text>
	</g>
	<g>
		<text transform="matrix(1 0 0 1 887.5259 853.2094)" class="st11 st3 st9">GARDNER BAY</text>
	</g>
	<g>
		<text transform="matrix(1 0 0 1 764.8832 871.0012)" class="st11 st3 st9">Punta Suares</text>
	</g>
	<g>
		<text transform="matrix(1 0 0 1 615.5502 809.3092)" class="st11 st3 st9">Devil’s Crown </text>
	</g>
	<g>
		<text transform="matrix(1 0 0 1 608.4935 836.4595)" class="st11 st3 st9">Baroness’ Observatory</text>
	</g>
	<g>
		<text transform="matrix(1 0 0 1 473.0701 800.3095)" class="st11 st3 st9"> Cormorant Point</text>
	</g>
	<g>
		<text transform="matrix(1 0 0 1 462.2384 817.8747)" class="st11 st3 st9">Post Ofiice Bay</text>
	</g>
	<path class="st11" d="M905.7,670.6c0.1-0.1,0.2-0.2,0.3-0.3h0.1c0.7,0.3,1.3,0.5,2,0.8s1.4,0.6,2.1,0.8c0.1,0,0.1,0,0.2,0
		c0.1-0.1,0.1-0.1,0.2-0.2c0.1-0.1,0.2-0.1,0.3,0s0.1,0.2,0,0.3l-0.1,0.1c0.2,0.1,0.4,0.1,0.5,0.2c0.2,0.1,0.3,0.1,0.5-0.1
		c0.5-0.5,1-1,1.5-1.6c0.2-0.2,0.4-0.3,0.6-0.3c0.5,0,0.8,0.4,0.6,0.8c0,0.2-0.1,0.3-0.3,0.5c-0.5,0.5-1.1,1.1-1.6,1.6
		c-0.1,0.1-0.1,0.1,0,0.2c0.1,0.2,0.2,0.5,0.3,0.8c0-0.1,0.1-0.1,0.1-0.2c0.1-0.1,0.2-0.1,0.3,0s0.1,0.2,0,0.3l0,0
		c-0.2,0.2-0.2,0.3-0.1,0.6c0.5,1.2,1,2.5,1.5,3.7c0,0.1,0,0.1,0,0.2c-0.1,0.1-0.2,0.2-0.3,0.3c-1.1-1.4-2.2-2.9-3.5-4.1
		c0,0-0.1,0-0.1,0.1c-0.5,0.5-1,1-1.5,1.5c-0.2,0.2-0.3,0.3-0.6,0.4c0,0.1,0.1,0.1,0.1,0.1c0.3,0.5,0.6,1,0.9,1.5c0,0.1,0,0.1,0,0.2
		c-0.1,0.1-0.2,0.2-0.3,0.3c-0.1-0.1-0.2-0.2-0.3-0.3c-0.3-0.4-0.7-0.9-1-1.3c-0.1-0.1-0.1-0.1-0.2,0c-0.2,0.1-0.4,0.2-0.6,0.3h-0.1
		c0.1-0.3,0.3-0.6,0.4-0.8c-0.4-0.3-0.7-0.6-1.1-0.9c-0.2-0.1-0.4-0.3-0.5-0.4c-0.1-0.1-0.1-0.1,0-0.2c0.1-0.1,0.1-0.1,0.2-0.2
		c0.1-0.1,0.1-0.1,0.2,0c0.3,0.2,0.6,0.4,0.9,0.5c0.2,0.1,0.4,0.2,0.6,0.4c0,0,0.1,0,0.1,0.1c0-0.3,0.3-0.5,0.5-0.6
		c0.5-0.5,1-1,1.5-1.4c0,0,0.1,0,0.1-0.1C908.6,672.8,907.2,671.7,905.7,670.6z"/>
	<path class="st11" d="M629.6,493.4c0.1-0.1,0.2-0.2,0.3-0.3h0.1c0.7,0.3,1.3,0.5,2,0.8s1.4,0.6,2.1,0.8c0.1,0,0.1,0,0.2,0
		c0.1-0.1,0.1-0.1,0.2-0.2c0.1-0.1,0.2-0.1,0.3,0s0.1,0.2,0,0.3l-0.1,0.1c0.2,0.1,0.4,0.1,0.5,0.2c0.2,0.1,0.3,0.1,0.5-0.1
		c0.5-0.5,1-1,1.5-1.6c0.2-0.2,0.4-0.3,0.6-0.3c0.5,0,0.8,0.4,0.6,0.8c0,0.2-0.1,0.3-0.3,0.5c-0.5,0.5-1.1,1.1-1.6,1.6
		c-0.1,0.1-0.1,0.1,0,0.2c0.1,0.2,0.2,0.5,0.3,0.8c0-0.1,0.1-0.1,0.1-0.2c0.1-0.1,0.2-0.1,0.3,0s0.1,0.2,0,0.3l0,0
		c-0.2,0.2-0.2,0.3-0.1,0.6c0.5,1.2,1,2.5,1.5,3.7c0,0.1,0,0.1,0,0.2c-0.1,0.1-0.2,0.2-0.3,0.3c-1.1-1.4-2.2-2.9-3.5-4.1
		c0,0-0.1,0-0.1,0.1c-0.5,0.5-1,1-1.5,1.5c-0.2,0.2-0.3,0.3-0.6,0.4c0,0.1,0.1,0.1,0.1,0.1c0.3,0.5,0.6,1,0.9,1.5c0,0.1,0,0.1,0,0.2
		c-0.1,0.1-0.2,0.2-0.3,0.3c-0.1-0.1-0.2-0.2-0.3-0.3c-0.3-0.4-0.7-0.9-1-1.3c-0.1-0.1-0.1-0.1-0.2,0c-0.2,0.1-0.4,0.2-0.6,0.3h-0.1
		c0.1-0.3,0.3-0.6,0.4-0.8c-0.4-0.3-0.7-0.6-1.1-0.9c-0.2-0.1-0.4-0.3-0.5-0.4s-0.1-0.1,0-0.2s0.1-0.1,0.2-0.2
		c0.1-0.1,0.1-0.1,0.2,0c0.3,0.2,0.6,0.4,0.9,0.5c0.2,0.1,0.4,0.2,0.6,0.4c0,0,0.1,0,0.1,0.1c0-0.3,0.3-0.5,0.5-0.6
		c0.5-0.5,1-1,1.5-1.4c0,0,0.1,0,0.1-0.1C632.5,495.6,631,494.5,629.6,493.4z"/>
	<path class="st11" d="M1065.9,840.7L1065.9,840.7c0-25.7,20.9-46.6,46.6-46.6h88.6v93.2h-88.6
		C1086.8,887.4,1065.9,866.5,1065.9,840.7z"/>
	<g>
		<g>
			<g>
				<g>
					<g>
						<g>
							<g>
								<defs>
									<rect id="SVGID_2_" x="1128.8" y="813.9" width="30.6" height="35.7"/>
								</defs>
								<clipPath id="SVGID_3_">
									<use xlink:href="#SVGID_2_"  style="overflow:visible;"/>
								</clipPath>
								<path class="st14" d="M1147.5,828.3h8.3c1.7,0.1,2.7,0.5,3.1,1.3c0.3,0.6,0.5,1.5,0.5,2.6v10.4c0,1-0.4,2-1.3,2.9
									c-2.6,2.7-6.6,4.1-11.9,4.1c-4.7,0-8.8-1.8-12.2-5.3c-3.5-3.5-5.2-7.8-5.2-12.8s1.8-9.2,5.3-12.5c3.5-3.4,7.7-5,12.5-5
									c3.7,0,7.2,1.2,10.5,3.7c0.8,0.6,1.3,1.3,1.3,2.1s-0.4,1.7-1.1,2.7c-1.2,1.7-2.3,2.5-3.4,2.5c-0.6,0-1.6-0.4-2.9-1.3
									c-1.3-0.9-2.9-1.3-4.7-1.3c-2.4,0-4.5,0.8-6.4,2.5s-2.8,3.9-2.8,6.6c0,2.7,0.9,5,2.8,6.9s4,2.9,6.4,2.9
									c1.7,0,3.3-0.3,4.7-0.8v-5.1h-3.7c-1,0-1.7-0.1-2.1-0.4c-0.4-0.3-0.7-0.6-0.8-1.1c-0.1-0.5-0.2-1.1-0.2-2
									c0-0.8,0.1-1.5,0.2-2s0.4-0.9,0.8-1C1145.8,828.4,1146.6,828.3,1147.5,828.3"/>
							</g>
						</g>
					</g>
				</g>
			</g>
		</g>
		<path class="st15" d="M1181.9,830.6c-1.2-2.7-4.4-3.9-7.1-2.7c-1.6,0.7-2.7,2.2-3.1,3.8l0,0v0.1v0.1c-0.4,2.1-4,17.7-18.4,26.5
			c-15.5,9.5-31,4.8-31,4.8s-7.1-1.8-12.8-5.8c-0.7-0.5-1.5-0.6-2.3-0.2c-1.2,0.5-1.7,1.9-1.2,3.1c0.2,0.4,0.5,0.7,0.8,1
			c1.6,1.3,15,11.7,32.4,10.4c18.6-1.5,28.6-12.1,28.6-12.1s11-8.9,14.4-25.2C1182.5,833,1182.5,831.7,1181.9,830.6"/>
		<path class="st16" d="M1126.6,815.2c0.3-0.5,0.7-0.8,1.3-1c0.6-0.2,1.4-0.3,2.3-0.3s1.7,0.1,2.2,0.2c0.6,0.2,1,0.4,1.3,0.6
			c0.3,0.2,0.5,0.6,0.7,1c0.2,0.6,0.2,1.4,0.2,2.5v27c0,0.7,0,1.3-0.1,1.7c0,0.4-0.2,0.8-0.5,1.3c-0.5,0.9-1.7,1.3-3.8,1.3
			c-2.3,0-3.6-0.6-4-1.8c-0.2-0.6-0.3-1.4-0.3-2.5v-9.9H1113v9.9c0,0.7,0,1.3-0.1,1.7c0,0.4-0.2,0.8-0.5,1.3
			c-0.5,0.9-1.7,1.3-3.8,1.3c-2.3,0-3.6-0.6-4-1.8c-0.2-0.6-0.3-1.4-0.3-2.5v-27c0-0.7,0-1.3,0.1-1.7c0-0.4,0.2-0.8,0.5-1.3
			c0.5-0.9,1.7-1.3,3.8-1.3c2.3,0,3.6,0.6,4,1.8c0.2,0.6,0.2,1.4,0.2,2.5v9.9h12.9v-10c0-0.7,0-1.3,0.1-1.7
			C1126.2,816.1,1126.4,815.7,1126.6,815.2"/>
	</g>
</g>
<g id="trazos">
	<path id="Trazo1-2" class="st17" d="M913.3,673.3C848,645.3,936,750,968,686c12,11.3,24,1.3,20-8.7c29.3,38-68,180.7-97.3,182
		c-22-24.7-41.3-8.7-36.7,4.7c-57.3-29.3-232.7-96.7-280.7-59.3c-28-11.3-23.3,10-21.3,14c-18-8.7,12-44,48.7-13.3
		c18.7,9.3,8.7,23.3-2,28c28.7-4,144.7-125.3,124.7-194.7C730,598,699.3,544,676,536c5.3-25.3-14.7-82.7-48-73.3
		c-36-4.7-40,32.7-38.7,51.3c17.3-88,79.3-72,52.7-36c6,15.3-9.3,20.7-9.3,20.7"/>
</g>
<g id="p2" class="st18">
	<circle id="p4-3" class="st19" cx="970.1" cy="686.7" r="8.8"/>
	<text transform="matrix(1 0 0 1 966.3076 691.4883)" class="st11 st3 st20">2</text>
</g>
<g id="p5" class="st18">
	<circle id="p4-4" class="st19" cx="854.9" cy="865.2" r="8.8"/>
	<text transform="matrix(1 0 0 1 851.208 870)" class="st11 st3 st20">5</text>
</g>
<g id="p4" class="st18">
	<ellipse id="p4-7" class="st19" cx="886.5" cy="858.5" rx="8.8" ry="8.8"/>
	<text transform="matrix(1 0 0 1 882.6019 863.2259)" class="st11 st3 st20">4</text>
</g>
<g id="p6" class="st18">
	<circle id="p4-8" class="st19" cx="573.7" cy="805.9" r="8.8"/>
	<text transform="matrix(1 0 0 1 569.8378 810.7154)" class="st11 st3 st20">6</text>
</g>
<g id="p7" class="st18">
	<circle id="p4-8_1_" class="st19" cx="552.8" cy="817.7" r="8.8"/>
	<text transform="matrix(1 0 0 1 548.9378 822.4821)" class="st11 st3 st20">7</text>
</g>
<g id="p8" class="st18">
	<circle id="p4-8_2_" class="st19" cx="601.5" cy="805.7" r="8.8"/>
	<text transform="matrix(1 0 0 1 597.6045 810.4821)" class="st11 st3 st20">8</text>
</g>
<g id="p9" class="st18">
	<circle id="p4-8_3_" class="st19" cx="596.8" cy="833" r="8.8"/>
	<text transform="matrix(1 0 0 1 592.9378 837.8154)" class="st11 st3 st20">9</text>
</g>
<g id="p10" class="st18">
	<circle id="p4-8_4_" class="st19" cx="722.1" cy="639.7" r="8.8"/>
	<text transform="matrix(1 0 0 1 715.2269 643.8708)" class="st11 st3 st21">10</text>
</g>
<g id="p11" class="st18">
	<circle id="p4-8_5_" class="st19" cx="675.6" cy="538.7" r="8.8"/>
	<text transform="matrix(1 0 0 1 669.7269 542.8708)" class="st11 st3 st21">11</text>
</g>
<g id="p12" class="st18">
	<circle id="p4-8_6_" class="st19" cx="627.6" cy="465.4" r="8.8"/>
	<text transform="matrix(1 0 0 1 621.7269 469.5374)" class="st11 st3 st21">12</text>
</g>
<g id="p13" class="st18">
	<circle id="p4-8_7_" class="st19" cx="590.6" cy="515" r="8.8"/>
	<text transform="matrix(1 0 0 1 583.7269 519.2041)" class="st11 st3 st21">13</text>
</g>
<g id="p14" class="st18">
	<circle id="p4-8_8_" class="st19" cx="642.4" cy="480.5" r="8.8"/>
	<text transform="matrix(1 0 0 1 635.4769 484.7041)" class="st11 st3 st21">14</text>
</g>
<g id="p15" class="st18">
	<circle id="p4-8_9_" class="st19" cx="633.6" cy="498" r="8.8"/>
	<text transform="matrix(1 0 0 1 626.7269 502.2041)" class="st11 st3 st21">15</text>
</g>
<g id="p3" class="st18">
	<circle id="p4-9" class="st19" cx="988.4" cy="675.1" r="8.8"/>
	<text transform="matrix(1 0 0 1 984.6224 679.9811)" class="st11 st3 st20">3</text>
</g>
<g id="p1" class="st18">
	<circle class="st19" cx="911.8" cy="673.7" r="8.8"/>
	<text transform="matrix(1 0 0 1 907.9633 678.4089)" class="st11 st3 st20">1</text>
</g>
<g id="persona">
	<path class="st22" d="M8.4,17.5H7C6.9,17.8,6.7,18,6.5,18H6.3v1.2h4.9V18H8.9C8.6,18,8.4,17.8,8.4,17.5z"/>
	<rect x="6.3" y="13.6" class="st22" width="5" height="1.2"/>
	<path class="st23" d="M10.8,20.3H6.6c0.4,0.7,1.2,1.2,2,1.2C9.5,21.5,10.3,21.1,10.8,20.3z"/>
	<path class="st23" d="M8.4,17.5c0-0.3,0.2-0.5,0.5-0.5h2.3v-1.2H6.3V17h0.1c0.3,0,0.5,0.2,0.5,0.5H8.4z"/>
	<path class="st23" d="M7,11.4c-0.3,0-0.6,0.2-0.6,0.6v0.1l0,0v0.5h5V12c-0.1-0.4-0.4-0.6-0.8-0.6H7z"/>
	<path class="st24" d="M6.2,6.4C6.2,7.8,7.3,9,8.8,9s2.6-1.1,2.6-2.6c-1.2-0.1-2.2-0.4-3.2-1C7.7,5.9,7,6.3,6.2,6.4z"/>
	<path class="st25" d="M7,10.4h3.6c0.5,0,0.9,0.2,1.3,0.5h1.3v-5c0-2.4-1.9-4.3-4.3-4.4l0,0H8.8c-0.5,0-1,0.1-1.4,0.3
		C7.5,2.6,7.9,3.4,8.6,4l0.1,0.1c0.8,0.8,2,1.3,3.1,1.3c0.2,0,0.5,0.1,0.5,0.4v0.1c0,2-1.6,3.6-3.6,3.6S5.2,7.9,5.2,5.9
		c0-0.1,0-0.3,0.1-0.4c0.1,0,0.3-0.1,0.4-0.1c0.7,0,1.5-0.3,1.9-0.9C7,3.9,6.6,3.1,6.3,2.3C5.2,3.1,4.5,4.5,4.4,5.9v4.9h1.3
		C6,10.4,6.5,10.3,7,10.4z"/>
	<path class="st26" d="M4.4,5.9c0-1.4,0.7-2.8,1.9-3.6C6.6,3.1,7,3.9,7.6,4.5C7.1,5,6.4,5.4,5.7,5.4c-0.1,0-0.3,0-0.4,0.1
		S5.2,5.8,5,5.9c0,2,1.6,3.6,3.6,3.6s3.6-1.6,3.6-3.6l0,0l0,0c0-0.1,0-0.3-0.1-0.4s-0.2-0.1-0.3-0.1c-1.1,0-2.3-0.4-3.2-1.2L8.5,4.1
		c-0.6-0.6-1-1.4-1.3-2.2c2.3-0.8,4.8,0.3,5.6,2.6C12.9,5,13,5.4,13.1,5.9v4.9c0,0.3,0.2,0.6,0.5,0.6s0.5-0.2,0.5-0.5v-5
		c0-3-2.4-5.4-5.4-5.4l0,0C8,0.5,7.2,0.7,6.5,1l0,0C4.6,1.9,3.3,3.8,3.3,5.9v4.9c0,0.3,0.2,0.6,0.6,0.6l0,0H4c0.3,0,0.5-0.2,0.5-0.5
		L4.4,5.9z M11.2,6.4C11.2,7.8,10,9,8.6,9S6.1,7.8,6.1,6.4C7,6.3,7.8,5.9,8.4,5.2C9.2,5.9,10.2,6.3,11.2,6.4z"/>
	<path class="st26" d="M15.3,15.5c-0.5-1.6-1.6-3-3.1-3.8c0-0.3-0.2-0.6-0.4-0.8c-0.3-0.4-0.8-0.5-1.3-0.5H6.8
		c-0.5,0-0.9,0.2-1.3,0.5l-0.4,0.8c-3.2,1.8-4.4,5.7-2.7,9C2.5,20.9,2.7,21,2.9,21h0.3c0.3-0.1,0.4-0.5,0.3-0.8
		C2.2,17.7,3,14.6,5.3,13v6.1c0,0.9,0.3,1.8,0.9,2.4l0.5,9L5.2,31c-0.2,0.1-0.4,0.4-0.4,0.6l0,0C4.9,31.9,5,32,5.3,32h0.1l1.9-0.6
		c0.3-0.2,0.4-0.3,0.4-0.6l-0.5-8.6c0.9,0.4,2,0.4,2.9,0l-0.5,8.6c0,0.3,0.1,0.5,0.4,0.5l1.9,0.6H12c0.3,0,0.4-0.1,0.5-0.4
		c0.1-0.2,0-0.5-0.2-0.6l0,0l-1.5-0.5l0.5-9c0.6-0.7,0.9-1.5,0.9-2.4v-6c1,0.7,1.7,1.7,2,2.8c0.5,1.4,0.4,3-0.4,4.4
		c-0.1,0.2,0,0.5,0.2,0.6h0.3c0.2,0,0.4-0.1,0.5-0.3C15.8,19,15.9,17.2,15.3,15.5z M6.3,14.7v-1.2h5v1.2H6.3z M11.2,19.1v0.3H6.3
		v-1.2h0.1c0.3,0,0.5-0.2,0.5-0.5s-0.2-0.6-0.4-0.6H6.3V16h5v1.2H8.9c-0.3,0-0.5,0.2-0.5,0.5s0.2,0.5,0.5,0.5h2.3V19.1z M11.2,12
		v0.5h-5V12c0-0.3,0.2-0.6,0.6-0.6l0,0h3.7C10.9,11.4,11.2,11.6,11.2,12z M6.6,20.3h4.2c-0.8,1.1-2.3,1.5-3.5,0.8L6.6,20.3z"/>
</g>
<g id="barco">
	<path id="trazado1" class="st27" d="M40.3,29.4L28.4,41.3L16.5,29.4c-6.6-6.6-6.6-17.2,0-23.8l0,0c6.6-6.5,17.2-6.5,23.7,0l0,0
		C46.8,12.2,46.8,22.8,40.3,29.4z"/>
	<path id="Trazado_2" class="st28" d="M43.1,17.7c0,3.1-1,6.1-2.7,8.6c-1.7,2.4-4.2,4.3-6.9,5.3c-2.9,1.1-6.2,1.2-9.2,0.4
		c-2.9-0.8-5.5-2.5-7.4-4.8S13.8,22,13.5,19c-0.3-3.1,0.5-6.2,2-8.8s3.8-4.6,6.5-5.9c2.8-1.3,6-1.7,9-1.1s5.7,2.1,7.8,4.2
		c2.1,2.2,3.5,4.9,4,7.9C43,16,43.1,16.8,43.1,17.7c0,0.5,0.7,0.5,0.7,0c0-3.1-1-6.2-2.7-8.8c-1.7-2.5-4.2-4.5-7.1-5.6
		c-2.9-1.2-6.2-1.4-9.3-0.7c-3,0.7-5.7,2.3-7.8,4.5c-2.1,2.3-3.5,5.1-4,8.2c-0.5,3.2,0,6.4,1.4,9.3c1.3,2.7,3.5,5,6.1,6.6
		c2.7,1.6,5.9,2.3,9,2.1s6.1-1.4,8.5-3.4c2.4-1.9,4.2-4.5,5.1-7.4c0.5-1.5,0.7-3.1,0.7-4.7C43.8,17.2,43.1,17.2,43.1,17.7z"/>
	<path id="Trazado_3" class="st28" d="M35.3,19.1c-0.6,1.6-1.3,3.1-1.9,4.7c0,0.1-0.1,0.2-0.1,0.3c0.2-0.1,0.4-0.1,0.5-0.2
		c-0.1,0-0.2-0.1-0.3-0.2s0,0,0,0c-0.1,0-0.1-0.1-0.2-0.1c-0.2-0.1-0.5-0.2-0.7-0.3c-0.9-0.3-1.8-0.1-2.5,0.4
		c-0.4,0.3-0.8,0.5-1.2,0.5c-0.3,0-0.6,0-1-0.2c0,0-0.1,0,0,0h-0.1c0,0-0.1,0-0.1-0.1c-0.1,0-0.1-0.1-0.2-0.1c-0.1-0.1,0.2,0.1,0,0
		l-0.1-0.1c-0.4-0.3-0.9-0.4-1.4-0.5c-0.3,0-0.7,0-1,0.1c-0.4,0.1-0.8,0.4-1.2,0.6c0.2,0.1,0.4,0.1,0.5,0.2
		c-0.6-1.6-1.3-3.1-1.9-4.7c0-0.1-0.1-0.2-0.1-0.3c-0.1,0.1-0.2,0.3-0.3,0.4c1.6-0.5,3.2-1,4.8-1.5c0.7-0.2,1.4-0.4,2.1-0.6
		c-0.1,0-0.1,0-0.2,0c1.6,0.5,3.2,1,4.8,1.5c0.7,0.2,1.4,0.4,2.1,0.6c0.4,0.1,0.6-0.6,0.2-0.7c-1.6-0.5-3.2-1-4.8-1.5
		c-0.7-0.2-1.3-0.4-2-0.6c-0.2,0-0.3,0-0.5,0.1c-0.3,0.1-0.7,0.2-1,0.3c-1.8,0.6-3.7,1.1-5.5,1.7c-0.1,0-0.1,0-0.2,0.1
		c-0.2,0.1-0.3,0.3-0.3,0.4c0.6,1.6,1.3,3.1,1.9,4.7c0,0.1,0.1,0.2,0.1,0.3c0.1,0.2,0.3,0.3,0.5,0.2c0.2-0.1,0.4-0.3,0.6-0.4
		s0.4-0.2,0.7-0.2c0.3-0.1,0.7,0,1,0.1c0.1,0,0.1,0,0.2,0.1c0.1,0-0.1,0,0,0h0.1c0.1,0,0.2,0.1,0.3,0.2c0,0,0.2,0.1,0,0l0.1,0.1
		c0.5,0.3,1.1,0.5,1.7,0.5c0.5,0,0.9-0.2,1.4-0.4c0.2-0.1,0.4-0.3,0.7-0.4c0.2-0.1,0.4-0.2,0.7-0.2c0.2,0,0.5,0,0.7,0
		c0.1,0,0.2,0.1,0.3,0.1h0.1c-0.1,0,0.1,0,0.1,0c0.1,0.1,0.2,0.1,0.3,0.2s0,0,0,0c0.1,0.1,0.2,0.2,0.4,0.2c0.2,0.1,0.4,0,0.5-0.2
		c0.6-1.6,1.3-3.1,1.9-4.7c0-0.1,0.1-0.2,0.1-0.3c0.1-0.2-0.1-0.4-0.3-0.4C35.6,18.8,35.4,18.9,35.3,19.1z"/>
	<path id="Trazado_4" class="st28" d="M36.2,17.3c-0.3,0.6-0.6,1.1-0.8,1.7c0.1-0.1,0.3-0.1,0.4-0.2c-1.6-0.5-3.2-1-4.8-1.5
		c-0.7-0.2-1.3-0.4-2-0.6c-0.2,0-0.3,0-0.5,0.1c-0.3,0.1-0.7,0.2-1,0.3c-1.8,0.6-3.7,1.1-5.5,1.7c-0.1,0-0.1,0-0.2,0.1
		c0.1,0.1,0.3,0.1,0.4,0.2c-0.3-0.6-0.6-1.1-0.8-1.7c-0.1,0.2-0.1,0.4-0.2,0.5c1.5-0.5,3-1,4.6-1.5c1-0.3,2.1-0.7,3.1-1
		c-0.1,0-0.1,0-0.2,0c1.5,0.5,3.1,1,4.6,1.5c1,0.3,2.1,0.7,3.1,1c0.4,0.1,0.6-0.6,0.2-0.7c-1.5-0.5-3.1-1-4.6-1.5
		c-0.9-0.3-1.7-0.6-2.6-0.9c-0.2-0.1-0.3-0.1-0.5-0.2c-0.2-0.1-0.4,0.1-0.5,0.1c-1.9,0.6-3.7,1.2-5.6,1.8c-0.6,0.2-1.2,0.4-1.8,0.6
		c-0.2,0.1-0.3,0.3-0.2,0.5c0.3,0.6,0.6,1.1,0.8,1.7c0.1,0.1,0.3,0.2,0.4,0.2c1.6-0.5,3.2-1,4.8-1.5c0.7-0.2,1.4-0.4,2.1-0.6
		c-0.1,0-0.1,0-0.2,0c1.6,0.5,3.2,1,4.8,1.5c0.7,0.2,1.4,0.4,2.1,0.6c0.1,0,0.3,0,0.4-0.2c0.3-0.6,0.6-1.1,0.8-1.7
		c0.1-0.2,0-0.4-0.1-0.5C36.6,17.1,36.3,17.1,36.2,17.3z"/>
	<path id="Trazado_5" class="st28" d="M33.7,11.5c0.2,1.7,0.4,3.3,0.5,5c0,0.1,0,0.2,0,0.3c0.2-0.1,0.3-0.2,0.5-0.3
		c-1.6-0.5-3.3-1.1-4.9-1.6c-0.3-0.1-0.5-0.2-0.8-0.3c-0.2-0.1-0.3,0-0.5,0.1c-0.9,0.3-1.8,0.6-2.6,0.9c-1,0.3-1.9,0.6-2.9,0.9
		c0.2,0.1,0.3,0.2,0.5,0.3c0.2-1.7,0.4-3.3,0.5-5c0-0.1,0-0.2,0-0.3c-0.1,0.1-0.2,0.2-0.4,0.4c1.4,0,2.8,0,4.3,0c1.9,0,3.8,0,5.7,0
		c0.1,0,0.3,0,0.4,0c0.5,0,0.5-0.7,0-0.7c-1.4,0-2.8,0-4.3,0c-1.9,0-3.8,0-5.7,0c-0.1,0-0.3,0-0.4,0c-0.2,0-0.3,0.2-0.4,0.4
		c-0.2,1.7-0.4,3.3-0.5,5c0,0.1,0,0.2,0,0.3c0,0.2,0.2,0.4,0.5,0.3c1.6-0.5,3.3-1.1,4.9-1.6c0.3-0.1,0.6-0.2,0.9-0.3
		c-0.1,0-0.1,0-0.2,0c1.6,0.5,3.3,1.1,4.9,1.6c0.3,0.1,0.6,0.2,0.9,0.3c0.2,0.1,0.5-0.1,0.5-0.3c-0.2-1.7-0.4-3.3-0.5-5
		c0-0.1,0-0.2,0-0.3c0-0.2-0.1-0.4-0.4-0.4C33.8,11.2,33.6,11.3,33.7,11.5z"/>
	<path id="Trazado_6" class="st28" d="M29.7,11.2c-0.6,0-1.1,0-1.7,0c0.1,0.1,0.2,0.2,0.4,0.4c0-0.8,0-1.6,0-2.5
		c-0.1,0.1-0.2,0.2-0.4,0.4c0.6,0,1.1,0,1.7,0c-0.2-0.2-0.3-0.3-0.4-0.4c0,0.8,0,1.6,0,2.5c0,0.5,0.7,0.5,0.7,0c0-0.8,0-1.6,0-2.5
		c0-0.2-0.2-0.4-0.4-0.4c-0.6,0-1.1,0-1.7,0c-0.2,0-0.4,0.2-0.4,0.4c0,0.8,0,1.6,0,2.5c0,0.2,0.2,0.4,0.4,0.4c0.6,0,1.1,0,1.7,0
		C30.1,11.9,30.1,11.2,29.7,11.2z"/>
	<path id="Trazado_7" class="st28" d="M36.2,23.7c-0.4,0.3-0.8,0.4-1.2,0.5c-0.3,0-0.6,0-0.9-0.2c-0.1,0,0.1,0,0,0H34
		c-0.1,0-0.2-0.1-0.2-0.1s-0.2-0.2-0.1-0.1c0,0-0.1,0-0.1-0.1c-0.1-0.1-0.3-0.2-0.5-0.3c-0.8-0.3-1.6-0.4-2.4,0
		c-0.5,0.2-0.8,0.5-1.3,0.7c-0.4,0.1-0.7,0.1-1,0c-0.1,0-0.1,0-0.2-0.1h-0.1c0,0-0.1,0,0,0c-0.1,0-0.2-0.1-0.3-0.2
		c-0.1,0-0.1-0.1-0.2-0.1c0.1,0.1,0,0,0,0c-0.4-0.3-1-0.5-1.5-0.5s-0.9,0.1-1.3,0.3c-0.2,0.1-0.4,0.2-0.7,0.4
		c-0.2,0.1-0.4,0.2-0.7,0.3c-0.4,0.1-0.7,0.1-1.1,0c-0.3-0.1-0.4-0.1-0.6-0.3c0,0-0.2-0.1-0.1,0c-0.2-0.1-0.4-0.2-0.5,0
		c-0.1,0.1-0.2,0.4,0,0.5c0.4,0.3,0.8,0.5,1.3,0.6c0.4,0.1,0.9,0,1.3-0.1c0.2-0.1,0.5-0.2,0.7-0.3c0.2-0.1,0.4-0.3,0.7-0.4
		c0.3-0.1,0.8-0.2,1.1-0.1c0.2,0,0.3,0.1,0.5,0.1h0.1c0.1,0-0.1,0,0,0s0.1,0.1,0.2,0.1s0.1,0.1,0.2,0.1c0,0,0,0,0.1,0
		c0,0-0.1-0.1-0.1,0c0.1,0.1,0.3,0.2,0.4,0.3c0.7,0.3,1.5,0.4,2.2,0.2c0.2-0.1,0.5-0.2,0.7-0.3c0.2-0.1,0.4-0.3,0.7-0.4
		c0.4-0.1,0.8-0.2,1.1-0.1s0.5,0.1,0.7,0.3c0.1,0,0.1,0.1,0.2,0.1l0,0c-0.1-0.1,0,0,0,0c0.6,0.4,1.4,0.6,2.1,0.5
		c0.5-0.1,0.9-0.3,1.3-0.5c0.2-0.1,0.2-0.3,0.1-0.5C36.6,23.7,36.4,23.6,36.2,23.7L36.2,23.7z"/>
	<path id="Trazado_8" class="st28" d="M25.2,13.3L25.2,13.3L25.2,13.3L25.2,13.3c0-0.1,0-0.1,0-0.1l0,0c0,0,0.1,0,0,0h0.1l0,0h0.1
		l0,0h0.1l0,0h0.1l0,0c0,0,0,0.1,0,0v0.1l0,0v0.1l0,0v0.1l0,0v0.1l0,0c0,0-0.1,0,0,0h-0.1l0,0h-0.1l0,0h-0.1l0,0h-0.1l0,0
		c0,0,0-0.1,0,0C25.2,13.4,25.2,13.4,25.2,13.3C25.2,13.4,25.2,13.4,25.2,13.3C25.2,13.4,25.2,13.4,25.2,13.3L25.2,13.3
		c0,0.2,0.2,0.4,0.4,0.4c0.2,0,0.4-0.2,0.4-0.4c0-0.3-0.2-0.5-0.5-0.5c-0.1,0-0.3,0.1-0.4,0.1C25,13,25,13.1,24.9,13.3
		c0,0.1,0.1,0.3,0.1,0.4c0.1,0.1,0.2,0.1,0.4,0.2c0.1,0,0.3-0.1,0.4-0.1c0.1-0.1,0.1-0.2,0.2-0.4c0-0.2-0.2-0.4-0.4-0.4
		C25.4,13,25.2,13.1,25.2,13.3z"/>
	<path id="Trazado_9" class="st28" d="M27.5,13.3L27.5,13.3L27.5,13.3L27.5,13.3c0-0.1,0-0.1,0-0.1l0,0c0,0,0.1,0,0,0h0.1l0,0h0.1
		l0,0h0.1l0,0h0.1l0,0c0,0,0,0.1,0,0v0.1l0,0v0.1l0,0v0.1l0,0v0.1l0,0c0,0-0.1,0,0,0h-0.1l0,0h-0.1l0,0h-0.1l0,0h-0.1l0,0
		c0,0,0-0.1,0,0C27.5,13.4,27.5,13.4,27.5,13.3C27.5,13.4,27.5,13.4,27.5,13.3C27.5,13.4,27.5,13.4,27.5,13.3L27.5,13.3
		c0,0.2,0.2,0.4,0.4,0.4c0.2,0,0.4-0.2,0.4-0.4c0-0.3-0.2-0.5-0.5-0.5c-0.1,0-0.3,0.1-0.4,0.1c-0.1,0.1-0.1,0.2-0.2,0.4
		c0,0.1,0.1,0.3,0.1,0.4c0.1,0.1,0.2,0.1,0.4,0.2c0.1,0,0.3-0.1,0.4-0.1c0.1-0.1,0.1-0.2,0.2-0.4c0-0.2-0.2-0.4-0.4-0.4
		C27.6,13,27.5,13.1,27.5,13.3z"/>
	<path id="Trazado_10" class="st28" d="M29.7,13.3L29.7,13.3L29.7,13.3L29.7,13.3c0-0.1,0-0.1,0-0.1l0,0c0,0,0.1,0,0,0h0.1l0,0h0.1
		l0,0H30l0,0h0.1l0,0c0,0,0,0.1,0,0v0.1l0,0v0.1l0,0v0.1l0,0v0.1l0,0c0,0-0.1,0,0,0H30l0,0h-0.1l0,0h-0.1l0,0h-0.1l0,0
		c0,0,0-0.1,0,0C29.7,13.4,29.7,13.4,29.7,13.3C29.7,13.4,29.7,13.4,29.7,13.3C29.7,13.4,29.7,13.4,29.7,13.3L29.7,13.3
		c0,0.2,0.2,0.4,0.4,0.4c0.2,0,0.4-0.2,0.4-0.4c0-0.3-0.2-0.5-0.5-0.5c-0.1,0-0.3,0.1-0.4,0.1c-0.1,0.1-0.1,0.2-0.2,0.4
		c0,0.1,0.1,0.3,0.1,0.4c0.1,0.1,0.2,0.1,0.4,0.2c0.1,0,0.3-0.1,0.4-0.1c0.1-0.1,0.1-0.2,0.2-0.4c0-0.2-0.2-0.4-0.4-0.4
		C29.9,13,29.7,13.1,29.7,13.3z"/>
	<path id="Trazado_11" class="st28" d="M32,13.3L32,13.3L32,13.3L32,13.3c0-0.1,0-0.1,0-0.1l0,0c0,0,0.1,0,0,0h0.1l0,0h0.1l0,0h0.1
		l0,0h0.1l0,0c0,0,0,0.1,0,0v0.1l0,0v0.1l0,0v0.1l0,0v0.1l0,0c0,0-0.1,0,0,0h-0.1l0,0h-0.1l0,0h-0.1l0,0H32l0,0c0,0,0-0.1,0,0
		C32,13.4,32,13.4,32,13.3C32,13.4,32,13.4,32,13.3C32,13.4,32,13.4,32,13.3L32,13.3c0,0.2,0.2,0.4,0.4,0.4s0.4-0.2,0.4-0.4
		c0-0.3-0.2-0.5-0.5-0.5c-0.1,0-0.3,0.1-0.4,0.1c-0.1,0.1-0.1,0.2-0.2,0.4c0,0.1,0.1,0.3,0.1,0.4c0.1,0.1,0.2,0.1,0.4,0.2
		c0.1,0,0.3-0.1,0.4-0.1c0.1-0.1,0.1-0.2,0.2-0.4c0-0.2-0.2-0.4-0.4-0.4C32.1,13,32,13.1,32,13.3z"/>
	<path id="Trazado_12" class="st28" d="M33.9,25.6c-0.1,0-0.2-0.1-0.3-0.2s0,0,0,0c-0.1,0-0.1-0.1-0.2-0.1c-0.2-0.1-0.5-0.2-0.7-0.3
		c-0.9-0.3-1.8-0.1-2.5,0.4c-0.4,0.3-0.8,0.5-1.2,0.5c-0.3,0-0.6,0-1-0.2c0,0-0.1,0,0,0h-0.1c0,0-0.1,0-0.1-0.1
		c-0.1,0-0.1-0.1-0.2-0.1c-0.1-0.1,0.2,0.1,0,0l-0.1-0.1c-0.4-0.3-0.9-0.4-1.4-0.5c-0.3,0-0.7,0-1,0.1c-0.4,0.1-0.8,0.4-1.2,0.6
		c-0.4,0.2,0,0.8,0.4,0.6c0.2-0.1,0.4-0.3,0.6-0.4s0.4-0.2,0.7-0.2c0.3-0.1,0.7,0,1,0.1c0.1,0,0.1,0,0.2,0.1c0.1,0-0.1,0,0,0h0.1
		c0.1,0,0.2,0.1,0.3,0.2c0,0,0.2,0.1,0,0l0.1,0.1c0.5,0.3,1.1,0.5,1.7,0.5c0.5,0,0.9-0.2,1.4-0.4c0.2-0.1,0.4-0.3,0.7-0.4
		c0.2-0.1,0.4-0.2,0.7-0.2c0.2,0,0.5,0,0.7,0c0.1,0,0.2,0.1,0.3,0.1h0.1c-0.1,0,0.1,0,0.1,0c0.1,0.1,0.2,0.1,0.3,0.2s0,0,0,0
		c0.1,0.1,0.2,0.2,0.4,0.2C33.9,26.4,34.3,25.8,33.9,25.6L33.9,25.6z"/>
	<path id="Trazado_13" class="st28" d="M28.5,17.1c0,1.7,0,3.3,0,5c0,0.8,0,1.5,0,2.3c0,0.5,0.7,0.5,0.7,0c0-1.7,0-3.3,0-5
		c0-0.8,0-1.5,0-2.3C29.2,16.6,28.5,16.6,28.5,17.1L28.5,17.1z"/>
</g>
<g id="avion">
	<g>
		<path class="st29" d="M6.1,12.2c-0.8,0-1.4,0.6-1.4,1.4v2c0,0.8,0.6,1.4,1.4,1.4s1.4-0.6,1.4-1.4v-2C7.6,12.9,6.9,12.2,6.1,12.2z"
			/>
		<path class="st29" d="M9.3,10.8c-0.6,0-1,0.5-1,1V14c0,0.6,0.5,1,1,1c0.6,0,1-0.5,1-1v-2.1C10.4,11.3,9.9,10.8,9.3,10.8z"/>
	</g>
	<path class="st30" d="M15.5,24.9c0,0-4.2,4-4.6,4.5s-0.2,2,0,2.6c0.2,0.7,5.3-3.3,5.3-3.3L15.5,24.9z"/>
	<path class="st30" d="M15.1,9.1c0,0-12.4,7.8-12.9,8.1s-0.5,2.7-0.5,2.9c0.1,0.3,13.8-3.6,13.8-3.6L15.1,9.1z"/>
	<path class="st31" d="M17.9,0v30.6c0,0-1.4-0.2-2.3-1.3c-0.9-1.1-1.1-23.4-1.2-24.5S16.3,0,17.9,0z"/>
	<path class="st30" d="M17.9,25.8v6.3c0,0-0.7,0-1.3,0c-0.5,0,0.2-5.6,0.2-5.9C16.9,25.9,17.5,25.6,17.9,25.8z"/>
	<path class="st32" d="M17.9,2.7c-0.9,0-1.8,0.8-2.1,1.6s-0.1,0.8,0.1,0.9c0.3,0,1.1-1.2,2-1.2C17.9,3.9,17.9,3.6,17.9,2.7z"/>
	<g>
		<path class="st33" d="M29.7,12.2c0.8,0,1.4,0.6,1.4,1.4v2c0,0.8-0.6,1.4-1.4,1.4s-1.4-0.6-1.4-1.4v-2
			C28.2,12.9,28.9,12.2,29.7,12.2z"/>
		<path class="st33" d="M26.5,10.8c0.6,0,1,0.5,1,1V14c0,0.6-0.5,1-1,1c-0.6,0-1-0.5-1-1v-2.1C25.4,11.3,25.9,10.8,26.5,10.8z"/>
	</g>
	<path class="st34" d="M20.3,24.9c0,0,4.2,4,4.6,4.5s0.2,2,0,2.6c-0.2,0.7-5.2-3.3-5.2-3.3L20.3,24.9z"/>
	<path class="st34" d="M20.7,9.1c0,0,12.4,7.8,12.9,8.1s0.5,2.6,0.4,2.9s-13.8-3.6-13.8-3.6L20.7,9.1z"/>
	<path class="st30" d="M17.9,0v30.6c0,0,1.4-0.2,2.3-1.3c0.9-1.1,1.1-23.4,1.2-24.5S19.5,0,17.9,0z"/>
	<path class="st34" d="M17.9,25.8v6.3c0,0,0.7,0,1.3,0c0.5,0-0.2-5.6-0.2-5.9C18.9,25.9,18.3,25.6,17.9,25.8z"/>
	<path class="st32" d="M17.9,2.7c0.9,0,1.8,0.8,2.1,1.6c0.3,0.8,0.1,0.8-0.1,0.9c-0.3,0-1.1-1.2-2-1.2C17.9,3.9,17.9,3.6,17.9,2.7z"
		/>
</g>
<g id="repeat">
	<path class="st35" d="M1135.5,42c0-13.3,10.8-24.2,24.2-24.2c13.3,0,24.2,10.8,24.2,24.2c0,13.3-10.8,24.2-24.2,24.2
		S1135.5,55.4,1135.5,42z"/>
	<path class="st11" d="M1168.5,31.6c-2-0.6-4.6-0.2-6.7-0.2c-1.7,0-3.5,0-5.2,0c0-1,0-1.9,0-2.9c0-0.3-0.1-0.5-0.3-0.6
		c-0.2-0.2-0.5-0.3-0.8-0.1c-2.8,1.8-5.5,3.5-8.3,5.3c-0.5,0.3-0.5,0.9,0,1.2c2.8,1.8,5.5,3.5,8.3,5.3c0.5,0.3,1.1-0.1,1.1-0.6
		c0-1.1,0-2.3,0-3.4c3.4,0,6.7,0,10.1,0c2.2,0,2.7,1.6,2.7,3.4c0,2.2,0,4.4,0,6.7c0,1.9-1.4,2.7-3.1,2.7c-2,0-4,0-5.9,0
		c-3.8,0-7.7,0-11.5,0c-2.8,0-2.8,4.3,0,4.3c4.4,0,8.8,0,13.3,0c1.6,0,3.2,0,4.8,0c3.7,0,6.7-3.1,6.7-6.8
		C1173.6,40.7,1174.9,33.4,1168.5,31.6z"/>
</g>
</svg>
