<?xml version="1.0" encoding="utf-8"?>
<!-- Generator: Adobe Illustrator 22.1.0, SVG Export Plug-In . SVG Version: 6.00 Build 0)  -->
<svg version="1.1" id="Capa_1" xmlns="http://www.w3.org/2000/svg" xmlns:xlink="http://www.w3.org/1999/xlink" x="0px" y="0px"
	 viewBox="0 0 1200 1000" style="enable-background:new 0 0 1200 1000;" xml:space="preserve">
<style type="text/css">
	.st0{fill:url(#SVGID_1_);}
	.st1{fill:#A3AC7A;stroke:#1D1D1B;stroke-miterlimit:10;}
	.st2{fill:#077EAD;}
	.st3{font-family:'ArialMT';}
	.st4{font-size:16px;}
	.st5{font-size:27.61px;}
	.st6{fill:none;stroke:#231F20;stroke-width:0.75;stroke-miterlimit:10;}
	.st7{fill:#FFFFFF;}
	.st8{font-size:20.12px;}
	.st9{font-size:64.21px;}
	.st10{font-size:14px;}
	.st11{font-size:12px;}
	.st12{font-size:11.5762px;}
	.st13{fill:#F9F9F9;}
	.st14{fill:#FCFCFC;}
	.st15{font-size:10px;}
	.st16{font-size:13px;}
	.st17{font-size:15px;}
	.st18{clip-path:url(#SVGID_3_);fill:#5A98D3;}
	.st19{fill:#E2AE3F;}
	.st20{fill:#C22B2C;}
	.st21{fill:none;stroke:#FFFFFF;stroke-miterlimit:10;}
	.st22{opacity:0.8;}
	.st23{fill:#F59C22;stroke:#FFFFFF;stroke-miterlimit:10;}
	.st24{font-size:14.7px;}
	.st25{font-size:13.4211px;}
	.st26{fill:#39C8C6;}
	.st27{fill:#D3500C;}
	.st28{fill:#F7D0BC;}
	.st29{fill:#FFB13A;}
	.st30{fill:#460929;}
	.st31{fill:#D88F2D;}
	.st32{fill:#FFFFFF;stroke:#F9F7F4;stroke-width:0.75;stroke-miterlimit:10;}
	.st33{fill:#FAA522;}
	.st34{fill:#3A568E;}
	.st35{fill:#4C70B7;}
	.st36{fill:#FFF8A5;}
	.st37{fill:#F58225;}
	.st38{fill:#2E4575;}
	.st39{fill:#357180;}
</style>
<g id="fondo_1_">
	
		<linearGradient id="SVGID_1_" gradientUnits="userSpaceOnUse" x1="-1.7967" y1="-6517.9331" x2="1200.0034" y2="-6517.9331" gradientTransform="matrix(1 0 0 1 3.000000e-02 7018)">
		<stop  offset="0" style="stop-color:#74BCD8"/>
		<stop  offset="1" style="stop-color:#CFEBFC"/>
	</linearGradient>
	<rect x="-1.8" y="0.1" class="st0" width="1201.8" height="1000"/>
	<path class="st1" d="M205.8,249c0,0-3,0.9-3.5-3.5c-0.2-1.6-1.3-3-2.9-3.6c-0.3-0.8-0.1-1.6,0.5-2.2c-0.3-0.8-2.6-2.5-4-2
		c-1,0.4-1.8,1.2-2,2.3c-1.2-0.3-3.5-2.2-4.5-1.8s-3,4.1-3.4,6.1c-0.8,1.5-3.1,1.5-3.2,2s-1,2.8-2.1,3.1c-1.9,0.5-1.9,1.9-2.7,3.5
		s-4.5,0.6-5,0.9s-1,1.3-1.6,1.6s-1.9,0.2-2.5,1.5c-0.6,1.3-2.3-1.4-4.7,0c-2.4,1.4-2.5,2.8-3.5,3s-1.9-0.1-3.3,0.8
		s-5.3-1.1-6.7-1.1s-1,1.7-2,1.8s-3.4-0.7-5.3-0.4s-2.3,2.3-2.7,2.4s-3.5-1.3-5,2.7s-0.3,3.9-0.4,5.9s-2.1,0.6-2.5,5.3
		c-0.5,2.7-3.1,0.8-3.9,2.6s-0.4,3.9-0.9,4.4c-0.5,0.5-1.7-0.9-3.8,3.3s-0.8,2.5-3.1,3.4c-2.2,1.2-4.8,3.1-6.1,3.1s-5.8,2.5-6.1,2.9
		s-2.3-0.4-2.8,0.8s-2.5,1-3.6,1.1s-1.1,2.7-1.6,3s-3.9-0.6-4.6,0.8s-1.8,2.2-1.8,3.9s-1.5,1.8,0,3.6c1.3,1.5,2.8,2.8,4.5,3.8
		c1.2,0.8,3.4,3.4,3.5,4.7s2.7,5.6,2.7,6.6s2.5,3.1,2.9,2s0.7-2,2.3-1.6s2.2,0.9,3.4-0.4s5.5-3.8,6.5-3.5c2.1,0.4,4.3,0.1,6.3-0.8
		c2.6-1.3,5.1-2.8,7.5-4.4c2.9-1.7,5.9-3.2,8.9-4.6c1.2-0.3,8.8-0.8,10.4,0c1.5,0.6,3,1,4.6,1c1,0.2,3.1,2.2,5,3.3s4.1,5.4,5,5.5
		s2.3,5.1,3,6.4s1.2,2.5-0.3,3.6c-1.1,1.3-0.2,6.7,0,7.2s1.4,9,0.8,12c0.5,3.1-1.5,3.4,0,8.8s-0.7,8.9,0.9,12.1s2.3,3.3,3.5,5.2
		s1.1,3.4,4.7,7.3c1,3.2,0.6,5.2-0.9,5.8s-2.8,0-2.3,2.5c0.1,2.4-0.6,2.3-0.6,4.4s0.9,3.7,1.1,5c0.2,1.1,0.6,2.1,1.3,2.9
		c0.4,0.4-0.2,5.5,0.5,6.7s2.7,3.6,4,2.4s1.8-2.8,2.8-1.9s0,3.4,1.6,6.1s1.1,5.1,2.9,6.5s-0.3,5.1,4.3,8.3s3.5,6.1,5.9,7.7
		c2.6,1.9,5.4,3.5,8.4,4.7c3.4,1.2,7.8,2.2,9.8,3.7s2,0,3.3,3s2.9,3.5,3.4,5.2s5,5.5,7.2,5s4.3,1.1,6,1.2s5.9-0.1,6.4,0.9
		s0.2,8.9-0.4,11.4s0.6,5.4-0.3,9.4s1.4,12.4,2.7,14.2s6.4,7.6,10.8,9.3c4.4,1.7,5.4,3.6,9.2,6.7s9,11.5,14.8,14.8s7.5,6,12.9,7.6
		c5,2.2,0.5,6.1,2.2,6.7s5.2-0.4,5.5,0.3s0.6,2.7,1.4,2.8s3.6-0.2,3.6,0.7s-2.4,0.5-2.4,2s0.6,3,1.7,4c1.3,1.4-0.3,2.8-1.4,2.8
		s-1.6,2.3-2.3,3.4s-2.2-0.2-2.1,2.5c0.1,1.9-1.3,3.6-3.2,3.8c-0.9,0-3.3,0-3.9-0.6s-0.6-1.8-2.4-1s-2,1.7-2.8,3.4s-0.6,3.2-1.9,3.7
		s-2.8,1.1-4,0s-5.1,0.1-5.3,2.7c0.1,1,2.9,2,2.1,3.5s-6.9,2.8-8,3.4s-2.6,1.5-2.7,2.6s-2.3,1.5-2.7,1.5s-4.3,0.8-4.9,0
		s-1.2-3.5-3.4-3.5s-4-0.4-4.9-1.6c-0.9-1.2-2.1-0.9-2.5-1.6s0.4-2.2-3.6-1.7c-1.5,0.2-2.5,2-5,1.8s-4.9,0.2-6.9,3.9
		c-0.4,1.5,0.6,3.4-3.1,3.6c-0.9-0.2-1.7-0.5-2.5-1c-1.6-0.9-1.8,1.8-3.1,1.8s-5.8,0.4-6.1,0s-0.9-0.5-2.7,0.2s-5.5,0-6.9-0.5
		s-1.7,0.2-2.3,0.2s-1.7-0.5-2.5,0.6c-1,1.4-2,2.7-3.1,3.9c-0.5,0.5,0.6,1.6,0.4,2.8s0,2.4-0.8,2.4s-1.5,0.7-1.6,0s-1.2-0.6-2,0.3
		s-0.9,1.8-1.9,2.6s-2.7,0-3.5,1.4s-2,3.8-3.6,4.2c-1,0.3-2,0.7-2.9,1.2c-0.4,0-1.1,1.2-1.6,3.9s-2.2,1.3-3.5,2.4s-1.1,2.3-2.5,2.8
		s-5,0-6.5,1s-3.4,0.8-5.2,4.5c-0.8,1.5-3.1,1.7-4.1,1.9c-1.8,0.9-3.3,2.4-4.2,4.2c-1,1.9-2.3,3.7-3.8,5.2c-0.8,0.7-5.7,7.3-7,7.9
		c-2.2,1.4-4.2,3.2-5.8,5.3c-1.9,2.5-6.3,4.1-7.3,5.5s-1.7,3.2-2.8,4.1s-1.1,3.8-1.4,4.1s-3.5,2.5-3.9,8.6
		c-0.4,6.1,1.4,11.4,6.1,15.4s9.1,6.5,11.6,7s7.7,1.6,8.8,6.8s-0.5,6.2-0.5,8s2,7.8,7.2,8.6s3,4.5,6,4.3s2.4,0.2,6.6,2.5
		s12.5,0.7,14.2,0c3.4-1.1,7-1.4,10.5-0.7c4.5,0.9,10-1.3,14.7-0.5s9.5,0.9,11.4,2.4s7.4,2.1,9.5,2.1s8.7,0.4,9.6,1.1
		c2.1,1.5,4.1,3.3,5.8,5.3c1.7,2.3,2.7,0.9,3.4,0.8s9.3-1.5,11.5,2s3.3-2.8,4.4-2s-0.6,2.9,0.4,2.8s3.2-2.3,2.2-4.2
		s-0.7-2.3,0.8-2.2s3.9-1.3,4.3-1.4s3.5-0.4,3.9-1s-0.1-3,0.5-3.4s1.3,0.5,2.7,0.7s2.7-2.3,3.3-2.4c1,0,2,0,3-0.2
		c0.8-0.3,1.9-2.2,2.7-2.2s5-0.7,5.7-1.6s6.5-2.2,7.6-2.2s3,1.4,4,2s3,0.5,3-0.8s0.7-3.5,3-2.8s1-1.4,2-1.5c1.4,0,2.8-0.8,3.5-2
		c1-1.6,4-0.6,4.7-1.1s1.2-0.7,2.1,0.3s2,0.2,2.2-1.2s2.1-2,3.2-2.3s1.9-2.3,1.9-3.7s8.6-8.5,14.1-5.9s4.2,0.9,7.4,0.9
		s2.9,1.4,7.3,1.1s4.4-1,7-1.7s6-3.2,6.6-4.8s0.8-4.1,1.9-4.5c1.5-1,2.7-2.5,3.3-4.2c0.1-0.9,0.5-5.5,2.9-4.9s6.9,2.3,10,1.3
		s3.7-4.9,3.7-6.1s-2.5-7.3-0.8-8s1.9-1.3,1.2-3.5s2.1-5.3,2.9-5.3s-0.3-2-0.3-2.7s-1-5.7-0.1-6.8s4.4-2.3,4.4-3.4
		c-0.1-1.5-0.1-3,0-4.5c0.2-1,0.7-2.7,1.3-2.7s-0.8-3.3,0-4.6s0.1-3,0.6-3.7s6.7-0.9,8.8-1.8s3.7-3.6,3.5-5s1.7-1.2,2.5-1.2
		s1.5-0.8,1.4-1.6v-0.1c0-0.9,1.2,0.3,1.2-0.4s-1.3-5.6-3.5-6.1s0.9-0.8,0.9-1.1s-1.4-3.5-3.6-2.4s-7.3-0.5-7.3-1.9s2.3-1.3,2.9-1.3
		s1.3-3.7-0.3-3.7s-7.4,1.7-8,0.3c0,0-1.8-3.3,0.6-3.8s0.6-1.7,0.1-2.4c-1-1.1-2.3-1.9-3.7-2.4c-1.6-0.4-3,1-4.3,1s-4.4-1.2-3.6-2.7
		s2.7-3.1,2.9-4.6s1.8-0.5,1.8-1.5s-1.9-1-2.7-1.7s-2.7-3.4-3.7-3.4s-0.2-3.6,0.6-4.8s-3.8-6-4.6-6s-3.1,0.7-4.2-0.2
		c-1.1-1-1.6-2.5-1.4-4c0.4-1-0.4-4.1-4.1-6s0.7-5.1-1.8-5.9s-5.8,4.8-7.1,5.1s-5.1,2.9-5.9,2.5c-0.9-0.7-2.1-0.9-3.2-0.6
		c-1.5,0.4-2.3-3.8-3.7-3.8s-3.3,1.7-5-0.4s1.3-2.3,1.3-2.9s-3.4-2.2-2.3-3.9s2.5-5,2.5-6.1s-3-4-4.8-3.8s-3.6,2.8-4.6,2.8
		s-1.8-0.1-1.8-1.4s3.5-1.5,3.5-2s0.6-3.5,2-3.5s3.5-0.2,3.7-1s2.2-4.6,2.6-4.6s0.9-2,0.4-3.4s0.9-8.2,0.1-8.8s-1.7-1.1-0.9-2.4
		s3.1-2.8,3.1-4.1s-1.8-2.2-1.5-4.4s1.8-2,1.8-3s-0.6-8.3-1.2-9.7s-2.9-1.9-3.5-2.7s0.9-5.7,0.9-6.6s-1-1.9,0.6-2s1.6-5.7-1.5-4.8
		s-2.5,3.2-3.7,3.2s-3.2-3.4-3.7-4.4s-3.2-3.3-4.4-4.1s-3.9-6.4-5.4-6.8s-3.3-5.7-4.6-6.3s-5.1-4.3-7.4-5.9s-4.6-5.1-6-5.7
		s-5.6-3.2-7.9-3.8s-12.5-5.9-13.2-7.4s-5.3-3.3-6.7-4.3s0.4-1.7,1.7-1.7s0.9-2.6-0.4-3c-1.4-0.7-2.5-2-2.9-3.5c0-0.9-0.8-3-2.2-3.3
		s0.3-2.8-1.2-3.7s-9.8-5.4-10.2-6.5s-3.6-7-6-9.1s-8.3-7.4-9.1-9.1c-1.1-3.2-1.7-6.5-2-9.8c0.1-0.9-1.2-10.4-1.3-10.9
		s-1.5-7.2-0.1-10.6s2.3-15,2.3-15.9s-0.6-13.1-3.5-16.7c-2.8-3.8-0.1-6.9-3.4-13.8s-3.4-1.2-8.6-8s-6.7-2.7-8.1-5.2s-1-4.6-4.1-6.1
		s-11-12.3-11.8-13.5s-2-0.4-1.5-2.8s-3.3-0.4-2.5-6.5c-1.5-2.3-2.8-1.4-1.5-3.7s-3.2-4.4-3.1-5.9s0.5-3.8-0.2-5.4
		c-0.7-1.6-2.2-2.5-2.3-3s0.5-2.6-0.7-3.2S208.8,248.4,205.8,249z"/>
	<path class="st1" d="M181.9,596.1"/>
	<path class="st1" d="M158.1,416.2c0,0,0.5,1.3-1.2,1.3s-0.4-4-2-4.1c-2.5-0.4-5.1-0.5-7.6-0.5c-3.1,0.1-5.7,0.9-7.7,0.9
		c-2.9,0.1-5.6,1.6-7.2,4.1c-2.3,3.3-12.3,3.1-13.5,3.1c-1.1,0.1-2.1,0.6-2.8,1.4c-2.3,2-5.2,3.2-8.3,3.5c-4.3,0.1-8.6,0.6-10.4,0.6
		s-4.2,0.1-6.5,0s-4.6-0.3-6.3-0.3s-3,0.9-5,0.9s-9.7-0.9-12,2.9s-0.9,7.9,1,13s1.4,14.1,1.4,15.7s-0.9,8.7,2.4,12.9
		s8.8,14.8,9.3,17.3s5.2,8.5,5.2,10.1c0,0-0.1,3.3,8.7,4.1c5.3,0.6,10.7,1.5,15.9,2.7c1.6,0.2,9.9,2.6,11.7,3.7
		c1.8,1.1,5.9,4.1,11.5,1.4c5.6-2.7,17.1-1.4,19.9-2.6c2.8-1.2,6.4,0.6,8.3-0.1s3.4-3.9,4.3-4.4s4.2-3.4,6-3.7s1.2-3.9,2.4-4.7
		s2.7-0.7,2.5-2.5s1.5-0.9,0.8-4.2s-1.5-3.5-2.3-6.2s2.2-2.4,2.5-3.3s0.5-9.3,2.5-11.2s0.4-6.5,0-8.1c-0.3-2.1-0.3-4.3,0.1-6.4
		c0.4-1.1-0.5-3.8-2.3-6.9s2.2-2.4-2.5-6.6c-1.2-1.1-0.9-5.9-1.5-7.4s-4.7-3.6-4.7-4.4s1.2-3-3.4-5.7s-4.2-2.2-5.1-3.3
		S157.1,413.9,158.1,416.2z"/>
	<path class="st1" d="M443.7,371.9c0,0-2.7-5.1-5.5-5c-3.9,0.1-7.8-0.4-11.6-1.5c-5.6-1.3-15.6,2.3-17.7,6.5c-0.5,1.1-2.1,0.3-2.1,0
		c-0.5,1.1-0.5,2.5,0,3.6c-0.9,1.1-4.2,0.9-3.2,4.8s1.7,4.1,1.7,6.2s0.9,3.6-3.9,7.1c-4.6,4.1-2.5,7.9-4.9,10.2s-6.3-1.2-6.6,4.2
		s0.9,4.2-0.5,8.5c1.5,4.6,8,0.3,10.3,3.7s-1.1,3.9,1.8,5.2s4,5.3,3.2,10s3.5,4.1,5.5,3.7s5.2,3.2,6.8,3.2s3.4-3.4,5.2-3.3
		s2.8,3.9,4.2,3.8s3.2-1,4-0.9s4.2,4.6,5.9,5.7c0,0,5.9,5.8,9.1,4.6s3.5-1.6,6.4-1.2s5.8-1.5,8.3-1.3s-0.1,2,1.8,1.6s2.1-2.1,5-1.7
		s2.6-2.3,4.3-2.3s1.5,2.7,3.2,3.3s2.4,2.4,4.2,2.9s7.1,0.1,8.5,1.3s5.3,1.5,10.2,2.9s5.2,0.1,7.1-1.4c1.3-1.2,2.7-2.2,4.3-2.9
		c1.1-0.3-0.1-4.7,0.9-5.7c1-1,4.2-4.6,4.2-6.6s0.1-3.9,1.8-3.9s7.2,2.2,6.6-2.4s0.8-7.3-2.6-7.7s-5.5-1.2-5.5-2.7s0.7-4.2-2.2-4.2
		c-2.9,0-1.6-4.9-1.6-6.2s-0.5-4.7-2.5-5.4s-0.8-9.1-5.1-9.6s-3.6-5.7-5.4-5.7s-6.7-3.6-7.8-3.6s-6.3-1-7.3-1.7s-0.5-2.9-7.3-2.7
		s-9.5-3.5-12-3.5s-3.9-0.4-3.9-2.5s-1.2-4.4-4.1-4.4s-7.6-0.5-8.8-1.1C445.4,373.2,444.5,372.6,443.7,371.9z"/>
	<path class="st1" d="M522.6,419.3c-1.2,0.3-2.4,0.9-3.4,1.6c-1.2,0.1-4.6,2.7-2.1,2.7s3-0.8,4,0s3.3-1.4,3.3-2.2
		S524.2,418.7,522.6,419.3z"/>
	<path class="st1" d="M458.8,470.7c0,0-2.1-1.2-1-2.9c0.5-1.8-2.9-1.2-2.9,0.9s-3,2.5-3,4.3s1.7,5.4,3.5,5.4s1.4,1.8,2.3,1.2
		s-0.4-2.8,1.2-3.2s2.5-3.7,1.8-4.5C460.1,471.5,459.5,471.1,458.8,470.7z"/>
	<path class="st1" d="M479.1,551c0,0-1.2-3.5-3.1-3.8s-4.5-1-4.8-1.7s-3.5,0.8-4,2s-2.9,1.1-2.9,3.5s1.3,4.5,1.3,6.3
		s3.2,4.3,4.3,4.3s5.6,3.5,6.7,3.2s1.3-1.7,2.6-1.7s1.6-1.7,2-3.1s2.1-0.7,1.8-2.1s-2-1.9-1.2-3.5S481.5,551.9,479.1,551z"/>
	<path class="st1" d="M552.5,518.3c0,0-0.8-1.5-1.4-1.5s-0.3,1.1-0.8,1.5s-4.6,0.7-4.6,2.1c-0.1,1.3-1,2.3-2.3,2.5
		c-0.8,0-7.1-0.5-7.4,0.5c-0.3,1.7-0.3,3.4,0,5.1l0.2,0.3c0,0-1,4.6-2,4.6s-6.5,1-6.5,2.3s-0.1,5.7,0.7,6.1s-2.3,5.7-2.7,6.8
		s0,3.4,0,4s-3.6,4.3-3.6,5.7s-0.2,4.5,0.7,5s0.2,6.7-0.7,8.7c0.3,0.9,3,2.9,3.3,4.5c0.4,1.8,0.7,3.6,0.9,5.4c0,1.4-0.5,2.9,1.1,4.5
		s3.7,7.5,7.4,7.5s11.2,0.2,13.3,5.5c4.2,0.7,6.6,0,6.8-0.5c1.4,0.1,3.7,5.5,4.8,7.2s7.1,6.5,9.8,6.2s12.1,7.9,13.9,7.8
		s6.8-2.9,9.2-2.8s6.4,3.6,7.6,3.6s0.9-4.9,2.6-4.9s2,2.2,2.8,2.2s1.1-2.7,3.3-2.7c1.8,0,3.7,0.3,5.4,0.9c1.6,0.7,3.3,0.9,5,0.5
		c1.8-0.4,2.8-2.7,1.2-2.7s-3-0.4-3-0.9s2-2.1,1.2-2.9s0.5-2.9,1.8-2.7s14.1,0.3,15.6,1s9.8,1,11.9-0.5s3.2-7.1,2.8-8.6
		s2.9-4.8,4.3-5.8s-0.8-3.9-0.8-4.2s0.2-1.9,2-0.9s4.4,2.9,6.8,2.3s5.9-3.9,3.2-6s5.7-4,6.4-4.7s1.1-2.7,0-3.5s-3.8-2.7-3.4-4
		s3.6-3.8,3.6-5.9s0-3.5,1.1-3.9s-2-4.4-2.2-6.5s-0.3-5,1.3-6.2s3.1-6.2,3.1-7.1s1.7-4.7-1.3-5.5s-5-4.8-6.7-5s-3.8-4.6-6-4.6
		s-8.7-2.7-11.6-7.2s-4.3-7.1-4.3-8.6c0-1.5-1.8-2.9-1.9-4.7s0-4.3-1.4-4.5s-2.5,2.4-5.3,2.5s-4.8-0.4-6,0c-1.3,0.4-2.5,1.2-3.4,2.2
		c-1.7,1.5-5.4,0.2-6,0.2s-2.2,0.3-3.9,0.5s-5-1.5-5.3,0.6s-0.2,2.5-1,2.5s-2,0-1.4-0.9s1.3-2-0.1-2.1s-2.8-0.4-2.8-0.9
		s-2.5-0.7-3.7,0.3s-0.9-0.6-3.2,0.2s-3.4,1.6-2.9,3.6c0.5,2,2.2,3.4,0.8,4c-0.7,0.5-1.6,0.7-2.5,0.7c-1.6,0.1-2.1-1.7-2.7-1.7
		s-3.5-1.1-3.8,0s-3,0.2-3.5,0.3s-1.8,1-1.8-0.2c-0.3-1.6-1.7-2.8-3.3-2.8c-1.7,0-5-0.9-6,1.4c-1,2.3-2.5,1.7-4.4,1.7
		s-5.4,0.9-6.1,0.4c-1.2-0.9-2.8-1.1-4.2-0.5C559.2,515.8,554.2,519.5,552.5,518.3z"/>
	<path class="st1" d="M634.1,473.6c0,0,2.9,6.5,4.6,10.1s2.7,4.3,3.3,5.8s3.3,4.5,0.8,6.8s-6.1,5.5-7.2,5.8c-2.5,0.6-5,0.9-7.6,0.9
		c-1.5-0.2-3.7-2.9-2.9-5.2s-0.3-5.4,0.3-6.3c1.5-1.7,3.1-3.4,4.8-5c0.8-0.7,1.7-4-1.1-2.7s0.3-2.9,0.3-2.9s1.9-2.5-2.6-5.5
		c-0.3-0.2-0.4-0.7-0.2-1l0.3-0.3C628.8,473,633.5,472,634.1,473.6z"/>
	<path class="st1" d="M629.8,465c-0.6,0.3-2.5-0.9-3.1,0s-0.7,3.9,0.4,3.9c1.2-0.2,2.4-0.4,3.5-0.8c1.4-0.3,2.2-1.1,2-2
		c-0.3-1-1.4-1.6-2.4-1.3C630.1,464.9,629.9,464.9,629.8,465z"/>
	<path class="st1" d="M575.7,808.3c0,0-3.4-1.1-2.5-3.2s-1.2-2.7-2.9-1s-2.8,0.4-3.3,0.5s-2,3.9-3.7,3.6s-1,1.6-2,1.6
		s-4.2,1.6-4.9,0s-1.1-3-2.4-3s-4.1-0.1-4.3,1.1s-4.6,9.5-4.6,11.8s1.2,8.4-0.7,8.4s-2.5,4-2.5,4.7c-0.6,1.8-1.5,3.5-2.6,5
		c-0.7,0.7-4.1,7.1,0,10s4.5,2.3,5,4.2s3.9,1.3,6,1.6s5.5,3.6,6.2,3.8s5.7,2.8,9.2,2.1s7,0.5,8.8-1.6s3.3-2.8,6.7-3.9
		c3.1-1,5.7-3.2,7.3-6c1.1-2.2,1.8-4.6,2.2-7c0-1.3,3.5-4.1,6.6-5.7s2-8.3,3.7-9s1.4-2.4,0-4.3s-6.3-2.4-6.4-3.4s-1.7-4.8-5.4-5.2
		s-5.3,0.8-5.7-0.8S578.1,808.1,575.7,808.3z"/>
	<path class="st1" d="M730.8,634c0,0-3.6-2.3-7-2.2s-9.8,0.4-11.3,0s-2.2,1.6-1.6,3.8s-1.7,4.6-1.7,4.6s0.7,4.2,3.9,4.3
		s3.3,2.5,5.7,2.5s6.1-1.3,8.1,0s2.9,2.6,5.4,1.5s3.5-2.5,2.5-6.4S733.2,634,730.8,634z"/>
	<path class="st1" d="M893.4,862.5c0,0-6.1-5.1-8.3-5.1c-1.4-2.6-3.6-1.3-6.4-1.2s-8.7-1.2-10.3-0.5s-7.1,0.5-7.8,2.2
		s-3.3,1.5-4.6,2.8s-3.9,2.6-4.8,3.9c-1,1.9,1.3,3.9,3.5,3.9s6.5,2.5,7,3.2s9.2,3.3,10.5,3.3s2.4,2.2,2.4,3s2.5-0.9,3.8-0.9
		c2.5,0.1,5,0.5,7.4,1.1c2.2,0.6,3.8,2.1,5.5,1.9s2.6-1.3,4.1,0s4.2,1.3,4.2-1.5s0.1-4.5,2.2-4.5s2.2-3.6,0-3.8s-2.6-0.7-2.6-3.2
		S897.1,863.2,893.4,862.5z"/>
	<path class="st1" d="M1052.2,590.4c0,0-3.5,4.9,0,4.9s6.1,2.9,1.7,7.8s0,8.7-7,9s-7,11.3-13.3,15.4s-4.1,9.6-10.1,11
		c-6,1.4-12.2,1.5-12.5,3.5s-3.2,3.2-3.5,9.8s-7,8.1-7,10.4s-8.1,9.6-8.1,14.2s-6.1,7.3-9.8,7.3s-7,5.5-14.2,5.5s-15.4-0.9-26.7,5.5
		S900,684.9,900,677s9.8-11.3,12.8-12.8s16.8-9.6,16.8-12.2s5.8-0.9,5.8-4.3s-3.2-8.4,0-8.4s6.7,0,6.7,0.9s2.9,4.6,5.8,0.9
		s8.1-0.3,10.4-1.7s5.5-7.8,5.5-11s4.1-8.7,4.1-9.6s-4.6-5.2-1.2-6.1s11.4-7.8,11.4-7.8s5.7-1.8,8.2-3.4s2.8-3.5,5-3.5
		s5.3,0.1,5.3-1.1s3.9-0.1,5.8-1.2s3-3.5,4.3-3.5s0.7-5.3,2.3-5.4s6.6-1.8,8.8,0s7.9,2.7,9,1.5s3.9-1.4,8.5,2.9s5.8,2.6,6.7,2.3
		c1.9-0.7,3.5-1.9,4.8-3.5c0.5-1,1.6-1.6,2.7-1.5C1050,588.5,1052.5,588.9,1052.2,590.4z"/>
	<path class="st1" d="M772.7,169.7c0,0-3.6-6.5-5.5-6.5s-3.1,2.8-4.9,2.8s-5.9,1.7-6.1,3.8s-1,8.2,2.5,9.8s3.3-0.8,3.3-1.7
		s2.5-2.2,4-1.8s3.6,3.9,1.5,4.8s-2.9,2.3-1.2,2.7s4.7-1.4,4.8-3c0.3-1.8,1.2-3.4,2.5-4.7C774.2,175.6,774.4,172.5,772.7,169.7z"/>
	<path class="st1" d="M568.6,158.5c-2.8-2-5.3-4.3-7.4-7c-2.8-3.7-17.9-7.4-26.7,0s-10.5,8.1-10.2,16.5s4.9,10.2,7,12.3
		s4,0.9,5.6,2.8s5.1,9.5,11.1,8.1s7.7,0.7,14.2-1.4s14.3-4,14.9-6.7s2.5-6.3,4.6-7.4S574.9,158.3,568.6,158.5z"/>
	<g>
		<text transform="matrix(1 0 0 1 578.1333 477.5092)" class="st2 st3 st4">Baltra</text>
	</g>
	<g>
		<text transform="matrix(1 0 0 1 586.7385 878.2202)" class="st2 st3 st5">Floreana</text>
	</g>
	<g>
		<text transform="matrix(1 0 0 1 903.3886 913.7302)" class="st2 st3 st5">Española</text>
	</g>
	<g>
		<text transform="matrix(1 0 0 1 705.7485 683.3902)" class="st2 st3 st5">Santa Fé</text>
	</g>
	<g>
		<text transform="matrix(1 0 0 1 460.9185 648.9602)" class="st2 st3 st5">Santa Cruz</text>
	</g>
	<rect x="-10.4" y="-14.5" class="st6" width="200.8" height="156.5"/>
	<path class="st1" d="M94.2,103.8c0,0-0.4-18.9-6.7-18.9s-30.2,6.3-18.9,21.4s10.5-6.7,13.8-6.3s-1.3,13.8,3.4,13.8
		S94.6,108.8,94.2,103.8z"/>
	<text transform="matrix(1 0 0 1 74.8752 32.216)" class="st7 st3 st8">Darwin</text>
	<text transform="matrix(1 0 0 1 108.4728 84.8663)" class="st7 st3 st8">Wolf</text>
	<path class="st1" d="M65.4,34.7c0,0-3.4-7.1-9.2-7.1S26.5,43.9,42.4,55.3S65.4,34.7,65.4,34.7z"/>
	<text transform="matrix(1 0 0 1 14.9254 539.7949)" class="st2 st3 st5">Fernandina</text>
	<g>
		<text transform="matrix(1 0 0 1 460.9189 365.1605)" class="st2 st3 st5">Santiago</text>
	</g>
	<g>
		<text transform="matrix(1 0 0 1 982.1095 552.4923)" class="st2 st3 st5">San Cristobal</text>
	</g>
	<g>
		<text transform="matrix(1 0 0 1 581.9921 206.7944)" class="st2 st3 st5">Marchena</text>
	</g>
	<g>
		<text transform="matrix(1 0 0 1 779.9574 163.2302)" class="st2 st3 st5">Genovesa</text>
	</g>
	<text transform="matrix(1 0 0 1 37.0526 962.2708)" class="st2 st3 st9">PACIFIC OCEAN</text>
	<g>
		<text transform="matrix(1 0 0 1 221.9187 770.9436)" class="st2 st3 st5">Isabela</text>
	</g>
	<g>
		<text transform="matrix(1 0 0 1 663.2588 186.8087)" class="st7 st3 st10">El Barranco </text>
	</g>
	<g>
		<text transform="matrix(1 0 0 1 640.371 171.3086)" class="st7 st3 st10">Prince Philip Steps </text>
	</g>
	<g>
		<text transform="matrix(1 0 0 1 782.2229 193.7942)" class="st7 st3 st11">DARWIN BAY</text>
	</g>
	<g>
		<text transform="matrix(1 0 0 1 3.6989 327.3799)" class="st7 st3 st11">Pta. Vicente Roca</text>
	</g>
	<g>
		<text transform="matrix(1 0 0 1 46.0529 416.2952)" class="st7 st3 st11">Punta Espinosa</text>
	</g>
	<g>
		<text transform="matrix(1 0 0 1 191.8616 418.7815)" class="st7 st3 st11">TAGUS COVE</text>
	</g>
	<g>
		<g>
			<text transform="matrix(1 0 0 1 200.2366 468.3503)" class="st7 st3 st11">Urbina</text>
			<text transform="matrix(1 0 0 1 200.2366 478.7502)" class="st7 st3 st11">Bay</text>
		</g>
	</g>
	<g>
		<text transform="matrix(1 0 0 1 171.4333 506.0056)" class="st7 st3 st11">Punta Mangle</text>
	</g>
	<g>
		<text transform="matrix(1 0 0 1 305.3331 403.3091)" class="st7 st3 st12">Buccaneer Cove</text>
	</g>
	<g>
		<text transform="matrix(1 0 0 1 310.1333 376.6674)" class="st7 st3 st11">Espumilla Beach</text>
	</g>
	<g>
		<text transform="matrix(1 0 0 1 322.1898 422.6496)" class="st7 st3 st11">Egas Port</text>
	</g>
	<g>
		<text transform="matrix(1 0 0 1 519.3351 407.4879)" class="st7 st3 st11">SULLIVAN BAY</text>
	</g>
	<g>
		<text transform="matrix(1 0 0 1 526.5741 429.0919)" class="st7 st3 st11">Bartholomew</text>
	</g>
	<g>
		<text transform="matrix(1 0 0 1 208.6474 561.2091)" class="st7 st3 st11">ELIZABETH BAY</text>
	</g>
	<g>
		<text transform="matrix(1 0 0 1 124.9061 593.023)" class="st7 st3 st11">Moreno Point</text>
	</g>
	<g>
		<text transform="matrix(1 0 0 1 199.2046 640.4088)" class="st7 st3 st11">Sierra Negra</text>
	</g>
	<g>
		<g>
			<text transform="matrix(1 0 0 1 189.4333 706.8303)" class="st7 st3 st11">Tortoise Breeding Center</text>
		</g>
	</g>
	<g>
		<g>
			<text transform="matrix(1 0 0 1 207.3897 736.651)" class="st7 st3 st11">Wetlands</text>
		</g>
	</g>
	<g>
		<g>
			<text transform="matrix(1 0 0 1 312.243 725.4077)" class="st7 st3 st11">Los Tuneles</text>
		</g>
	</g>
	<g>
		<g>
			<text transform="matrix(1 0 0 1 309.8475 686.0373)" class="st7 st3 st11">Wall of Tears</text>
		</g>
	</g>
	<g>
		<g>
			<text transform="matrix(1 0 0 1 379.618 705.5667)" class="st7 st3 st11">Tintoteras</text>
		</g>
	</g>
	<g>
		<g>
			<text transform="matrix(1 0 0 1 411.683 517.0343)" class="st2 st3 st5">Rabida</text>
		</g>
	</g>
	<g>
		<text transform="matrix(1 0 0 1 506.8303 459.3076)" class="st7 st3 st11">Chinese Hat</text>
	</g>
	<g>
		<text transform="matrix(1 0 0 1 511.7331 488.8528)" class="st7 st3 st11">Daphne</text>
	</g>
	<g>
		<text transform="matrix(1 0 0 1 643.8767 462.7885)" class="st13 st3 st11">North Seymour </text>
	</g>
	<g>
		<text transform="matrix(1 0 0 1 646.3248 482.8527)" class="st14 st3 st11">Mosquera Islet</text>
	</g>
	<g>
		<text transform="matrix(1 0 0 1 652.7814 500.2088)" class="st7 st3 st11">Punta Carrion</text>
	</g>
	<g>
		<text transform="matrix(1 0 0 1 682.3715 540.9665)" class="st7 st3 st11">South Plaza</text>
	</g>
	<g>
		<text transform="matrix(1 0 0 1 636.4214 513.0341)" class="st7 st3 st15">Black Turtle</text>
		<text transform="matrix(1 0 0 1 636.4214 522.9545)" class="st7 st3 st15">Cove</text>
	</g>
	<g>
		<text transform="matrix(1 0 0 1 498.848 515.565)" class="st7 st3 st16">Bachas Beach</text>
	</g>
	<g>
		<text transform="matrix(1 0 0 1 459.9333 540.9664)" class="st7 st3 st11">Dragon Hill</text>
	</g>
	<g>
		<g>
			<text transform="matrix(1 0 0 1 439.9333 585.9865)" class="st2 st3 st16">PINZÓN</text>
		</g>
	</g>
	<g>
		<text transform="matrix(1 0 0 1 608.1842 558.0302)" class="st7 st3 st11">Twin Craters</text>
	</g>
	<g>
		<text transform="matrix(1 0 0 1 609.3031 574.0234)" class="st7 st3 st11">Highlands</text>
	</g>
	<g>
		<text transform="matrix(1 0 0 1 545.6792 619.1231)" class="st7 st3 st11">Tortuga Bay</text>
	</g>
	<g>
		<text transform="matrix(1 0 0 1 644.1844 602.6948)" class="st7 st3 st11">Charles Darwin Station </text>
	</g>
	<g>
		<text transform="matrix(1 0 0 1 550.1999 604.8094)" class="st7 st3 st11">Pto. Ayora</text>
	</g>
	<g>
		<text transform="matrix(1 0 0 1 1060.6121 602.7207)" class="st7 st3 st11">Pitt Point</text>
	</g>
	<g>
		<text transform="matrix(1 0 0 1 934.9336 599.1091)" class="st7 st3 st11">Witch Hill</text>
	</g>
	<g>
		<text transform="matrix(1 0 0 1 872.9922 630.9084)" class="st7 st3 st11">Leon Dormido</text>
	</g>
	<g>
		<text transform="matrix(1 0 0 1 872.9927 641.0367)" class="st7 st3 st11">Isla Lobos</text>
	</g>
	<g>
		<text transform="matrix(1 0 0 1 872.9923 659.2216)" class="st7 st3 st11">Tijeretas</text>
	</g>
	<g>
		<text transform="matrix(1 0 0 1 971.1426 659.2221)" class="st7 st3 st11">El Junco</text>
	</g>
	<g>
		<text transform="matrix(1 0 0 1 993.5862 681.3902)" class="st7 st3 st11">Breeding Center</text>
	</g>
	<g>
		<text transform="matrix(1 0 0 1 941.4334 701.8756)" class="st7 st3 st17">Interpretation </text>
		<text transform="matrix(1 0 0 1 941.4339 716.3947)" class="st7 st3 st17">Center</text>
	</g>
	<g>
		<text transform="matrix(1 0 0 1 854.7667 678.3092)" class="st7 st3 st11">Puerto </text>
		<text transform="matrix(1 0 0 1 854.7667 692.7092)" class="st7 st3 st11">Baqueizo</text>
		<text transform="matrix(1 0 0 1 854.7667 707.1092)" class="st7 st3 st11"> Moreno</text>
	</g>
	<g>
		<text transform="matrix(1 0 0 1 887.8592 852.7094)" class="st7 st3 st11">GARDNER BAY</text>
	</g>
	<g>
		<text transform="matrix(1 0 0 1 911.1402 873.7092)" class="st7 st3 st11">Osborn Islet</text>
	</g>
	<g>
		<text transform="matrix(1 0 0 1 765.2166 870.5012)" class="st7 st3 st11">Punta Suares</text>
	</g>
	<g>
		<text transform="matrix(1 0 0 1 614.1335 805.8092)" class="st7 st3 st11">Devils`s Crown </text>
	</g>
	<g>
		<text transform="matrix(1 0 0 1 604.8268 840.2095)" class="st7 st3 st11">Baroness`Observatory</text>
	</g>
	<g>
		<text transform="matrix(1 0 0 1 470.9034 805.8095)" class="st7 st3 st11"> Cormorant Point</text>
	</g>
	<g>
		<text transform="matrix(1 0 0 1 464.3217 822.3747)" class="st7 st3 st11">Post Ofiice Bay</text>
	</g>
	<path class="st7" d="M906,670.1c0.1-0.1,0.2-0.2,0.3-0.3h0.1c0.7,0.3,1.3,0.5,2,0.8s1.4,0.6,2.1,0.8c0.1,0,0.1,0,0.2,0
		c0.1-0.1,0.1-0.1,0.2-0.2c0.1-0.1,0.2-0.1,0.3,0s0.1,0.2,0,0.3l-0.1,0.1c0.2,0.1,0.4,0.1,0.5,0.2c0.2,0.1,0.3,0.1,0.5-0.1
		c0.5-0.5,1-1,1.5-1.6c0.2-0.2,0.4-0.3,0.6-0.3c0.5,0,0.8,0.4,0.6,0.8c0,0.2-0.1,0.3-0.3,0.5c-0.5,0.5-1.1,1.1-1.6,1.6
		c-0.1,0.1-0.1,0.1,0,0.2c0.1,0.2,0.2,0.5,0.3,0.8c0-0.1,0.1-0.1,0.1-0.2c0.1-0.1,0.2-0.1,0.3,0s0.1,0.2,0,0.3l0,0
		c-0.2,0.2-0.2,0.3-0.1,0.6c0.5,1.2,1,2.5,1.5,3.7c0,0.1,0,0.1,0,0.2c-0.1,0.1-0.2,0.2-0.3,0.3c-1.1-1.4-2.2-2.9-3.5-4.1
		c0,0-0.1,0-0.1,0.1c-0.5,0.5-1,1-1.5,1.5c-0.2,0.2-0.3,0.3-0.6,0.4c0,0.1,0.1,0.1,0.1,0.1c0.3,0.5,0.6,1,0.9,1.5c0,0.1,0,0.1,0,0.2
		c-0.1,0.1-0.2,0.2-0.3,0.3c-0.1-0.1-0.2-0.2-0.3-0.3c-0.3-0.4-0.7-0.9-1-1.3c-0.1-0.1-0.1-0.1-0.2,0c-0.2,0.1-0.4,0.2-0.6,0.3h-0.1
		c0.1-0.3,0.3-0.6,0.4-0.8c-0.4-0.3-0.7-0.6-1.1-0.9c-0.2-0.1-0.4-0.3-0.5-0.4c-0.1-0.1-0.1-0.1,0-0.2c0.1-0.1,0.1-0.1,0.2-0.2
		c0.1-0.1,0.1-0.1,0.2,0c0.3,0.2,0.6,0.4,0.9,0.5c0.2,0.1,0.4,0.2,0.6,0.4c0,0,0.1,0,0.1,0.1c0-0.3,0.3-0.5,0.5-0.6
		c0.5-0.5,1-1,1.5-1.4c0,0,0.1,0,0.1-0.1C908.9,672.3,907.5,671.2,906,670.1z"/>
	<path class="st7" d="M629.9,492.9c0.1-0.1,0.2-0.2,0.3-0.3h0.1c0.7,0.3,1.3,0.5,2,0.8s1.4,0.6,2.1,0.8c0.1,0,0.1,0,0.2,0
		c0.1-0.1,0.1-0.1,0.2-0.2c0.1-0.1,0.2-0.1,0.3,0s0.1,0.2,0,0.3l-0.1,0.1c0.2,0.1,0.4,0.1,0.5,0.2c0.2,0.1,0.3,0.1,0.5-0.1
		c0.5-0.5,1-1,1.5-1.6c0.2-0.2,0.4-0.3,0.6-0.3c0.5,0,0.8,0.4,0.6,0.8c0,0.2-0.1,0.3-0.3,0.5c-0.5,0.5-1.1,1.1-1.6,1.6
		c-0.1,0.1-0.1,0.1,0,0.2c0.1,0.2,0.2,0.5,0.3,0.8c0-0.1,0.1-0.1,0.1-0.2c0.1-0.1,0.2-0.1,0.3,0s0.1,0.2,0,0.3l0,0
		c-0.2,0.2-0.2,0.3-0.1,0.6c0.5,1.2,1,2.5,1.5,3.7c0,0.1,0,0.1,0,0.2c-0.1,0.1-0.2,0.2-0.3,0.3c-1.1-1.4-2.2-2.9-3.5-4.1
		c0,0-0.1,0-0.1,0.1c-0.5,0.5-1,1-1.5,1.5c-0.2,0.2-0.3,0.3-0.6,0.4c0,0.1,0.1,0.1,0.1,0.1c0.3,0.5,0.6,1,0.9,1.5c0,0.1,0,0.1,0,0.2
		c-0.1,0.1-0.2,0.2-0.3,0.3c-0.1-0.1-0.2-0.2-0.3-0.3c-0.3-0.4-0.7-0.9-1-1.3c-0.1-0.1-0.1-0.1-0.2,0c-0.2,0.1-0.4,0.2-0.6,0.3h-0.1
		c0.1-0.3,0.3-0.6,0.4-0.8c-0.4-0.3-0.7-0.6-1.1-0.9c-0.2-0.1-0.4-0.3-0.5-0.4s-0.1-0.1,0-0.2s0.1-0.1,0.2-0.2
		c0.1-0.1,0.1-0.1,0.2,0c0.3,0.2,0.6,0.4,0.9,0.5c0.2,0.1,0.4,0.2,0.6,0.4c0,0,0.1,0,0.1,0.1c0-0.3,0.3-0.5,0.5-0.6
		c0.5-0.5,1-1,1.5-1.4c0,0,0.1,0,0.1-0.1C632.8,495.1,631.3,494,629.9,492.9z"/>
	<g>
		<text transform="matrix(1 0 0 1 436.3529 835.7094)" class="st7 st3 st11">Pto. Velasco Ibarra</text>
	</g>
	<g>
		<text transform="matrix(1 0 0 1 474.7189 855.5009)" class="st7 st3 st11">Black Beach</text>
	</g>
	<g>
		<text transform="matrix(1 0 0 1 565.2383 855.5012)" class="st7 st3 st11">Asilo de la Paz</text>
	</g>
	<text transform="matrix(1 0 0 1 630.3479 619.2937)" class="st7 st3 st11">F.LL. Breeding Center</text>
	<text transform="matrix(1 0 0 1 512.9905 576.5983)" class="st7 st3 st11">El Chato</text>
	<path class="st7" d="M1066.2,840.2L1066.2,840.2c0-25.7,20.9-46.6,46.6-46.6h88.6v93.2h-88.6C1087.1,886.9,1066.2,866,1066.2,840.2
		z"/>
	<g>
		<g>
			<g>
				<g>
					<g>
						<g>
							<defs>
								<rect id="SVGID_2_" x="1129.1" y="813.4" width="30.6" height="35.7"/>
							</defs>
							<clipPath id="SVGID_3_">
								<use xlink:href="#SVGID_2_"  style="overflow:visible;"/>
							</clipPath>
							<path class="st18" d="M1147.8,827.8h8.3c1.7,0.1,2.7,0.5,3.1,1.3c0.3,0.6,0.5,1.5,0.5,2.6v10.4c0,1-0.4,2-1.3,2.9
								c-2.6,2.7-6.6,4.1-11.9,4.1c-4.7,0-8.8-1.8-12.2-5.3c-3.5-3.5-5.2-7.8-5.2-12.8s1.8-9.2,5.3-12.5c3.5-3.4,7.7-5,12.5-5
								c3.7,0,7.2,1.2,10.5,3.7c0.8,0.6,1.3,1.3,1.3,2.1s-0.4,1.7-1.1,2.7c-1.2,1.7-2.3,2.5-3.4,2.5c-0.6,0-1.6-0.4-2.9-1.3
								c-1.3-0.9-2.9-1.3-4.7-1.3c-2.4,0-4.5,0.8-6.4,2.5s-2.8,3.9-2.8,6.6c0,2.7,0.9,5,2.8,6.9s4,2.9,6.4,2.9
								c1.7,0,3.3-0.3,4.7-0.8v-5.1h-3.7c-1,0-1.7-0.1-2.1-0.4c-0.4-0.3-0.7-0.6-0.8-1.1c-0.1-0.5-0.2-1.1-0.2-2
								c0-0.8,0.1-1.5,0.2-2s0.4-0.9,0.8-1C1146.1,827.9,1146.9,827.8,1147.8,827.8"/>
						</g>
					</g>
				</g>
			</g>
		</g>
		<path class="st19" d="M1182.2,830.1c-1.2-2.7-4.4-3.9-7.1-2.7c-1.6,0.7-2.7,2.2-3.1,3.8l0,0v0.1v0.1c-0.4,2.1-4,17.7-18.4,26.5
			c-15.5,9.5-31,4.8-31,4.8s-7.1-1.8-12.8-5.8c-0.7-0.5-1.5-0.6-2.3-0.2c-1.2,0.5-1.7,1.9-1.2,3.1c0.2,0.4,0.5,0.7,0.8,1
			c1.6,1.3,15,11.7,32.4,10.4c18.6-1.5,28.6-12.1,28.6-12.1s11-8.9,14.4-25.2C1182.8,832.5,1182.8,831.2,1182.2,830.1"/>
		<path class="st20" d="M1126.9,814.7c0.3-0.5,0.7-0.8,1.3-1c0.6-0.2,1.4-0.3,2.3-0.3s1.7,0.1,2.2,0.2c0.6,0.2,1,0.4,1.3,0.6
			c0.3,0.2,0.5,0.6,0.7,1c0.2,0.6,0.2,1.4,0.2,2.5v27c0,0.7,0,1.3-0.1,1.7c0,0.4-0.2,0.8-0.5,1.3c-0.5,0.9-1.7,1.3-3.8,1.3
			c-2.3,0-3.6-0.6-4-1.8c-0.2-0.6-0.3-1.4-0.3-2.5v-9.9h-12.9v9.9c0,0.7,0,1.3-0.1,1.7c0,0.4-0.2,0.8-0.5,1.3
			c-0.5,0.9-1.7,1.3-3.8,1.3c-2.3,0-3.6-0.6-4-1.8c-0.2-0.6-0.3-1.4-0.3-2.5v-27c0-0.7,0-1.3,0.1-1.7c0-0.4,0.2-0.8,0.5-1.3
			c0.5-0.9,1.7-1.3,3.8-1.3c2.3,0,3.6,0.6,4,1.8c0.2,0.6,0.2,1.4,0.2,2.5v9.9h12.9v-10c0-0.7,0-1.3,0.1-1.7
			C1126.5,815.6,1126.7,815.2,1126.9,814.7"/>
	</g>
	<text transform="matrix(1 0 0 1 617.2572 822.6892)" class="st7 st3 st11">Champion Islet </text>
</g>
<g id="trazos">
	<path id="Trazo1-2" class="st21" d="M643.7,494c0,0-31.3,64-43.3,75.3C633.3,614.3,718,718,381,768S-45,464,108,325
		c0,0,46.7,31.7,34,86.3c20.7-18.7,70.7,72.7,107.3,54.7c-28.7,2-61.3-23.3-62-50C-72,229,238,124,390,416c-56-50,137-109,117-13
		c27-4,90,93,87,109c6-28,30-16,30-16"/>
</g>
<g id="p2" class="st22">
	<circle id="p4-3" class="st23" cx="599" cy="570" r="8.8"/>
	<text transform="matrix(1 0 0 1 595.1953 574.8174)" class="st7 st3 st24">2</text>
</g>
<g id="p5" class="st22">
	<circle id="p4-4" class="st23" cx="250.8" cy="465" r="8.8"/>
	<text transform="matrix(1 0 0 1 247.0271 469.7961)" class="st7 st3 st24">5</text>
</g>
<g id="p6" class="st22">
	<circle id="p4-4_1_" class="st23" cx="186.8" cy="416" r="8.8"/>
	<text transform="matrix(1 0 0 1 183.0271 420.7961)" class="st7 st3 st24">6</text>
</g>
<g id="p7" class="st22">
	<circle id="p4-4_2_" class="st23" cx="388.3" cy="419.5" r="8.8"/>
	<text transform="matrix(1 0 0 1 384.5271 424.2961)" class="st7 st3 st24">7</text>
</g>
<g id="p8" class="st22">
	<circle id="p4-4_3_" class="st23" cx="507.8" cy="405.5" r="8.8"/>
	<text transform="matrix(1 0 0 1 504.0271 410.2961)" class="st7 st3 st24">8</text>
</g>
<g id="p9" class="st22">
	<circle id="p4-4_4_" class="st23" cx="593.8" cy="513" r="8.8"/>
	<text transform="matrix(1 0 0 1 590.0271 517.796)" class="st7 st3 st24">9</text>
</g>
<g id="p10" class="st22">
	<circle id="p4-4_5_" class="st23" cx="624.1" cy="495.8" r="8.8"/>
	<text transform="matrix(1 0 0 1 616.0465 500.3051)" class="st7 st3 st25">10</text>
</g>
<g id="p4" class="st22">
	<ellipse id="p4-7" class="st23" cx="142.4" cy="412.1" rx="8.8" ry="8.8"/>
	<text transform="matrix(1 0 0 1 138.4883 416.8008)" class="st7 st3 st24">4</text>
</g>
<g id="p3" class="st22">
	<circle id="p4-9" class="st23" cx="110.1" cy="325.4" r="8.8"/>
	<text transform="matrix(1 0 0 1 106.3138 330.2998)" class="st7 st3 st24">3</text>
</g>
<g id="p1" class="st22">
	<circle class="st23" cx="643.1" cy="493.7" r="8.8"/>
	<text transform="matrix(1 0 0 1 639.2162 498.4189)" class="st7 st3 st24">1</text>
</g>
<g id="persona">
	<path class="st26" d="M8.4,17.5H7C6.9,17.8,6.7,18,6.5,18H6.3v1.2h4.9V18H8.9C8.6,18,8.4,17.8,8.4,17.5z"/>
	<rect x="6.3" y="13.6" class="st26" width="5" height="1.2"/>
	<path class="st27" d="M10.8,20.3H6.6c0.4,0.7,1.2,1.2,2,1.2C9.5,21.5,10.3,21.1,10.8,20.3z"/>
	<path class="st27" d="M8.4,17.5c0-0.3,0.2-0.5,0.5-0.5h2.3v-1.2H6.3V17h0.1c0.3,0,0.5,0.2,0.5,0.5H8.4z"/>
	<path class="st27" d="M7,11.4c-0.3,0-0.6,0.2-0.6,0.6v0.1l0,0v0.5h5V12c-0.1-0.4-0.4-0.6-0.8-0.6H7z"/>
	<path class="st28" d="M6.2,6.4C6.2,7.8,7.3,9,8.8,9s2.6-1.1,2.6-2.6c-1.2-0.1-2.2-0.4-3.2-1C7.7,5.9,7,6.3,6.2,6.4z"/>
	<path class="st29" d="M7,10.4h3.6c0.5,0,0.9,0.2,1.3,0.5h1.3v-5c0-2.4-1.9-4.3-4.3-4.4l0,0H8.8c-0.5,0-1,0.1-1.4,0.3
		C7.5,2.6,7.9,3.4,8.6,4l0.1,0.1c0.8,0.8,2,1.3,3.1,1.3c0.2,0,0.5,0.1,0.5,0.4v0.1c0,2-1.6,3.6-3.6,3.6S5.2,7.9,5.2,5.9
		c0-0.1,0-0.3,0.1-0.4c0.1,0,0.3-0.1,0.4-0.1c0.7,0,1.5-0.3,1.9-0.9C7,3.9,6.6,3.1,6.3,2.3C5.2,3.1,4.5,4.5,4.4,5.9v4.9h1.3
		C6,10.4,6.5,10.3,7,10.4z"/>
	<path class="st30" d="M4.4,5.9c0-1.4,0.7-2.8,1.9-3.6C6.6,3.1,7,3.9,7.6,4.5C7.1,5,6.4,5.4,5.7,5.4c-0.1,0-0.3,0-0.4,0.1
		S5.2,5.8,5,5.9c0,2,1.6,3.6,3.6,3.6s3.6-1.6,3.6-3.6l0,0l0,0c0-0.1,0-0.3-0.1-0.4s-0.2-0.1-0.3-0.1c-1.1,0-2.3-0.4-3.2-1.2L8.5,4.1
		c-0.6-0.6-1-1.4-1.3-2.2c2.3-0.8,4.8,0.3,5.6,2.6C12.9,5,13,5.4,13.1,5.9v4.9c0,0.3,0.2,0.6,0.5,0.6s0.5-0.2,0.5-0.5v-5
		c0-3-2.4-5.4-5.4-5.4l0,0C8,0.5,7.2,0.7,6.5,1l0,0C4.6,1.9,3.3,3.8,3.3,5.9v4.9c0,0.3,0.2,0.6,0.6,0.6l0,0H4c0.3,0,0.5-0.2,0.5-0.5
		L4.4,5.9z M11.2,6.4C11.2,7.8,10,9,8.6,9S6.1,7.8,6.1,6.4C7,6.3,7.8,5.9,8.4,5.2C9.2,5.9,10.2,6.3,11.2,6.4z"/>
	<path class="st30" d="M15.3,15.5c-0.5-1.6-1.6-3-3.1-3.8c0-0.3-0.2-0.6-0.4-0.8c-0.3-0.4-0.8-0.5-1.3-0.5H6.8
		c-0.5,0-0.9,0.2-1.3,0.5l-0.4,0.8c-3.2,1.8-4.4,5.7-2.7,9C2.5,20.9,2.7,21,2.9,21h0.3c0.3-0.1,0.4-0.5,0.3-0.8
		C2.2,17.7,3,14.6,5.3,13v6.1c0,0.9,0.3,1.8,0.9,2.4l0.5,9L5.2,31c-0.2,0.1-0.4,0.4-0.4,0.6l0,0C4.9,31.9,5,32,5.3,32h0.1l1.9-0.6
		c0.3-0.2,0.4-0.3,0.4-0.6l-0.5-8.6c0.9,0.4,2,0.4,2.9,0l-0.5,8.6c0,0.3,0.1,0.5,0.4,0.5l1.9,0.6H12c0.3,0,0.4-0.1,0.5-0.4
		c0.1-0.2,0-0.5-0.2-0.6l0,0l-1.5-0.5l0.5-9c0.6-0.7,0.9-1.5,0.9-2.4v-6c1,0.7,1.7,1.7,2,2.8c0.5,1.4,0.4,3-0.4,4.4
		c-0.1,0.2,0,0.5,0.2,0.6h0.3c0.2,0,0.4-0.1,0.5-0.3C15.8,19,15.9,17.2,15.3,15.5z M6.3,14.7v-1.2h5v1.2H6.3z M11.2,19.1v0.3H6.3
		v-1.2h0.1c0.3,0,0.5-0.2,0.5-0.5s-0.2-0.6-0.4-0.6H6.3V16h5v1.2H8.9c-0.3,0-0.5,0.2-0.5,0.5s0.2,0.5,0.5,0.5h2.3V19.1z M11.2,12
		v0.5h-5V12c0-0.3,0.2-0.6,0.6-0.6l0,0h3.7C10.9,11.4,11.2,11.6,11.2,12z M6.6,20.3h4.2c-0.8,1.1-2.3,1.5-3.5,0.8L6.6,20.3z"/>
</g>
<g id="barco">
	<path id="trazado1" class="st31" d="M40.3,29.4L28.4,41.3L16.5,29.4c-6.6-6.6-6.6-17.2,0-23.8l0,0c6.6-6.5,17.2-6.5,23.7,0l0,0
		C46.8,12.2,46.8,22.8,40.3,29.4z"/>
	<path id="Trazado_2" class="st32" d="M43.1,17.7c0,3.1-1,6.1-2.7,8.6c-1.7,2.4-4.2,4.3-6.9,5.3c-2.9,1.1-6.2,1.2-9.2,0.4
		c-2.9-0.8-5.5-2.5-7.4-4.8S13.8,22,13.5,19c-0.3-3.1,0.5-6.2,2-8.8s3.8-4.6,6.5-5.9c2.8-1.3,6-1.7,9-1.1s5.7,2.1,7.8,4.2
		c2.1,2.2,3.5,4.9,4,7.9C43,16,43.1,16.8,43.1,17.7c0,0.5,0.7,0.5,0.7,0c0-3.1-1-6.2-2.7-8.8c-1.7-2.5-4.2-4.5-7.1-5.6
		c-2.9-1.2-6.2-1.4-9.3-0.7c-3,0.7-5.7,2.3-7.8,4.5c-2.1,2.3-3.5,5.1-4,8.2c-0.5,3.2,0,6.4,1.4,9.3c1.3,2.7,3.5,5,6.1,6.6
		c2.7,1.6,5.9,2.3,9,2.1s6.1-1.4,8.5-3.4c2.4-1.9,4.2-4.5,5.1-7.4c0.5-1.5,0.7-3.1,0.7-4.7C43.8,17.2,43.1,17.2,43.1,17.7z"/>
	<path id="Trazado_3" class="st32" d="M35.3,19.1c-0.6,1.6-1.3,3.1-1.9,4.7c0,0.1-0.1,0.2-0.1,0.3c0.2-0.1,0.4-0.1,0.5-0.2
		c-0.1,0-0.2-0.1-0.3-0.2s0,0,0,0c-0.1,0-0.1-0.1-0.2-0.1c-0.2-0.1-0.5-0.2-0.7-0.3c-0.9-0.3-1.8-0.1-2.5,0.4
		c-0.4,0.3-0.8,0.5-1.2,0.5c-0.3,0-0.6,0-1-0.2c0,0-0.1,0,0,0h-0.1c0,0-0.1,0-0.1-0.1c-0.1,0-0.1-0.1-0.2-0.1c-0.1-0.1,0.2,0.1,0,0
		l-0.1-0.1c-0.4-0.3-0.9-0.4-1.4-0.5c-0.3,0-0.7,0-1,0.1c-0.4,0.1-0.8,0.4-1.2,0.6c0.2,0.1,0.4,0.1,0.5,0.2
		c-0.6-1.6-1.3-3.1-1.9-4.7c0-0.1-0.1-0.2-0.1-0.3c-0.1,0.1-0.2,0.3-0.3,0.4c1.6-0.5,3.2-1,4.8-1.5c0.7-0.2,1.4-0.4,2.1-0.6
		c-0.1,0-0.1,0-0.2,0c1.6,0.5,3.2,1,4.8,1.5c0.7,0.2,1.4,0.4,2.1,0.6c0.4,0.1,0.6-0.6,0.2-0.7c-1.6-0.5-3.2-1-4.8-1.5
		c-0.7-0.2-1.3-0.4-2-0.6c-0.2,0-0.3,0-0.5,0.1c-0.3,0.1-0.7,0.2-1,0.3c-1.8,0.6-3.7,1.1-5.5,1.7c-0.1,0-0.1,0-0.2,0.1
		c-0.2,0.1-0.3,0.3-0.3,0.4c0.6,1.6,1.3,3.1,1.9,4.7c0,0.1,0.1,0.2,0.1,0.3c0.1,0.2,0.3,0.3,0.5,0.2c0.2-0.1,0.4-0.3,0.6-0.4
		s0.4-0.2,0.7-0.2c0.3-0.1,0.7,0,1,0.1c0.1,0,0.1,0,0.2,0.1c0.1,0-0.1,0,0,0h0.1c0.1,0,0.2,0.1,0.3,0.2c0,0,0.2,0.1,0,0l0.1,0.1
		c0.5,0.3,1.1,0.5,1.7,0.5c0.5,0,0.9-0.2,1.4-0.4c0.2-0.1,0.4-0.3,0.7-0.4c0.2-0.1,0.4-0.2,0.7-0.2c0.2,0,0.5,0,0.7,0
		c0.1,0,0.2,0.1,0.3,0.1h0.1c-0.1,0,0.1,0,0.1,0c0.1,0.1,0.2,0.1,0.3,0.2s0,0,0,0c0.1,0.1,0.2,0.2,0.4,0.2c0.2,0.1,0.4,0,0.5-0.2
		c0.6-1.6,1.3-3.1,1.9-4.7c0-0.1,0.1-0.2,0.1-0.3c0.1-0.2-0.1-0.4-0.3-0.4C35.6,18.8,35.4,18.9,35.3,19.1z"/>
	<path id="Trazado_4" class="st32" d="M36.2,17.3c-0.3,0.6-0.6,1.1-0.8,1.7c0.1-0.1,0.3-0.1,0.4-0.2c-1.6-0.5-3.2-1-4.8-1.5
		c-0.7-0.2-1.3-0.4-2-0.6c-0.2,0-0.3,0-0.5,0.1c-0.3,0.1-0.7,0.2-1,0.3c-1.8,0.6-3.7,1.1-5.5,1.7c-0.1,0-0.1,0-0.2,0.1
		c0.1,0.1,0.3,0.1,0.4,0.2c-0.3-0.6-0.6-1.1-0.8-1.7c-0.1,0.2-0.1,0.4-0.2,0.5c1.5-0.5,3-1,4.6-1.5c1-0.3,2.1-0.7,3.1-1
		c-0.1,0-0.1,0-0.2,0c1.5,0.5,3.1,1,4.6,1.5c1,0.3,2.1,0.7,3.1,1c0.4,0.1,0.6-0.6,0.2-0.7c-1.5-0.5-3.1-1-4.6-1.5
		c-0.9-0.3-1.7-0.6-2.6-0.9c-0.2-0.1-0.3-0.1-0.5-0.2c-0.2-0.1-0.4,0.1-0.5,0.1c-1.9,0.6-3.7,1.2-5.6,1.8c-0.6,0.2-1.2,0.4-1.8,0.6
		c-0.2,0.1-0.3,0.3-0.2,0.5c0.3,0.6,0.6,1.1,0.8,1.7c0.1,0.1,0.3,0.2,0.4,0.2c1.6-0.5,3.2-1,4.8-1.5c0.7-0.2,1.4-0.4,2.1-0.6
		c-0.1,0-0.1,0-0.2,0c1.6,0.5,3.2,1,4.8,1.5c0.7,0.2,1.4,0.4,2.1,0.6c0.1,0,0.3,0,0.4-0.2c0.3-0.6,0.6-1.1,0.8-1.7
		c0.1-0.2,0-0.4-0.1-0.5C36.6,17.1,36.3,17.1,36.2,17.3z"/>
	<path id="Trazado_5" class="st32" d="M33.7,11.5c0.2,1.7,0.4,3.3,0.5,5c0,0.1,0,0.2,0,0.3c0.2-0.1,0.3-0.2,0.5-0.3
		c-1.6-0.5-3.3-1.1-4.9-1.6c-0.3-0.1-0.5-0.2-0.8-0.3c-0.2-0.1-0.3,0-0.5,0.1c-0.9,0.3-1.8,0.6-2.6,0.9c-1,0.3-1.9,0.6-2.9,0.9
		c0.2,0.1,0.3,0.2,0.5,0.3c0.2-1.7,0.4-3.3,0.5-5c0-0.1,0-0.2,0-0.3c-0.1,0.1-0.2,0.2-0.4,0.4c1.4,0,2.8,0,4.3,0c1.9,0,3.8,0,5.7,0
		c0.1,0,0.3,0,0.4,0c0.5,0,0.5-0.7,0-0.7c-1.4,0-2.8,0-4.3,0c-1.9,0-3.8,0-5.7,0c-0.1,0-0.3,0-0.4,0c-0.2,0-0.3,0.2-0.4,0.4
		c-0.2,1.7-0.4,3.3-0.5,5c0,0.1,0,0.2,0,0.3c0,0.2,0.2,0.4,0.5,0.3c1.6-0.5,3.3-1.1,4.9-1.6c0.3-0.1,0.6-0.2,0.9-0.3
		c-0.1,0-0.1,0-0.2,0c1.6,0.5,3.3,1.1,4.9,1.6c0.3,0.1,0.6,0.2,0.9,0.3c0.2,0.1,0.5-0.1,0.5-0.3c-0.2-1.7-0.4-3.3-0.5-5
		c0-0.1,0-0.2,0-0.3c0-0.2-0.1-0.4-0.4-0.4C33.8,11.2,33.6,11.3,33.7,11.5z"/>
	<path id="Trazado_6" class="st32" d="M29.7,11.2c-0.6,0-1.1,0-1.7,0c0.1,0.1,0.2,0.2,0.4,0.4c0-0.8,0-1.6,0-2.5
		c-0.1,0.1-0.2,0.2-0.4,0.4c0.6,0,1.1,0,1.7,0c-0.2-0.2-0.3-0.3-0.4-0.4c0,0.8,0,1.6,0,2.5c0,0.5,0.7,0.5,0.7,0c0-0.8,0-1.6,0-2.5
		c0-0.2-0.2-0.4-0.4-0.4c-0.6,0-1.1,0-1.7,0c-0.2,0-0.4,0.2-0.4,0.4c0,0.8,0,1.6,0,2.5c0,0.2,0.2,0.4,0.4,0.4c0.6,0,1.1,0,1.7,0
		C30.1,11.9,30.1,11.2,29.7,11.2z"/>
	<path id="Trazado_7" class="st32" d="M36.2,23.7c-0.4,0.3-0.8,0.4-1.2,0.5c-0.3,0-0.6,0-0.9-0.2c-0.1,0,0.1,0,0,0H34
		c-0.1,0-0.2-0.1-0.2-0.1s-0.2-0.2-0.1-0.1c0,0-0.1,0-0.1-0.1c-0.1-0.1-0.3-0.2-0.5-0.3c-0.8-0.3-1.6-0.4-2.4,0
		c-0.5,0.2-0.8,0.5-1.3,0.7c-0.4,0.1-0.7,0.1-1,0c-0.1,0-0.1,0-0.2-0.1h-0.1c0,0-0.1,0,0,0c-0.1,0-0.2-0.1-0.3-0.2
		c-0.1,0-0.1-0.1-0.2-0.1c0.1,0.1,0,0,0,0c-0.4-0.3-1-0.5-1.5-0.5s-0.9,0.1-1.3,0.3c-0.2,0.1-0.4,0.2-0.7,0.4
		c-0.2,0.1-0.4,0.2-0.7,0.3c-0.4,0.1-0.7,0.1-1.1,0c-0.3-0.1-0.4-0.1-0.6-0.3c0,0-0.2-0.1-0.1,0c-0.2-0.1-0.4-0.2-0.5,0
		c-0.1,0.1-0.2,0.4,0,0.5c0.4,0.3,0.8,0.5,1.3,0.6c0.4,0.1,0.9,0,1.3-0.1c0.2-0.1,0.5-0.2,0.7-0.3c0.2-0.1,0.4-0.3,0.7-0.4
		c0.3-0.1,0.8-0.2,1.1-0.1c0.2,0,0.3,0.1,0.5,0.1h0.1c0.1,0-0.1,0,0,0s0.1,0.1,0.2,0.1s0.1,0.1,0.2,0.1c0,0,0,0,0.1,0
		c0,0-0.1-0.1-0.1,0c0.1,0.1,0.3,0.2,0.4,0.3c0.7,0.3,1.5,0.4,2.2,0.2c0.2-0.1,0.5-0.2,0.7-0.3c0.2-0.1,0.4-0.3,0.7-0.4
		c0.4-0.1,0.8-0.2,1.1-0.1s0.5,0.1,0.7,0.3c0.1,0,0.1,0.1,0.2,0.1l0,0c-0.1-0.1,0,0,0,0c0.6,0.4,1.4,0.6,2.1,0.5
		c0.5-0.1,0.9-0.3,1.3-0.5c0.2-0.1,0.2-0.3,0.1-0.5C36.6,23.7,36.4,23.6,36.2,23.7L36.2,23.7z"/>
	<path id="Trazado_8" class="st32" d="M25.2,13.3L25.2,13.3L25.2,13.3L25.2,13.3c0-0.1,0-0.1,0-0.1l0,0c0,0,0.1,0,0,0h0.1l0,0h0.1
		l0,0h0.1l0,0h0.1l0,0c0,0,0,0.1,0,0v0.1l0,0v0.1l0,0v0.1l0,0v0.1l0,0c0,0-0.1,0,0,0h-0.1l0,0h-0.1l0,0h-0.1l0,0h-0.1l0,0
		c0,0,0-0.1,0,0C25.2,13.4,25.2,13.4,25.2,13.3C25.2,13.4,25.2,13.4,25.2,13.3C25.2,13.4,25.2,13.4,25.2,13.3L25.2,13.3
		c0,0.2,0.2,0.4,0.4,0.4c0.2,0,0.4-0.2,0.4-0.4c0-0.3-0.2-0.5-0.5-0.5c-0.1,0-0.3,0.1-0.4,0.1C25,13,25,13.1,24.9,13.3
		c0,0.1,0.1,0.3,0.1,0.4c0.1,0.1,0.2,0.1,0.4,0.2c0.1,0,0.3-0.1,0.4-0.1c0.1-0.1,0.1-0.2,0.2-0.4c0-0.2-0.2-0.4-0.4-0.4
		C25.4,13,25.2,13.1,25.2,13.3z"/>
	<path id="Trazado_9" class="st32" d="M27.5,13.3L27.5,13.3L27.5,13.3L27.5,13.3c0-0.1,0-0.1,0-0.1l0,0c0,0,0.1,0,0,0h0.1l0,0h0.1
		l0,0h0.1l0,0h0.1l0,0c0,0,0,0.1,0,0v0.1l0,0v0.1l0,0v0.1l0,0v0.1l0,0c0,0-0.1,0,0,0h-0.1l0,0h-0.1l0,0h-0.1l0,0h-0.1l0,0
		c0,0,0-0.1,0,0C27.5,13.4,27.5,13.4,27.5,13.3C27.5,13.4,27.5,13.4,27.5,13.3C27.5,13.4,27.5,13.4,27.5,13.3L27.5,13.3
		c0,0.2,0.2,0.4,0.4,0.4c0.2,0,0.4-0.2,0.4-0.4c0-0.3-0.2-0.5-0.5-0.5c-0.1,0-0.3,0.1-0.4,0.1c-0.1,0.1-0.1,0.2-0.2,0.4
		c0,0.1,0.1,0.3,0.1,0.4c0.1,0.1,0.2,0.1,0.4,0.2c0.1,0,0.3-0.1,0.4-0.1c0.1-0.1,0.1-0.2,0.2-0.4c0-0.2-0.2-0.4-0.4-0.4
		C27.6,13,27.5,13.1,27.5,13.3z"/>
	<path id="Trazado_10" class="st32" d="M29.7,13.3L29.7,13.3L29.7,13.3L29.7,13.3c0-0.1,0-0.1,0-0.1l0,0c0,0,0.1,0,0,0h0.1l0,0h0.1
		l0,0H30l0,0h0.1l0,0c0,0,0,0.1,0,0v0.1l0,0v0.1l0,0v0.1l0,0v0.1l0,0c0,0-0.1,0,0,0H30l0,0h-0.1l0,0h-0.1l0,0h-0.1l0,0
		c0,0,0-0.1,0,0C29.7,13.4,29.7,13.4,29.7,13.3C29.7,13.4,29.7,13.4,29.7,13.3C29.7,13.4,29.7,13.4,29.7,13.3L29.7,13.3
		c0,0.2,0.2,0.4,0.4,0.4c0.2,0,0.4-0.2,0.4-0.4c0-0.3-0.2-0.5-0.5-0.5c-0.1,0-0.3,0.1-0.4,0.1c-0.1,0.1-0.1,0.2-0.2,0.4
		c0,0.1,0.1,0.3,0.1,0.4c0.1,0.1,0.2,0.1,0.4,0.2c0.1,0,0.3-0.1,0.4-0.1c0.1-0.1,0.1-0.2,0.2-0.4c0-0.2-0.2-0.4-0.4-0.4
		C29.9,13,29.7,13.1,29.7,13.3z"/>
	<path id="Trazado_11" class="st32" d="M32,13.3L32,13.3L32,13.3L32,13.3c0-0.1,0-0.1,0-0.1l0,0c0,0,0.1,0,0,0h0.1l0,0h0.1l0,0h0.1
		l0,0h0.1l0,0c0,0,0,0.1,0,0v0.1l0,0v0.1l0,0v0.1l0,0v0.1l0,0c0,0-0.1,0,0,0h-0.1l0,0h-0.1l0,0h-0.1l0,0H32l0,0c0,0,0-0.1,0,0
		C32,13.4,32,13.4,32,13.3C32,13.4,32,13.4,32,13.3C32,13.4,32,13.4,32,13.3L32,13.3c0,0.2,0.2,0.4,0.4,0.4s0.4-0.2,0.4-0.4
		c0-0.3-0.2-0.5-0.5-0.5c-0.1,0-0.3,0.1-0.4,0.1c-0.1,0.1-0.1,0.2-0.2,0.4c0,0.1,0.1,0.3,0.1,0.4c0.1,0.1,0.2,0.1,0.4,0.2
		c0.1,0,0.3-0.1,0.4-0.1c0.1-0.1,0.1-0.2,0.2-0.4c0-0.2-0.2-0.4-0.4-0.4C32.1,13,32,13.1,32,13.3z"/>
	<path id="Trazado_12" class="st32" d="M33.9,25.6c-0.1,0-0.2-0.1-0.3-0.2s0,0,0,0c-0.1,0-0.1-0.1-0.2-0.1c-0.2-0.1-0.5-0.2-0.7-0.3
		c-0.9-0.3-1.8-0.1-2.5,0.4c-0.4,0.3-0.8,0.5-1.2,0.5c-0.3,0-0.6,0-1-0.2c0,0-0.1,0,0,0h-0.1c0,0-0.1,0-0.1-0.1
		c-0.1,0-0.1-0.1-0.2-0.1c-0.1-0.1,0.2,0.1,0,0l-0.1-0.1c-0.4-0.3-0.9-0.4-1.4-0.5c-0.3,0-0.7,0-1,0.1c-0.4,0.1-0.8,0.4-1.2,0.6
		c-0.4,0.2,0,0.8,0.4,0.6c0.2-0.1,0.4-0.3,0.6-0.4s0.4-0.2,0.7-0.2c0.3-0.1,0.7,0,1,0.1c0.1,0,0.1,0,0.2,0.1c0.1,0-0.1,0,0,0h0.1
		c0.1,0,0.2,0.1,0.3,0.2c0,0,0.2,0.1,0,0l0.1,0.1c0.5,0.3,1.1,0.5,1.7,0.5c0.5,0,0.9-0.2,1.4-0.4c0.2-0.1,0.4-0.3,0.7-0.4
		c0.2-0.1,0.4-0.2,0.7-0.2c0.2,0,0.5,0,0.7,0c0.1,0,0.2,0.1,0.3,0.1h0.1c-0.1,0,0.1,0,0.1,0c0.1,0.1,0.2,0.1,0.3,0.2s0,0,0,0
		c0.1,0.1,0.2,0.2,0.4,0.2C33.9,26.4,34.3,25.8,33.9,25.6L33.9,25.6z"/>
	<path id="Trazado_13" class="st32" d="M28.5,17.1c0,1.7,0,3.3,0,5c0,0.8,0,1.5,0,2.3c0,0.5,0.7,0.5,0.7,0c0-1.7,0-3.3,0-5
		c0-0.8,0-1.5,0-2.3C29.2,16.6,28.5,16.6,28.5,17.1L28.5,17.1z"/>
</g>
<g id="avion">
	<g>
		<path class="st33" d="M6.1,12.2c-0.8,0-1.4,0.6-1.4,1.4v2c0,0.8,0.6,1.4,1.4,1.4s1.4-0.6,1.4-1.4v-2C7.6,12.9,6.9,12.2,6.1,12.2z"
			/>
		<path class="st33" d="M9.3,10.8c-0.6,0-1,0.5-1,1V14c0,0.6,0.5,1,1,1c0.6,0,1-0.5,1-1v-2.1C10.4,11.3,9.9,10.8,9.3,10.8z"/>
	</g>
	<path class="st34" d="M15.5,24.9c0,0-4.2,4-4.6,4.5s-0.2,2,0,2.6c0.2,0.7,5.3-3.3,5.3-3.3L15.5,24.9z"/>
	<path class="st34" d="M15.1,9.1c0,0-12.4,7.8-12.9,8.1s-0.5,2.7-0.5,2.9c0.1,0.3,13.8-3.6,13.8-3.6L15.1,9.1z"/>
	<path class="st35" d="M17.9,0v30.6c0,0-1.4-0.2-2.3-1.3c-0.9-1.1-1.1-23.4-1.2-24.5S16.3,0,17.9,0z"/>
	<path class="st34" d="M17.9,25.8v6.3c0,0-0.7,0-1.3,0c-0.5,0,0.2-5.6,0.2-5.9C16.9,25.9,17.5,25.6,17.9,25.8z"/>
	<path class="st36" d="M17.9,2.7c-0.9,0-1.8,0.8-2.1,1.6s-0.1,0.8,0.1,0.9c0.3,0,1.1-1.2,2-1.2C17.9,3.9,17.9,3.6,17.9,2.7z"/>
	<g>
		<path class="st37" d="M29.7,12.2c0.8,0,1.4,0.6,1.4,1.4v2c0,0.8-0.6,1.4-1.4,1.4s-1.4-0.6-1.4-1.4v-2
			C28.2,12.9,28.9,12.2,29.7,12.2z"/>
		<path class="st37" d="M26.5,10.8c0.6,0,1,0.5,1,1V14c0,0.6-0.5,1-1,1c-0.6,0-1-0.5-1-1v-2.1C25.4,11.3,25.9,10.8,26.5,10.8z"/>
	</g>
	<path class="st38" d="M20.3,24.9c0,0,4.2,4,4.6,4.5s0.2,2,0,2.6c-0.2,0.7-5.2-3.3-5.2-3.3L20.3,24.9z"/>
	<path class="st38" d="M20.7,9.1c0,0,12.4,7.8,12.9,8.1s0.5,2.6,0.4,2.9s-13.8-3.6-13.8-3.6L20.7,9.1z"/>
	<path class="st34" d="M17.9,0v30.6c0,0,1.4-0.2,2.3-1.3c0.9-1.1,1.1-23.4,1.2-24.5S19.5,0,17.9,0z"/>
	<path class="st38" d="M17.9,25.8v6.3c0,0,0.7,0,1.3,0c0.5,0-0.2-5.6-0.2-5.9C18.9,25.9,18.3,25.6,17.9,25.8z"/>
	<path class="st36" d="M17.9,2.7c0.9,0,1.8,0.8,2.1,1.6c0.3,0.8,0.1,0.8-0.1,0.9c-0.3,0-1.1-1.2-2-1.2C17.9,3.9,17.9,3.6,17.9,2.7z"
		/>
</g>
<g id="repeat">
	<path class="st39" d="M1135.5,42c0-13.3,10.8-24.2,24.2-24.2c13.3,0,24.2,10.8,24.2,24.2c0,13.3-10.8,24.2-24.2,24.2
		S1135.5,55.4,1135.5,42z"/>
	<path class="st7" d="M1168.5,31.6c-2-0.6-4.6-0.2-6.7-0.2c-1.7,0-3.5,0-5.2,0c0-1,0-1.9,0-2.9c0-0.3-0.1-0.5-0.3-0.6
		c-0.2-0.2-0.5-0.3-0.8-0.1c-2.8,1.8-5.5,3.5-8.3,5.3c-0.5,0.3-0.5,0.9,0,1.2c2.8,1.8,5.5,3.5,8.3,5.3c0.5,0.3,1.1-0.1,1.1-0.6
		c0-1.1,0-2.3,0-3.4c3.4,0,6.7,0,10.1,0c2.2,0,2.7,1.6,2.7,3.4c0,2.2,0,4.4,0,6.7c0,1.9-1.4,2.7-3.1,2.7c-2,0-4,0-5.9,0
		c-3.8,0-7.7,0-11.5,0c-2.8,0-2.8,4.3,0,4.3c4.4,0,8.8,0,13.3,0c1.6,0,3.2,0,4.8,0c3.7,0,6.7-3.1,6.7-6.8
		C1173.6,40.7,1174.9,33.4,1168.5,31.6z"/>
</g>
</svg>
