<?xml version="1.0" encoding="utf-8"?>
<!-- Generator: Adobe Illustrator 22.1.0, SVG Export Plug-In . SVG Version: 6.00 Build 0)  -->
<svg version="1.1" id="Capa_1" xmlns="http://www.w3.org/2000/svg" xmlns:xlink="http://www.w3.org/1999/xlink" x="0px" y="0px"
	 viewBox="0 0 1200 1000" style="enable-background:new 0 0 1200 1000;" xml:space="preserve">
<style type="text/css">
	.st0{fill:url(#SVGID_1_);}
	.st1{fill:#A3AC7A;stroke:#1D1D1B;stroke-miterlimit:10;}
	.st2{fill:#077EAD;}
	.st3{font-family:'ArialMT';}
	.st4{font-size:16px;}
	.st5{font-size:27.61px;}
	.st6{fill:none;stroke:#231F20;stroke-width:0.75;stroke-miterlimit:10;}
	.st7{fill:#FFFFFF;}
	.st8{font-size:20.12px;}
	.st9{font-size:64.21px;}
	.st10{font-size:14px;}
	.st11{font-size:12px;}
	.st12{font-size:11.5762px;}
	.st13{fill:#F9F9F9;}
	.st14{fill:#FCFCFC;}
	.st15{font-size:10px;}
	.st16{font-size:13px;}
	.st17{font-size:15px;}
	.st18{clip-path:url(#SVGID_3_);fill:#5A98D3;}
	.st19{fill:#E2AE3F;}
	.st20{fill:#C22B2C;}
	.st21{fill:none;stroke:#FFFFFF;stroke-miterlimit:10;}
	.st22{opacity:0.8;}
	.st23{fill:#F59C22;stroke:#FFFFFF;stroke-miterlimit:10;}
	.st24{font-size:14.7px;}
	.st25{font-size:10.5px;}
	.st26{fill:#39C8C6;}
	.st27{fill:#D3500C;}
	.st28{fill:#F7D0BC;}
	.st29{fill:#FFB13A;}
	.st30{fill:#460929;}
	.st31{fill:#D88F2D;}
	.st32{fill:#FFFFFF;stroke:#F9F7F4;stroke-width:0.75;stroke-miterlimit:10;}
	.st33{fill:#FAA522;}
	.st34{fill:#3A568E;}
	.st35{fill:#4C70B7;}
	.st36{fill:#FFF8A5;}
	.st37{fill:#F58225;}
	.st38{fill:#2E4575;}
	.st39{fill:#357180;}
</style>
<g id="fondo_1_">
	
		<linearGradient id="SVGID_1_" gradientUnits="userSpaceOnUse" x1="-1.98" y1="-6518.2368" x2="1199.8201" y2="-6518.2368" gradientTransform="matrix(1 0 0 1 3.000000e-02 7018)">
		<stop  offset="0" style="stop-color:#74BCD8"/>
		<stop  offset="1" style="stop-color:#CFEBFC"/>
	</linearGradient>
	<rect x="-1.9" y="-0.2" class="st0" width="1201.8" height="1000"/>
	<path class="st1" d="M205.7,248.7c0,0-3,0.9-3.5-3.5c-0.2-1.6-1.3-3-2.9-3.6c-0.3-0.8-0.1-1.6,0.5-2.2c-0.3-0.8-2.6-2.5-4-2
		c-1,0.4-1.8,1.2-2,2.3c-1.2-0.3-3.5-2.2-4.5-1.8s-3,4.1-3.4,6.1c-0.8,1.5-3.1,1.5-3.2,2s-1,2.8-2.1,3.1c-1.9,0.5-1.9,1.9-2.7,3.5
		s-4.5,0.6-5,0.9s-1,1.3-1.6,1.6s-1.9,0.2-2.5,1.5c-0.6,1.3-2.3-1.4-4.7,0c-2.4,1.4-2.5,2.8-3.5,3s-1.9-0.1-3.3,0.8
		s-5.3-1.1-6.7-1.1s-1,1.7-2,1.8s-3.4-0.7-5.3-0.4s-2.3,2.3-2.7,2.4s-3.5-1.3-5,2.7s-0.3,3.9-0.4,5.9s-2.1,0.6-2.5,5.3
		c-0.5,2.7-3.1,0.8-3.9,2.6s-0.4,3.9-0.9,4.4s-1.7-0.9-3.8,3.3s-0.8,2.5-3.1,3.4c-2.2,1.2-4.8,3.1-6.1,3.1s-5.8,2.5-6.1,2.9
		s-2.3-0.4-2.8,0.8s-2.5,1-3.6,1.1s-1.1,2.7-1.6,3s-3.9-0.6-4.6,0.8s-1.8,2.2-1.8,3.9s-1.5,1.8,0,3.6c1.3,1.5,2.8,2.8,4.5,3.8
		c1.2,0.8,3.4,3.4,3.5,4.7s2.7,5.6,2.7,6.6s2.5,3.1,2.9,2s0.7-2,2.3-1.6s2.2,0.9,3.4-0.4s5.5-3.8,6.5-3.5c2.1,0.4,4.3,0.1,6.3-0.8
		c2.6-1.3,5.1-2.8,7.5-4.4c2.9-1.7,5.9-3.2,8.9-4.6c1.2-0.3,8.8-0.8,10.4,0c1.5,0.6,3,1,4.6,1c1,0.2,3.1,2.2,5,3.3s4.1,5.4,5,5.5
		s2.3,5.1,3,6.4s1.2,2.5-0.3,3.6c-1.1,1.3-0.2,6.7,0,7.2s1.4,9,0.8,12c0.5,3.1-1.5,3.4,0,8.8s-0.7,8.9,0.9,12.1s2.3,3.3,3.5,5.2
		s1.1,3.4,4.7,7.3c1,3.2,0.6,5.2-0.9,5.8s-2.8,0-2.3,2.5c0.1,2.4-0.6,2.3-0.6,4.4s0.9,3.7,1.1,5c0.2,1.1,0.6,2.1,1.3,2.9
		c0.4,0.4-0.2,5.5,0.5,6.7s2.7,3.6,4,2.4s1.8-2.8,2.8-1.9s0,3.4,1.6,6.1s1.1,5.1,2.9,6.5s-0.3,5.1,4.3,8.3s3.5,6.1,5.9,7.7
		c2.6,1.9,5.4,3.5,8.4,4.7c3.4,1.2,7.8,2.2,9.8,3.7s2,0,3.3,3s2.9,3.5,3.4,5.2s5,5.5,7.2,5s4.3,1.1,6,1.2s5.9-0.1,6.4,0.9
		s0.2,8.9-0.4,11.4s0.6,5.4-0.3,9.4s1.4,12.4,2.7,14.2s6.4,7.6,10.8,9.3c4.4,1.7,5.4,3.6,9.2,6.7s9,11.5,14.8,14.8s7.5,6,12.9,7.6
		c5,2.2,0.5,6.1,2.2,6.7s5.2-0.4,5.5,0.3s0.6,2.7,1.4,2.8s3.6-0.2,3.6,0.7s-2.4,0.5-2.4,2s0.6,3,1.7,4c1.3,1.4-0.3,2.8-1.4,2.8
		s-1.6,2.3-2.3,3.4s-2.2-0.2-2.1,2.5c0.1,1.9-1.3,3.6-3.2,3.8c-0.9,0-3.3,0-3.9-0.6s-0.6-1.8-2.4-1s-2,1.7-2.8,3.4s-0.6,3.2-1.9,3.7
		s-2.8,1.1-4,0s-5.1,0.1-5.3,2.7c0.1,1,2.9,2,2.1,3.5s-6.9,2.8-8,3.4s-2.6,1.5-2.7,2.6s-2.3,1.5-2.7,1.5s-4.3,0.8-4.9,0
		s-1.2-3.5-3.4-3.5s-4-0.4-4.9-1.6c-0.9-1.2-2.1-0.9-2.5-1.6s0.4-2.2-3.6-1.7c-1.5,0.2-2.5,2-5,1.8s-4.9,0.2-6.9,3.9
		c-0.4,1.5,0.6,3.4-3.1,3.6c-0.9-0.2-1.7-0.5-2.5-1c-1.6-0.9-1.8,1.8-3.1,1.8s-5.8,0.4-6.1,0s-0.9-0.5-2.7,0.2s-5.5,0-6.9-0.5
		s-1.7,0.2-2.3,0.2s-1.7-0.5-2.5,0.6c-1,1.4-2,2.7-3.1,3.9c-0.5,0.5,0.6,1.6,0.4,2.8s0,2.4-0.8,2.4s-1.5,0.7-1.6,0s-1.2-0.6-2,0.3
		s-0.9,1.8-1.9,2.6s-2.7,0-3.5,1.4s-2,3.8-3.6,4.2c-1,0.3-2,0.7-2.9,1.2c-0.4,0-1.1,1.2-1.6,3.9s-2.2,1.3-3.5,2.4s-1.1,2.3-2.5,2.8
		s-5,0-6.5,1s-3.4,0.8-5.2,4.5c-0.8,1.5-3.1,1.7-4.1,1.9c-1.8,0.9-3.3,2.4-4.2,4.2c-1,1.9-2.3,3.7-3.8,5.2c-0.8,0.7-5.7,7.3-7,7.9
		c-2.2,1.4-4.2,3.2-5.8,5.3c-1.9,2.5-6.3,4.1-7.3,5.5s-1.7,3.2-2.8,4.1s-1.1,3.8-1.4,4.1s-3.5,2.5-3.9,8.6s1.4,11.4,6.1,15.4
		s9.1,6.5,11.6,7s7.7,1.6,8.8,6.8s-0.5,6.2-0.5,8s2,7.8,7.2,8.6s3,4.5,6,4.3s2.4,0.2,6.6,2.5s12.5,0.7,14.2,0
		c3.4-1.1,7-1.4,10.5-0.7c4.5,0.9,10-1.3,14.7-0.5s9.5,0.9,11.4,2.4s7.4,2.1,9.5,2.1s8.7,0.4,9.6,1.1c2.1,1.5,4.1,3.3,5.8,5.3
		c1.7,2.3,2.7,0.9,3.4,0.8s9.3-1.5,11.5,2s3.3-2.8,4.4-2s-0.6,2.9,0.4,2.8s3.2-2.3,2.2-4.2s-0.7-2.3,0.8-2.2s3.9-1.3,4.3-1.4
		s3.5-0.4,3.9-1s-0.1-3,0.5-3.4s1.3,0.5,2.7,0.7s2.7-2.3,3.3-2.4c1,0,2,0,3-0.2c0.8-0.3,1.9-2.2,2.7-2.2s5-0.7,5.7-1.6
		s6.5-2.2,7.6-2.2s3,1.4,4,2s3,0.5,3-0.8s0.7-3.5,3-2.8s1-1.4,2-1.5c1.4,0,2.8-0.8,3.5-2c1-1.6,4-0.6,4.7-1.1s1.2-0.7,2.1,0.3
		s2,0.2,2.2-1.2s2.1-2,3.2-2.3s1.9-2.3,1.9-3.7s8.6-8.5,14.1-5.9s4.2,0.9,7.4,0.9s2.9,1.4,7.3,1.1s4.4-1,7-1.7s6-3.2,6.6-4.8
		s0.8-4.1,1.9-4.5c1.5-1,2.7-2.5,3.3-4.2c0.1-0.9,0.5-5.5,2.9-4.9s6.9,2.3,10,1.3s3.7-4.9,3.7-6.1s-2.5-7.3-0.8-8s1.9-1.3,1.2-3.5
		s2.1-5.3,2.9-5.3s-0.3-2-0.3-2.7s-1-5.7-0.1-6.8s4.4-2.3,4.4-3.4c-0.1-1.5-0.1-3,0-4.5c0.2-1,0.7-2.7,1.3-2.7s-0.8-3.3,0-4.6
		s0.1-3,0.6-3.7s6.7-0.9,8.8-1.8s3.7-3.6,3.5-5s1.7-1.2,2.5-1.2s1.5-0.8,1.4-1.6v-0.1c0-0.9,1.2,0.3,1.2-0.4s-1.3-5.6-3.5-6.1
		s0.9-0.8,0.9-1.1s-1.4-3.5-3.6-2.4s-7.3-0.5-7.3-1.9s2.3-1.3,2.9-1.3s1.3-3.7-0.3-3.7s-7.4,1.7-8,0.3c0,0-1.8-3.3,0.6-3.8
		s0.6-1.7,0.1-2.4c-1-1.1-2.3-1.9-3.7-2.4c-1.6-0.4-3,1-4.3,1s-4.4-1.2-3.6-2.7s2.7-3.1,2.9-4.6s1.8-0.5,1.8-1.5s-1.9-1-2.7-1.7
		s-2.7-3.4-3.7-3.4s-0.2-3.6,0.6-4.8s-3.8-6-4.6-6s-3.1,0.7-4.2-0.2c-1.1-1-1.6-2.5-1.4-4c0.4-1-0.4-4.1-4.1-6s0.7-5.1-1.8-5.9
		s-5.8,4.8-7.1,5.1s-5.1,2.9-5.9,2.5c-0.9-0.7-2.1-0.9-3.2-0.6c-1.5,0.4-2.3-3.8-3.7-3.8s-3.3,1.7-5-0.4s1.3-2.3,1.3-2.9
		s-3.4-2.2-2.3-3.9s2.5-5,2.5-6.1s-3-4-4.8-3.8s-3.6,2.8-4.6,2.8s-1.8-0.1-1.8-1.4s3.5-1.5,3.5-2s0.6-3.5,2-3.5s3.5-0.2,3.7-1
		s2.2-4.6,2.6-4.6s0.9-2,0.4-3.4s0.9-8.2,0.1-8.8s-1.7-1.1-0.9-2.4s3.1-2.8,3.1-4.1s-1.8-2.2-1.5-4.4s1.8-2,1.8-3s-0.6-8.3-1.2-9.7
		s-2.9-1.9-3.5-2.7s0.9-5.7,0.9-6.6s-1-1.9,0.6-2s1.6-5.7-1.5-4.8s-2.5,3.2-3.7,3.2s-3.2-3.4-3.7-4.4s-3.2-3.3-4.4-4.1
		s-3.9-6.4-5.4-6.8s-3.3-5.7-4.6-6.3s-5.1-4.3-7.4-5.9s-4.6-5.1-6-5.7s-5.6-3.2-7.9-3.8s-12.5-5.9-13.2-7.4s-5.3-3.3-6.7-4.3
		s0.4-1.7,1.7-1.7s0.9-2.6-0.4-3c-1.4-0.7-2.5-2-2.9-3.5c0-0.9-0.8-3-2.2-3.3s0.3-2.8-1.2-3.7s-9.8-5.4-10.2-6.5s-3.6-7-6-9.1
		s-8.3-7.4-9.1-9.1c-1.1-3.2-1.7-6.5-2-9.8c0.1-0.9-1.2-10.4-1.3-10.9s-1.5-7.2-0.1-10.6s2.3-15,2.3-15.9s-0.6-13.1-3.5-16.7
		c-2.8-3.8-0.1-6.9-3.4-13.8c-3.3-6.9-3.4-1.2-8.6-8s-6.7-2.7-8.1-5.2s-1-4.6-4.1-6.1s-11-12.3-11.8-13.5s-2-0.4-1.5-2.8
		s-3.3-0.4-2.5-6.5c-1.5-2.3-2.8-1.4-1.5-3.7s-3.2-4.4-3.1-5.9s0.5-3.8-0.2-5.4c-0.7-1.6-2.2-2.5-2.3-3s0.5-2.6-0.7-3.2
		S208.7,248.1,205.7,248.7z"/>
	<path class="st1" d="M181.8,595.8"/>
	<path class="st1" d="M158,415.9c0,0,0.5,1.3-1.2,1.3s-0.4-4-2-4.1c-2.5-0.4-5.1-0.5-7.6-0.5c-3.1,0.1-5.7,0.9-7.7,0.9
		c-2.9,0.1-5.6,1.6-7.2,4.1c-2.3,3.3-12.3,3.1-13.5,3.1c-1.1,0.1-2.1,0.6-2.8,1.4c-2.3,2-5.2,3.2-8.3,3.5c-4.3,0.1-8.6,0.6-10.4,0.6
		s-4.2,0.1-6.5,0s-4.6-0.3-6.3-0.3s-3,0.9-5,0.9s-9.7-0.9-12,2.9s-0.9,7.9,1,13s1.4,14.1,1.4,15.7s-0.9,8.7,2.4,12.9
		s8.8,14.8,9.3,17.3s5.2,8.5,5.2,10.1c0,0-0.1,3.3,8.7,4.1c5.3,0.6,10.7,1.5,15.9,2.7c1.6,0.2,9.9,2.6,11.7,3.7
		c1.8,1.1,5.9,4.1,11.5,1.4c5.6-2.7,17.1-1.4,19.9-2.6c2.8-1.2,6.4,0.6,8.3-0.1s3.4-3.9,4.3-4.4s4.2-3.4,6-3.7s1.2-3.9,2.4-4.7
		s2.7-0.7,2.5-2.5s1.5-0.9,0.8-4.2s-1.5-3.5-2.3-6.2s2.2-2.4,2.5-3.3s0.5-9.3,2.5-11.2s0.4-6.5,0-8.1c-0.3-2.1-0.3-4.3,0.1-6.4
		c0.4-1.1-0.5-3.8-2.3-6.9s2.2-2.4-2.5-6.6c-1.2-1.1-0.9-5.9-1.5-7.4s-4.7-3.6-4.7-4.4s1.2-3-3.4-5.7s-4.2-2.2-5.1-3.3
		S157,413.6,158,415.9z"/>
	<path class="st1" d="M443.6,371.6c0,0-2.7-5.1-5.5-5c-3.9,0.1-7.8-0.4-11.6-1.5c-5.6-1.3-15.6,2.3-17.7,6.5c-0.5,1.1-2.1,0.3-2.1,0
		c-0.5,1.1-0.5,2.5,0,3.6c-0.9,1.1-4.2,0.9-3.2,4.8s1.7,4.1,1.7,6.2s0.9,3.6-3.9,7.1c-4.6,4.1-2.5,7.9-4.9,10.2s-6.3-1.2-6.6,4.2
		s0.9,4.2-0.5,8.5c1.5,4.6,8,0.3,10.3,3.7s-1.1,3.9,1.8,5.2s4,5.3,3.2,10s3.5,4.1,5.5,3.7s5.2,3.2,6.8,3.2s3.4-3.4,5.2-3.3
		s2.8,3.9,4.2,3.8s3.2-1,4-0.9s4.2,4.6,5.9,5.7c0,0,5.9,5.8,9.1,4.6s3.5-1.6,6.4-1.2s5.8-1.5,8.3-1.3s-0.1,2,1.8,1.6s2.1-2.1,5-1.7
		s2.6-2.3,4.3-2.3s1.5,2.7,3.2,3.3s2.4,2.4,4.2,2.9s7.1,0.1,8.5,1.3s5.3,1.5,10.2,2.9s5.2,0.1,7.1-1.4c1.3-1.2,2.7-2.2,4.3-2.9
		c1.1-0.3-0.1-4.7,0.9-5.7c1-1,4.2-4.6,4.2-6.6s0.1-3.9,1.8-3.9s7.2,2.2,6.6-2.4s0.8-7.3-2.6-7.7s-5.5-1.2-5.5-2.7s0.7-4.2-2.2-4.2
		s-1.6-4.9-1.6-6.2s-0.5-4.7-2.5-5.4s-0.8-9.1-5.1-9.6s-3.6-5.7-5.4-5.7s-6.7-3.6-7.8-3.6s-6.3-1-7.3-1.7s-0.5-2.9-7.3-2.7
		s-9.5-3.5-12-3.5s-3.9-0.4-3.9-2.5s-1.2-4.4-4.1-4.4s-7.6-0.5-8.8-1.1C445.3,372.9,444.4,372.3,443.6,371.6z"/>
	<path class="st1" d="M522.5,419c-1.2,0.3-2.4,0.9-3.4,1.6c-1.2,0.1-4.6,2.7-2.1,2.7s3-0.8,4,0s3.3-1.4,3.3-2.2
		S524.1,418.4,522.5,419z"/>
	<path class="st1" d="M458.7,470.4c0,0-2.1-1.2-1-2.9c0.5-1.8-2.9-1.2-2.9,0.9s-3,2.5-3,4.3s1.7,5.4,3.5,5.4s1.4,1.8,2.3,1.2
		s-0.4-2.8,1.2-3.2s2.5-3.7,1.8-4.5C460,471.2,459.4,470.8,458.7,470.4z"/>
	<path class="st1" d="M479,550.7c0,0-1.2-3.5-3.1-3.8s-4.5-1-4.8-1.7s-3.5,0.8-4,2s-2.9,1.1-2.9,3.5s1.3,4.5,1.3,6.3
		s3.2,4.3,4.3,4.3s5.6,3.5,6.7,3.2s1.3-1.7,2.6-1.7s1.6-1.7,2-3.1s2.1-0.7,1.8-2.1s-2-1.9-1.2-3.5S481.4,551.6,479,550.7z"/>
	<path class="st1" d="M552.4,518c0,0-0.8-1.5-1.4-1.5s-0.3,1.1-0.8,1.5s-4.6,0.7-4.6,2.1c-0.1,1.3-1,2.3-2.3,2.5
		c-0.8,0-7.1-0.5-7.4,0.5c-0.3,1.7-0.3,3.4,0,5.1l0.2,0.3c0,0-1,4.6-2,4.6s-6.5,1-6.5,2.3s-0.1,5.7,0.7,6.1s-2.3,5.7-2.7,6.8
		s0,3.4,0,4s-3.6,4.3-3.6,5.7s-0.2,4.5,0.7,5s0.2,6.7-0.7,8.7c0.3,0.9,3,2.9,3.3,4.5c0.4,1.8,0.7,3.6,0.9,5.4c0,1.4-0.5,2.9,1.1,4.5
		s3.7,7.5,7.4,7.5s11.2,0.2,13.3,5.5c4.2,0.7,6.6,0,6.8-0.5c1.4,0.1,3.7,5.5,4.8,7.2s7.1,6.5,9.8,6.2s12.1,7.9,13.9,7.8
		s6.8-2.9,9.2-2.8s6.4,3.6,7.6,3.6s0.9-4.9,2.6-4.9s2,2.2,2.8,2.2s1.1-2.7,3.3-2.7c1.8,0,3.7,0.3,5.4,0.9c1.6,0.7,3.3,0.9,5,0.5
		c1.8-0.4,2.8-2.7,1.2-2.7s-3-0.4-3-0.9s2-2.1,1.2-2.9s0.5-2.9,1.8-2.7s14.1,0.3,15.6,1s9.8,1,11.9-0.5s3.2-7.1,2.8-8.6
		s2.9-4.8,4.3-5.8s-0.8-3.9-0.8-4.2s0.2-1.9,2-0.9s4.4,2.9,6.8,2.3s5.9-3.9,3.2-6s5.7-4,6.4-4.7s1.1-2.7,0-3.5s-3.8-2.7-3.4-4
		s3.6-3.8,3.6-5.9s0-3.5,1.1-3.9s-2-4.4-2.2-6.5s-0.3-5,1.3-6.2s3.1-6.2,3.1-7.1s1.7-4.7-1.3-5.5s-5-4.8-6.7-5s-3.8-4.6-6-4.6
		s-8.7-2.7-11.6-7.2s-4.3-7.1-4.3-8.6s-1.8-2.9-1.9-4.7s0-4.3-1.4-4.5s-2.5,2.4-5.3,2.5s-4.8-0.4-6,0c-1.3,0.4-2.5,1.2-3.4,2.2
		c-1.7,1.5-5.4,0.2-6,0.2s-2.2,0.3-3.9,0.5s-5-1.5-5.3,0.6s-0.2,2.5-1,2.5s-2,0-1.4-0.9s1.3-2-0.1-2.1s-2.8-0.4-2.8-0.9
		s-2.5-0.7-3.7,0.3s-0.9-0.6-3.2,0.2s-3.4,1.6-2.9,3.6s2.2,3.4,0.8,4c-0.7,0.5-1.6,0.7-2.5,0.7c-1.6,0.1-2.1-1.7-2.7-1.7
		s-3.5-1.1-3.8,0s-3,0.2-3.5,0.3s-1.8,1-1.8-0.2c-0.3-1.6-1.7-2.8-3.3-2.8c-1.7,0-5-0.9-6,1.4c-1,2.3-2.5,1.7-4.4,1.7
		s-5.4,0.9-6.1,0.4c-1.2-0.9-2.8-1.1-4.2-0.5C559.1,515.5,554.1,519.2,552.4,518z"/>
	<path class="st1" d="M634,473.3c0,0,2.9,6.5,4.6,10.1s2.7,4.3,3.3,5.8s3.3,4.5,0.8,6.8s-6.1,5.5-7.2,5.8c-2.5,0.6-5,0.9-7.6,0.9
		c-1.5-0.2-3.7-2.9-2.9-5.2s-0.3-5.4,0.3-6.3c1.5-1.7,3.1-3.4,4.8-5c0.8-0.7,1.7-4-1.1-2.7s0.3-2.9,0.3-2.9s1.9-2.5-2.6-5.5
		c-0.3-0.2-0.4-0.7-0.2-1l0.3-0.3C628.7,472.7,633.4,471.7,634,473.3z"/>
	<path class="st1" d="M629.7,464.7c-0.6,0.3-2.5-0.9-3.1,0s-0.7,3.9,0.4,3.9c1.2-0.2,2.4-0.4,3.5-0.8c1.4-0.3,2.2-1.1,2-2
		c-0.3-1-1.4-1.6-2.4-1.3C630,464.6,629.8,464.6,629.7,464.7z"/>
	<path class="st1" d="M575.6,808c0,0-3.4-1.1-2.5-3.2s-1.2-2.7-2.9-1s-2.8,0.4-3.3,0.5s-2,3.9-3.7,3.6s-1,1.6-2,1.6s-4.2,1.6-4.9,0
		s-1.1-3-2.4-3s-4.1-0.1-4.3,1.1s-4.6,9.5-4.6,11.8s1.2,8.4-0.7,8.4s-2.5,4-2.5,4.7c-0.6,1.8-1.5,3.5-2.6,5c-0.7,0.7-4.1,7.1,0,10
		s4.5,2.3,5,4.2s3.9,1.3,6,1.6s5.5,3.6,6.2,3.8s5.7,2.8,9.2,2.1s7,0.5,8.8-1.6s3.3-2.8,6.7-3.9c3.1-1,5.7-3.2,7.3-6
		c1.1-2.2,1.8-4.6,2.2-7c0-1.3,3.5-4.1,6.6-5.7s2-8.3,3.7-9s1.4-2.4,0-4.3s-6.3-2.4-6.4-3.4s-1.7-4.8-5.4-5.2s-5.3,0.8-5.7-0.8
		S578,807.8,575.6,808z"/>
	<path class="st1" d="M730.7,633.7c0,0-3.6-2.3-7-2.2s-9.8,0.4-11.3,0s-2.2,1.6-1.6,3.8s-1.7,4.6-1.7,4.6s0.7,4.2,3.9,4.3
		s3.3,2.5,5.7,2.5s6.1-1.3,8.1,0s2.9,2.6,5.4,1.5s3.5-2.5,2.5-6.4S733.1,633.7,730.7,633.7z"/>
	<path class="st1" d="M893.3,862.2c0,0-6.1-5.1-8.3-5.1c-1.4-2.6-3.6-1.3-6.4-1.2s-8.7-1.2-10.3-0.5s-7.1,0.5-7.8,2.2
		s-3.3,1.5-4.6,2.8s-3.9,2.6-4.8,3.9c-1,1.9,1.3,3.9,3.5,3.9s6.5,2.5,7,3.2s9.2,3.3,10.5,3.3s2.4,2.2,2.4,3s2.5-0.9,3.8-0.9
		c2.5,0.1,5,0.5,7.4,1.1c2.2,0.6,3.8,2.1,5.5,1.9s2.6-1.3,4.1,0s4.2,1.3,4.2-1.5s0.1-4.5,2.2-4.5s2.2-3.6,0-3.8s-2.6-0.7-2.6-3.2
		S897,862.9,893.3,862.2z"/>
	<path class="st1" d="M1052.1,590.1c0,0-3.5,4.9,0,4.9s6.1,2.9,1.7,7.8s0,8.7-7,9s-7,11.3-13.3,15.4s-4.1,9.6-10.1,11
		s-12.2,1.5-12.5,3.5s-3.2,3.2-3.5,9.8s-7,8.1-7,10.4s-8.1,9.6-8.1,14.2s-6.1,7.3-9.8,7.3s-7,5.5-14.2,5.5s-15.4-0.9-26.7,5.5
		s-41.7-9.8-41.7-17.7s9.8-11.3,12.8-12.8s16.8-9.6,16.8-12.2s5.8-0.9,5.8-4.3s-3.2-8.4,0-8.4s6.7,0,6.7,0.9s2.9,4.6,5.8,0.9
		s8.1-0.3,10.4-1.7s5.5-7.8,5.5-11s4.1-8.7,4.1-9.6s-4.6-5.2-1.2-6.1s11.4-7.8,11.4-7.8s5.7-1.8,8.2-3.4s2.8-3.5,5-3.5
		s5.3,0.1,5.3-1.1s3.9-0.1,5.8-1.2s3-3.5,4.3-3.5s0.7-5.3,2.3-5.4s6.6-1.8,8.8,0s7.9,2.7,9,1.5s3.9-1.4,8.5,2.9s5.8,2.6,6.7,2.3
		c1.9-0.7,3.5-1.9,4.8-3.5c0.5-1,1.6-1.6,2.7-1.5C1049.8,588.2,1052.3,588.6,1052.1,590.1z"/>
	<path class="st1" d="M772.6,169.4c0,0-3.6-6.5-5.5-6.5s-3.1,2.8-4.9,2.8s-5.9,1.7-6.1,3.8s-1,8.2,2.5,9.8s3.3-0.8,3.3-1.7
		s2.5-2.2,4-1.8s3.6,3.9,1.5,4.8s-2.9,2.3-1.2,2.7s4.7-1.4,4.8-3c0.3-1.8,1.2-3.4,2.5-4.7C774.1,175.3,774.3,172.2,772.6,169.4z"/>
	<path class="st1" d="M568.5,158.2c-2.8-2-5.3-4.3-7.4-7c-2.8-3.7-17.9-7.4-26.7,0s-10.5,8.1-10.2,16.5s4.9,10.2,7,12.3
		s4,0.9,5.6,2.8s5.1,9.5,11.1,8.1s7.7,0.7,14.2-1.4s14.3-4,14.9-6.7s2.5-6.3,4.6-7.4S574.8,158,568.5,158.2z"/>
	<g>
		<text transform="matrix(1 0 0 1 577.95 477.2058)" class="st2 st3 st4">Baltra</text>
	</g>
	<g>
		<text transform="matrix(1 0 0 1 586.5552 877.9169)" class="st2 st3 st5">Floreana</text>
	</g>
	<g>
		<text transform="matrix(1 0 0 1 903.2053 913.4268)" class="st2 st3 st5">Española</text>
	</g>
	<g>
		<text transform="matrix(1 0 0 1 705.5652 683.0869)" class="st2 st3 st5">Santa Fé</text>
	</g>
	<g>
		<text transform="matrix(1 0 0 1 460.7352 648.6569)" class="st2 st3 st5">Santa Cruz</text>
	</g>
	<rect x="-10.5" y="-14.8" class="st6" width="200.8" height="156.5"/>
	<path class="st1" d="M94.1,103.5c0,0-0.4-18.9-6.7-18.9S57.2,90.9,68.5,106s10.5-6.7,13.8-6.3s-1.3,13.8,3.4,13.8
		S94.5,108.5,94.1,103.5z"/>
	<text transform="matrix(1 0 0 1 74.6919 31.9126)" class="st7 st3 st8">Darwin</text>
	<text transform="matrix(1 0 0 1 108.2895 84.5629)" class="st7 st3 st8">Wolf</text>
	<path class="st1" d="M65.3,34.4c0,0-3.4-7.1-9.2-7.1S26.4,43.6,42.3,55S65.3,34.4,65.3,34.4z"/>
	<text transform="matrix(1 0 0 1 14.7421 539.4915)" class="st2 st3 st5">Fernandina</text>
	<g>
		<text transform="matrix(1 0 0 1 460.7356 364.8571)" class="st2 st3 st5">Santiago</text>
	</g>
	<g>
		<text transform="matrix(1 0 0 1 981.9261 552.189)" class="st2 st3 st5">San Cristobal</text>
	</g>
	<g>
		<text transform="matrix(1 0 0 1 581.8088 206.491)" class="st2 st3 st5">Marchena</text>
	</g>
	<g>
		<text transform="matrix(1 0 0 1 779.7741 162.9268)" class="st2 st3 st5">Genovesa</text>
	</g>
	<text transform="matrix(1 0 0 1 36.8693 961.9675)" class="st2 st3 st9">PACIFIC OCEAN</text>
	<g>
		<text transform="matrix(1 0 0 1 221.7354 770.6403)" class="st2 st3 st5">Isabela</text>
	</g>
	<g>
		<text transform="matrix(1 0 0 1 663.0755 186.5052)" class="st7 st3 st10">El Barranco </text>
	</g>
	<g>
		<text transform="matrix(1 0 0 1 640.1876 171.0052)" class="st7 st3 st10">Prince Philip Steps </text>
	</g>
	<g>
		<text transform="matrix(1 0 0 1 782.0396 193.4908)" class="st7 st3 st11">DARWIN BAY</text>
	</g>
	<g>
		<text transform="matrix(1 0 0 1 3.5156 327.0766)" class="st7 st3 st11">Pta. Vicente Roca</text>
	</g>
	<g>
		<text transform="matrix(1 0 0 1 45.8695 415.9919)" class="st7 st3 st11">Punta Espinosa</text>
	</g>
	<g>
		<text transform="matrix(1 0 0 1 191.6783 418.4781)" class="st7 st3 st11">TAGUS COVE</text>
	</g>
	<g>
		<g>
			<text transform="matrix(1 0 0 1 200.0533 468.0469)" class="st7 st3 st11">Urbina</text>
			<text transform="matrix(1 0 0 1 200.0533 478.4469)" class="st7 st3 st11">Bay</text>
		</g>
	</g>
	<g>
		<text transform="matrix(1 0 0 1 171.25 505.7022)" class="st7 st3 st11">Punta Mangle</text>
	</g>
	<g>
		<text transform="matrix(1 0 0 1 305.1498 403.0057)" class="st7 st3 st12">Buccaneer Cove</text>
	</g>
	<g>
		<text transform="matrix(1 0 0 1 309.95 376.3641)" class="st7 st3 st11">Espumilla Beach</text>
	</g>
	<g>
		<text transform="matrix(1 0 0 1 322.0064 422.3463)" class="st7 st3 st11">Egas Port</text>
	</g>
	<g>
		<text transform="matrix(1 0 0 1 519.1518 407.1845)" class="st7 st3 st11">SULLIVAN BAY</text>
	</g>
	<g>
		<text transform="matrix(1 0 0 1 526.3908 428.7886)" class="st7 st3 st11">Bartholomew</text>
	</g>
	<g>
		<text transform="matrix(1 0 0 1 208.4641 560.9058)" class="st7 st3 st11">ELIZABETH BAY</text>
	</g>
	<g>
		<text transform="matrix(1 0 0 1 124.7228 592.7197)" class="st7 st3 st11">Moreno Point</text>
	</g>
	<g>
		<text transform="matrix(1 0 0 1 199.0213 640.1055)" class="st7 st3 st11">Sierra Negra</text>
	</g>
	<g>
		<g>
			<text transform="matrix(1 0 0 1 189.25 706.5269)" class="st7 st3 st11">Tortoise Breeding Center</text>
		</g>
	</g>
	<g>
		<g>
			<text transform="matrix(1 0 0 1 207.2064 736.3477)" class="st7 st3 st11">Wetlands</text>
		</g>
	</g>
	<g>
		<g>
			<text transform="matrix(1 0 0 1 312.0596 725.1044)" class="st7 st3 st11">Los Tuneles</text>
		</g>
	</g>
	<g>
		<g>
			<text transform="matrix(1 0 0 1 309.6642 685.7339)" class="st7 st3 st11">Wall of Tears</text>
		</g>
	</g>
	<g>
		<g>
			<text transform="matrix(1 0 0 1 379.4346 705.2634)" class="st7 st3 st11">Tintoteras</text>
		</g>
	</g>
	<g>
		<g>
			<text transform="matrix(1 0 0 1 411.4997 516.731)" class="st2 st3 st5">Rabida</text>
		</g>
	</g>
	<g>
		<text transform="matrix(1 0 0 1 506.647 459.0042)" class="st7 st3 st11">Chinese Hat</text>
	</g>
	<g>
		<text transform="matrix(1 0 0 1 511.5498 488.5495)" class="st7 st3 st11">Daphne</text>
	</g>
	<g>
		<text transform="matrix(1 0 0 1 643.6934 462.4851)" class="st13 st3 st11">North Seymour </text>
	</g>
	<g>
		<text transform="matrix(1 0 0 1 646.1415 482.5493)" class="st14 st3 st11">Mosquera Islet</text>
	</g>
	<g>
		<text transform="matrix(1 0 0 1 652.598 499.9055)" class="st7 st3 st11">Punta Carrion</text>
	</g>
	<g>
		<text transform="matrix(1 0 0 1 682.1881 540.6631)" class="st7 st3 st11">South Plaza</text>
	</g>
	<g>
		<text transform="matrix(1 0 0 1 636.238 512.7307)" class="st7 st3 st15">Black Turtle</text>
		<text transform="matrix(1 0 0 1 636.238 522.6511)" class="st7 st3 st15">Cove</text>
	</g>
	<g>
		<text transform="matrix(1 0 0 1 498.6647 515.2617)" class="st7 st3 st16">Bachas Beach</text>
	</g>
	<g>
		<text transform="matrix(1 0 0 1 459.75 540.663)" class="st7 st3 st11">Dragon Hill</text>
	</g>
	<g>
		<g>
			<text transform="matrix(1 0 0 1 439.75 585.6832)" class="st2 st3 st16">PINZÓN</text>
		</g>
	</g>
	<g>
		<text transform="matrix(1 0 0 1 608.0009 557.7269)" class="st7 st3 st11">Twin Craters</text>
	</g>
	<g>
		<text transform="matrix(1 0 0 1 609.1198 573.72)" class="st7 st3 st11">Highlands</text>
	</g>
	<g>
		<text transform="matrix(1 0 0 1 545.4959 618.8198)" class="st7 st3 st11">Tortuga Bay</text>
	</g>
	<g>
		<text transform="matrix(1 0 0 1 644.0011 602.3914)" class="st7 st3 st11">Charles Darwin Station </text>
	</g>
	<g>
		<text transform="matrix(1 0 0 1 550.0166 604.506)" class="st7 st3 st11">Pto. Ayora</text>
	</g>
	<g>
		<text transform="matrix(1 0 0 1 1060.4287 602.4174)" class="st7 st3 st11">Pitt Point</text>
	</g>
	<g>
		<text transform="matrix(1 0 0 1 934.7503 598.8057)" class="st7 st3 st11">Witch Hill</text>
	</g>
	<g>
		<text transform="matrix(1 0 0 1 872.8089 630.605)" class="st7 st3 st11">Leon Dormido</text>
	</g>
	<g>
		<text transform="matrix(1 0 0 1 872.8094 640.7333)" class="st7 st3 st11">Isla Lobos</text>
	</g>
	<g>
		<text transform="matrix(1 0 0 1 872.809 658.9182)" class="st7 st3 st11">Tijeretas</text>
	</g>
	<g>
		<text transform="matrix(1 0 0 1 970.9594 658.9188)" class="st7 st3 st11">El Junco</text>
	</g>
	<g>
		<text transform="matrix(1 0 0 1 993.403 681.0869)" class="st7 st3 st11">Breeding Center</text>
	</g>
	<g>
		<text transform="matrix(1 0 0 1 941.2501 701.5723)" class="st7 st3 st17">Interpretation </text>
		<text transform="matrix(1 0 0 1 941.2506 716.0914)" class="st7 st3 st17">Center</text>
	</g>
	<g>
		<text transform="matrix(1 0 0 1 854.5834 678.0059)" class="st7 st3 st11">Puerto </text>
		<text transform="matrix(1 0 0 1 854.5834 692.4058)" class="st7 st3 st11">Baqueizo</text>
		<text transform="matrix(1 0 0 1 854.5834 706.8058)" class="st7 st3 st11"> Moreno</text>
	</g>
	<g>
		<text transform="matrix(1 0 0 1 887.6759 852.4061)" class="st7 st3 st11">GARDNER BAY</text>
	</g>
	<g>
		<text transform="matrix(1 0 0 1 910.9569 873.4058)" class="st7 st3 st11">Osborn Islet</text>
	</g>
	<g>
		<text transform="matrix(1 0 0 1 765.0332 870.1978)" class="st7 st3 st11">Punta Suares</text>
	</g>
	<g>
		<text transform="matrix(1 0 0 1 613.9502 805.5059)" class="st7 st3 st11">Devils`s Crown </text>
	</g>
	<g>
		<text transform="matrix(1 0 0 1 604.6436 839.9061)" class="st7 st3 st11">Baroness`Observatory</text>
	</g>
	<g>
		<text transform="matrix(1 0 0 1 470.7201 805.5062)" class="st7 st3 st11"> Cormorant Point</text>
	</g>
	<g>
		<text transform="matrix(1 0 0 1 464.1384 822.0714)" class="st7 st3 st11">Post Ofiice Bay</text>
	</g>
	<path class="st7" d="M905.9,669.8c0.1-0.1,0.2-0.2,0.3-0.3h0.1c0.7,0.3,1.3,0.5,2,0.8s1.4,0.6,2.1,0.8c0.1,0,0.1,0,0.2,0
		c0.1-0.1,0.1-0.1,0.2-0.2c0.1-0.1,0.2-0.1,0.3,0s0.1,0.2,0,0.3l-0.1,0.1c0.2,0.1,0.4,0.1,0.5,0.2c0.2,0.1,0.3,0.1,0.5-0.1
		c0.5-0.5,1-1,1.5-1.6c0.2-0.2,0.4-0.3,0.6-0.3c0.5,0,0.8,0.4,0.6,0.8c0,0.2-0.1,0.3-0.3,0.5c-0.5,0.5-1.1,1.1-1.6,1.6
		c-0.1,0.1-0.1,0.1,0,0.2c0.1,0.2,0.2,0.5,0.3,0.8c0-0.1,0.1-0.1,0.1-0.2c0.1-0.1,0.2-0.1,0.3,0s0.1,0.2,0,0.3l0,0
		c-0.2,0.2-0.2,0.3-0.1,0.6c0.5,1.2,1,2.5,1.5,3.7c0,0.1,0,0.1,0,0.2c-0.1,0.1-0.2,0.2-0.3,0.3c-1.1-1.4-2.2-2.9-3.5-4.1
		c0,0-0.1,0-0.1,0.1c-0.5,0.5-1,1-1.5,1.5c-0.2,0.2-0.3,0.3-0.6,0.4c0,0.1,0.1,0.1,0.1,0.1c0.3,0.5,0.6,1,0.9,1.5c0,0.1,0,0.1,0,0.2
		c-0.1,0.1-0.2,0.2-0.3,0.3c-0.1-0.1-0.2-0.2-0.3-0.3c-0.3-0.4-0.7-0.9-1-1.3c-0.1-0.1-0.1-0.1-0.2,0c-0.2,0.1-0.4,0.2-0.6,0.3h-0.1
		c0.1-0.3,0.3-0.6,0.4-0.8c-0.4-0.3-0.7-0.6-1.1-0.9c-0.2-0.1-0.4-0.3-0.5-0.4c-0.1-0.1-0.1-0.1,0-0.2c0.1-0.1,0.1-0.1,0.2-0.2
		c0.1-0.1,0.1-0.1,0.2,0c0.3,0.2,0.6,0.4,0.9,0.5c0.2,0.1,0.4,0.2,0.6,0.4c0,0,0.1,0,0.1,0.1c0-0.3,0.3-0.5,0.5-0.6
		c0.5-0.5,1-1,1.5-1.4c0,0,0.1,0,0.1-0.1C908.8,672,907.4,670.9,905.9,669.8z"/>
	<path class="st7" d="M629.8,492.6c0.1-0.1,0.2-0.2,0.3-0.3h0.1c0.7,0.3,1.3,0.5,2,0.8s1.4,0.6,2.1,0.8c0.1,0,0.1,0,0.2,0
		c0.1-0.1,0.1-0.1,0.2-0.2c0.1-0.1,0.2-0.1,0.3,0s0.1,0.2,0,0.3l-0.1,0.1c0.2,0.1,0.4,0.1,0.5,0.2c0.2,0.1,0.3,0.1,0.5-0.1
		c0.5-0.5,1-1,1.5-1.6c0.2-0.2,0.4-0.3,0.6-0.3c0.5,0,0.8,0.4,0.6,0.8c0,0.2-0.1,0.3-0.3,0.5c-0.5,0.5-1.1,1.1-1.6,1.6
		c-0.1,0.1-0.1,0.1,0,0.2c0.1,0.2,0.2,0.5,0.3,0.8c0-0.1,0.1-0.1,0.1-0.2c0.1-0.1,0.2-0.1,0.3,0s0.1,0.2,0,0.3l0,0
		c-0.2,0.2-0.2,0.3-0.1,0.6c0.5,1.2,1,2.5,1.5,3.7c0,0.1,0,0.1,0,0.2c-0.1,0.1-0.2,0.2-0.3,0.3c-1.1-1.4-2.2-2.9-3.5-4.1
		c0,0-0.1,0-0.1,0.1c-0.5,0.5-1,1-1.5,1.5c-0.2,0.2-0.3,0.3-0.6,0.4c0,0.1,0.1,0.1,0.1,0.1c0.3,0.5,0.6,1,0.9,1.5c0,0.1,0,0.1,0,0.2
		c-0.1,0.1-0.2,0.2-0.3,0.3c-0.1-0.1-0.2-0.2-0.3-0.3c-0.3-0.4-0.7-0.9-1-1.3c-0.1-0.1-0.1-0.1-0.2,0c-0.2,0.1-0.4,0.2-0.6,0.3h-0.1
		c0.1-0.3,0.3-0.6,0.4-0.8c-0.4-0.3-0.7-0.6-1.1-0.9c-0.2-0.1-0.4-0.3-0.5-0.4s-0.1-0.1,0-0.2s0.1-0.1,0.2-0.2
		c0.1-0.1,0.1-0.1,0.2,0c0.3,0.2,0.6,0.4,0.9,0.5c0.2,0.1,0.4,0.2,0.6,0.4c0,0,0.1,0,0.1,0.1c0-0.3,0.3-0.5,0.5-0.6
		c0.5-0.5,1-1,1.5-1.4c0,0,0.1,0,0.1-0.1C632.7,494.8,631.2,493.7,629.8,492.6z"/>
	<g>
		<text transform="matrix(1 0 0 1 436.1696 835.4061)" class="st7 st3 st11">Pto. Velasco Ibarra</text>
	</g>
	<g>
		<text transform="matrix(1 0 0 1 474.5356 855.1976)" class="st7 st3 st11">Black Beach</text>
	</g>
	<g>
		<text transform="matrix(1 0 0 1 565.0551 855.1978)" class="st7 st3 st11">Asilo de la Paz</text>
	</g>
	<text transform="matrix(1 0 0 1 630.1646 618.9904)" class="st7 st3 st11">F.LL. Breeding Center</text>
	<text transform="matrix(1 0 0 1 512.8073 576.2949)" class="st7 st3 st11">El Chato</text>
	<path class="st7" d="M1066.1,839.9L1066.1,839.9c0-25.7,20.9-46.6,46.6-46.6h88.6v93.2h-88.6C1087,886.6,1066.1,865.7,1066.1,839.9
		z"/>
	<g>
		<g>
			<g>
				<g>
					<g>
						<g>
							<defs>
								<rect id="SVGID_2_" x="1129" y="813.1" width="30.6" height="35.7"/>
							</defs>
							<clipPath id="SVGID_3_">
								<use xlink:href="#SVGID_2_"  style="overflow:visible;"/>
							</clipPath>
							<path class="st18" d="M1147.7,827.5h8.3c1.7,0.1,2.7,0.5,3.1,1.3c0.3,0.6,0.5,1.5,0.5,2.6v10.4c0,1-0.4,2-1.3,2.9
								c-2.6,2.7-6.6,4.1-11.9,4.1c-4.7,0-8.8-1.8-12.2-5.3c-3.5-3.5-5.2-7.8-5.2-12.8s1.8-9.2,5.3-12.5c3.5-3.4,7.7-5,12.5-5
								c3.7,0,7.2,1.2,10.5,3.7c0.8,0.6,1.3,1.3,1.3,2.1s-0.4,1.7-1.1,2.7c-1.2,1.7-2.3,2.5-3.4,2.5c-0.6,0-1.6-0.4-2.9-1.3
								c-1.3-0.9-2.9-1.3-4.7-1.3c-2.4,0-4.5,0.8-6.4,2.5s-2.8,3.9-2.8,6.6c0,2.7,0.9,5,2.8,6.9s4,2.9,6.4,2.9
								c1.7,0,3.3-0.3,4.7-0.8v-5.1h-3.7c-1,0-1.7-0.1-2.1-0.4c-0.4-0.3-0.7-0.6-0.8-1.1c-0.1-0.5-0.2-1.1-0.2-2
								c0-0.8,0.1-1.5,0.2-2s0.4-0.9,0.8-1C1146,827.6,1146.8,827.5,1147.7,827.5"/>
						</g>
					</g>
				</g>
			</g>
		</g>
		<path class="st19" d="M1182.1,829.8c-1.2-2.7-4.4-3.9-7.1-2.7c-1.6,0.7-2.7,2.2-3.1,3.8l0,0v0.1v0.1c-0.4,2.1-4,17.7-18.4,26.5
			c-15.5,9.5-31,4.8-31,4.8s-7.1-1.8-12.8-5.8c-0.7-0.5-1.5-0.6-2.3-0.2c-1.2,0.5-1.7,1.9-1.2,3.1c0.2,0.4,0.5,0.7,0.8,1
			c1.6,1.3,15,11.7,32.4,10.4c18.6-1.5,28.6-12.1,28.6-12.1s11-8.9,14.4-25.2C1182.7,832.2,1182.7,830.9,1182.1,829.8"/>
		<path class="st20" d="M1126.8,814.4c0.3-0.5,0.7-0.8,1.3-1c0.6-0.2,1.4-0.3,2.3-0.3s1.7,0.1,2.2,0.2c0.6,0.2,1,0.4,1.3,0.6
			c0.3,0.2,0.5,0.6,0.7,1c0.2,0.6,0.2,1.4,0.2,2.5v27c0,0.7,0,1.3-0.1,1.7c0,0.4-0.2,0.8-0.5,1.3c-0.5,0.9-1.7,1.3-3.8,1.3
			c-2.3,0-3.6-0.6-4-1.8c-0.2-0.6-0.3-1.4-0.3-2.5v-9.9h-12.9v9.9c0,0.7,0,1.3-0.1,1.7c0,0.4-0.2,0.8-0.5,1.3
			c-0.5,0.9-1.7,1.3-3.8,1.3c-2.3,0-3.6-0.6-4-1.8c-0.2-0.6-0.3-1.4-0.3-2.5v-27c0-0.7,0-1.3,0.1-1.7c0-0.4,0.2-0.8,0.5-1.3
			c0.5-0.9,1.7-1.3,3.8-1.3c2.3,0,3.6,0.6,4,1.8c0.2,0.6,0.2,1.4,0.2,2.5v9.9h12.9v-10c0-0.7,0-1.3,0.1-1.7
			C1126.3,815.3,1126.6,814.9,1126.8,814.4"/>
	</g>
	<text transform="matrix(1 0 0 1 617.0739 822.3859)" class="st7 st3 st11">Champion Islet </text>
</g>
<g id="trazos">
	<path id="Trazo1-2" class="st21" d="M636.2,492.3c0,0-109.4-7.9-135.1,59.9c0,0-195.9-112.2-201.1-225.1
		c-2.7-58.4-50-121.7-122.7-110.4c-72.7,11.3-116.8,101-69,111.8c17,10.2,39.8,71.4,33.1,84.8c8.8-34,88.1,78.1,109.7,54.8
		c0,0-59.3,85.4-43.9,124.7c-280.5,132.4,210.8,277.5,72.5,42c0,0,43.6,166.7,104.6,51c-6.3,39.6-63.3,89.6-114.8,48.6
		c15.8,2.3,49.2,6.7,64.2-27.8c21,9.5,211.2,93.2,173.4-245.7c0,0,141.2-46.5,139,16.3c48.9,4.8,86.2,104.6,36,154.2
		C632,681,513.8,793.7,550,822.1c1-22.1,8.5-28.8,20.9-19.3c6.1-11.8,40.4,1.5,37.1,19.3C629,806,823.6,845,850.8,865
		c2.2-16,19-14.7,30.7-8.8c7.4-14.3,17.1,5,17.1,13.8C884,826,847,620,932.5,636.5C916,647,912,672,912,672"/>
</g>
<g id="p2" class="st22">
	<circle id="p4-3" class="st23" cx="498.7" cy="554.7" r="8.8"/>
	<text transform="matrix(1 0 0 1 494.8866 559.5061)" class="st7 st3 st24">2</text>
</g>
<g id="p5" class="st22">
	<ellipse id="p4-7_1_" class="st23" cx="251.1" cy="466.4" rx="8.8" ry="8.8"/>
	<text transform="matrix(1 0 0 1 247.1327 471.087)" class="st7 st3 st24">5 </text>
</g>
<g id="p6" class="st22">
	<ellipse id="p4-7_2_" class="st23" cx="208.5" cy="592.7" rx="8.8" ry="8.8"/>
	<text transform="matrix(1 0 0 1 204.5298 597.4553)" class="st7 st3 st24">6</text>
</g>
<g id="p10" class="st22">
	<ellipse id="p4-7_6_" class="st23" cx="333.7" cy="705.3" rx="8.8" ry="8.8"/>
	<text transform="matrix(1 0 0 1 327.6693 709.3112)" class="st7 st3 st25">10</text>
</g>
<g id="p11" class="st22">
	<ellipse id="p4-7_7_" class="st23" cx="507.1" cy="452.1" rx="8.8" ry="8.8"/>
	<text transform="matrix(1 0 0 1 501.0949 456.1142)" class="st7 st3 st25">11</text>
</g>
<g id="p14" class="st22">
	<ellipse id="p4-7_10_" class="st23" cx="570.9" cy="804.2" rx="8.8" ry="8.8"/>
	<text transform="matrix(1 0 0 1 564.9094 808.1497)" class="st7 st3 st25">14</text>
</g>
<g id="p15" class="st22">
	<ellipse id="p4-7_11_" class="st23" cx="609.1" cy="822.1" rx="8.8" ry="8.8"/>
	<text transform="matrix(1 0 0 1 603.0859 826.0857)" class="st7 st3 st25">15</text>
</g>
<g id="p16" class="st22">
	<ellipse id="p4-7_12_" class="st23" cx="849.5" cy="865" rx="8.8" ry="8.8"/>
	<text transform="matrix(1 0 0 1 843.4692 869.0157)" class="st7 st3 st25">16</text>
</g>
<g id="p17" class="st22">
	<ellipse id="p4-7_13_" class="st23" cx="881.6" cy="856.3" rx="8.8" ry="8.8"/>
	<text transform="matrix(1 0 0 1 875.525 860.2657)" class="st7 st3 st25">17</text>
</g>
<g id="p18" class="st22">
	<ellipse id="p4-7_14_" class="st23" cx="898.6" cy="870" rx="8.8" ry="8.8"/>
	<text transform="matrix(1 0 0 1 892.5751 874.0291)" class="st7 st3 st25">18</text>
</g>
<g id="p19" class="st22">
	<ellipse id="p4-7_15_" class="st23" cx="932.5" cy="636.5" rx="8.8" ry="8.8"/>
	<text transform="matrix(1 0 0 1 926.4662 640.5291)" class="st7 st3 st25">19</text>
</g>
<g id="p20" class="st22">
	<ellipse id="p4-7_16_" class="st23" cx="912" cy="673.3" rx="8.8" ry="8.8"/>
	<text transform="matrix(1 0 0 1 905.9162 677.2924)" class="st7 st3 st25">20</text>
</g>
<g id="p13" class="st22">
	<ellipse id="p4-7_9_" class="st23" cx="554.2" cy="822.1" rx="8.8" ry="8.8"/>
	<text transform="matrix(1 0 0 1 548.2062 826.0643)" class="st7 st3 st25">13</text>
</g>
<g id="p12" class="st22">
	<ellipse id="p4-7_8_" class="st23" cx="646.1" cy="478.4" rx="8.8" ry="8.8"/>
	<text transform="matrix(1 0 0 1 640.1305 482.4743)" class="st7 st3 st25">12</text>
</g>
<g id="p9" class="st22">
	<ellipse id="p4-7_5_" class="st23" cx="269.5" cy="733.9" rx="8.8" ry="8.8"/>
	<text transform="matrix(1 0 0 1 265.5789 738.5737)" class="st7 st3 st24">9</text>
</g>
<g id="p8" class="st22">
	<ellipse id="p4-7_4_" class="st23" cx="384.3" cy="685.7" rx="8.8" ry="8.8"/>
	<text transform="matrix(1 0 0 1 380.4114 690.4539)" class="st7 st3 st24">8</text>
</g>
<g id="p7" class="st22">
	<ellipse id="p4-7_3_" class="st23" cx="279.8" cy="634.7" rx="8.8" ry="8.8"/>
	<text transform="matrix(1 0 0 1 275.8152 639.4341)" class="st7 st3 st24">7</text>
</g>
<g id="p4" class="st22">
	<ellipse id="p4-7" class="st23" cx="141.4" cy="412.6" rx="8.8" ry="8.8"/>
	<text transform="matrix(1 0 0 1 137.4326 417.3014)" class="st7 st3 st24">4</text>
</g>
<g id="p3" class="st22">
	<circle id="p4-9" class="st23" cx="108.6" cy="328.5" r="8.8"/>
	<text transform="matrix(1 0 0 1 104.8184 333.3594)" class="st7 st3 st24">3</text>
</g>
<g id="p1" class="st22">
	<circle class="st23" cx="634.8" cy="494.2" r="8.8"/>
	<text transform="matrix(1 0 0 1 630.9725 498.8966)" class="st7 st3 st24">1</text>
</g>
<g id="persona">
	<path class="st26" d="M8.4,17.5H7C6.9,17.8,6.7,18,6.5,18H6.3v1.2h4.9V18H8.9C8.6,18,8.4,17.8,8.4,17.5z"/>
	<rect x="6.3" y="13.6" class="st26" width="5" height="1.2"/>
	<path class="st27" d="M10.8,20.3H6.6c0.4,0.7,1.2,1.2,2,1.2C9.5,21.5,10.3,21.1,10.8,20.3z"/>
	<path class="st27" d="M8.4,17.5c0-0.3,0.2-0.5,0.5-0.5h2.3v-1.2H6.3V17h0.1c0.3,0,0.5,0.2,0.5,0.5H8.4z"/>
	<path class="st27" d="M7,11.4c-0.3,0-0.6,0.2-0.6,0.6v0.1l0,0v0.5h5V12c-0.1-0.4-0.4-0.6-0.8-0.6H7z"/>
	<path class="st28" d="M6.2,6.4C6.2,7.8,7.3,9,8.8,9s2.6-1.1,2.6-2.6c-1.2-0.1-2.2-0.4-3.2-1C7.7,5.9,7,6.3,6.2,6.4z"/>
	<path class="st29" d="M7,10.4h3.6c0.5,0,0.9,0.2,1.3,0.5h1.3v-5c0-2.4-1.9-4.3-4.3-4.4l0,0H8.8c-0.5,0-1,0.1-1.4,0.3
		C7.5,2.6,7.9,3.4,8.6,4l0.1,0.1c0.8,0.8,2,1.3,3.1,1.3c0.2,0,0.5,0.1,0.5,0.4v0.1c0,2-1.6,3.6-3.6,3.6S5.2,7.9,5.2,5.9
		c0-0.1,0-0.3,0.1-0.4c0.1,0,0.3-0.1,0.4-0.1c0.7,0,1.5-0.3,1.9-0.9C7,3.9,6.6,3.1,6.3,2.3C5.2,3.1,4.5,4.5,4.4,5.9v4.9h1.3
		C6,10.4,6.5,10.3,7,10.4z"/>
	<path class="st30" d="M4.4,5.9c0-1.4,0.7-2.8,1.9-3.6C6.6,3.1,7,3.9,7.6,4.5C7.1,5,6.4,5.4,5.7,5.4c-0.1,0-0.3,0-0.4,0.1
		S5.2,5.8,5,5.9c0,2,1.6,3.6,3.6,3.6s3.6-1.6,3.6-3.6l0,0l0,0c0-0.1,0-0.3-0.1-0.4s-0.2-0.1-0.3-0.1c-1.1,0-2.3-0.4-3.2-1.2L8.5,4.1
		c-0.6-0.6-1-1.4-1.3-2.2c2.3-0.8,4.8,0.3,5.6,2.6C12.9,5,13,5.4,13.1,5.9v4.9c0,0.3,0.2,0.6,0.5,0.6s0.5-0.2,0.5-0.5v-5
		c0-3-2.4-5.4-5.4-5.4l0,0C8,0.5,7.2,0.7,6.5,1l0,0C4.6,1.9,3.3,3.8,3.3,5.9v4.9c0,0.3,0.2,0.6,0.6,0.6l0,0H4c0.3,0,0.5-0.2,0.5-0.5
		L4.4,5.9z M11.2,6.4C11.2,7.8,10,9,8.6,9S6.1,7.8,6.1,6.4C7,6.3,7.8,5.9,8.4,5.2C9.2,5.9,10.2,6.3,11.2,6.4z"/>
	<path class="st30" d="M15.3,15.5c-0.5-1.6-1.6-3-3.1-3.8c0-0.3-0.2-0.6-0.4-0.8c-0.3-0.4-0.8-0.5-1.3-0.5H6.8
		c-0.5,0-0.9,0.2-1.3,0.5l-0.4,0.8c-3.2,1.8-4.4,5.7-2.7,9C2.5,20.9,2.7,21,2.9,21h0.3c0.3-0.1,0.4-0.5,0.3-0.8
		C2.2,17.7,3,14.6,5.3,13v6.1c0,0.9,0.3,1.8,0.9,2.4l0.5,9L5.2,31c-0.2,0.1-0.4,0.4-0.4,0.6l0,0C4.9,31.9,5,32,5.3,32h0.1l1.9-0.6
		c0.3-0.2,0.4-0.3,0.4-0.6l-0.5-8.6c0.9,0.4,2,0.4,2.9,0l-0.5,8.6c0,0.3,0.1,0.5,0.4,0.5l1.9,0.6H12c0.3,0,0.4-0.1,0.5-0.4
		c0.1-0.2,0-0.5-0.2-0.6l0,0l-1.5-0.5l0.5-9c0.6-0.7,0.9-1.5,0.9-2.4v-6c1,0.7,1.7,1.7,2,2.8c0.5,1.4,0.4,3-0.4,4.4
		c-0.1,0.2,0,0.5,0.2,0.6h0.3c0.2,0,0.4-0.1,0.5-0.3C15.8,19,15.9,17.2,15.3,15.5z M6.3,14.7v-1.2h5v1.2H6.3z M11.2,19.1v0.3H6.3
		v-1.2h0.1c0.3,0,0.5-0.2,0.5-0.5s-0.2-0.6-0.4-0.6H6.3V16h5v1.2H8.9c-0.3,0-0.5,0.2-0.5,0.5s0.2,0.5,0.5,0.5h2.3V19.1z M11.2,12
		v0.5h-5V12c0-0.3,0.2-0.6,0.6-0.6l0,0h3.7C10.9,11.4,11.2,11.6,11.2,12z M6.6,20.3h4.2c-0.8,1.1-2.3,1.5-3.5,0.8L6.6,20.3z"/>
</g>
<g id="barco">
	<path id="trazado1" class="st31" d="M40.3,29.4L28.4,41.3L16.5,29.4c-6.6-6.6-6.6-17.2,0-23.8l0,0c6.6-6.5,17.2-6.5,23.7,0l0,0
		C46.8,12.2,46.8,22.8,40.3,29.4z"/>
	<path id="Trazado_2" class="st32" d="M43.1,17.7c0,3.1-1,6.1-2.7,8.6c-1.7,2.4-4.2,4.3-6.9,5.3c-2.9,1.1-6.2,1.2-9.2,0.4
		c-2.9-0.8-5.5-2.5-7.4-4.8S13.8,22,13.5,19c-0.3-3.1,0.5-6.2,2-8.8s3.8-4.6,6.5-5.9c2.8-1.3,6-1.7,9-1.1s5.7,2.1,7.8,4.2
		c2.1,2.2,3.5,4.9,4,7.9C43,16,43.1,16.8,43.1,17.7c0,0.5,0.7,0.5,0.7,0c0-3.1-1-6.2-2.7-8.8c-1.7-2.5-4.2-4.5-7.1-5.6
		c-2.9-1.2-6.2-1.4-9.3-0.7c-3,0.7-5.7,2.3-7.8,4.5c-2.1,2.3-3.5,5.1-4,8.2c-0.5,3.2,0,6.4,1.4,9.3c1.3,2.7,3.5,5,6.1,6.6
		c2.7,1.6,5.9,2.3,9,2.1s6.1-1.4,8.5-3.4c2.4-1.9,4.2-4.5,5.1-7.4c0.5-1.5,0.7-3.1,0.7-4.7C43.8,17.2,43.1,17.2,43.1,17.7z"/>
	<path id="Trazado_3" class="st32" d="M35.3,19.1c-0.6,1.6-1.3,3.1-1.9,4.7c0,0.1-0.1,0.2-0.1,0.3c0.2-0.1,0.4-0.1,0.5-0.2
		c-0.1,0-0.2-0.1-0.3-0.2s0,0,0,0c-0.1,0-0.1-0.1-0.2-0.1c-0.2-0.1-0.5-0.2-0.7-0.3c-0.9-0.3-1.8-0.1-2.5,0.4
		c-0.4,0.3-0.8,0.5-1.2,0.5c-0.3,0-0.6,0-1-0.2c0,0-0.1,0,0,0h-0.1c0,0-0.1,0-0.1-0.1c-0.1,0-0.1-0.1-0.2-0.1c-0.1-0.1,0.2,0.1,0,0
		l-0.1-0.1c-0.4-0.3-0.9-0.4-1.4-0.5c-0.3,0-0.7,0-1,0.1c-0.4,0.1-0.8,0.4-1.2,0.6c0.2,0.1,0.4,0.1,0.5,0.2
		c-0.6-1.6-1.3-3.1-1.9-4.7c0-0.1-0.1-0.2-0.1-0.3c-0.1,0.1-0.2,0.3-0.3,0.4c1.6-0.5,3.2-1,4.8-1.5c0.7-0.2,1.4-0.4,2.1-0.6
		c-0.1,0-0.1,0-0.2,0c1.6,0.5,3.2,1,4.8,1.5c0.7,0.2,1.4,0.4,2.1,0.6c0.4,0.1,0.6-0.6,0.2-0.7c-1.6-0.5-3.2-1-4.8-1.5
		c-0.7-0.2-1.3-0.4-2-0.6c-0.2,0-0.3,0-0.5,0.1c-0.3,0.1-0.7,0.2-1,0.3c-1.8,0.6-3.7,1.1-5.5,1.7c-0.1,0-0.1,0-0.2,0.1
		c-0.2,0.1-0.3,0.3-0.3,0.4c0.6,1.6,1.3,3.1,1.9,4.7c0,0.1,0.1,0.2,0.1,0.3c0.1,0.2,0.3,0.3,0.5,0.2c0.2-0.1,0.4-0.3,0.6-0.4
		s0.4-0.2,0.7-0.2c0.3-0.1,0.7,0,1,0.1c0.1,0,0.1,0,0.2,0.1c0.1,0-0.1,0,0,0h0.1c0.1,0,0.2,0.1,0.3,0.2c0,0,0.2,0.1,0,0l0.1,0.1
		c0.5,0.3,1.1,0.5,1.7,0.5c0.5,0,0.9-0.2,1.4-0.4c0.2-0.1,0.4-0.3,0.7-0.4c0.2-0.1,0.4-0.2,0.7-0.2c0.2,0,0.5,0,0.7,0
		c0.1,0,0.2,0.1,0.3,0.1h0.1c-0.1,0,0.1,0,0.1,0c0.1,0.1,0.2,0.1,0.3,0.2s0,0,0,0c0.1,0.1,0.2,0.2,0.4,0.2c0.2,0.1,0.4,0,0.5-0.2
		c0.6-1.6,1.3-3.1,1.9-4.7c0-0.1,0.1-0.2,0.1-0.3c0.1-0.2-0.1-0.4-0.3-0.4C35.6,18.8,35.4,18.9,35.3,19.1z"/>
	<path id="Trazado_4" class="st32" d="M36.2,17.3c-0.3,0.6-0.6,1.1-0.8,1.7c0.1-0.1,0.3-0.1,0.4-0.2c-1.6-0.5-3.2-1-4.8-1.5
		c-0.7-0.2-1.3-0.4-2-0.6c-0.2,0-0.3,0-0.5,0.1c-0.3,0.1-0.7,0.2-1,0.3c-1.8,0.6-3.7,1.1-5.5,1.7c-0.1,0-0.1,0-0.2,0.1
		c0.1,0.1,0.3,0.1,0.4,0.2c-0.3-0.6-0.6-1.1-0.8-1.7c-0.1,0.2-0.1,0.4-0.2,0.5c1.5-0.5,3-1,4.6-1.5c1-0.3,2.1-0.7,3.1-1
		c-0.1,0-0.1,0-0.2,0c1.5,0.5,3.1,1,4.6,1.5c1,0.3,2.1,0.7,3.1,1c0.4,0.1,0.6-0.6,0.2-0.7c-1.5-0.5-3.1-1-4.6-1.5
		c-0.9-0.3-1.7-0.6-2.6-0.9c-0.2-0.1-0.3-0.1-0.5-0.2c-0.2-0.1-0.4,0.1-0.5,0.1c-1.9,0.6-3.7,1.2-5.6,1.8c-0.6,0.2-1.2,0.4-1.8,0.6
		c-0.2,0.1-0.3,0.3-0.2,0.5c0.3,0.6,0.6,1.1,0.8,1.7c0.1,0.1,0.3,0.2,0.4,0.2c1.6-0.5,3.2-1,4.8-1.5c0.7-0.2,1.4-0.4,2.1-0.6
		c-0.1,0-0.1,0-0.2,0c1.6,0.5,3.2,1,4.8,1.5c0.7,0.2,1.4,0.4,2.1,0.6c0.1,0,0.3,0,0.4-0.2c0.3-0.6,0.6-1.1,0.8-1.7
		c0.1-0.2,0-0.4-0.1-0.5C36.6,17.1,36.3,17.1,36.2,17.3z"/>
	<path id="Trazado_5" class="st32" d="M33.7,11.5c0.2,1.7,0.4,3.3,0.5,5c0,0.1,0,0.2,0,0.3c0.2-0.1,0.3-0.2,0.5-0.3
		c-1.6-0.5-3.3-1.1-4.9-1.6c-0.3-0.1-0.5-0.2-0.8-0.3c-0.2-0.1-0.3,0-0.5,0.1c-0.9,0.3-1.8,0.6-2.6,0.9c-1,0.3-1.9,0.6-2.9,0.9
		c0.2,0.1,0.3,0.2,0.5,0.3c0.2-1.7,0.4-3.3,0.5-5c0-0.1,0-0.2,0-0.3c-0.1,0.1-0.2,0.2-0.4,0.4c1.4,0,2.8,0,4.3,0c1.9,0,3.8,0,5.7,0
		c0.1,0,0.3,0,0.4,0c0.5,0,0.5-0.7,0-0.7c-1.4,0-2.8,0-4.3,0c-1.9,0-3.8,0-5.7,0c-0.1,0-0.3,0-0.4,0c-0.2,0-0.3,0.2-0.4,0.4
		c-0.2,1.7-0.4,3.3-0.5,5c0,0.1,0,0.2,0,0.3c0,0.2,0.2,0.4,0.5,0.3c1.6-0.5,3.3-1.1,4.9-1.6c0.3-0.1,0.6-0.2,0.9-0.3
		c-0.1,0-0.1,0-0.2,0c1.6,0.5,3.3,1.1,4.9,1.6c0.3,0.1,0.6,0.2,0.9,0.3c0.2,0.1,0.5-0.1,0.5-0.3c-0.2-1.7-0.4-3.3-0.5-5
		c0-0.1,0-0.2,0-0.3c0-0.2-0.1-0.4-0.4-0.4C33.8,11.2,33.6,11.3,33.7,11.5z"/>
	<path id="Trazado_6" class="st32" d="M29.7,11.2c-0.6,0-1.1,0-1.7,0c0.1,0.1,0.2,0.2,0.4,0.4c0-0.8,0-1.6,0-2.5
		c-0.1,0.1-0.2,0.2-0.4,0.4c0.6,0,1.1,0,1.7,0c-0.2-0.2-0.3-0.3-0.4-0.4c0,0.8,0,1.6,0,2.5c0,0.5,0.7,0.5,0.7,0c0-0.8,0-1.6,0-2.5
		c0-0.2-0.2-0.4-0.4-0.4c-0.6,0-1.1,0-1.7,0c-0.2,0-0.4,0.2-0.4,0.4c0,0.8,0,1.6,0,2.5c0,0.2,0.2,0.4,0.4,0.4c0.6,0,1.1,0,1.7,0
		C30.1,11.9,30.1,11.2,29.7,11.2z"/>
	<path id="Trazado_7" class="st32" d="M36.2,23.7c-0.4,0.3-0.8,0.4-1.2,0.5c-0.3,0-0.6,0-0.9-0.2c-0.1,0,0.1,0,0,0H34
		c-0.1,0-0.2-0.1-0.2-0.1s-0.2-0.2-0.1-0.1c0,0-0.1,0-0.1-0.1c-0.1-0.1-0.3-0.2-0.5-0.3c-0.8-0.3-1.6-0.4-2.4,0
		c-0.5,0.2-0.8,0.5-1.3,0.7c-0.4,0.1-0.7,0.1-1,0c-0.1,0-0.1,0-0.2-0.1h-0.1c0,0-0.1,0,0,0c-0.1,0-0.2-0.1-0.3-0.2
		c-0.1,0-0.1-0.1-0.2-0.1c0.1,0.1,0,0,0,0c-0.4-0.3-1-0.5-1.5-0.5s-0.9,0.1-1.3,0.3c-0.2,0.1-0.4,0.2-0.7,0.4
		c-0.2,0.1-0.4,0.2-0.7,0.3c-0.4,0.1-0.7,0.1-1.1,0c-0.3-0.1-0.4-0.1-0.6-0.3c0,0-0.2-0.1-0.1,0c-0.2-0.1-0.4-0.2-0.5,0
		c-0.1,0.1-0.2,0.4,0,0.5c0.4,0.3,0.8,0.5,1.3,0.6c0.4,0.1,0.9,0,1.3-0.1c0.2-0.1,0.5-0.2,0.7-0.3c0.2-0.1,0.4-0.3,0.7-0.4
		c0.3-0.1,0.8-0.2,1.1-0.1c0.2,0,0.3,0.1,0.5,0.1h0.1c0.1,0-0.1,0,0,0s0.1,0.1,0.2,0.1s0.1,0.1,0.2,0.1c0,0,0,0,0.1,0
		c0,0-0.1-0.1-0.1,0c0.1,0.1,0.3,0.2,0.4,0.3c0.7,0.3,1.5,0.4,2.2,0.2c0.2-0.1,0.5-0.2,0.7-0.3c0.2-0.1,0.4-0.3,0.7-0.4
		c0.4-0.1,0.8-0.2,1.1-0.1s0.5,0.1,0.7,0.3c0.1,0,0.1,0.1,0.2,0.1l0,0c-0.1-0.1,0,0,0,0c0.6,0.4,1.4,0.6,2.1,0.5
		c0.5-0.1,0.9-0.3,1.3-0.5c0.2-0.1,0.2-0.3,0.1-0.5C36.6,23.7,36.4,23.6,36.2,23.7L36.2,23.7z"/>
	<path id="Trazado_8" class="st32" d="M25.2,13.3L25.2,13.3L25.2,13.3L25.2,13.3c0-0.1,0-0.1,0-0.1l0,0c0,0,0.1,0,0,0h0.1l0,0h0.1
		l0,0h0.1l0,0h0.1l0,0c0,0,0,0.1,0,0v0.1l0,0v0.1l0,0v0.1l0,0v0.1l0,0c0,0-0.1,0,0,0h-0.1l0,0h-0.1l0,0h-0.1l0,0h-0.1l0,0
		c0,0,0-0.1,0,0C25.2,13.4,25.2,13.4,25.2,13.3C25.2,13.4,25.2,13.4,25.2,13.3C25.2,13.4,25.2,13.4,25.2,13.3L25.2,13.3
		c0,0.2,0.2,0.4,0.4,0.4c0.2,0,0.4-0.2,0.4-0.4c0-0.3-0.2-0.5-0.5-0.5c-0.1,0-0.3,0.1-0.4,0.1C25,13,25,13.1,24.9,13.3
		c0,0.1,0.1,0.3,0.1,0.4c0.1,0.1,0.2,0.1,0.4,0.2c0.1,0,0.3-0.1,0.4-0.1c0.1-0.1,0.1-0.2,0.2-0.4c0-0.2-0.2-0.4-0.4-0.4
		C25.4,13,25.2,13.1,25.2,13.3z"/>
	<path id="Trazado_9" class="st32" d="M27.5,13.3L27.5,13.3L27.5,13.3L27.5,13.3c0-0.1,0-0.1,0-0.1l0,0c0,0,0.1,0,0,0h0.1l0,0h0.1
		l0,0h0.1l0,0h0.1l0,0c0,0,0,0.1,0,0v0.1l0,0v0.1l0,0v0.1l0,0v0.1l0,0c0,0-0.1,0,0,0h-0.1l0,0h-0.1l0,0h-0.1l0,0h-0.1l0,0
		c0,0,0-0.1,0,0C27.5,13.4,27.5,13.4,27.5,13.3C27.5,13.4,27.5,13.4,27.5,13.3C27.5,13.4,27.5,13.4,27.5,13.3L27.5,13.3
		c0,0.2,0.2,0.4,0.4,0.4c0.2,0,0.4-0.2,0.4-0.4c0-0.3-0.2-0.5-0.5-0.5c-0.1,0-0.3,0.1-0.4,0.1c-0.1,0.1-0.1,0.2-0.2,0.4
		c0,0.1,0.1,0.3,0.1,0.4c0.1,0.1,0.2,0.1,0.4,0.2c0.1,0,0.3-0.1,0.4-0.1c0.1-0.1,0.1-0.2,0.2-0.4c0-0.2-0.2-0.4-0.4-0.4
		C27.6,13,27.5,13.1,27.5,13.3z"/>
	<path id="Trazado_10" class="st32" d="M29.7,13.3L29.7,13.3L29.7,13.3L29.7,13.3c0-0.1,0-0.1,0-0.1l0,0c0,0,0.1,0,0,0h0.1l0,0h0.1
		l0,0H30l0,0h0.1l0,0c0,0,0,0.1,0,0v0.1l0,0v0.1l0,0v0.1l0,0v0.1l0,0c0,0-0.1,0,0,0H30l0,0h-0.1l0,0h-0.1l0,0h-0.1l0,0
		c0,0,0-0.1,0,0C29.7,13.4,29.7,13.4,29.7,13.3C29.7,13.4,29.7,13.4,29.7,13.3C29.7,13.4,29.7,13.4,29.7,13.3L29.7,13.3
		c0,0.2,0.2,0.4,0.4,0.4c0.2,0,0.4-0.2,0.4-0.4c0-0.3-0.2-0.5-0.5-0.5c-0.1,0-0.3,0.1-0.4,0.1c-0.1,0.1-0.1,0.2-0.2,0.4
		c0,0.1,0.1,0.3,0.1,0.4c0.1,0.1,0.2,0.1,0.4,0.2c0.1,0,0.3-0.1,0.4-0.1c0.1-0.1,0.1-0.2,0.2-0.4c0-0.2-0.2-0.4-0.4-0.4
		C29.9,13,29.7,13.1,29.7,13.3z"/>
	<path id="Trazado_11" class="st32" d="M32,13.3L32,13.3L32,13.3L32,13.3c0-0.1,0-0.1,0-0.1l0,0c0,0,0.1,0,0,0h0.1l0,0h0.1l0,0h0.1
		l0,0h0.1l0,0c0,0,0,0.1,0,0v0.1l0,0v0.1l0,0v0.1l0,0v0.1l0,0c0,0-0.1,0,0,0h-0.1l0,0h-0.1l0,0h-0.1l0,0H32l0,0c0,0,0-0.1,0,0
		C32,13.4,32,13.4,32,13.3C32,13.4,32,13.4,32,13.3C32,13.4,32,13.4,32,13.3L32,13.3c0,0.2,0.2,0.4,0.4,0.4s0.4-0.2,0.4-0.4
		c0-0.3-0.2-0.5-0.5-0.5c-0.1,0-0.3,0.1-0.4,0.1c-0.1,0.1-0.1,0.2-0.2,0.4c0,0.1,0.1,0.3,0.1,0.4c0.1,0.1,0.2,0.1,0.4,0.2
		c0.1,0,0.3-0.1,0.4-0.1c0.1-0.1,0.1-0.2,0.2-0.4c0-0.2-0.2-0.4-0.4-0.4C32.1,13,32,13.1,32,13.3z"/>
	<path id="Trazado_12" class="st32" d="M33.9,25.6c-0.1,0-0.2-0.1-0.3-0.2s0,0,0,0c-0.1,0-0.1-0.1-0.2-0.1c-0.2-0.1-0.5-0.2-0.7-0.3
		c-0.9-0.3-1.8-0.1-2.5,0.4c-0.4,0.3-0.8,0.5-1.2,0.5c-0.3,0-0.6,0-1-0.2c0,0-0.1,0,0,0h-0.1c0,0-0.1,0-0.1-0.1
		c-0.1,0-0.1-0.1-0.2-0.1c-0.1-0.1,0.2,0.1,0,0l-0.1-0.1c-0.4-0.3-0.9-0.4-1.4-0.5c-0.3,0-0.7,0-1,0.1c-0.4,0.1-0.8,0.4-1.2,0.6
		c-0.4,0.2,0,0.8,0.4,0.6c0.2-0.1,0.4-0.3,0.6-0.4s0.4-0.2,0.7-0.2c0.3-0.1,0.7,0,1,0.1c0.1,0,0.1,0,0.2,0.1c0.1,0-0.1,0,0,0h0.1
		c0.1,0,0.2,0.1,0.3,0.2c0,0,0.2,0.1,0,0l0.1,0.1c0.5,0.3,1.1,0.5,1.7,0.5c0.5,0,0.9-0.2,1.4-0.4c0.2-0.1,0.4-0.3,0.7-0.4
		c0.2-0.1,0.4-0.2,0.7-0.2c0.2,0,0.5,0,0.7,0c0.1,0,0.2,0.1,0.3,0.1h0.1c-0.1,0,0.1,0,0.1,0c0.1,0.1,0.2,0.1,0.3,0.2s0,0,0,0
		c0.1,0.1,0.2,0.2,0.4,0.2C33.9,26.4,34.3,25.8,33.9,25.6L33.9,25.6z"/>
	<path id="Trazado_13" class="st32" d="M28.5,17.1c0,1.7,0,3.3,0,5c0,0.8,0,1.5,0,2.3c0,0.5,0.7,0.5,0.7,0c0-1.7,0-3.3,0-5
		c0-0.8,0-1.5,0-2.3C29.2,16.6,28.5,16.6,28.5,17.1L28.5,17.1z"/>
</g>
<g id="avion">
	<g>
		<path class="st33" d="M6.1,12.2c-0.8,0-1.4,0.6-1.4,1.4v2c0,0.8,0.6,1.4,1.4,1.4s1.4-0.6,1.4-1.4v-2C7.6,12.9,6.9,12.2,6.1,12.2z"
			/>
		<path class="st33" d="M9.3,10.8c-0.6,0-1,0.5-1,1V14c0,0.6,0.5,1,1,1c0.6,0,1-0.5,1-1v-2.1C10.4,11.3,9.9,10.8,9.3,10.8z"/>
	</g>
	<path class="st34" d="M15.5,24.9c0,0-4.2,4-4.6,4.5s-0.2,2,0,2.6c0.2,0.7,5.3-3.3,5.3-3.3L15.5,24.9z"/>
	<path class="st34" d="M15.1,9.1c0,0-12.4,7.8-12.9,8.1s-0.5,2.7-0.5,2.9c0.1,0.3,13.8-3.6,13.8-3.6L15.1,9.1z"/>
	<path class="st35" d="M17.9,0v30.6c0,0-1.4-0.2-2.3-1.3c-0.9-1.1-1.1-23.4-1.2-24.5S16.3,0,17.9,0z"/>
	<path class="st34" d="M17.9,25.8v6.3c0,0-0.7,0-1.3,0c-0.5,0,0.2-5.6,0.2-5.9C16.9,25.9,17.5,25.6,17.9,25.8z"/>
	<path class="st36" d="M17.9,2.7c-0.9,0-1.8,0.8-2.1,1.6s-0.1,0.8,0.1,0.9c0.3,0,1.1-1.2,2-1.2C17.9,3.9,17.9,3.6,17.9,2.7z"/>
	<g>
		<path class="st37" d="M29.7,12.2c0.8,0,1.4,0.6,1.4,1.4v2c0,0.8-0.6,1.4-1.4,1.4s-1.4-0.6-1.4-1.4v-2
			C28.2,12.9,28.9,12.2,29.7,12.2z"/>
		<path class="st37" d="M26.5,10.8c0.6,0,1,0.5,1,1V14c0,0.6-0.5,1-1,1c-0.6,0-1-0.5-1-1v-2.1C25.4,11.3,25.9,10.8,26.5,10.8z"/>
	</g>
	<path class="st38" d="M20.3,24.9c0,0,4.2,4,4.6,4.5s0.2,2,0,2.6c-0.2,0.7-5.2-3.3-5.2-3.3L20.3,24.9z"/>
	<path class="st38" d="M20.7,9.1c0,0,12.4,7.8,12.9,8.1s0.5,2.6,0.4,2.9s-13.8-3.6-13.8-3.6L20.7,9.1z"/>
	<path class="st34" d="M17.9,0v30.6c0,0,1.4-0.2,2.3-1.3c0.9-1.1,1.1-23.4,1.2-24.5S19.5,0,17.9,0z"/>
	<path class="st38" d="M17.9,25.8v6.3c0,0,0.7,0,1.3,0c0.5,0-0.2-5.6-0.2-5.9C18.9,25.9,18.3,25.6,17.9,25.8z"/>
	<path class="st36" d="M17.9,2.7c0.9,0,1.8,0.8,2.1,1.6c0.3,0.8,0.1,0.8-0.1,0.9c-0.3,0-1.1-1.2-2-1.2C17.9,3.9,17.9,3.6,17.9,2.7z"
		/>
</g>
<g id="repeat">
	<path class="st39" d="M1135.5,42c0-13.3,10.8-24.2,24.2-24.2c13.3,0,24.2,10.8,24.2,24.2c0,13.3-10.8,24.2-24.2,24.2
		S1135.5,55.4,1135.5,42z"/>
	<path class="st7" d="M1168.5,31.6c-2-0.6-4.6-0.2-6.7-0.2c-1.7,0-3.5,0-5.2,0c0-1,0-1.9,0-2.9c0-0.3-0.1-0.5-0.3-0.6
		c-0.2-0.2-0.5-0.3-0.8-0.1c-2.8,1.8-5.5,3.5-8.3,5.3c-0.5,0.3-0.5,0.9,0,1.2c2.8,1.8,5.5,3.5,8.3,5.3c0.5,0.3,1.1-0.1,1.1-0.6
		c0-1.1,0-2.3,0-3.4c3.4,0,6.7,0,10.1,0c2.2,0,2.7,1.6,2.7,3.4c0,2.2,0,4.4,0,6.7c0,1.9-1.4,2.7-3.1,2.7c-2,0-4,0-5.9,0
		c-3.8,0-7.7,0-11.5,0c-2.8,0-2.8,4.3,0,4.3c4.4,0,8.8,0,13.3,0c1.6,0,3.2,0,4.8,0c3.7,0,6.7-3.1,6.7-6.8
		C1173.6,40.7,1174.9,33.4,1168.5,31.6z"/>
</g>
</svg>
