<?xml version="1.0" encoding="utf-8"?>
<!-- Generator: Adobe Illustrator 20.1.0, SVG Export Plug-In . SVG Version: 6.00 Build 0)  -->
<svg version="1.1" id="Capa_1" xmlns="http://www.w3.org/2000/svg" xmlns:xlink="http://www.w3.org/1999/xlink" x="0px" y="0px"
	 viewBox="0 0 1426.6 916.6" style="enable-background:new 0 0 1426.6 916.6;" xml:space="preserve">
<style type="text/css">
	.st0{fill:url(#SVGID_1_);}
	.st1{fill:#606629;}
	.st2{fill:#A3A97C;stroke:#222221;stroke-miterlimit:10;}
	.st3{fill:#818755;stroke:#222221;stroke-miterlimit:10;}
	.st4{fill:#FFFFFF;}
	.st5{fill:#DE912F;stroke:#FFFFFF;stroke-width:2;stroke-miterlimit:10;}
	.st6{fill:none;stroke:#F9F7F4;stroke-miterlimit:10;}
	.st7{opacity:0.8;}
	.st8{fill:#F59C22;stroke:#FFFFFF;stroke-miterlimit:10;}
	.st9{font-family:'ArialMT';}
	.st10{font-size:21px;}
	.st11{font-size:16.7729px;}
	.st12{fill:#39C8C6;}
	.st13{fill:#D3500C;}
	.st14{fill:#F7D0BC;}
	.st15{fill:#FFB13A;}
	.st16{fill:#460929;}
	.st17{fill:#D88F2D;}
	.st18{fill:#FFFFFF;stroke:#F9F7F4;stroke-width:0.75;stroke-miterlimit:10;}
	.st19{fill:#F2F2F2;}
	.st20{fill:#FAA522;}
	.st21{fill:#3A568E;}
	.st22{fill:#4C70B7;}
	.st23{fill:#FFF8A5;}
	.st24{fill:#F58225;}
	.st25{fill:#2E4575;}
	.st26{fill:#357180;}
</style>
<g id="fondo">
	
		<linearGradient id="SVGID_1_" gradientUnits="userSpaceOnUse" x1="0" y1="457.9" x2="730.4" y2="457.9" gradientTransform="matrix(1 0 0 -1 0 916)">
		<stop  offset="0" style="stop-color:#8BBAD5"/>
		<stop  offset="1" style="stop-color:#D5E9FA"/>
	</linearGradient>
	<polygon class="st0" points="697,916.6 0,916.6 0,0 730.4,-0.4 	"/>
	<polygon class="st1" points="729.6,-0.3 1426.6,-0.4 1426.6,916.2 696.2,916.6 	"/>
	<g>
		<path id="ECU1266" class="st2" d="M770,567.7l-1,4.3l0.2,1.4l0.5,1.4l1.2,1l1.2,0.7l1-0.2l0.7-0.7l0.2-1.7l0.5-1.4l1-1.4l1.4-1.4
			l1.4-0.7l1.2-0.5l1.4,0.2l0.7,0.2l4.5,3.3l1,1l1,2.6v1.2l-0.7,1.2l-1.4,1.2l-15.7,8.1l-1.4,1.2l-1.2,1.7l-4.5,8.1l-0.2,1l0.5,1
			l1,1.2l1.2,1.4l1,1.4l0.5,1.4v1.2l-0.7,2.1l-6.7,11l-1,2.4l-0.5,1.4l-3.3,7.2l-0.5,2.4v2.1l0.2,2.1l-0.5,2.6l-1.4,2.4l-3.8,4.1
			l-3.3,2.9l-5,2.6l-5.2,1.7l-2.9,2.9l-17.7,14l-0.7,1.4l-0.2,1l0.7,2.6l-2.9,2.6l-7.9,4.3l-2.6,1.9l-1.9,1.9l-1.2,1.9l-0.7,1.4
			l-0.2,1.2l0.2,1.2l0.7,2.1l0.7,0.7l0.5,1v1.2l-1,2.9l-0.2,1.4l-0.2,1.7l1,5l-1.7,8.4l-0.5,1.4l-0.7,1l-2.1,1l-2.4,0.2l-2.6-3.3
			l-0.5-4.5v-3.3l-1-2.6l-4.3-6.9l-1.4-3.1l-1.2-2.9l-0.7-0.7l-1.2,0.2l-4.1,1.9l-2.1,0.5h-2.9L666,694l-1.7-1.7l-0.7-1.9l-0.5-3.1
			l0.2-2.6V683l-1-2.1l-1.4-1.4l-1.7-1h-1.9l-4.1,0.2h-4.8l-3.8-0.5l-3.6-1.4l-4.8-1.9l-2.4-0.2l-1.9-0.2l-5.2,0.7l-8.1,1.9l-5-0.2
			l-1.7-0.5l-0.7-0.7l0.2-1.2l0.5-0.7l2.9-1.2l1.4-1l0.7-1.4l0.7-2.9l3.3-6.2l0.5-1.9l0.2-2.1l-0.2-2.1l-0.7-1.9l-5.5-4.5l-17.2-9.1
			v-2.9l0.5-1.2l1-1.9l7.9-9.5v-1l-0.2-4.1l-1-3.8l-0.2-2.9l0.7-3.6l1.2-3.3l31-32.4l2.4-1.7l1.2-1l3.1-3.3l1-1.4l0.2-1.7l-1.2-1.7
			l-1.7-3.6l4.8,0.2l2.1,1.4l1.7,1.7l2.4,5.7l1.4,1.4l1.9,0.5l3.6,0.5l2.4,1.4l1.2,1.4l1.4,3.1l1.2,1.7l12.6,13.1l1.9,1.2l1.7,0.5
			l1.4-1l0.5-1l0.2-2.6l0.7-1l1.2-0.7l2.9-1.2l1.2-1l0.7-1l1-1.9l0.7-0.7l1-0.2l1.7,0.7l1.7,1.2l2.1,1.9l1.9,1.9l4.1,5.2l2.6,1.9
			l3.1,3.1l1,1.4l0.5,1.4l0.7,3.6l0.7,1.4l2.1,0.7l5.2,0.5h2.1l2.9-0.5l1-0.2l2.4,0.5l0.5-0.2l0.2-1l-0.2-2.1v-1.2l0.7-1.2l2.6-3.3
			l0.5-0.7l0.2-1.2v-1l-0.5-1.4l-0.5-1.7l0.5-1.2l1-1.4l1.2-1.2l1.4-0.7l1.9,0.2l2.6,0.5h1.2l1.4-0.7l1.9-1.4l2.6-2.4l1.4-1l3.3-0.7
			l1.7-0.5l2.1-1.7l0.7-1.9l0.2-1.7l0.7-1.4l1.4-1.4l5.2-3.6L770,567.7L770,567.7z"/>
		<path id="ECU1267" class="st2" d="M598.2,639.3l17.2,9.1l5.5,4.5l0.7,1.9l0.2,2.1l-0.2,2.1l-0.5,1.9l-3.3,6.2l-0.7,2.9l-0.7,1.4
			l-1.4,1l-2.9,1.2l-0.5,0.7l-0.2,1.2l0.7,0.7l1.7,0.5l5,0.2l8.1-1.9l5.2-0.7l1.9,0.2l2.4,0.2l4.8,1.9l-1,7.4l0.2,2.6l0.7,2.4
			l0.7,1.2l0.7,0.7l2.1,0.7l0.7,0.5l0.5,1v0.7l-0.5,1.7l-5,5.7l-0.7,1.4l-0.7,1.7v3.3v1.9l-1.9,6.4l-0.2,1.9l0.2,1.4l0.7,1l0.7-0.5
			l1.2-0.7l1.7-1.9l1.7-2.1l1-0.7l1.2-0.5l1.7,0.2l1,0.7l1.7,1.7l1.7,1l1,0.7l1,1.2l0.7,1.7l0.2,1.9L654,725l-0.7,2.1l-0.7,1.4
			l-0.7,1l-2.1,2.1l-0.7,1v1l1,3.8v1.4l-0.5,1.2l-1.2,1.7l-1,1l-1.9,1.2l-2.6,0.5H640l-1.7-0.5l-2.6-1l-1.9-0.5l-4.8,1l-2.4-0.5
			l-1.7-0.7l-2.4-2.1l-0.7-1l-1.2-1.9l-0.7-0.2h-1.2l-1.4,1l-1.9,0.7l-4.3,2.4l-1.7,1.4l-3.6,4.3l-2.1,1l-2.9,0.7l-9.3,0.5l-2.4-0.2
			l-2.9-1l-2.1-0.5h-2.6l-8.1,0.7l-2.9,0.7l-8.4,4.1l-9.1,1.9l-10.3,0.5l-2.1,0.2l-1-1.2l-1.2-0.7l-1.2-1.4l-0.5-1.2v-2.6v-1.4
			l-1.4-2.9l-2.9-4.5l-0.5-2.9l0.2-1l1-2.1v-1.4l-1-2.6l-0.2-2.6l0.2-1.2l1-2.9l0.2-1.4l-0.2-1.4l-0.7-2.9v-1.4l-0.5-1.4l-2.6-1
			l-1-1l0.2-1.2l1-3.8l0.2-2.6v-1.4l-0.2-1.4l-1-1l-2.4-1l-0.7-0.7l-0.5-3.1l1-2.9l0.2-2.6l-1.9-1.4l-5.5-1.4l-3.1-1.7l-0.5-2.1
			l0.2-1.4l1.9-1.2l1-1.7l0.7-1.9l1.4-2.1l-1.4,4.1l-0.5,1l0.7,2.9l1.7-1.2l1-4.5l1.4-2.1l3.8,4.1l1.9-1l10.3-2.1l4.1,0.7l1.4-0.7
			l3.1-3.8l0.7-0.5l5.2-11.2l1.7-1.9l3.1,0.5l0.7,3.3l-1.2,6.9l1.7-1l1-1.4l0.7-1.4l1.2-1.7l1.2-1l4.5-2.9l2.1-2.4l1.4-3.1l0.7-3.1
			l0.7-5.5l2.1-5.2l3.1-4.8l1.2,0.2l10.7,0.5l1.4,0.2L598.2,639.3L598.2,639.3z"/>
		<path id="ECU1268" class="st2" d="M691.5,720.4l-2.9,3.6l-1,0.5l-2.1,1.9l-0.5,1v1.9v1l-0.7,1l-1.4,0.7h-3.1l-0.7,0.5l-0.5,1.7
			l0.5,2.4l1.4,2.6l1.9,4.8l1.4,2.1l2.9,3.1l1.7,2.9l0.2,1.4l0.5,2.4l-0.2,1.4l-0.5,1.4l-1.4,3.1l-0.7,3.1l-0.5,4.5l0.2,3.3l0.7,4.3
			l-0.2,2.1l-2.1,7.9l-0.2,3.1v2.1l0.7,1.7l1.4,1.2l1.4,0.7l1.2,1l0.5,0.7l1.7,1.9l0.5,2.4v2.4l-0.2,1.9l0.5,3.6l-1.2,8.1l0.2,1.7
			l0.2,3.6l-0.2,2.9l-1,4.5l-1,2.1l-1.9,1.7l-1.9,2.9l-1.2,2.1l-1,1l-1.2,0.5l-2.4,0.7l-0.7,0.5l-0.7,1.4l-1,0.7h-1.4l-1.2-1
			l-1.4-1.2l-1.2-0.5l-1.9-0.2l-1.7-0.7l-1.4-0.2h-1l-1.2,1l-0.7,1.7l-1,1l-2.1,1.7L660,850l0.2,1.4l0.5,2.6l-0.2,1.7l-0.7,1.9
			l-0.7,1.7l-4.5,6.2l-1.7,2.1l-4.8,7.6l-6.2,6.4l-1.2,0.7V882l-3.8-6.9l-1.7-8.6l-4.1-6v-3.1l3.3-5.7l0.2-2.1l-0.7-1.4l-2.9-1.7
			h-3.3l-1-0.5l-1.9-1.4l-1.2-0.5l-7.2-7.2l-4.1-1.9l-5,0.7l-5,2.9l-9.3,2.9l-5.5-0.7l-3.3-3.8l-3.1-4.3l-3.6-3.3l-3.6-1h-3.8
			l-3.6-0.5l-3.8-2.1l-2.9-1.9l-4.8-5.2l-2.4-2.1l-2.4-0.7l-3.1-0.7l-2.1-0.7l-1-1.4h-0.5l-5.7,1l-1.7,0.5l-1.4,0.7l-1.2,1l-1.2,1.9
			l-1.4,5l-1,2.4l-2.4,2.4l-10.7,8.4l-6,3.1l-1.4,1.2l-3.6,0.2l-2.4-1l-6.2-3.6l-1.9-1.7l-1.4-3.1l0.7-2.4l18.6-25.1l1.7-3.1l-6.7,1
			l-6,1.7l-5-0.5l-3.1-6.2v-1.4l0.7-2.6l-0.2-1.4l-0.7-1.9l-2.4-3.1l-0.7-1.7l0.5-2.9l1.2-3.6l1.7-3.3l1.4-2.4l2.1-1.4l2.6-1h2.9
			h2.9l2.9,1l6,3.3l2.9,0.5l2.9-1.4l2.4-3.1l2.1-3.1l1.9-2.6l11-5l2.4-2.6V756l2.1-0.2l10.3-0.5l9.1-1.9l8.4-4.1l2.9-0.7l8.1-0.7
			h2.6l2.1,0.5l2.9,1l2.4,0.2l9.3-0.5l2.9-0.7l2.1-1l3.6-4.3l1.7-1.4l4.3-2.4l1.9-0.7l1.4-1h1.2l0.7,0.2l1.2,1.9l0.7,1l2.4,2.1
			l1.7,0.7l2.4,0.5l4.8-1l1.9,0.5l2.6,1l1.7,0.5h2.6l2.6-0.5l1.9-1.2l1-1l1.2-1.7l0.5-1.2V738l-1-3.8v-1l0.7-1l2.1-2.1l0.7-1
			l0.7-1.4l0.7-2.1l0.2-2.1l-0.2-1.9l-0.7-1.7l-1-1.2l-1-0.7l-1.7-1l-1.7-1.7l-1-0.7l-1.7-0.2l-1.2,0.5l-1,0.7l-1.7,2.1l-1.7,1.9
			l-1.2,0.7l-0.7,0.5l-0.7-1l-0.2-1.4l0.2-1.9l1.9-6.4v-1.9v-3.3l0.7-1.7l0.7-1.4l5-5.7l0.5-1.7v-0.7l-0.5-1l-0.7-0.5l-2.1-0.7
			l-0.7-0.7l-0.7-1.2l-0.7-2.4l-0.2-2.6l1-7.4l3.6,1.4l3.8,0.5h4.8l4.1-0.2h1.9l1.7,1l1.4,1.4l1,2.1v1.7l-0.2,2.6l0.5,3.1l0.7,1.9
			l1.7,1.7l3.6,1.7h2.9l2.1-0.5l4.1-1.9l1.2-0.2l0.7,0.7l1.2,2.9l1.4,3.1l4.3,6.9l1,2.6v3.3l0.5,4.5L691.5,720.4z"/>
		<path id="ECU1269" class="st3" d="M794.6,705.4l-0.2,0.5l-2.6,5.7l-1,3.1l-0.2,2.6v5.2l0.5,2.9v1.4l-1,0.7l-2.6,0.5v2.6l1.7,9.3
			l-0.7,2.6l-3.6,3.3l-1,0.7l-1.9,1l-0.7,0.5l-1.4,2.9l-1.2,2.6l-1.4,10.7v1l-0.5,0.5l-1.9,1.2l-1.9,0.5l-1.7,0.2l-1.7,0.2l-1.4,1.7
			l-0.7,2.1l0.2,8.6l-1.7,6.2l-8.6,18.4l-1.2,6.2l-1.4,2.6l-2.6,2.1l-1,3.1v5.2l1.2,5.5l1.7,2.6l3.3,2.1l-0.2,2.1l-2.1,2.9l-2.1,3.1
			l-0.2,2.6v2.9l-0.2,2.9l-1.2,2.1l-5.5,3.6l-12.9,5.2l-6,3.3l-6.4,6l-2.6,3.8l-1.7,3.8l0.2,4.1l3.1,6.2l0.7,3.6l-1.4,2.9l-3.3,0.7
			h-3.8l-2.9,0.7l-1.4,2.4l-1.7,6.9l-1,2.9l-3.6,4.1l-4.1,3.3l-2.6-2.6l-1.7-1.2l-1.4-0.7H690l-2.4,0.5H686l-2.4-0.5l-4.8-1.7
			l-2.6-0.5l-10,0.5l-3.3-1L661,907l-1.4-3.1l-1.9-2.6l-1.2-1l-2.9-1l-1.2-1l-0.7-1.2l-1-2.9L650,893l-2.6-1.9l-2.9-1.4l-2.4-1.9
			l-1-3.1l-0.5-2.6l1.2-0.7l6.2-6.4l4.8-7.6l1.7-2.1l4.5-6.2l0.7-1.7l0.7-1.9l0.2-1.7l-0.5-2.6l-0.2-1.4l0.7-4.3l2.1-1.7l1-1
			l0.7-1.7l1.2-1h1l1.4,0.2l1.7,0.7l1.9,0.2l1.2,0.5l1.4,1.2l1.2,1h1.4l1-0.7l0.7-1.4l0.7-0.5l2.4-0.7l1.2-0.5l1-1l1.2-2.1l1.9-2.9
			l1.9-1.7l1-2.1l1-4.5l0.2-2.9l-0.2-3.6l-0.2-1.7l1.2-8.1l-0.5-3.6l0.2-1.9v-2.4l-0.5-2.4l-1.7-1.9l-0.5-0.7l-1.2-1l-1.4-0.7
			l-1.4-1.2l-0.7-1.7v-2.1l0.2-3.1l2.1-7.9l0.2-2.1l-0.7-4.3l-0.2-3.3l0.5-4.5l0.7-3.1l1.4-3.1l0.5-1.4l0.2-1.4l-0.5-2.4l-0.2-1.4
			l-1.7-2.9l-2.9-3.1l-1.4-2.1l-1.9-4.8l-1.4-2.6l-0.5-2.4l0.5-1.7l0.7-0.5h3.1l1.4-0.7l0.7-1v-1v-1.9l0.5-1l2.1-1.9l1-0.5l2.9-3.6
			l2.4-0.2l2.1-1l0.7-1l0.5-1.4l1.7-8.4l-1-5l0.2-1.7l0.2-1.4l1-2.9V696l-0.5-1l-0.7-0.7l-0.7-2.1l-0.2-1.2l0.2-1.2l0.7-1.4l1.2-1.9
			l1.9-1.9l2.6-1.9l7.9-4.3l2.9-2.6l11.7,8.4l1,1l0.5,1.2v0.7l-0.2,1l-3.1,2.9l-0.5,1v1.9l0.5,1.9l0.2,2.6l0.7,2.4l1.2,1.7l1.2,1
			l0.5,1l0.5,1.9l1,0.7l1.4,0.7l4.1,0.7l6,1.7l4.8,0.5l1.4,0.5l2.4,1.2l1,0.2l1-0.7l0.7-1l1.4-2.6l1.2-1.2l1.4-0.2l1.7-0.2l5.5,0.5
			h2.9l10.3-1.9L794.6,705.4L794.6,705.4z"/>
		<path id="ECU1277" class="st2" d="M724.9,370.9l-3.1,5.7l-0.2,1.9l-0.2,5.2l-0.7,2.4l-1.9,4.1l-1,2.6l-1.4,7.2l0.5,2.1l3.3,5
			l1.7,1.7l1.2,2.1l-0.2,2.9l0.5,1.4l0.7,1.7l2.1,3.6l0.7,1.9v2.4l-0.5,3.3l-0.2,3.3l0.2,4.8l-0.5,3.8l-1.4,3.6l-2.9,4.3l-5,4.5
			l-1.9,0.5l-5.2,0.7l-1.7,1l-1.2,1l-0.7,1.2l-0.5,1.4v2.4l-0.5,6.4l0.2,4.5l1,3.1v1.4l-3.6,18.4v1.7l0.5,1.4l0.7,1.2l0.2,1.4
			l-0.2,1.7l-0.7,1.7l-2.6,4.1l-5.2,5l-7.6,4.1l0.5-5.7l-0.7-1.2l-1-1.2H685l-1.4,0.7l-0.7,1l-1,0.5l-1.7,0.2l-1.7-0.2l-5.7-1
			l2.1-4.5l1-4.8l1.2-2.1v-1.2l-1-2.1l-5-7.9l-4.5-6V480l0.5-1.2l1.7-1.2l0.7-0.7l2.4-9.5l1.4-2.6l0.2-2.1l-0.5-1.4l-1.2-1.7l-1-1.9
			l-0.5-1.7l-0.2-1.7l0.7-2.6l-0.2-1.2l-4.3-6.4l-1.7-3.1l-1-1.4l-1-0.5l-1,0.2l-0.7-0.5l-0.5-0.7l-2.9-1l-0.5-0.7l0.5-1l1.9-1.2
			l1-1l4.1-4.3l0.7-0.2l1.7,0.7h0.7l0.5-0.5l1.4-2.4l0.7-2.1l0.2-1.9l-0.7-1.7l-1.2-1.2l-4.5-3.1l-1.9-1.9l-1.4-2.4l-0.5-3.1l0.2-11
			l0.2-1.4l0.7-1h1.2l1.7-1l0.5-1l-0.2-0.7l-4.1-2.9l-1.4-2.6l-1-0.7l-0.7,0.2l-1,0.7l-1.9,2.6l-1,1l-1.2,0.5l-1-0.2l-0.5-0.7
			l0.2-1.9l2.1-2.4l3.6-5.5l2.6-3.6l6.7-3.1l6.4-0.5l10.5-5.2l3.3-1l4.1-0.5h1.9l1.9,0.2l1,1l1.7,1.9l4.1,2.9l2.9,1.2l3.3,1l3.1-0.2
			l2.6-0.7l3.8-3.3l2.4-1.2l1.7-0.2L724.9,370.9L724.9,370.9z"/>
		<path id="ECU1278" class="st2" d="M765.7,532.2v1.4l1.9,1.2l8.8,3.8l2.1,1.7l1,1.7l-0.5,2.9l0.2,8.1l-0.7,2.6v2.9l-0.2,1.2
			l-0.5,1.2l-3.6,5.2l-1.4,1.7l-1,0.7h-1l-1-0.7h-2.1l-5.2,3.6l-1.4,1.4l-0.7,1.4l-0.2,1.7l-0.7,1.9l-2.1,1.7l-1.7,0.5l-3.3,0.7
			l-1.4,1l-2.6,2.4l-1.9,1.4l-1.4,0.7h-1.2l-2.6-0.5l-1.9-0.2l-1.4,0.7l-1.2,1.2l-1,1.4l-0.5,1.2l0.5,1.7l0.5,1.4v1l-0.2,1.2
			l-0.5,0.7l-2.6,3.3l-0.7,1.2v1.2l0.2,2.1l-0.2,1l-0.5,0.2l-2.4-0.5l-1,0.2l-2.9,0.5h-2.1l-5.2-0.5l-2.1-0.7l-0.7-1.4l-0.7-3.6
			l-0.5-1.4l-1-1.4l-3.1-3.1l-2.6-1.9l-4.1-5.2l-1.9-1.9l-2.1-1.9l-1.7-1.2l-1.7-0.7l-1,0.2l-0.7,0.7l-1,1.9l-0.7,1l-1.2,1l-2.9,1.2
			l-1.2,0.7l-0.7,1l-0.2,2.6l-0.5,1l-1.4,1l-1.7-0.5l-1.9-1.2l-12.6-13.1l-1.2-1.7l-1.4-3.1l-1.2-1.4l-2.4-1.4l-3.6-0.5l-1.9-0.5
			l-1.4-1.4l-2.4-5.7l-1.7-1.7L649,559l-4.8-0.2l-4.1,1.2l-3.3,1.7l-2.1-0.2l-1.2-1l-0.2-1.9l7.9-7.4l4.8-3.1l0.2-0.7l-1.2-2.1
			l0.2-1.2l0.7-1.2v-3.3l1.2-1.9l1.4-1.4l4.1-3.1l1.9-1l1.7-0.7l16.7-3.1l2.9-0.7l3.3-1.4l3.1-1.9l2.1-1.4l2.1-2.6l1.2-3.1l0.7,3.8
			l1.2,2.1l1,0.5l1.4,1l0.7,0.5l0.7,2.1l0.7,1.2l2.4,1.4l1.2,1.2l4.5,6.4l2.1,1.9l1.9,1.4l3.1,1.2l2.9,1.9l1.7,1l3.3,0.2l4.1-0.2
			l4.5-1.2l4.8-2.4l2.4-2.1l3.3-3.3l3.6-1.2l5.2-1.2l17.9-2.1L765.7,532.2L765.7,532.2z"/>
		<path id="ECU1279" class="st2" d="M791.5,300.7l-1.2,3.6l0.2,1.7l1.4,5l0.7,5l0.2,3.1l-0.5,2.6l-1.7,3.1l-1.4,2.1l-0.7,1.9
			l-0.2,1.4v2.1l-0.5,1.2l-0.5,1l-1.9,1.2l-0.2,1l0.5,1l1,0.7l3.3,0.7l2.4,1.2l-4.1,3.6l-0.7,1.2l-0.7,1.4l-0.5,1.4l-0.2,1.4v2.6
			l-1.7,2.9l-1.2,1.4l-1.9,0.7l-3.3,0.2l-1.9-0.5l-1.2-1l-0.7-0.7l-1.9-1.2h-1.7l-1.4,0.2l-1.4,1.4v2.6l-0.5,1.2l-1.2,0.7l-1.2,0.5
			l-3.8,0.2l-1.4,0.5l-3.3,2.9l-2.4,1.2l-2.1,0.5l-3.6-0.2l-6.7-1.4l-2.6,0.2l-2.6,0.5l-3.6,1.2l-3.8,3.3l-4.1,1.4l-4.1-1.2
			l-1.7,0.2l-2.4,1.2l-3.8,3.3l-2.6,0.7l-3.1,0.2l-3.3-1l-2.9-1.2l-4.1-2.9l-1.7-1.9l-1-1l-1.9-0.2h-1.9l-4.1,0.5l-3.3,1l-10.5,5.2
			l-6.4,0.5l-1-4.5l-3.8-5l-1.2-2.1v-3.3l0.2-3.6l2.1-10l-0.2-2.4v-2.6l0.5-2.4l1.9-5l1.2-2.1l1.4-1.4l1.7-1.2l1.7-1.4l3.8-7.2
			l1.2-1.2l1.2-1.2l2.4-1.4l1-1.2l2.1-3.8l9.8-22.9l1.4-6.4l2.1,3.3l1.4,1l1,0.5h1.2l1.4-0.7l1.2-2.1l0.5-1.9l0.7-0.7l1-0.7l2.6-1
			l0.5-0.5v-0.7l-0.7-2.4l-0.7-1l-1.2-1l-2.4-1l-1-1.4l1.9-3.6l1.9-4.3l1.2-1.4l2.9-1.4l1.2-1.2l0.5-2.1l1.2-1.9l1.2-1l1.7-0.2
			l1.4-1.7l0.7-0.2l1.2,1l0.5,1v1.7l0.5,1l5.2,6.9l2.1,3.8l1.7,2.6l0.5,1.2l1,3.6l0.5,1.7l1.9,1.7l9.1,6.2l2.4,3.3l1.4,3.1l0.2,2.4
			l0.5,1.4l1,1.2l1,0.5l1.2-0.2l3.8-2.9l1.2-0.5l1.2-0.5l1.9-1l1.7-1.2l1.7-0.7l1.2-0.2l1.9,1.9l1,0.5l1.4-0.5l3.8-2.1l1.4-0.2h2.1
			l3.3,0.5l1.9-0.2l4.1,1.7L791.5,300.7L791.5,300.7z"/>
		<path id="ECU1280" class="st2" d="M547.9,629.8l-2.4,3.3l-5-0.7l-2.9,1.7l-2.4,0.7l-3.6-0.2l-3.1-0.7l-2.1-1.2l-1-3.1l1-5
			l0.5-17.2l0.5-1.9l4.8-8.8l2.1-5.7l1.9-1.4l8.8-2.6l7.6-3.8l3.1-1l6.2,0.2l9.8,6l6.2,1.7l-0.7,1.9l-1.2,1.9l-1.7,1.2l-7.2,3.1
			l-0.5,1.4l-1.9,1.9l-0.5,0.7l-1,2.1l-1,2.1l-1.2,1.2h-0.5l-1.4,2.6l-1.7,3.6l-1.9,3.1l-0.7,2.4l-2.4,1l-1.9,2.1v3.3l-2.1,1.9
			L547.9,629.8L547.9,629.8z M587.7,578.2l-3.3,2.1l-2.9-0.2l-0.7-3.1l2.1-5.5l2.9-7.9l3.8-6.9l1.7,3.8l3.3,1.2l1.7,3.1l-2.9,4.5
			l-5,2.6L587.7,578.2L587.7,578.2z M672.7,509.7l5.7,1l1.7,0.2l1.7-0.2l1-0.5l0.7-1l1.4-0.7h1.4l1,1.2l0.7,1.2l-0.5,5.7l-1.2,3.1
			l-2.1,2.6l-2.1,1.4l-3.1,1.9l-3.3,1.4l-2.9,0.7L656,531l-1.7,0.7l-1.9,1l-4.1,3.1l-1.4,1.4l-1.2,1.9v3.3l-0.7,1.2l-0.2,1.2
			l1.2,2.1l-0.2,0.7l-4.8,3.1l-7.9,7.4l0.2,1.9l1.2,1l2.1,0.2l3.3-1.7l4.1-1.2l1.7,3.6l1.2,1.7l-0.2,1.7l-1,1.4l-3.1,3.3l-1.2,1
			l-2.4,1.7l-31,32.4l-1.2,3.3l-0.7,3.6l0.2,2.9l1,3.8l0.2,4.1v1l-7.9,9.5l-1,1.9l-0.5,1.2v2.9l-6-1.9l-1.4-0.2l-10.7-0.5l-1.2-0.2
			l1.7-2.9l1.4-2.9l-1.4-2.4l0.5-3.3l1.9-5.5l0.2-2.4l4.3-14.6l3.1-5.5l0.2-1l1.4-2.9l0.5-3.3l3.1-8.4l1.7-2.4l4.3-4.5l1.2-2.4
			l0.2-3.6l-1-6.2l-1.9-5l-0.5-0.7l-3.1,0.2l-1.7-0.2l-1.2-0.5l-1.7-2.6l-2.6-7.6l-1.9-2.9l-0.7-1.7l-0.5-2.1l0.2-8.4l-1-6.4v-1.9
			l0.7-3.1l0.2-1.9l-0.7-1.4l-1.9-2.4l-0.5-0.5l-0.2-1l-0.7-1.7l0.2-1.7l0.7-1.7l0.7-1.2l0.5-1.2l-1.2-1.9l2.1-2.1l2.4-0.7l1.7-1.2
			l0.7-3.3l1.2-1.4l2.1-1.2l2.4-1.4l1-3.1l-8.4,4.8l-1,0.7l-0.2,1.2l-0.2,2.6l-1,0.2l-4.5,0.5l-1.2,1.2l-0.2,1l-1.2,3.6l-1.2,5.7
			l0.2,4.1l1,4.1l4.3,7.6l0.5,4.3l-2.4,27.7l-1.4,5.7l-1,1.7l-3.8,4.3l-1.4,1l-2.4,0.7l-4.8,2.9l-2.1,0.2l-1.4-0.7l-0.7-1.9
			l-1.2-0.2l-3.1,0.2l-1-0.2l-1.9-1.4l-0.7-2.4l1.9-2.1l4.3-2.9l1.2-3.1l0.7-2.1l1.4-1.2l3.8-0.5l1,0.7l0.7,1.2l1.2,1l1.7,0.2l1.2-1
			l0.7-1.2l-0.2-1.4l-0.7-1.4l-0.7,2.9l-1.9-0.5l-3.3-3.3l-3.1,0.5l-2.9,1.4l-1.9,0.5l-1-1.9l0.7-3.1l2.6-6.2l0.7-3.3l0.5-1.7
			l1.2-0.7l1.7-0.2l1.4-0.7l1.2-1.2l2.9-4.5l-1.4,0.2l-0.7,0.5l-1.4,1.7l-1.2,0.5l-2.9-0.2h-1.2l-1.7,1.2l-1.2,1.7l-6.2,16
			l-9.8,13.6l-4.3,4.8l-4.5,1.9l-1.2,1.9l-1,1.2l-1.4,1H530l-0.7-0.7l-1.4-1.9l-1.9-0.7l-1.4,1l-0.5,2.4l0.5,2.9l0.5,0.5l3.8,3.8
			l0.5,1.2l0.2,1.7l-0.2,3.1l-1.4,1.2l-3.1-0.5l-6-2.4l-6.2-5l-1.9-1.2l-1.9-1.7l-1-0.7l-0.7-0.2l-2.6-0.5l-1.2-0.2l-5.5-3.6
			l-10.7-12.4l10.3-9.8l8.6-6.4l12.2-2.9l6.9-4.1l6.2-9.5l2.4-14.6l0.2-12.4l-5.5-8.6l-5-4.8l-8.4-5l-11.2-2.9l-7.4-4.3l-4.1-6.7
			l-1.4-6.2l6,0.2l4.1-0.5l1.2-0.5l0.7-0.7l0.5-1.9l0.2-2.4l0.2-1.4l1.2-1.7l1.2-1.4l1-1.4l1-1.7l1-1.4l1.7-1.2l1.4-0.7l1.9-1l1-0.7
			l1.4-2.4l1-1.2l1.2-0.5l1.2,0.7l1.9,1.4l1-0.2l0.7-1l1.9-1.2l5.5,0.5l2.1-0.5l0.5-1.4l-1.2-4.3l-0.2-1.2l0.2-1.9l-0.5-0.5
			l-2.4-0.7l-1.2-0.7l-1.9-1.4l-1.4-1.9l-1-1.2l0.2-1l8.6-1.2l4.8-3.1l0.7-1.4v-1l-1.7-2.4l-0.5-1.4l-0.5-1.9v-1.7l0.7-3.6l0.7-1.7
			l1-1.2l1.4-0.7l2.4-1.4l3.1-0.7l0.7-0.7l0.2-1l-0.5-3.3l0.2-2.6l1-2.1l1.7-1.2l3.1-1.4l5.5-4.5l1.2-1.7l2.9-7.6l1.2-4.5l1.2-2.9
			l1-3.1l1-2.1l1.4-1.4l1-0.7l0.5,0.5l-0.5,2.1l0.2,0.7l0.7,0.2h2.4l2.1,0.5l2.6-0.7l2.1-1.2l7.2-5.7l1.7-1.9l2.4-3.8l1.9-2.1
			l1.2-1.4l0.7-1.4l0.5-2.1v-2.1l0.7-0.7l2.1-1.4l0.7-1.4l0.7-1.7l0.7-1.7l5.2-7.6l1.4-1.2l1.7-1l2.4-0.7l9.1-1.4l4.8-1.2l5-0.7h2.1
			l1.9,1.2l0.7,2.1l-0.7,4.5l-2.1,6.2v1.4l0.7,1.9l-1,1.2l-2.1,1.4l-1,1.2l-1.2,2.9l-1,4.8l-0.7,1.4l-1,1l-1.2,0.7h-1.2l-1.4,0.5
			l-1,1l-0.5,0.7l-1.4,1.7l-1.4,2.1l-1,1l-2.1,0.2l-1,0.2l-0.5,1l-0.5,1.7l-0.7,1.9l-1,0.5l-1.4,0.5l-0.7,0.2l-0.2,2.4l-1.4,1
			l-1.4,0.2l-1.2,0.7l-0.5,0.7l-0.2,1v2.6L600,380l-7.9,15l-1.2,1.7l-2.6,2.6l-1.7,2.6l-0.7,1.4l-2.4,6.4l-0.2,1.7l-0.7,8.8l0.2,1.7
			l1.9,6.2l-0.2,1l-1,2.4v1.7l0.2,2.1l0.5,1.4l0.5,1l11.7,6l1.9,1.9l1.7,2.9l1,3.1l1.4,2.1l3.6,4.8l1,1.9l1.9,4.8l3.1,6l1,3.1
			l1.2,1.2l3.1,0.7l4.8-0.7l7.4-2.9l2.4-0.2l3.1,0.5l2.9,1.4l6.4,4.3l3.1,1.7l1.7,1l4.3,3.3l1.7,1.9l10.7,17.7L672.7,509.7
			L672.7,509.7z"/>
		<path id="ECU1281" class="st2" d="M693.7,281.9l-1.4,6.4l-9.8,22.9l-2.1,3.8l-1,1.2l-2.4,1.4l-1.2,1.2l-1.2,1.2l-3.8,7.2l-1.7,1.4
			l-1.7,1.2l-1.4,1.4l-1.2,2.1l-1.9,5l-0.5,2.4v2.6l0.2,2.4l-2.1,10l-0.2,3.6v3.3l1.2,2.1l3.8,5l1,4.5l-6.7,3.1l-2.6,3.6l-3.6,5.5
			l-2.1,2.4l-0.2,1.9l0.5,0.7l1,0.2l1.2-0.5l1-1l1.9-2.6l1-0.7l0.7-0.2l1,0.7l1.4,2.6l4.1,2.9l0.2,0.7l-0.5,1l-1.7,1h-1.2l-0.7,1
			l-0.2,1.4l-0.2,11l0.5,3.1l1.4,2.4l1.9,1.9l4.5,3.1l1.2,1.2l0.7,1.7l-0.2,1.9l-0.7,2.1l-1.4,2.4l-0.5,0.5h-1l-1.7-0.7l-0.7,0.2
			l-4.1,4.3l-1,1l-1.9,1.2l-0.5,1l0.5,0.7l2.9,1l0.5,0.7l0.7,0.5l1-0.2l1,0.5l1,1.4l1.7,3.1l4.3,6.4l0.2,1.2l-0.7,2.6l0.2,1.7
			l0.5,1.7l1,1.9l1.2,1.7l0.5,1.4l-0.2,2.1l-1.4,2.6l-2.4,9.5l-0.7,0.7l-1.7,1.2l-0.5,1.2v1.2l4.5,6l5,7.9l1,2.1v1.2l-1.2,2.1
			l-1,4.8l-2.1,4.5l-7.2-6.7L655,485.2l-1.7-1.9L649,480l-1.7-1l-3.1-1.7l-6.4-4.3l-2.9-1.4l-3.1-0.5l-2.4,0.2l-7.4,2.9l-4.8,0.7
			l-3.1-0.7l-1.2-1.2l-1-3.1l-3.1-6l-1.9-4.8l-1-1.9l-3.6-4.8l-1.4-2.1l-1-3.1l-1.7-2.9l-1.9-1.9l-11.7-6l-0.5-1l-0.5-1.4l-0.2-2.1
			v-1.7l1-2.4l0.2-1l-1.9-6.2l-0.2-1.7l0.7-8.8l0.2-1.7l2.4-6.4l0.7-1.4l1.7-2.6l2.6-2.6l1.2-1.7l7.9-15l0.7-2.9v-2.6l0.2-1l0.5-0.7
			l1.2-0.7l1.4-0.2l1.4-1l0.2-2.4l0.7-0.2l1.4-0.5l1-0.5l0.7-1.9l0.5-1.7l0.5-1l1-0.2l2.1-0.2l1-1l1.4-2.1l1.4-1.7l0.5-0.7l1-1
			l1.4-0.5h1.2l1.2-0.7l1-1l0.7-1.4l1-4.8l1.2-2.9l1-1.2l2.1-1.4l1-1.2l-0.7-1.9v-1.4l2.1-6.2l0.7-4.5l-0.7-2.1l-1.9-1.2h-2.1
			l-5,0.7l-4.8,1.2l2.9-6l1.9-9.8l1.2-2.4l1.4-1.7l1.2-0.7l1.4-0.5l1.4-1l0.5-0.7l1.7-5l3.1-6.4l1.2-2.9l1.9-6.7l4.3,0.2l3.1,0.5
			l7.6-0.5l3.3,0.7l1.2,0.7l-1.4,1.9l-0.7,1.2l0.5,1.9l0.7,2.4l0.2,2.1l-0.5,1.7l-1,1.9l-0.5,1.2l0.7,2.6l0.7,1.2l1.4,1l1.7,0.7
			l1.9,0.2h1.7l1.9-0.5l1.4-1.2l1.7-1.7l1.9-1.9l1.7-1.2l3.8-1.9l1.7-1.2l10.5-10.5l2.1-1.2l1.4-0.2L693.7,281.9L693.7,281.9z"/>
		<path id="ECU1282" class="st2" d="M621.6,205.5l-1.2,1.2l-0.2,1l-0.2,1.7l0.5,2.9l0.7,1.4l1.2,1l1.9,0.7l1.2,1.2l1.7,1.2l1.2,1
			l3.6,4.3l3.6,3.6l1,0.5l5,1.4l1,0.2l3.3-0.2l1.2,0.5l0.7,1.2l-0.2,2.4l1,25.5l-0.5,2.1l-1,2.1l-4.5,6.9l-0.2,3.1l-0.2,1.2
			l-1.7,4.3l-2.4,2.9l-1.9,6.7l-1.2,2.9l-3.1,6.4l-1.7,5l-0.5,0.7l-1.4,1l-1.4,0.5l-1.2,0.7l-1.4,1.7l-1.2,2.4l-1.9,9.8l-2.9,6
			l-9.1,1.4l-2.4,0.7l-1.7,1l-1.4,1.2l-5.2,7.6l-0.7,1.7l-0.7,1.7l-0.7,1.4l-2.1,1.4l-0.7,0.7v2.1l-0.5,2.1l-0.7,1.4l-1.2,1.4
			l-1.9,2.1l-2.4,3.8l-1.7,1.9l-7.2,5.7l-2.1,1.2l-2.6,0.7l-2.1-0.5h-2.4l-0.7-0.2l-0.2-0.7l0.5-2.1l-0.5-0.5l-1,0.7l-1.4,1.4
			l-1,2.1l-1,3.1l-1.2,2.9l-1.2,4.5l-2.9,7.6l-1.2,1.7l-5.5,4.5l-3.1,1.4l-1.7,1.2l-1,2.1l-0.2,2.6l0.5,3.3l-0.2,1l-0.7,0.7
			l-3.1,0.7l-2.4,1.4l-1.4,0.7l-1,1.2l-0.7,1.7l-0.7,3.6v1.7l0.5,1.9l0.5,1.4l1.7,2.4v1l-0.7,1.4l-4.8,3.1l-8.6,1.2l-0.2,1l1,1.2
			l1.4,1.9l1.9,1.4l1.2,0.7l2.4,0.7l0.5,0.5l-0.2,1.9l0.2,1.2l1.2,4.3l-0.5,1.4l-2.1,0.5l-5.5-0.5l-1.9,1.2l-0.7,1l-1,0.2l-1.9-1.4
			l-1.2-0.7l-1.2,0.5l-1,1.2l-1.4,2.4l-1,0.7l-1.9,1l-1.4,0.7l-1.7,1.2l-1,1.4l-1,1.7l-1,1.4l-1.2,1.4l-1.2,1.7l-0.2,1.4l-0.2,2.4
			l-0.5,1.9l-0.7,0.7l-1.2,0.5l-4.1,0.5l-6-0.2l-2.9-0.7l-2.4-1.2l-1.2-1.4l-0.2-1.4v-1.2l1-2.6l1.7-2.6l0.2-0.7l0.5-4.3l-0.2-1.2
			l-0.5-1.2l-1.9-1.7l-0.2-1l0.2-2.1l-0.7-1.2l-1.9-1.2l-4.3-0.5h-2.4l-5,1.7L468,441l-10-0.5l-2.1,0.7h-1L452,441l-3.8,0.7l-2.6-6
			l-1.9-2.6l-0.7-1.9l-0.2-1.9l0.7-1.7l5-3.6l-0.7-3.3v-4.1l3.1-2.9l1.7-0.2h2.4l0.5-1.9v-2.1l0.2-2.6l0.7-2.4l-0.5-3.3l0.5-2.1
			l2.6-1.2l-0.2-3.3l-4.3-6l-8.6-10l-6.7-12.2l-3.1-7.2l-1.9-4.3l1-2.9l1.7-1.7l2.1-1.7l1.9-2.1l2.1-2.6l1.7-2.1l1.7-1.9l0.5-1.2
			l1.7-0.7l1.9,0.7h1.9l2.1-1.4l1.9-0.7l2.1,0.5l3.3-1.2l-0.5,1.2l2.6,1.2l2.1,0.2l1.7-1.4l1.2-0.5l1-1.4l1.7-0.5l1.4,2.1l1.2,0.2
			l2.6,0.2l3.3-1.4l3.1-2.6l3.3-3.3l1.9-8.8l2.4-12.2l2.6-6.9l3.3-6.4l1.7-4.3l0.7-0.7l1.2-1l2.1-0.2l1.7-0.5l0.2,3.6l2.1,2.9
			l3.8,1.7l3.6,0.5l7.6,0.2V296l-3.8-1.2l-4.3-1h-2.9l-2.1-1.4l-1.4-4.1L505,285l-1.9-0.7l-1.2-1.4v-3.6l-1.7-3.8l-0.5-4.3l-1.9-4.3
			l-2.6-3.1l-1.7-6l1.4-2.1l3.1-0.2l4.5-3.8l4.3-6.7l1.4-2.4l0.5-1.9l1.2-3.1l1.2-2.4l3.1-1l3.8-6l2.6,2.1l2.9-1.4l3.6-2.6l3.8-2.9
			l8.6-9.3l6.7-8.6l2.4-3.1l1-2.9l0.2-1.7l0.7-0.5l4.1-1.4l2.1-5.2l1.2-4.8l0.7-7.4l-0.2-3.6l-1-6l-0.5-10.7l1.4-3.8v-1.2l0.2-0.5
			l1.7,0.7l0.7,0.7l0.5,1l0.7,2.1h1l0.2-1.7l0.5-1.2l3.8,8.6l1.7,2.6l2.1,0.7l1.9,0.2l1-0.2l2.1-1.9l0.7-1l1.4-2.9l0.2-1.7l0.5-0.7
			l1-0.2l4.8,0.2l2.4-0.2l2.6-0.5l2.9-1.2l1.4-1l2.9-3.3l1.7-1l1.7-0.7l1.9-0.2l1.4,0.7l1.4,1l1.2,1.2l0.5,1.2l-0.2,0.7l-1.4,1.4
			l-1,1.9v1l0.2,1.2l1,1l6.7,4.1l0.7,1l0.2,0.5l-0.5,1l-1,1l-1,0.5l-1.4,1.9l-0.7,1L606,176v1l2.1,1.9l1.4,0.5l1.4-0.5l1.2-0.2
			l0.5,0.7l0.2,2.4l0.5,1.2h0.7l1.7-1l0.7-0.5l1.2,0.7l1,1l2.9,2.6l1.9,0.7h1l0.7,1l-3.8,4.1l-0.5,1.2l-0.2,1.7l-0.7,0.7l-1,0.5
			l-1,1.4v1l0.5,1.4v1.7l0.5,0.7L621.6,205.5L621.6,205.5z"/>
		<path id="ECU1284" class="st2" d="M797.7,420.5l-1.4,2.1l-0.2,1.2v1.9l1.4,4.1l0.2,1.4l-0.2,1.4l-0.5,1.2l-1.2,1.4l-1.4,1
			l-3.3,1.9l-1.2,1.2l-1,1.2l-1.2,1.4l-2.6,2.6l-0.7,1.4l-0.2,1.4v3.1l0.2,2.4l0.5,2.4l0.7,1.2l1.4,1.7l0.5,1.2l0.5,3.3l1,4.3
			l-0.2,1.9l-5.7,6.2l-3.8,6.2l-0.7,1.4l0.2,1.7l0.5,1.2l1,1l1.2,0.7l1,1.4l0.5,1.7v3.6l0.5,1.7l1.4,2.9l-0.2,1l-1.9,1.4l-2.1,1
			l-1.9,1.7l-1.4,2.4l-1,3.8l0.5,5.7l0.7,1.4v0.7l-0.7,1.2l-2.4,1.9l-1.4,1.2l-0.5,1.9v1.7l-0.7,1.7l-1,1.4l-4.8,3.6l-2.9-1.4
			l-17.9,2.1l-5.2,1.2l-3.6,1.2l-3.3,3.3l-2.4,2.1l-4.8,2.4l-4.5,1.2l-4.1,0.2l-3.3-0.2l-1.7-1l-2.9-1.9l-3.1-1.2l-1.9-1.4l-2.1-1.9
			l-4.5-6.4l-1.2-1.2l-2.4-1.4l-0.7-1.2l-0.7-2.1l-0.7-0.5l-1.4-1l-1-0.5l-1.2-2.1l-0.7-3.8l7.6-4.1l5.2-5l2.6-4.1l0.7-1.7l0.2-1.7
			l-0.2-1.4l-0.7-1.2l-0.5-1.4v-1.7l3.6-18.4v-1.4l-1-3.1l-0.2-4.5l0.5-6.4v-2.4l0.5-1.4l0.7-1.2l1.2-1l1.7-1l5.2-0.7l1.9-0.5l5-4.5
			l2.9-4.3l1.4-3.6l0.5-3.8l-0.2-4.8l0.2-3.3l0.5-3.3v-2.4l-0.7-1.9l-2.1-3.6l-0.7-1.7l-0.5-1.4l0.2-2.9l2.9-1l4.5-3.1l2.1-0.7
			l1.9-0.2l1.7,0.5l2.1,1l4.3,3.1l2.9,1.7l3.3,1.4l7.4,1.7h3.8l3.3-0.5l2.6-1l2.6-0.2l2.1,0.2l2.4,0.5l1.7-0.5l1.2-1.4l1-2.4
			l1.2-1.7h1.7l1.9,0.7l3.3,2.4l1.9,0.7l2.6,0.7l1.7,0.7l1.4,1l1.9,0.7l1,0.5l0.5,0.5l0.5,2.6L797.7,420.5L797.7,420.5z"/>
		<path id="ECU1285" class="st3" d="M1036.5,568l-2.1,1.4l-30.8,10.7l-35.8,12.6l-35.6,12.4l-17.9,6.2L869.2,627l-2.6,1.4l-10.5,9.3
			L841.9,657l-6.9,5.7l-1.9,2.1l-4.3,8.6l-1.9,2.4l-5,4.1l-1.7,1.9l-0.2,3.1l1.7,2.6l2.4,1.7l1.7,1.9l0.2,4.1l-1.2,2.9l-2.1,1
			l-2.6,0.5l-2.1,1.9l-1.9,0.7l-1.4-2.4l-1.9-9.3l-1.2-2.1l-1.7-1.4l-6.2-1.7l-2.9-0.5l-2.4,0.7l-1.7,2.9l0.2,1l0.7,2.6v1.7l-1,6.2
			l-1.9,5.7l-17.9-0.2l-10.3,1.9h-2.9l-5.5-0.5l-1.7,0.2l-1.4,0.2l-1.2,1.2l-1.4,2.6l-0.7,1l-1,0.7l-1-0.2l-2.4-1.2l-1.4-0.5
			l-4.8-0.5l-6-1.7l-4.1-0.7l-1.4-0.7l-1-0.7l-0.5-1.9l-0.5-1l-1.2-1l-1.2-1.7l-0.7-2.4l-0.2-2.6l-0.5-1.9v-2l0.5-1l3.1-2.9l0.2-1
			v-0.7l-0.5-1.2l-1-1l-11.7-8.4l-0.7-2.6l0.2-1l0.7-1.4l17.4-14.1l2.9-2.9l5.2-1.7l5-2.6l3.3-2.9l3.8-4.1l1.4-2.4l0.5-2.6l-0.2-2.1
			v-2.1l0.5-2.4l3.3-7.2l0.5-1.4l1-2.4l6.7-11l0.7-2.1v-1.2l-0.5-1.4l-1-1.4l-1.2-1.4l-1-1.2l-0.5-1l0.2-1l4.5-8.1l1.2-1.7l1.4-1.2
			l15.7-8.1l1.4-1.2l0.7-1.2v-1.2l-1-2.6l-1-1l-4.5-3.3l-0.7-0.2l-1.4-0.2l-1.2,0.5l-1.4,0.7l-1.4,1.4l-1,1.4l-0.5,1.4l-0.2,1.7
			l-0.7,0.7l-1,0.2l-1.2-0.7l-1.2-1l-0.5-1.4l-0.2-1.4l1-4.3l1,0.7h1l1-0.7l1.4-1.7l3.6-5.2l0.5-1.2l0.2-1.2v-2.9l0.7-2.6l-0.2-8.1
			l0.5-2.9l-1-1.7l-2.1-1.7l-8.8-3.8l-1.9-1.2v-1.4l4.8-3.6l1-1.4l0.7-1.7v-1.7l0.5-1.9l1.4-1.2l2.4-1.9l0.7-1.2v-0.7l-0.7-1.4
			l-0.5-5.7l1-3.8l1.4-2.4l1.9-1.7l2.1-1l1.9-1.4l0.2-1l-1.4-2.9l-0.5-1.7v-3.6l-0.5-1.7l-1-1.4l-1.2-0.7l-1-1l-0.5-1.2l-0.2-1.7
			l0.7-1.4l3.8-6.2l5.7-6.2l0.2-1.9l-1-4.3l-0.5-3.3l-0.5-1.2l-1.4-1.7l-0.7-1.2l-0.5-2.4l-0.2-2.4v-3.1l0.2-1.4l0.7-1.4l2.6-2.6
			l1.2-1.4l1-1.2l1.2-1.2l3.3-1.9l1.4-1l1.2-1.4l0.5-1.2l0.2-1.4l-0.2-1.4l-1.4-4.1v-1.9l0.2-1.2l1.4-2.1l2.4-3.3l1.7-1.2l2.6-1.4
			l2.1-0.5l4.8,0.7h3.6l1.9-0.7l2.4-1l1.4-1.2l2.9-2.9l6,1.4l3.6,2.6l1.9,2.1l1.9,2.4l1.2,1.9l4.3,11.2l1.2,4.8l1.4,3.3l1.7,1.7
			l8.6-1.7l2.6,0.2l2.1,1.4l1.7,3.1l1.9,9.3l2.6,4.3l0.5,1.2v3.1l0.5,1.9l2.1,3.6l0.7,1.9l0.2,4.3l0.5,2.1l1.4,1.7l2.4,1.4l5.7,1.2
			l2.6,1.2l1.9,1.7l0.7,2.1l0.7,2.4l1,2.1l1.7,1.7l2.4,1l5,1.2l38.9,16.7l32.7,21l2.4,0.7l2.1,1l1.7,2.1l2.6,4.5l5,6l1.2,2.1
			l1.9,1.7l0.7,1.9l1.9,4.8l3.3,4.1l4.8,3.3l6,1.7l6.2-0.2l4.3-1.4l1.7,0.2l2.4,1.7l1.9,1l4.8,1l6,3.1l3.1-1l2.9-1.4L1036.5,568
			L1036.5,568z"/>
		<path id="ECU1286" class="st3" d="M1235.8,294.8l-1.9,1l-1.4,1l-0.7,1.7l0.2,1.4l0.5,2.6l0.2,1.4l-0.2,1.4l-1,2.6v1.7l6.2,21.5
			v1.4l-0.2,2.4l0.2,1.2l1.2,1.7l1.4,1.2l1,1.4v1h-1.2h-6.7l-6.2,0.7h-3.1l-1.4-1.2l-1-1.4l-1.9-2.1l-4.1-3.6l-0.7,1.2l-6.2,23.6
			l-14.8,58.5l-1.9,5l-1,1.4l-1.7-2.9l-0.5-3.1l-1-1.2l-1-0.7h-1.2l-1.4-0.5l-1-1l-1-0.5h-0.7l-1-0.7l-4.1-1.7l-1.4-0.2l-0.7-0.5
			l-0.7-1.4h-0.2l-1.2,1l-1,0.5l-0.5-0.5l-0.2-1.2l-1.4-1.9l-1.9-3.6l-0.7-0.7l-1.7,0.2l-2.1-0.7h-2.1l-0.5-0.5l-1.2-1l-1.2-0.7
			l-1-0.2l-1.7,0.5l-1.7-3.8l-1-0.5l-3.3-1l-0.7-0.7l-0.2-0.7l0.5-1.2l-0.5-0.2l-1.7,0.2l-0.5,1l0.2,1.2l-1.7,0.7l-1.2-0.2h-2.6
			l-2.4-0.5l-1.9-1l-1-1l-0.7-0.5h-1.7l-2.4-2.4l-1.7-0.5l-1.9-0.2l-2.4-1.2l-1.4,0.5l-0.2-0.2v-1.7l-0.7-1.4l-0.5-0.2l-0.7,0.7
			l-1,0.2h-1.4l-2.4-1.2h-2.1l-0.7,0.7l-0.2-0.7h-0.7l-1.9,1.7l-1,1h-2.9l-1.2-0.7l-3.3,0.2l-1.2-0.5h-1.4l-1.4,1l-0.7-0.2l-0.7-1.2
			h-0.2l-1.7,1.7h-1.4l-1.2,1l-0.7,1.2l-0.7,0.2l-0.2-1.2l-1.7-0.7l-2.1-0.2l-3.6-1l-1.9-0.2l-1-0.5l0.5-1.2l-1-1.7l-2.6-0.2
			l-1.9-1.2h-0.7l-1.9,0.7l-1.7,0.2l-1.4-0.2l-1.4,0.2l-0.5-0.5v-1.4l-1,0.5l-1.2,0.2l-0.7-0.5l-1-1.2l-0.2-1.7l-1-1.4l-1.4-1
			l-2.4-3.3l-1-2.1l-0.2-3.1v-5.5l0.5-1.9v-2.1l-0.5-1.7l-1.9-2.1l-1.9-0.7l-2.4-0.7l-2.4-0.2l-2.1,0.2l-3.6,1l-2.6,0.5l-0.7,0.5
			l-1.2,1.4l-0.7,0.7l-1.2,0.2l-1.4,0.2l-2.9,0.7l-2.9,0.5l-3.3,0.2l-1,0.2l-2.1,1l-1.2,0.2l-2.1-0.5l-1.4-1l-1.4-0.2l-1,0.2
			l-2.6,2.6l-0.7,1.2l-0.5,1.4l-0.7,3.3l-1,1l-2.6,0.2l-13.6-5.7l-11.5-2.6l-1.7-0.7l-1-1.7l-0.7-3.8l-0.7-2.1l0.2-1l2.9-3.3
			l1.2-3.1l-1.2-1.7l-0.7-0.7l-0.7-1.2l0.5-0.7l2.4-2.4l1-1.2l-0.2-1l-0.7-0.7l-1.9-0.5l-6-1l-2.4-1l-6.4-4.5l-1.2-0.5l-1.2-0.5
			l-1.4-0.7l-1-1.2l-0.5-2.4l0.2-2.1l1-2.4l1.7-2.4l6.9-6.4l1.2-1.7l0.7-1.4l-0.5-1l-1-0.7h-1.9l-1.9,1.2l-1.9,1l-6.4,6l-3.3,6.9
			l-1.9,2.4l-1.2,0.5l-5,1.9l-22.4,10.7l-1.7,1.2l-2.6,0.7l-0.5,0.2l-2.4,1l-2.6,0.7l-3.6,0.2l-3.3-0.5l-1.7-1.2v-1.2l1.4-1.2
			l1.2-1.7l1.2-1.9l3.3-8.1l0.2-1.9l-1.2-4.5l0.2-2.1l0.7-2.6l1.2-2.4l1-1.7l1.9-2.6l0.5-1.4v-1.9l-1.2-3.6l-0.7-1.4l-1.2-1
			l-1.9-1.2l-0.7-1l-1.7-3.1l-3.8-5l-1.7-1.4l-1.4-0.7l-1.4-0.2l-1.7-1l-0.5-1.2l0.2-1.2l1-1l1.2-1.2l4.5-2.6l1-1l0.5-1.2V271v-1
			l0.5-1.2l1.2-0.2l1.9,0.7l6.2,3.8l3.1,1.4l3.6,1.2l2.6,0.5l1.9-0.2l1.7-0.7l1.2-1.2l3.3-5.5l1.7-3.6l0.5-1l0.7-0.5h0.7l1.9,0.5
			l0.5-0.2l0.5-1v-2.1v-1.2l0.5-1l4.3-1.9l1.4-0.7l1.2-1.2l0.7-1.2l-0.2-2.4l0.2-1l1.7-1.4l0.5-1.2v-2.1l-1.4-2.6l0.5-1.4l0.5-1.9
			l-0.5-1l-1.7-2.4l-1.9-2.4l-1-1.4l-0.7-1.7v-1.4l0.5-1.9l0.2-4.1l0.5-1.4l-1.4-10l2.1-1.4l1.9,0.5l2.4,0.7l3.8,1.9l4.3,2.9
			l1.4,0.5l1.7-0.5l1.7-0.5l2.1-0.5l2.6,0.5l7.9,2.1l3.6,0.2l3.1-0.5l1.9-1.2l1.7-1.2l2.1-1l2.1-1l3.6-0.5l2.1,0.5l1.9,1.2l1,1.2
			l1.4,2.4l14.6,17.4l4.3,3.8l0.7,1.2l0.5,2.1l2.6,3.8l1.2,1.4l2.6,4.1l1.7,1.4l7.9,5.7l1.2,1.4l0.7,1.2l1.7,2.1l3.1-1.9l3.3-1
			l3.1,4.1l7.4,5.7l2.6,1.2l5.7-0.2l2.1,0.7l1,2.1l1.7,1.2l3.3-1.4l5.7-4.3l1.2-0.5l4.5-1.4l3.1-1.4l1.2-0.5l11-1l13.4,1l0.7,0.7
			l1,1.4l0.7,1.9l0.5,3.3l0.7,1l2.9,1.4l5.7,4.1l3.3,1.9l3.1,0.7l3.3,0.2l1.7,0.2l0.7-0.5l0.2-0.5l-1-1.7l-0.7-1.7l-1.2-11.7v-2.1
			l0.5-1.7l1.7-0.7l2.4-0.7l4.5,0.2l2.6,0.5l1.9,1.2l1.7,1.2l1.7,0.5l1.2-0.2l1.4-0.5l1.2-0.2h3.3l1.7-0.2l2.9-1l1.2,0.2l1.2,1
			l0.7,1l1.2,1.9l1,1l1.7,1h1.7l2.1-0.7l1.2-0.5l1.4-0.2l1.4,0.7l1.7,1l3.1,1.4l1.7,1l0.7,0.7l0.7,1.7h0.5l1.7-0.7l0.7,1.2l0.2,1.4
			l1,1.9l2.6,2.1l4.5,1.4h2.1h6.4l1.7,0.7l1.4,1l1.2,0.2h2.1l0.7,0.5l0.7,1.2l0.7,2.6l1,1l2.4,0.5l2.1,1l5,1.4h1.7l1.9-0.5l0.7,0.7
			l-0.2,1.7l0.5,1.2L1235.8,294.8L1235.8,294.8z"/>
		<path id="ECU1287" class="st2" d="M704.4,165.5l2.4,5.5l1.4,1l2.1,1l2.4,0.7l2.1-0.2l1.9-0.5l2.9-0.2l5.7-1.7l12.2-1.4l3.3,0.2
			l14.3,3.1h3.1l1.9-0.2l1.4-0.5l7.4-1l3.1-0.7h1.9l7.6-1.4l7.4-0.5l3.8,0.5l2.4,1l1,1.2l0.5,1.4l0.2,1.7l-0.2,1.4l-0.7,2.4l-0.2,1
			l0.2,0.7l1-0.2l2.4-2.4l1.7-0.7l1.4,0.2l1.4,1.2l3.1,2.6l2.1,1.7l2.6,1.2l3.8,1.2l3.6-0.2l3.8-0.7l6.4-3.1l2.4-1.4l3.3-2.6l1.7-1
			h2.4l16.5,5l-3.6,6v0.7l0.7,0.5l1.7,0.5l1.7,0.5h1.4l3.6,1.9l2.1,0.7l1.9,0.5l1.9,1.2l1.2,1.4l0.5,1.4l0.5,2.1l0.5,0.5l1.9,0.5
			l-1.9,3.3l-1.7,1.2l-10,5.2l-5.2,1.7l-1,1l-0.5,1.2l-0.2,3.8l-0.5,1.4l-0.7,0.7l-0.7,0.5l-1,0.7l-1.4,2.6L846,223l-1.4,0.2l-3.1-1
			h-1.2l-0.7,0.2l-0.7,2.6l-1.7,2.9l-1.2,1.2l-1.7,0.7h-1.2l-0.7-0.2l-1.4-1.4l-1.2-0.5h-1.2l-3.3,1.2l-2.6,0.5l-1,1l-0.2,1.2
			l0.2,1.4l-0.5,12.9l-1,3.3l-1.9,3.3l-3.8,5.2l-1.7,2.9l-0.7,1.9l2.1,4.1L814,268l-0.7,1.9l-1.7,2.9l-0.7,1.7l-0.2,1.4v1.4
			l-0.2,1.9l-1.2,2.9l-1.7,2.1l-2.6,2.6l-1.4,1.9l-0.7,1.9l-0.5,3.8l-0.5,1.9l-1,1.2l-1.2,0.7l-3.6,0.7l-1.7,0.5l-3.1,1.4l-9.1-9.8
			l-4.1-1.7l-1.9,0.2l-3.3-0.5H771l-1.4,0.2l-3.8,2.1l-1.4,0.5l-1-0.5l-1.9-1.9l-1.2,0.2l-1.7,0.7l-1.7,1.2l-1.9,1l-1.2,0.5
			l-1.2,0.5l-3.8,2.9l-1.2,0.2l-1-0.5l-1-1.2l-0.5-1.4l-0.2-2.4l-1.4-3.1l-2.4-3.3l-9.1-6.2l-1.9-1.7l-0.5-1.7l-1-3.6l-0.5-1.2
			l-1.7-2.6l-2.1-3.8l-5.2-6.9l-0.5-1v-1.7l-0.5-1l-1.2-1l4.3-6.7l18.1-1.9l2.6-9.8l-7.2-8.1l-13.6-7.4l-4.3-4.3l-25.3,0.7l-1-11.7
			l-28.6-1l-7.9-5.7l2.9-6.9l1.9-3.3l1.7-4.1l1.7-2.6l0.5-1v-0.7l-0.5-1l-2.1-2.1l-3.8-2.6l-0.5-1v-1l1-1l1.2-1l2.9-1.2l1.9-1.2
			l3.1-2.6l1.2-0.7l1.9-0.7l1.4-0.7l4.1-2.9l1.7-0.2h2.1l3.3,0.2l3.6-0.2l15,3.3l1.9,1.2L704.4,165.5L704.4,165.5z"/>
		<path id="ECU1288" class="st3" d="M1191.2,423.4l-2.4,2.6l-7.6,7.2l-27,31.5l-14.3,16.7l-21.2,24.8l-16.9,12.9l-8.4,6.4
			l-50.3,38.7l-6.4,3.8l-1.9-0.5l-2.9,1.4l-3.1,1l-6-3.1l-4.8-1l-1.9-1l-2.4-1.7l-1.7-0.2l-4.3,1.4l-6.2,0.2l-6-1.7l-4.8-3.3
			l-3.3-4.1l-1.9-4.8l-0.7-1.9l-1.9-1.7l-1.2-2.1l-5-6l-2.6-4.5l-1.7-2.1l-2.1-1l-2.4-0.7l-32.7-21L896.3,493l-5-1.2l-2.4-1
			l-1.7-1.7l-1-2.1l-0.7-2.4l-0.7-2.1l-1.9-1.7l-2.6-1.2l-5.7-1.2l-2.4-1.4l-1.4-1.7l-0.5-2.1l-0.2-4.3l-0.7-1.9l-2.1-3.6l-0.5-1.9
			v-3.1l-0.5-1.2l-2.6-4.3l-1.9-9.3l-1.7-3.1l-2.1-1.4l-2.6-0.2l-8.6,1.7l-1.7-1.7l-1.4-3.3l-1.2-4.8l-4.3-11.2l-1.2-1.9l-1.9-2.4
			l-1.9-2.1l-3.6-2.6l-6-1.4l3.3-3.1l3.8-7.4l0.7-2.1l0.2-2.1l-0.2-15.5l7.2,0.5l4.1-0.2l10-1.7h3.6l2.1,0.5l2.9,1.4h1.2l1-0.7
			l0.7-1.9l0.5-0.5l1-0.2l1.2,0.5l1.4,0.7l1.7,0.5l2.1-0.5l3.3-1.7l5.5-3.8l1.4-0.7l2.9-1l1.9-0.5l2.9-1.7l1.2-0.7l2.1-0.2l1.7-0.5
			h1.9l1.9,0.5h1.4h1.7l1.7-1l1.9-0.2l6.9-0.7l12.6-5.7l1.7-1.2l1.4-0.5h5l3.8-0.7l13.6-4.1l3.1-1.9l1.7-1.2l1.4-0.5l2.1-0.5
			l23.6-1.7l-2.9,3.3l-0.2,1l0.7,2.1l0.7,3.8l1,1.7l1.7,0.7l11.5,2.6l13.6,5.7l2.6-0.2l1-1l0.7-3.3l0.5-1.4l0.7-1.2l2.6-2.6l1-0.2
			l1.4,0.2l1.4,1l2.1,0.5l1.2-0.2l2.1-1l1-0.2l3.3-0.2l2.9-0.5l2.9-0.7l1.4-0.2l1.2-0.2l0.7-0.7l1.2-1.4l0.7-0.5l2.6-0.5l3.6-1
			l2.1-0.2l2.4,0.2l2.4,0.7l1.9,0.7l1.9,2.1l0.5,1.7v2.1l-0.5,1.9v5.5l0.2,3.1l1,2.1l2.4,3.3l1.4,1l1,1.4l0.2,1.7l1,1.2l0.7,0.5
			l1.2-0.2l1-0.5v1.4l0.5,0.5l1.4-0.2l1.4,0.2l1.7-0.2l1.9-0.7h0.7l1.9,1.2l2.6,0.2l1,1.7l-0.5,1.2l1,0.5l1.9,0.2l3.6,1l2.1,0.2
			l1.7,0.7l0.2,1.2l0.7-0.2l0.7-1.2l1.2-1h1.4l1.7-1.7h0.2l0.7,1.2l0.7,0.2l1.4-1h1.4l1.2,0.5l3.3-0.2l1.2,0.7h2.9l1-1l1.9-1.7h0.7
			l0.2,0.7l0.7-0.7h2.1l2.4,1.2h1.4l1-0.2l0.7-0.7l0.5,0.2l0.7,1.4v1.7l0.2,0.2l1.4-0.5l2.4,1.2l1.9,0.2l1.7,0.5l2.4,2.4h1.7
			l0.7,0.5l1,1l1.9,1l2.4,0.5h2.6l1.2,0.2l1.7-0.7l-0.2-1.2l0.5-1l1.7-0.2l0.5,0.2l-0.5,1.2l0.2,0.7l0.7,0.7l3.3,1l1,0.5l1.7,3.8
			l1.7-0.5l1,0.2l1.2,0.7l1.2,1l0.5,0.5h2.1l2.1,0.7l1.7-0.2l0.7,0.7l1.9,3.6l1.4,1.9l0.2,1.2l0.5,0.5l1-0.5l1.2-1h0.2l0.7,1.4
			l0.7,0.5l1.4,0.2l4.1,1.7l1,0.7h0.7l1,0.5l1,1l1.4,0.5h1.2l1,0.7l1,1.2l0.5,3.1L1191.2,423.4L1191.2,423.4z"/>
		<path id="ECU1289" class="st2" d="M831.4,378.8l0.2,15.5l-0.2,2.1l-0.7,2.1l-3.8,7.4l-3.3,3.1l-2.9,2.9l-1.4,1.2l-2.4,1l-1.9,0.7
			h-3.6l-4.8-0.7l-2.1,0.5l-2.6,1.4l-1.7,1.2l-2.4,3.3l-1.2-1.7l-0.5-2.6l-0.5-0.5l-1-0.5l-1.9-0.7l-1.4-1l-1.7-0.7l-2.6-0.7
			l-1.9-0.7l-3.3-2.4l-1.9-0.7h-1.7L777,410l-1,2.4l-1.2,1.4l-1.7,0.5l-2.4-0.5l-2.1-0.2l-2.6,0.2l-2.6,1l-3.3,0.5h-3.8l-7.4-1.7
			l-3.3-1.4l-2.9-1.7l-4.3-3.1l-2.1-1l-1.7-0.5l-1.9,0.2l-2.1,0.7l-4.5,3.1l-2.9,1l-1.2-2.1l-1.7-1.7l-3.3-5l-0.5-2.1l1.4-7.2l1-2.6
			l1.9-4.1l0.7-2.4l0.2-5.2l0.2-1.9l3.1-5.7l4.1-1.4l3.8-3.3l3.6-1.2l2.6-0.5l2.6-0.2l6.7,1.4l3.6,0.2l2.1-0.5l2.4-1.2l3.3-2.9
			l1.4-0.5l3.8-0.2l1.2-0.5l1.2-0.7l0.5-1.2v-2.6l1.4-1.4l1.4-0.2h1.7l1.9,1.2l0.7,0.7l1.2,1l1.9,0.5l3.3-0.2l1.9-0.7l1.2-1.4
			l1.7-2.9v-2.6l0.2-1.4l0.5-1.4l0.7-1.4l0.7-1.2l4.1-3.6l2.9,5l3.6,4.1l1.4,2.6l0.5,2.1v6.7l-0.2,1.9l-0.2,1.4L799,367l-0.5,1.4
			l0.5,0.7h1l5-3.1l1.7-0.2l1.9-0.2l3.1,0.7l1.2,0.2l2.4-0.7l1.4-0.2l0.5,0.7l1,2.1l0.5,0.2l2.6-0.2l0.5,0.7l1.4,2.9l2.1,0.7
			l4.8,0.7l1,1l0.5,1.2L831.4,378.8L831.4,378.8z"/>
		<path id="ECU1290" class="st3" d="M947.3,211.7l1.4,10l-0.5,1.4l-0.2,4.1l-0.5,1.9v1.4l0.7,1.7l1,1.4l1.9,2.4l1.7,2.4l0.5,1
			l-0.5,1.9l-0.5,1.4l1.4,2.6v2.1l-0.5,1.2l-1.7,1.4l-0.2,1l0.2,2.4l-0.7,1.2l-1.2,1.2l-1.4,0.7l-4.3,1.9l-0.5,1v1.2v2.1l-0.5,1
			l-0.5,0.2l-1.9-0.5h-0.7l-0.7,0.5l-0.5,1l-1.7,3.6l-3.3,5.5l-1.2,1.2l-1.7,0.7l-1.9,0.2l-2.6-0.5l-3.6-1.2l-3.1-1.4l-6.2-3.8
			l-1.9-0.7l-1.2,0.2l-0.5,1.2v1.2v1.7l-0.5,1.2l-1,1l-4.5,2.6l-1.2,1.2l-1,1l-0.2,1.2l0.5,1.2l1.7,1l1.4,0.2l1.4,0.7l1.7,1.4l3.8,5
			l1.7,3.1l0.7,1l1.9,1.2l1.2,1l0.7,1.4l1.2,3.6v1.9l-0.5,1.4l-1.9,2.6l-1,1.7l-1.2,2.4l-0.7,2.6l-0.2,2.1l1.2,4.5l-0.2,1.9
			l-3.3,8.1l-1.2,1.9l-1.2,1.7l-1.4,1.2v1.2l1.7,1.2l3.3,0.5l3.6-0.2l2.6-0.7l2.4-1l0.5-0.2l2.6-0.7l1.7-1.2l22.4-10.7l5-1.9
			l1.2-0.5l1.9-2.4l3.3-6.9l6.4-6l1.9-1l1.9-1.2h1.9l1,0.7l0.5,1l-0.7,1.4l-1.2,1.7l-6.9,6.4l-1.7,2.4l-1,2.4l-0.2,2.1l0.5,2.4
			l1,1.2l1.4,0.7l1.2,0.5l1.2,0.5l6.4,4.5l2.4,1l6,1l1.9,0.5l0.7,0.7l0.2,1l-1,1.2l-2.4,2.4l-0.5,0.7l0.7,1.2l0.7,0.7l1.2,1.7
			l-1.2,3.1l-23.6,1.7l-2.1,0.5l-1.4,0.5l-1.7,1.2l-3.1,1.9l-13.6,4.1l-3.8,0.7h-5l-1.4,0.5l-1.7,1.2l-12.6,5.7l-6.9,0.7l-1.9,0.2
			l-1.7,1h-1.7h-1.4l-1.9-0.5h-1.9l-1.7,0.5l-2.1,0.2l-1.2,0.7l-2.9,1.7l-1.9,0.5l-2.9,1l-1.4,0.7l-5.5,3.8l-3.3,1.7l-2.1,0.5
			l-1.7-0.5l-1.4-0.7l-1.2-0.5l-1,0.2l-0.5,0.5l-0.7,1.9l-1,0.7H861l-2.9-1.4l-2.1-0.5h-3.6l-10,1.7l-4.1,0.2l-7.2-0.5v-3.3
			l-0.5-1.2l-1-1l-4.8-0.7l-2.1-0.7l-1.4-2.9l-0.5-0.7l-2.6,0.2l-0.5-0.2l-1-2.1l-0.5-0.7l-1.4,0.2l-2.4,0.7l-1.2-0.2l-3.1-0.7
			l-1.9,0.2l-1.7,0.2l-5,3.1h-1l-0.5-0.7l0.5-1.4l1.4-2.6l0.2-1.4l0.2-1.9v-6.7l-0.5-2.1l-1.4-2.6l-3.6-4.1l-2.9-5l-2.4-1.2
			l-3.3-0.7l-1-0.7l-0.5-1l0.2-1l1.9-1.2l0.5-1l0.5-1.2v-2.1l0.2-1.4l0.7-1.9l1.4-2.1l1.7-3.1l0.5-2.6l-0.2-3.1l-0.7-5l-1.4-5
			l-0.2-1.7l1.2-3.6l3.1-1.4l1.7-0.5l3.6-0.7l1.2-0.7l1-1.2l0.5-1.9l0.5-3.8l0.7-1.9l1.4-1.9l2.6-2.6l1.7-2.1l1.2-2.9l0.2-1.9v-1.4
			l0.2-1.4l0.7-1.7l1.7-2.9l0.7-1.9l0.2-1.4l-2.1-4.1l0.7-1.9l1.7-2.9l3.8-5.2l1.9-3.3l1-3.3l0.5-12.9l-0.2-1.4l0.2-1.2l1-1l2.6-0.5
			l3.3-1.2h1.2l1.2,0.5l1.4,1.4l0.7,0.2h1.2l1.7-0.7l1.2-1.2l1.7-2.9l0.7-2.6l0.7-0.2h1.2l3.1,1l1.4-0.2l0.7-0.5l1.4-2.6l1-0.7
			l0.7-0.5l0.7-0.7l0.5-1.4l0.2-3.8l0.5-1.2l1-1l5.2-1.7l10-5.2l1.7-1.2l1.9-3.3l6.2,1.7l1.4,0.7v1l-0.7,1.2l-0.2,2.1l1,4.5l1,2.9
			l1.9,1.2l2.6,0.5l14.1,0.5l4.1,1l1.7,0.7l1.7,1l1-0.2l1.4-1l3.1-3.3l1.4-1l2.6-0.2l1.2-0.5l1-0.7l1-1.4l1.2-0.5l1.9-1.4l1.9-0.7
			l0.7,0.5l0.7,1l0.2,1.7l1.2,1.7v0.5l-0.7,2.4v0.7l0.5,1.2v1.4l-0.5,1.7v1l0.2,1l1.4,0.5l6.4,1.4l2.4,0.2h1.7l1.9-1.2l0.7-1.2
			l1.7-3.1l1-1.9L947.3,211.7L947.3,211.7z"/>
		<path id="ECU1335" class="st2" d="M720.4,22.8l-1.9,3.8l-3.3-1.7l-1.4,1.7l-1.7,1.2l-2.9-2.1l-2.1-2.4l-0.5-2.6l2.1-3.1l11.2-9.3
			l0.2,2.4l0.7,1.7V17L720.4,22.8L720.4,22.8z M780.1,34.7l-2.4,2.4l-0.2,1V40l0.2,2.6l0.2,4.5l-1,3.1l-3.3,5.5l-1,2.6l-0.7,8.1
			l0.5,2.6l1.2,2.4l2.1,2.4l1.7-0.2l2.1,1.4l2.6,2.6l2.1,1.7l0.7,0.2V85l0.2,2.6l-0.5,1.9l-1,1.7l-1.2,1.2l-1,0.5l-1,0.5l-2.9,0.2
			l-1.2,0.2l-1.4,0.7l-0.2,1l0.2,1.2l4.3,7.9l0.7,1.4l1,4.1l0.7,1.7l0.7,1.4l3.8,4.5l1.2,2.4l0.2,2.1l-0.5,1.9l-0.7,1l-1.2,1
			l-1.2,0.5l-2.1,0.2h-1.4l-2.1-0.5l-1.2,0.2L776,127l-4.5,3.3l-1.2,1.2l-1.9,2.9l-4.8,5l-4.8,6.2l-2.4,2.6l-2.4,1.7l-1,0.5l-1,0.2
			l-1-0.5l-1.2-0.7l-1.9-1.9l-1-0.7l-1.4-0.5l-2.6-0.2l-2.9-0.7l-1.7-0.7l-5-0.5l-4.3-1.4l-1.7,0.2l-1.7,0.5l-2.6,1.7l-1.7,1.4
			l-1.7,1.9l-1.2,2.1v1.4l-0.2,0.5l-1.7,0.7l-2.9,3.3l-4.8,7.4l-1.4,1.4l-0.7,0.2l-2.6-0.2l-2.1-2.6l-1.9-1.2l-15-3.3l-3.6,0.2
			l-3.3-0.2h-2.1l-1.7,0.2l-4.1,2.9l-1.4,0.7l-1.9,0.7l-1.2,0.7l-3.1,2.6l-1.9,1.2l-2.9,1.2l-1.2,1l-1,1v1l0.5,1l3.8,2.6l2.1,2.1
			l0.5,1v0.7l-0.5,1l-1.7,2.6l-1.7,4.1l-1.9,3.3l-2.9,6.9l-0.7,1.7l-1.9,1.9l-1.9,0.7l-3.8,1l-1.2,0.7l-2.6,1l-0.2,0.7l0.2,0.7
			l1.4,2.1l0.7,0.5l1.2-0.2l1,0.7l-0.2,1l-0.7,0.5l-1,1h-0.5l-1.2-1l-2.6-1.4l-4.1-1l-8.8-1.2l-2.9-0.7l-2.9,0.2l-2.4-3.8l-0.5-0.7
			v-1.7l-0.5-1.4v-1l1-1.4l1-0.5l0.7-0.7l0.2-1.7l0.5-1.2l3.8-4.1l-0.7-1h-1l-1.9-0.7l-2.9-2.6l-1-1l-1.2-0.7l-0.7,0.5l-1.7,1h-0.7
			l-0.5-1.2l-0.2-2.4l-0.5-0.7l-1.2,0.2l-1.4,0.5l-1.4-0.5l-2.1-1.9v-1l2.6-3.8l0.7-1l1.4-1.9l1-0.5l1-1l0.5-1l-0.2-0.5l-0.7-1
			l-6.7-4.1l-1-1l-0.2-1.2v-1l1-1.9l1.4-1.4l0.2-0.7l-0.5-1.2l-1.2-1.2l-1.4-1l-1.4-0.7l-1.9,0.2l-1.7,0.7l-1.7,1l-2.9,3.3l-1.4,1
			l-2.9,1.2l-2.6,0.5l-2.4,0.2l-4.8-0.2l-1,0.2l-0.5,0.7l-0.2,1.7l-1.4,2.9l-0.7,1l-2.1,1.9l-1,0.2l-1.9-0.2l-2.1-0.7l-1.7-2.6
			l-3.8-8.6l1-1.7l0.2-1.2l-0.2-1.9l-0.7-1.2l-1.9-1.9l-3.6-5.5l-1-2.9l-0.2-2.9l0.2-3.1l1-1.7l1.4-1.4l1.2-2.1l0.2-2.9l-0.7-3.1
			l-1-2.4l-1.2-4.1l-1.2-1.7l-1.9-1.2l-2.6-0.2l-1.9-0.7l-1.2-1.7l-0.7-2.1l-0.5-2.4v-6l1.4-6l3.1-5.2l4.3-3.3l2.4,1.2l2.1,0.5
			l4.5-0.5l2.1-0.7l2.9-2.6l1.9-0.5l1.9-0.5l3.6-1.2l4.5-1l2.6-1.9l1.9-0.5l1-0.5l4.3-3.3l1.2-1.2l1.7-2.6l1-1l3.6-1.7l8.4-2.6
			l3.8-2.6l0.7,1.4v1.2l-2.9,9.1l0.7,1.9l1.2,1.4l1.4,1l1.7,1.4l1.9,3.8l1,1.2l-2.4-6.4l-1.7-1.4l-0.7-1v-0.7l0.7-1.4l0.2-0.7
			l-0.2-3.6l0.2-2.6l1.4-2.1l2.4-1.4l6.2,1.9l6.7-3.8l9.5-8.8l3.1-1l10,1l1.2-0.5l3.3-1.2l1.2-0.2h4.1l1.7-0.2l1.7-1l3.3,1.9
			l4.1-0.5l4.1-1.4l3.6-1l2.6-1.2l10.7-14.3l2.1-1.2l3.3,1.2l2.9,2.4l1.7,2.9l1,3.6l0.5,4.1l2.6-1.7l1.4-1.9l0.7-2.9l0.5-6.2
			l0.7-1.7l1.4-1.2l1.4-2.1l0.5,1.2l0.7,0.5h1.2l1.4-0.7l1.4-1.2v-1v-1.2l0.5-1.4l2.4-2.6l2.4-0.5l6,2.1l-1-2.1l-2.6-0.7l-2.9-0.2
			l-2.4-1l-1-1.9l0.5-1.9l1.2-1.7l5.2-5.2l1-1.9v-2l-0.7-1.9l0.5-1.7l8.1,5.7l3.1,4.1l4.3,3.6l1.4,2.4l1.2,3.1l2.1,2.9l2.9,2.1
			l3.3,1l2.1-0.2l2.1-0.7l1.2,0.5l0.2,2.6l0.7,1.4l2.9,3.3l0.7,2.1l2.1-1.2l2.1-0.2l7.9,1.9L780.1,34.7L780.1,34.7z"/>
		<path id="ECU1409" class="st2" d="M916.8,109.6l-0.5,0.7l-5,3.8l-2.4,0.5l-2.9-1l-0.7-0.2h-3.8l-1.4-0.2l-2.1-0.7l-1.2-0.2h-1.4
			l-1,1.2l-0.2,1.4l0.5,1.7l1.7,1.2l1,1.4l0.2,1.2l-0.5,1l-1,1l-5.2,3.8l-1.2,1.2l-9.8,12.4l-1.2,2.1l-0.7,1.7l-0.2,2.4v1.2l0.2,1.9
			l-0.5,1.7l-3.1,3.8l-3.6-1.9l-2.4-3.1l-1.7-1.2l-6.7-3.6l-5.7-4.1l-6.4-3.8l-5-1.2l-2.4-0.2l-2.9-0.7l-1.9-1l-1-1l-5.2-1.2
			l-1.7-2.1l-0.7-2.4l-0.2-2.6l0.2-4.1l-0.2-1.2l-2.9-8.4l-5.5-6.9l-3.8-6.4l-3.3-4.1l-4.5-3.8l-6.4-4.3l-2.4-2.1l-1.2-1l-1.7-0.2
			l-5.2-0.5l-2.9-1l-1.9-1l-0.7-0.2l-2.1-1.7l-2.6-2.6l-2.1-1.4l-1.7,0.2l-2.1-2.4l-1.2-2.4l-0.5-2.6l0.7-8.1l1-2.6l3.3-5.5l1-3.1
			l-0.2-4.5l-0.2-2.6v-2l0.2-1l2.4-2.4l1.7,1.4l13.4,14.8l3.3,2.6l2.6,1.2l8.4,2.4l3.1,1.4l18.4,14.1l6,2.9l10,0.2l9.8,3.8h1.4
			l0.7-0.5l0.7,0.2l1.4,1.4l0.5,1.4v1.4L862,85l1.4,1.2l3.3,1.4l3.1,0.5l2.9,0.2l2.9-0.7l11.2-4.3h3.6l4.3,3.3l0.7,10.3l3.1,4.5
			l9.3,6.4l5.2,1.9L916.8,109.6L916.8,109.6z"/>
		<path id="ECU1410" class="st2" d="M874.3,154.5l-4.5,5.7l-1,1.7l0.2,1.7l2.1,0.7v1l-2.6,3.1l-2.6,3.6l-0.7,1l-1.2,0.7l-1.4,0.5
			l-2.1,1.2l-4.8,5.2l-16.5-5h-2.4l-1.7,1l-3.3,2.6l-2.4,1.4l-6.4,3.1l-3.8,0.7l-3.6,0.2l-3.8-1.2l-2.6-1.2l-2.1-1.7l-3.1-2.6
			l-1.4-1.2l-1.4-0.2l-1.7,0.7l-2.4,2.4l-1,0.2l-0.2-0.7l0.2-1l0.7-2.4l0.2-1.4l-0.2-1.7l-0.5-1.4l-1-1.2l-2.4-1l-3.8-0.5l-7.4,0.5
			l-7.6,1.4h-1.9l-3.1,0.7l-7.4,1l-1.4,0.5l-1.9,0.2h-3.1l-14.3-3.1l-3.3-0.2l-12.2,1.4l-5.7,1.7l-2.9,0.2l-1.9,0.5l-2.1,0.2
			l-2.4-0.7l-2.1-1l-1.4-1l-2.4-5.5l2.6,0.2l0.7-0.2l1.4-1.4l4.8-7.4l2.9-3.3l1.7-0.7l0.2-0.5v-1.4l1.2-2.1l1.7-1.9l1.7-1.4l2.6-1.7
			l1.7-0.5l1.7-0.2l4.3,1.4l5,0.5l1.7,0.7l2.9,0.7l2.6,0.2l1.4,0.5l1,0.7l1.9,1.9l1.2,0.7l1,0.5l1-0.2l1-0.5l2.4-1.7l2.4-2.6
			l4.8-6.2l4.8-5l1.9-2.9l1.2-1.2l4.5-3.3l1.4-0.5l1.2-0.2l2.1,0.5h1.4l2.1-0.2l1.2-0.5l1.2-1l0.7-1l0.5-1.9l-0.2-2.1l-1.2-2.4
			l-3.8-4.5l-0.7-1.4l-0.7-1.7l-1-4.1l-0.7-1.4l-4.3-7.9l-0.2-1.2l0.2-1l1.4-0.7l1.2-0.2l2.9-0.2l1-0.5l1-0.5l1.2-1.2l1-1.7l0.5-1.9
			l-0.2-2.6v-5.5l1.9,1l2.9,1l5.2,0.5l1.7,0.2l1.2,1l2.4,2.1l6.4,4.3l4.5,3.8l3.3,4.1l3.8,6.4l5.5,6.9l2.9,8.4l0.2,1.2l-0.2,4.1
			l0.2,2.6l0.7,2.4l1.7,2.1l5.2,1.2l1,1l1.9,1l2.9,0.7l2.4,0.2l5,1.2l6.4,3.8l5.7,4.1l6.7,3.6l1.7,1.2l2.4,3.1L874.3,154.5
			L874.3,154.5z"/>
		<path id="ECU1411" class="st3" d="M1235.8,294.2l-2.4,0.2l-0.5-1.2l0.2-1.7l-0.7-0.7l-1.9,0.5h-1.7l-5-1.4l-2.1-1l-2.4-0.5l-1-1
			l-0.7-2.6l-0.7-1.2l-0.7-0.5h-2.1l-1.2-0.2l-1.4-1l-1.7-0.7h-6.4h-2.1l-4.5-1.4l-2.6-2.1l-1-1.9l-0.2-1.4l-0.7-1.2l-1.7,0.7h-0.5
			l-0.7-1.7l-0.7-0.7l-1.7-1l-3.1-1.4l-1.7-1l-1.4-0.7l-1.4,0.2l-1.2,0.5l-2.1,0.7h-1.7l-1.7-1l-1-1l-1.2-1.9l-0.7-1l-1.2-1
			l-1.2-0.2l-2.9,1l-1.7,0.2h-3.3l-1.2,0.2l-1.4,0.5l-1.2,0.2l-1.7-0.5l-1.7-1.2l-1.9-1.2l-2.6-0.5l-4.5-0.2l-2.4,0.7l-1.7,0.7
			l-0.5,1.7v2.1l1.2,11.7l0.7,1.7l1,1.7l-0.2,0.5l-0.7,0.5l-1.7-0.2l-3.3-0.2l-3.1-0.7l-3.3-1.9l-5.7-4.1l-2.9-1.4l-0.7-1l-0.5-3.3
			l-0.7-1.9l-1-1.4l-0.7-0.7l-13.4-1l-11,1l-1.2,0.5l-3.1,1.4l-4.5,1.4l-1.2,0.5l-5.7,4.3l-3.3,1.4l-1.7-1.2l-1-2.1l-2.1-0.7
			l-5.7,0.2l-2.6-1.2l-7.4-5.7l-3.1-4.1l-3.3,1l-3.1,1.9l-1.7-2.1l-0.7-1.2l-1.2-1.4l-7.9-5.7l-1.7-1.4l-2.6-4.1l-1.2-1.4l-2.6-3.8
			l-0.5-2.1l-0.7-1.2l-4.3-3.8l-14.6-17.4l-1.4-2.4l-1-1.2l-1.9-1.2l-2.1-0.5l-3.6,0.5l-2.1,1l-2.1,1l-1.7,1.2l-1.9,1.2l-3.1,0.5
			l-3.6-0.2l-7.9-2.1L969,215l-2.1,0.5l-1.7,0.5l-1.7,0.5l-1.4-0.5l-4.3-2.9l-3.8-1.9l-2.4-0.7l-1.9-0.5l-2.1,1.4l-3.8,4.3l-1,1.9
			l-1.7,3.1l-0.7,1.2l-1.9,1.2h-1.7l-2.4-0.2l-6.4-1.4l-1.4-0.5l-0.2-1v-1l0.5-1.7v-1.4l-0.5-1.2V214l0.7-2.4V211l-1.2-1.7l-0.2-1.7
			l-0.7-1l-0.7-0.5l-1.9,0.7l-1.9,1.4l-1.2,0.5l-1,1.4l-1,0.7l-1.2,0.5l-2.6,0.2l-1.4,1l-3.1,3.3l-1.4,1l-1,0.2l-1.7-1l-1.7-0.7
			l-4.1-1l-14.1-0.5l-2.6-0.5l-1.9-1.2l-1-2.9l-1-4.5l0.2-2.1l0.7-1.2v-1l-1.4-0.7l-6.2-1.7l-1.9-0.5l-0.5-0.5l-0.5-2.1l-0.5-1.4
			l-1.2-1.4l-1.9-1.2l-1.9-0.5l-2.1-0.7l-3.6-1.9h-1.4l-1.7-0.5l-1.7-0.5l-0.7-0.5v-0.7l3.6-6l4.8-5.2l2.1-1.2l1.4-0.5l1.2-0.7
			l0.7-1l2.6-3.6l2.6-3.1v-1l-2.1-0.7l-0.2-1.7l1-1.7l4.5-5.7l3.1-3.8l0.5-1.7l-0.2-1.9v-1.2l0.2-2.4l0.7-1.7l1.2-2.1l9.8-12.4
			l1.2-1.2l5.2-3.8l1-1l0.5-1l-0.2-1.2l-1-1.4l-1.7-1.2l-0.5-1.7l0.2-1.4l1-1.2h1.4l1.2,0.2l2.1,0.7l1.4,0.2h3.8l0.7,0.2l2.9,1
			l2.4-0.5l5-3.8l0.5-0.7h0.7l6,1.4l1.9,6.9l0.7,14.8l1.4,4.8l0.5,4.3l1.7,3.6l3.8,3.1l4.8,1.7l15.3,3.1l2.6,1l2.1,1.2l2.1,0.5h3.1
			l7.2-2.9l2.4-0.5l5,1.4l5.2,6l4.3,1.4l5.7,0.2l1.7,0.2l2.4,0.7l1.4,1.2l3.1,3.1l2.4,1.7l2.1,0.7l2.1,0.2l9.8-1.4h1.9l5,2.4h2.1
			l-0.5-5.7l1.9-0.7l4.8,1.4l6.9,0.7l2.1,0.5l2.1,1.7l3.8,3.6l2.6,1l2.1-0.2l3.6-1.9l14.1-1.7l2.6-1.7l-1.4-9.5l0.2-10.5v-1l1.4,0.2
			l2.9-0.2l1.7-0.2l1.2-0.5l3.6-4.3l4.1-3.1l1.7-0.5l1.4,0.7l3.8,4.3l2.9,1.7l2.6,1.2l3.1,0.7l3.6,0.2l3.1-0.2l1.7,0.2l1,0.5l1,1.4
			l0.7,3.8l0.7,1.2l2.6-0.2l3.6-1l3.3-0.5l1.2,2.1l0.7,1.7l9.5,11.9l0.7,1.9l0.7,2.6l1.4,2.4l3.6,3.3l8.6,5.2l1.2,1.9l5.7,4.3
			l4.1,2.1l2.1,1l2.9,0.7l3.1,0.2l3.3-0.2l6-1.4l2.9-0.2l2.6,0.7l2.4,2.1l1.7,1.9l1.7,1l2.4,1l6.7,6l8.4,5l3.3,1.2l2.9,1.9l7.9,1.7
			l9.1,3.3l2.6,1.4l-1.7,2.1l-3.3,2.4l-1.9,1l-1.7,0.5l-2.4,0.2l-4.8-0.7h-1.2l-3.8,2.6l-3.8-0.5l-9.8-5.2l-2.1-0.5h-1.9l-2.4,0.2
			l-2.4-0.5l-2.6-1l-2.4-0.7l-2.1,0.7l-0.7,2.4l0.7,3.1l1.2,2.9l1.4,1.4l1.2,0.2l3.1-0.2l1.4,0.2l1.7,1.2l3.1,2.6l1.7,1l3.1,1
			l2.1,1.4l1.7,2.1l4.5,16l2.6,6l4.1,5.7l2.6,2.4l1.7,1.2l1.4,0.2l1.7-0.2l1,0.5l0.5,0.7l5.5,4.3l0.7,0.7l0.7,1.7l0.5,0.7l0.7,0.2
			l1.4-0.7l0.5,0.2l1.7,2.4l0.5,2.6l-0.5,5.7l0.2,1l0.5,2.1l-0.2,1.4L1235.8,294.2L1235.8,294.2z"/>
		<path id="ECU5507" class="st2" d="M490.9,465.1l1.4,6.2l4.1,6.7l7.4,4.3l11.2,2.9l8.4,5l5,4.8l5.5,8.6l-0.2,12.4l-2.4,14.6
			L525,540l-6.9,4.1l-12.2,2.9l-8.6,6.4l-10.3,9.8l-4.3-5.2L471,547l-4.5-1.7l-4.3-1.9l-4.5,0.2l-7.6-2.6l-2.6-1.2l-6-5.2l-3.1-1.2
			h-2.1l-1.7-0.2l-1.2-1.4l-0.7-4.8l-1.2-2.1l-2.1-3.3l-2.1-1.9l-5.2-4.3l-1.2-2.4l-0.2-1.4l0.5-0.5l1.2,0.2l1.2,1.7l3.6,1h1.7
			l1,0.5l0.7,2.4l1.7,1.9h3.6l5-1.9l7.4-5.7l5.5-2.9l5-5.7l1.2-8.4l-2.1-4.3l-1-4.5L456,484l0.5-1.4l1.7-0.2l1.9-1.2l0.5-3.3
			l-0.5-3.6l-3.8-15.3l-3.1-8.6l-1.2-2.1l-1.4-1.7l-1.7-2.6l-0.7-2.1l3.8-0.7l2.6,0.2h1l2.1-0.7l10,0.5l2.9-0.5l5-1.7h2.4l4.3,0.5
			l1.9,1.2l0.7,1.2l-0.2,2.1l0.2,1l1.9,1.7l0.5,1.2l0.2,1.2l-0.5,4.3l-0.2,0.7l-1.7,2.6l-1,2.6v1.2l0.2,1.4l1.2,1.4l2.4,1.2
			L490.9,465.1L490.9,465.1z"/>
		<path id="ECU5508" class="st2" d="M717.1,252.5l-0.7,0.2l-1.4,1.7l-1.7,0.2l-1.2,1l-1.2,1.9l-0.5,2.1l-1.2,1.2l-2.9,1.4l-1.2,1.4
			l-1.9,4.3l-1.9,3.6l1,1.4l2.4,1l1.2,1l0.7,1l0.7,2.4v0.7l-0.5,0.5l-2.6,1l-1,0.7l-0.7,0.7l-0.5,1.9l-1.2,2.1l-1.4,0.7h-1.2l-1-0.5
			l-1.4-1l-2.1-3.3l-2.6-1l-1.4,0.2l-2.1,1.2L677,292.9l-1.7,1.2l-3.8,1.9l-1.7,1.2l-1.9,1.9l-1.7,1.7l-1.4,1.2l-1.9,0.5h-1.7
			l-1.9-0.2l-1.7-0.7l-1.4-1l-0.7-1.2l-0.7-2.6l0.5-1.2l1-1.9l0.5-1.7l-0.2-2.1l-0.7-2.4l-0.5-1.9l0.7-1.2l1.4-1.9l-1.2-0.7
			l-3.3-0.7l-7.6,0.5l-3.1-0.5l-4.3-0.2l2.4-2.9l1.7-4.3l0.2-1.2l0.2-3.1l4.5-6.9l1-2.1l0.5-2.1l-1-25.5l0.2-2.4l-0.7-1.2l-1.2-0.5
			l-3.3,0.2l-1-0.2l-5-1.4l-1-0.5l-3.6-3.6l-3.6-4.3l-1.2-1l-1.7-1.2l-1.2-1.2l-1.9-0.7l-1.2-1l-0.7-1.4l-0.5-2.9l0.2-1.7l0.2-1
			l1.2-1.2l2.9-0.2l2.9,0.7l8.8,1.2l4.1,1l2.6,1.4l1.2,1h0.5l1-1l0.7-0.5l0.2-1l-1-0.7l-1.2,0.2l-0.7-0.5l-1.4-2.1l-0.2-0.7l0.2-0.7
			l2.6-1l1.2-0.7l3.8-1l1.9-0.7l1.9-1.9l0.7-1.7l7.9,5.7l28.6,1l1,11.7l25.3-0.7l4.3,4.3l13.6,7.4l7.2,8.1l-2.6,9.8l-18.1,1.9
			L717.1,252.5L717.1,252.5z"/>
		<circle id="_x30_" class="st2" cx="567" cy="819.9" r="0"/>
		<circle id="_x31_" class="st2" cx="488.7" cy="407.1" r="0"/>
		<circle id="_x32_" class="st2" cx="573.7" cy="495" r="0"/>
	</g>
	<g>
		<path class="st4" d="M649.2,227.9c-2,1.3-4.4,2-7,2c-7.1,0-12.3-5.3-12.3-11.9v-0.1c0-6.6,5.3-11.9,12.4-11.9
			c7.1,0,12.3,5.3,12.3,11.9v0.1c0,2.4-0.7,4.7-2,6.6l2.4,2l-3.2,3.6L649.2,227.9z M644.6,223.9l-3.2-2.7l3.2-3.6l3.1,2.8
			c0.3-0.7,0.4-1.4,0.4-2.2v-0.1c0-3.3-2.4-6.3-5.9-6.3s-5.8,2.9-5.8,6.2v0.1c0,3.3,2.4,6.2,5.9,6.2
			C643.1,224.3,643.9,224.2,644.6,223.9z"/>
		<path class="st4" d="M657.6,219.5v-12.9h6.5v12.7c0,3.3,1.7,4.9,4.2,4.9s4.2-1.5,4.2-4.7v-12.9h6.5v12.7c0,7.4-4.2,10.6-10.7,10.6
			C661.7,229.9,657.6,226.6,657.6,219.5z"/>
		<path class="st4" d="M682.8,206.6h6.4v22.9h-6.4V206.6z"/>
		<path class="st4" d="M699,212.2h-6.9v-5.6h20.1v5.6h-6.9v17.4H699V212.2z"/>
		<path class="st4" d="M713.2,218.1L713.2,218.1c0-6.6,5.3-12,12.4-12c7.1,0,12.3,5.3,12.3,11.9v0.1c0,6.6-5.3,11.9-12.4,11.9
			S713.2,224.7,713.2,218.1z M731.4,218.1L731.4,218.1c0-3.4-2.4-6.3-5.9-6.3s-5.8,2.8-5.8,6.1v0.1c0,3.3,2.4,6.2,5.9,6.2
			C729.1,224.2,731.4,221.4,731.4,218.1z"/>
	</g>
	<polygon class="st5" points="766,206.1 773.7,190 781.8,205.8 799.5,208.1 786.9,220.8 790.2,238.3 774.3,230.2 758.6,238.8 
		761.4,221.1 748.4,208.9 	"/>
	<g>
		<path class="st2" d="M80.1,176.3c0,0-0.7,0.2-0.8-0.8c-0.1-0.6-0.6-0.8-0.7-0.8c-0.1-0.1-0.1-0.3,0.1-0.5
			c-0.1-0.2-0.6-0.6-0.9-0.5s-0.4,0.4-0.4,0.5c-0.3-0.1-0.8-0.5-1-0.4s-0.7,0.9-0.8,1.4c-0.2,0.3-0.7,0.3-0.7,0.4
			c0,0.1-0.2,0.6-0.5,0.7c-0.4,0.1-0.4,0.4-0.6,0.8c-0.2,0.4-1,0.1-1.2,0.2c-0.1,0.1-0.2,0.3-0.4,0.4s-0.4,0-0.6,0.3
			c-0.1,0.3-0.5-0.3-1.1,0c-0.5,0.3-0.6,0.6-0.8,0.7c-0.2,0-0.4,0-0.8,0.2c-0.3,0.2-1.2-0.3-1.5-0.2c-0.3,0-0.2,0.4-0.4,0.4
			c-0.2,0-0.8-0.2-1.2-0.1c-0.4,0.1-0.5,0.5-0.6,0.5s-0.8-0.3-1.1,0.6c-0.3,0.9-0.1,0.9-0.1,1.3s-0.5,0.1-0.6,1.2
			c-0.1,0.6-0.7,0.2-0.9,0.6c-0.2,0.4-0.1,0.9-0.2,1c-0.1,0.1-0.4-0.2-0.9,0.7c-0.5,1-0.2,0.6-0.7,0.8c-0.5,0.3-1.1,0.7-1.4,0.7
			s-1.3,0.6-1.4,0.7c-0.1,0.1-0.5-0.1-0.6,0.2s-0.6,0.2-0.8,0.3c-0.2,0-0.2,0.6-0.4,0.7c-0.1,0.1-0.9-0.1-1.1,0.2
			c-0.2,0.3-0.4,0.5-0.4,0.9s-0.3,0.4,0,0.8c0.3,0.4,0.7,0.7,1,0.9s0.8,0.8,0.8,1.1s0.6,1.3,0.6,1.5s0.6,0.7,0.7,0.4
			c0.1-0.3,0.2-0.4,0.5-0.4c0.4,0.1,0.5,0.2,0.8-0.1s1.2-0.8,1.5-0.8c0.2,0.1,0.9,0.1,1.4-0.2c0.5-0.2,1.5-0.8,1.7-1
			c0.3-0.2,1.8-1,2-1c0.3-0.1,2-0.2,2.4,0s0.9,0.2,1.1,0.2s0.7,0.5,1.1,0.8s0.9,1.2,1.1,1.3c0.2,0,0.5,1.2,0.7,1.5s0.3,0.6-0.1,0.8
			c-0.3,0.3,0,1.5,0,1.7c0,0.1,0.3,2.1,0.2,2.7c0.1,0.7-0.3,0.8,0,2c0.4,1.2-0.2,2,0.2,2.8c0.4,0.7,0.5,0.7,0.8,1.2
			c0.3,0.4,0.3,0.8,1.1,1.7c0.2,0.7,0.1,1.2-0.2,1.3c-0.3,0.1-0.6,0-0.5,0.6c0,0.5-0.1,0.5-0.1,1s0.2,0.8,0.2,1.1s0.2,0.6,0.3,0.7
			c0.1,0.1,0,1.3,0.1,1.5c0.2,0.3,0.6,0.8,0.9,0.5s0.4-0.6,0.6-0.4c0.2,0.2,0,0.8,0.4,1.4s0.2,1.2,0.7,1.5c0.4,0.3-0.1,1.2,1,1.9
			c1,0.7,0.8,1.4,1.3,1.8c0.5,0.3,1.1,0.8,1.9,1.1s1.8,0.5,2.2,0.8c0.4,0.3,0.5,0,0.7,0.7c0.3,0.7,0.7,0.8,0.8,1.2
			c0.1,0.4,1.1,1.3,1.6,1.2s1,0.3,1.4,0.3s1.4,0,1.5,0.2s0,2-0.1,2.6s0.1,1.2-0.1,2.1c-0.2,0.9,0.3,2.8,0.6,3.2
			c0.3,0.4,1.5,1.7,2.5,2.1c1,0.4,1.2,0.8,2.1,1.5s2,2.6,3.4,3.4c1.3,0.8,1.7,1.4,2.9,1.7c1.2,0.5,0.1,1.4,0.5,1.5s1.2-0.1,1.3,0.1
			c0.1,0.1,0.1,0.6,0.3,0.6c0.2,0,0.8,0,0.8,0.1c0,0.2-0.5,0.1-0.5,0.4s0.1,0.6,0.4,0.9c0.3,0.3-0.1,0.6-0.3,0.6
			c-0.2,0-0.4,0.5-0.5,0.8c-0.2,0.3-0.5,0-0.5,0.6s-0.5,0.9-0.7,0.9s-0.7,0-0.9-0.1c-0.1-0.1-0.1-0.4-0.5-0.2s-0.4,0.4-0.6,0.8
			c-0.2,0.4-0.1,0.7-0.4,0.8s-0.6,0.2-0.9,0s-1.2,0-1.2,0.6c0,0.2,0.7,0.5,0.5,0.8s-1.6,0.6-1.8,0.8c-0.3,0.1-0.6,0.3-0.6,0.6
			s-0.5,0.3-0.6,0.3s-1,0.2-1.1,0s-0.3-0.8-0.8-0.8s-0.9-0.1-1.1-0.4c-0.2-0.3-0.5-0.2-0.6-0.4s0.1-0.5-0.8-0.4
			c-0.3,0-0.6,0.5-1.1,0.4c-0.5,0-1.1,0-1.6,0.9c-0.1,0.3,0.1,0.8-0.7,0.8c0,0-0.2,0-0.6-0.2s-0.4,0.4-0.7,0.4s-1.3,0.1-1.4,0
			s-0.2-0.1-0.6,0s-1.3,0-1.6-0.1c-0.3-0.1-0.4,0-0.5,0s-0.4-0.1-0.6,0.1c-0.2,0.3-0.6,0.8-0.7,0.9c-0.1,0.1,0.1,0.4,0.1,0.6
			c0,0.3,0,0.5-0.2,0.5s-0.3,0.2-0.4,0c0-0.2-0.3-0.1-0.5,0.1c-0.2,0.2-0.2,0.4-0.4,0.6c-0.2,0.2-0.6,0-0.8,0.3
			c-0.2,0.3-0.5,0.9-0.8,1c-0.4,0.1-0.6,0.3-0.7,0.3s-0.2,0.3-0.4,0.9c-0.1,0.6-0.5,0.3-0.8,0.5s-0.3,0.5-0.6,0.6
			c-0.3,0.1-1.1,0-1.5,0.2s-0.8,0.2-1.2,1c-0.2,0.3-0.7,0.4-0.9,0.4c-0.2,0-0.8,0.6-1,1c-0.1,0.3-0.7,1-0.9,1.2
			c-0.2,0.2-1.3,1.7-1.6,1.8c-0.3,0.1-0.9,0.6-1.3,1.2s-1.4,0.9-1.7,1.3c-0.2,0.3-0.4,0.7-0.6,0.9c-0.2,0.2-0.3,0.9-0.3,0.9
			c-0.1,0.1-0.8,0.6-0.9,2c-0.1,1.4,0.3,2.6,1.4,3.5s2.1,1.5,2.7,1.6s1.8,0.4,2,1.6s-0.1,1.4-0.1,1.8s0.4,1.8,1.7,2
			c1.2,0.2,0.7,1,1.4,1c0.7-0.1,0.6,0.1,1.5,0.6s2.8,0.2,3.2,0c0.4-0.2,1.4-0.4,2.4-0.2c1,0.2,2.3-0.3,3.4-0.1
			c1.1,0.2,2.2,0.2,2.6,0.5s1.7,0.5,2.2,0.5s2,0.1,2.2,0.3c0.2,0.2,0.9,0.7,1.3,1.2s0.6,0.2,0.8,0.2c0.2,0,2.1-0.4,2.6,0.5
			c0.5,0.8,0.7-0.6,1-0.5c0.3,0.2-0.1,0.7,0.1,0.6c0.2,0,0.7-0.5,0.5-1c-0.2-0.4-0.2-0.5,0.2-0.5c0.4,0,0.9-0.3,1-0.3
			s0.8-0.1,0.9-0.2s0-0.7,0.1-0.8c0.1-0.1,0.3,0.1,0.6,0.2c0.3,0,0.6-0.5,0.7-0.6c0.1,0,0.5,0,0.7-0.1s0.4-0.5,0.6-0.5
			s1.1-0.2,1.3-0.4c0.2-0.2,1.5-0.5,1.7-0.5c0.3,0,0.7,0.3,0.9,0.5c0.2,0.1,0.7,0.1,0.7-0.2c0-0.3,0.2-0.8,0.7-0.6
			c0.5,0.2,0.2-0.3,0.5-0.3c0.2,0,0.6-0.1,0.8-0.5c0.2-0.4,0.9-0.1,1.1-0.3s0.3-0.2,0.5,0.1c0.2,0.2,0.5,0,0.5-0.3s0.5-0.5,0.7-0.5
			c0.3-0.1,0.4-0.5,0.4-0.8s2-1.9,3.2-1.4c1.3,0.6,1,0.2,1.7,0.2s0.7,0.3,1.7,0.3c1-0.1,1-0.2,1.6-0.4c0.6-0.2,1.4-0.7,1.5-1.1
			s0.2-0.9,0.4-1c0.3-0.1,0.7-0.7,0.8-1c0-0.2,0.1-1.3,0.7-1.1c0.5,0.1,1.6,0.5,2.3,0.3c0.7-0.2,0.8-1.1,0.8-1.4s-0.6-1.7-0.2-1.8
			c0.4-0.2,0.4-0.3,0.3-0.8c-0.2-0.5,0.5-1.2,0.7-1.2s-0.1-0.5-0.1-0.6c0-0.2-0.2-1.3,0-1.6c0.2-0.3,1-0.5,1-0.8s-0.1-0.8,0-1
			s0.2-0.6,0.3-0.6c0.1,0-0.2-0.8,0-1c0.2-0.3,0-0.7,0.1-0.8c0.1-0.2,1.5-0.2,2-0.4c0.5-0.2,0.8-0.8,0.8-1.2
			c-0.1-0.3,0.4-0.3,0.6-0.3c0.2,0,0.3-0.2,0.3-0.4c0-0.2,0.3,0.1,0.3-0.1s-0.3-1.3-0.8-1.4s0.2-0.2,0.2-0.3c0-0.1-0.3-0.8-0.8-0.5
			s-1.7-0.1-1.7-0.4s0.5-0.3,0.7-0.3c0.1,0,0.3-0.8-0.1-0.8c-0.4,0-1.7,0.4-1.8,0.1c0,0-0.4-0.8,0.1-0.9c0.5-0.1,0.1-0.4,0-0.5
			s-0.5-0.4-0.8-0.5s-0.7,0.2-1,0.2s-1-0.3-0.8-0.6s0.6-0.7,0.7-1c0-0.3,0.4-0.1,0.4-0.3s-0.4-0.2-0.6-0.4s-0.6-0.8-0.8-0.8
			c-0.2,0,0-0.8,0.1-1.1c0.2-0.3-0.9-1.4-1-1.4c-0.2,0-0.7,0.2-1,0c-0.2-0.2-0.4-0.7-0.3-0.9s-0.1-0.9-0.9-1.4
			c-0.8-0.4,0.1-1.2-0.4-1.3c-0.6-0.2-1.3,1.1-1.6,1.2c-0.3,0-1.2,0.7-1.3,0.6c-0.2-0.1-0.4-0.2-0.7-0.1c-0.3,0.1-0.5-0.9-0.8-0.9
			s-0.8,0.4-1.1-0.1s0.3-0.5,0.3-0.7c0-0.1-0.8-0.5-0.5-0.9s0.6-1.1,0.6-1.4c0-0.2-0.7-0.9-1.1-0.9s-0.8,0.6-1,0.6s-0.4,0-0.4-0.3
			s0.8-0.3,0.8-0.5c0-0.1,0.1-0.8,0.4-0.8s0.8,0,0.8-0.2s0.5-1.1,0.6-1.1s0.2-0.5,0.1-0.8s0.2-1.9,0-2s-0.4-0.2-0.2-0.5
			c0.2-0.3,0.7-0.6,0.7-0.9c0-0.3-0.4-0.5-0.3-1s0.4-0.4,0.4-0.7c0-0.2-0.1-1.9-0.3-2.2s-0.7-0.4-0.8-0.6c-0.1-0.2,0.2-1.3,0.2-1.5
			s-0.2-0.4,0.1-0.5c0.4,0,0.4-1.3-0.3-1.1s-0.6,0.7-0.8,0.7c-0.3,0-0.7-0.8-0.8-1c-0.1-0.2-0.7-0.7-1-0.9s-0.9-1.5-1.2-1.6
			c-0.3-0.1-0.8-1.3-1-1.4c-0.3-0.1-1.2-1-1.7-1.3s-1-1.2-1.4-1.3s-1.3-0.7-1.8-0.9s-2.8-1.4-3-1.7s-1.2-0.8-1.5-1s0.1-0.4,0.4-0.4
			s0.2-0.6-0.1-0.7c-0.3-0.1-0.7-0.6-0.7-0.8s-0.2-0.7-0.5-0.8s0.1-0.6-0.3-0.8c-0.3-0.2-2.2-1.2-2.3-1.5c-0.1-0.2-0.8-1.6-1.4-2.1
			c-0.5-0.5-1.9-1.7-2.1-2.1c-0.2-0.4-0.5-2-0.5-2.2s-0.3-2.4-0.3-2.5s-0.3-1.6,0-2.4c0.3-0.8,0.5-3.4,0.5-3.6c0-0.2-0.1-3-0.8-3.8
			c-0.6-0.9,0-1.6-0.8-3.2c-0.8-1.6-0.8-0.3-2-1.8c-1.2-1.6-1.5-0.6-1.9-1.2c-0.3-0.6-0.2-1.1-0.9-1.4c-0.7-0.3-2.5-2.8-2.7-3.1
			s-0.4-0.1-0.3-0.6c0.1-0.6-0.7-0.1-0.6-1.5c-0.3-0.5-0.6-0.3-0.3-0.8c0.3-0.5-0.7-1-0.7-1.3s0.1-0.9,0-1.2
			c-0.2-0.4-0.5-0.6-0.5-0.7c0-0.1,0.1-0.6-0.2-0.7C80.7,176.5,80.7,176.2,80.1,176.3z"/>
		<path class="st2" d="M74.6,255.6"/>
		<path class="st2" d="M69.2,214.5c0,0,0.1,0.3-0.3,0.3s-0.1-0.9-0.5-0.9s-1-0.1-1.7-0.1s-1.3,0.2-1.8,0.2c-0.4,0-1.1,0.2-1.6,0.9
			c-0.5,0.8-2.8,0.7-3.1,0.7s-0.5,0.2-0.6,0.3s-0.9,0.8-1.9,0.8s-2,0.1-2.4,0.1s-1,0-1.5,0s-1-0.1-1.4-0.1s-0.7,0.2-1.1,0.2
			c-0.4,0-2.2-0.2-2.7,0.7s-0.2,1.8,0.2,3s0.3,3.2,0.3,3.6c0,0.3-0.2,2,0.5,2.9c0.8,1,2,3.4,2.1,3.9s1.2,1.9,1.2,2.3
			c0,0,0,0.8,2,0.9c2,0.2,3.3,0.6,3.6,0.6c0.4,0,2.3,0.6,2.7,0.8s1.4,0.9,2.6,0.3c1.3-0.6,3.9-0.3,4.6-0.6c0.6-0.3,1.5,0.1,1.9,0
			s0.8-0.9,1-1s1-0.8,1.4-0.8c0.4-0.1,0.3-0.9,0.5-1.1c0.3-0.2,0.6-0.1,0.6-0.6c0-0.4,0.3-0.2,0.2-1c-0.1-0.7-0.3-0.8-0.5-1.4
			c-0.2-0.6,0.5-0.5,0.6-0.8c0.1-0.2,0.1-2.1,0.6-2.6c0.4-0.4,0.1-1.5,0-1.9s0-1.2,0-1.5c0.1-0.2-0.1-0.9-0.5-1.6
			c-0.4-0.7,0.5-0.5-0.6-1.5c-0.3-0.2-0.2-1.3-0.3-1.7c-0.1-0.3-1.1-0.8-1.1-1s0.3-0.7-0.8-1.3c-1.1-0.6-1-0.5-1.2-0.7
			C69.9,214.9,68.9,214,69.2,214.5z"/>
		<path class="st2" d="M134.4,204.4c0,0-0.6-1.2-1.3-1.1c-0.6,0-1.5,0-2.6-0.3c-1.3-0.3-3.6,0.5-4,1.5c-0.1,0.2-0.5,0.1-0.5,0
			c-0.1,0.3-0.1,0.6,0,0.8c-0.2,0.2-1,0.2-0.7,1.1c0.2,0.9,0.4,0.9,0.4,1.4s0.2,0.8-0.9,1.6c-1,0.9-0.6,1.8-1.1,2.3s-1.4-0.3-1.5,1
			c-0.1,1.2,0.2,1-0.1,1.9c0.3,1,1.8,0.1,2.4,0.8c0.5,0.8-0.2,0.9,0.4,1.2c0.7,0.3,0.9,1.2,0.7,2.3c-0.2,1.1,0.8,0.9,1.3,0.8
			c0.5-0.1,1.2,0.7,1.6,0.7c0.4,0,0.8-0.8,1.2-0.7c0.4,0,0.6,0.9,1,0.9c0.3,0,0.7-0.2,0.9-0.2s1,1,1.3,1.3c0,0,1.3,1.3,2.1,1
			c0.7-0.3,0.8-0.4,1.5-0.3c0.7,0.1,1.3-0.3,1.9-0.3c0.6,0,0,0.4,0.4,0.4c0.4-0.1,0.5-0.5,1.1-0.4c0.7,0.1,0.6-0.5,1-0.5
			s0.3,0.6,0.7,0.7c0.4,0.1,0.5,0.5,1,0.7c0.4,0.1,1.6,0,1.9,0.3c0.3,0.3,1.2,0.3,2.3,0.7c1.1,0.3,1.2,0,1.6-0.3
			c0.4-0.3,0.7-0.6,1-0.7c0.2-0.1,0-1.1,0.2-1.3s1-1,1-1.5s0-0.9,0.4-0.9s1.6,0.5,1.5-0.5s0.2-1.7-0.6-1.8s-1.3-0.3-1.3-0.6
			s0.1-1-0.5-1s-0.4-1.1-0.4-1.4s-0.1-1.1-0.6-1.2c-0.4-0.2-0.2-2.1-1.2-2.2c-1-0.1-0.8-1.3-1.2-1.3s-1.5-0.8-1.8-0.8
			c-0.2,0-1.4-0.2-1.7-0.4c-0.2-0.2-0.1-0.7-1.7-0.6c-1.5,0-2.2-0.8-2.7-0.8c-0.6,0-0.9-0.1-0.9-0.6s-0.3-1-0.9-1
			c-0.7,0-1.7-0.1-2-0.2C134.7,204.7,134.4,204.4,134.4,204.4z"/>
		<path class="st2" d="M152.4,215.2c0,0-0.6,0.1-0.8,0.4c-0.3,0-1,0.6-0.5,0.6c0.6,0,0.7-0.2,0.9,0s0.7-0.3,0.7-0.5
			C152.8,215.5,152.8,215.1,152.4,215.2z"/>
		<path class="st2" d="M137.8,227c0,0-0.5-0.3-0.2-0.7c0.1-0.4-0.7-0.3-0.7,0.2s-0.7,0.6-0.7,1s0.4,1.2,0.8,1.2
			c0.4,0,0.3,0.4,0.5,0.3c0.2-0.1-0.1-0.6,0.3-0.7c0.4-0.1,0.6-0.8,0.4-1C138.1,227.1,137.8,227,137.8,227z"/>
		<path class="st2" d="M142.5,245.3c0,0-0.3-0.8-0.7-0.9c-0.4-0.1-1-0.2-1.1-0.4c-0.1-0.1-0.8,0.2-0.9,0.5c-0.1,0.3-0.7,0.2-0.7,0.8
			c0,0.5,0.3,1,0.3,1.4s0.7,1,1,1c0.2,0,1.3,0.8,1.5,0.7s0.3-0.4,0.6-0.4s0.4-0.4,0.4-0.7c0.1-0.3,0.5-0.2,0.4-0.5s-0.5-0.4-0.3-0.8
			C143.2,245.7,143,245.5,142.5,245.3z"/>
		<path class="st2" d="M159.2,237.8c0,0-0.2-0.3-0.3-0.3s-0.1,0.2-0.2,0.3c-0.1,0.1-1,0.1-1,0.5s-0.3,0.6-0.5,0.6s-1.6-0.1-1.7,0.1
			c-0.1,0.2,0,1.1,0,1.2c0,0.1,0,0.1,0,0.1s-0.2,1-0.4,1s-1.5,0.2-1.5,0.5s0,1.3,0.1,1.4c0.2,0.1-0.5,1.3-0.6,1.6s0,0.8,0,0.9
			s-0.8,1-0.8,1.3s0,1,0.1,1.1c0.2,0.1,0,1.5-0.2,2c0.1,0.2,0.7,0.7,0.8,1s0.2,0.9,0.2,1.2s-0.1,0.7,0.2,1c0.4,0.3,0.8,1.7,1.7,1.7
			s2.6,0,3,1.3c1,0.1,1.5,0,1.6-0.1c0.3,0,0.8,1.3,1.1,1.6c0.2,0.4,1.6,1.5,2.2,1.4c0.6-0.1,2.8,1.8,3.2,1.8s1.6-0.7,2.1-0.6
			c0.5,0,1.5,0.8,1.7,0.8c0.3,0,0.2-1.1,0.6-1.1c0.4,0,0.4,0.5,0.6,0.5c0.2,0,0.2-0.6,0.7-0.6s0.9,0.1,1.2,0.2s0.7,0.2,1.1,0.1
			c0.4-0.1,0.6-0.6,0.3-0.6c-0.4,0-0.7-0.1-0.7-0.2s0.4-0.5,0.3-0.7c-0.2-0.2,0.1-0.7,0.4-0.6c0.3,0,3.2,0.1,3.6,0.2
			c0.3,0.2,2.2,0.2,2.7-0.1c0.5-0.3,0.7-1.6,0.6-2c-0.1-0.4,0.7-1.1,1-1.3s-0.2-0.9-0.2-1s0-0.4,0.5-0.2c0.4,0.2,1,0.7,1.6,0.5
			c0.5-0.1,1.3-0.9,0.7-1.4s1.3-0.9,1.5-1.1s0.2-0.6,0-0.8s-0.9-0.6-0.8-0.9c0.1-0.3,0.8-0.9,0.8-1.3c0-0.5,0-0.8,0.3-0.9
			c0.2-0.1-0.4-1-0.5-1.5c0-0.5-0.1-1.1,0.3-1.4c0.4-0.3,0.7-1.4,0.7-1.6c0-0.2,0.4-1.1-0.3-1.3s-1.1-1.1-1.5-1.1s-0.9-1-1.4-1
			s-2-0.6-2.6-1.7c-0.7-1-1-1.6-1-2c0-0.3-0.4-0.7-0.4-1.1c0-0.4,0-1-0.3-1s-0.6,0.5-1.2,0.6c-0.7,0-1.1-0.1-1.4,0
			c-0.3,0.1-0.4,0.1-0.8,0.5c-0.4,0.3-1.2,0-1.4,0c-0.1,0-0.5,0.1-0.9,0.1c-0.4,0.1-1.1-0.3-1.2,0.1c-0.1,0.5,0,0.6-0.2,0.6
			s-0.4,0-0.3-0.2c0.1-0.2,0.3-0.4,0-0.5c-0.3,0-0.6-0.1-0.6-0.2c0-0.1-0.6-0.2-0.8,0.1c-0.3,0.2-0.2-0.1-0.7,0
			c-0.5,0.2-0.8,0.4-0.7,0.8s0.5,0.8,0.2,0.9c-0.3,0.1-0.2,0.1-0.6,0.2c-0.4,0-0.5-0.4-0.6-0.4s-0.8-0.3-0.9,0
			c-0.1,0.2-0.7,0-0.8,0.1c-0.1,0-0.4,0.2-0.4,0c0-0.3-0.4-0.6-0.7-0.6s-1.1-0.2-1.4,0.3c-0.2,0.5-0.6,0.4-1,0.4s-1.2,0.2-1.4,0.1
			c-0.2-0.1-0.6-0.3-1-0.1C160.8,237.2,159.7,238.1,159.2,237.8z"/>
		<path class="st2" d="M177.9,227.6c0,0,0.7,1.5,1,2.3c0.4,0.8,0.6,1,0.7,1.3c0.1,0.3,0.7,1,0.2,1.6c-0.6,0.5-1.4,1.3-1.6,1.3
			c-0.2,0-1.4,0.2-1.7,0.2s-0.8-0.7-0.7-1.2c0.2-0.5-0.1-1.2,0.1-1.4c0.1-0.2,0.9-1,1.1-1.1c0.2-0.1,0.4-0.9-0.2-0.6
			c-0.6,0.3,0.1-0.7,0.1-0.7s0.4-0.6-0.6-1.3c-0.1-0.1-0.1-0.2,0-0.3C176.7,227.5,177.7,227.3,177.9,227.6z"/>
		<path class="st2" d="M176.9,225.7c-0.1,0.1-0.6-0.2-0.7,0c-0.1,0.2-0.2,0.9,0.1,0.9s0.5-0.1,0.8-0.2c0.3-0.1,0.5-0.3,0.5-0.5
			C177.5,225.7,177.2,225.5,176.9,225.7z"/>
		<path class="st2" d="M164.5,304c0,0-0.8-0.2-0.6-0.7s-0.3-0.6-0.7-0.2s-0.6,0.1-0.7,0.1c-0.1,0-0.4,0.9-0.8,0.8
			c-0.4-0.1-0.2,0.4-0.4,0.4s-1,0.4-1.1,0s-0.2-0.7-0.5-0.7s-0.9,0-1,0.2c0,0.3-1,2.2-1,2.7s0.3,1.9-0.1,1.9c-0.4,0-0.6,0.9-0.6,1.1
			s-0.4,1-0.6,1.1c-0.1,0.1-0.9,1.6,0,2.3c0.9,0.7,1,0.5,1.1,1c0.1,0.4,0.9,0.3,1.4,0.4s1.3,0.8,1.4,0.9c0.2,0,1.3,0.6,2.1,0.5
			c0.8-0.2,1.6,0.1,2-0.4s0.7-0.6,1.5-0.9c0.8-0.2,1.4-0.9,1.7-1.4c0.2-0.5,0.5-1.3,0.5-1.6c0-0.3,0.8-0.9,1.5-1.3
			c0.7-0.3,0.4-1.9,0.8-2.1c0.4-0.2,0.3-0.5,0-1s-1.4-0.5-1.5-0.8c0-0.2-0.4-1.1-1.2-1.2s-1.2,0.2-1.3-0.2
			C166.2,304.7,165.1,304,164.5,304z"/>
		<path class="st2" d="M200,264.2c0,0-0.8-0.5-1.6-0.5s-2.3,0.1-2.6,0s-0.5,0.4-0.4,0.9s-0.4,1.1-0.4,1.1s0.2,1,0.9,1
			s0.8,0.6,1.3,0.6s1.4-0.3,1.9,0s0.7,0.6,1.2,0.3c0.6-0.3,0.8-0.6,0.6-1.5C200.6,265.2,200.5,264.2,200,264.2z"/>
		<path class="st2" d="M237.1,316.4c0,0-1.4-1.2-1.9-1.2c-0.3-0.6-0.8-0.3-1.5-0.3c-0.6,0-2-0.3-2.4-0.1c-0.4,0.2-1.6,0.1-1.8,0.5
			s-0.8,0.3-1.1,0.6s-0.9,0.6-1.1,0.9c-0.2,0.4,0.3,0.9,0.8,0.9s1.5,0.6,1.6,0.7c0.1,0.2,2.1,0.8,2.4,0.8s0.5,0.5,0.5,0.7
			s0.6-0.2,0.9-0.2s1.2,0.1,1.7,0.3c0.5,0.1,0.9,0.5,1.3,0.4c0.4,0,0.6-0.3,0.9,0s1,0.3,1-0.3s0-1,0.5-1s0.5-0.8,0-0.9
			c-0.5,0-0.6-0.2-0.6-0.7C238.4,317,237.9,316.6,237.1,316.4z"/>
		<path class="st2" d="M273.4,254.3c0,0-0.8,1.1,0,1.1s1.4,0.7,0.4,1.8s0,2-1.6,2.1s-1.6,2.6-3,3.5c-1.5,0.9-0.9,2.2-2.3,2.5
			s-2.8,0.3-2.8,0.8c-0.1,0.5-0.7,0.7-0.8,2.3c-0.1,1.5-1.6,1.9-1.6,2.4s-1.9,2.2-1.9,3.2s-1.4,1.7-2.3,1.7s-1.6,1.3-3.2,1.3
			c-1.7,0-3.5-0.2-6.1,1.3s-9.5-2.3-9.5-4s2.3-2.6,2.9-2.9c0.7-0.3,3.8-2.2,3.8-2.8c0-0.6,1.3-0.2,1.3-1s-0.7-1.9,0-1.9
			s1.5,0,1.5,0.2s0.7,1.1,1.3,0.2c0.7-0.9,1.9-0.1,2.4-0.4s1.3-1.8,1.3-2.5s0.9-2,0.9-2.2s-1.1-1.2-0.3-1.4c0.8-0.2,2.6-1.8,2.6-1.8
			s1.3-0.4,1.9-0.8s0.6-0.8,1.1-0.8s1.2,0,1.2-0.2c0-0.3,0.9,0,1.3-0.3c0.4-0.2,0.7-0.8,1-0.8s0.1-1.2,0.5-1.2s1.5-0.4,2,0
			s1.8,0.6,2.1,0.3c0.2-0.3,0.9-0.3,1.9,0.7s1.3,0.6,1.5,0.5s0.8-0.4,1.1-0.8c0.2-0.4,0.5-0.3,0.6-0.3
			C272.9,253.9,273.4,253.9,273.4,254.3z"/>
		<path class="st2" d="M209.5,158.2c0,0-0.8-1.5-1.3-1.5c-0.4,0-0.7,0.6-1.1,0.6c-0.4,0-1.3,0.4-1.4,0.9c-0.1,0.5-0.2,1.9,0.6,2.2
			c0.8,0.4,0.7-0.2,0.7-0.4s0.6-0.5,0.9-0.4c0.3,0.1,0.8,0.9,0.4,1.1c-0.5,0.2-0.7,0.5-0.3,0.6s1.1-0.3,1.1-0.7s0.4-1,0.6-1.1
			C209.9,159.6,209.9,158.9,209.5,158.2z"/>
		<path class="st2" d="M162.9,155.7c0,0-1.1-0.7-1.7-1.6c-0.6-0.8-4.1-1.7-6.1,0s-2.4,1.9-2.3,3.8c0.1,1.9,1.1,2.3,1.6,2.8
			s0.9,0.2,1.3,0.6c0.4,0.4,1.2,2.2,2.5,1.9c1.4-0.3,1.8,0.2,3.2-0.3c1.5-0.5,3.3-0.9,3.4-1.5c0.1-0.6,0.6-1.4,1-1.7
			C166.4,159.3,164.4,155.6,162.9,155.7z"/>
		<path class="st2" d="M131.4,129.3c0,0-1.2-0.5-1.4,0.8s-0.6,0.5-0.2,1.6c0.4,1.1-0.4,0.8,0,2.5s0.1,2.4,0.3,2.7s1.1,1.1,1.8,1
			c0.7,0,1,0.6,1.9,0.6c0,0,0.4,0.2,1-0.2c0.5-0.4,1.1,0.7,1.3,0.5s0.9-1.8-0.3-3.5s-0.3-1.4-1.4-2.8c-1.1-1.5-1.2-1.8-1.5-2.1
			C132.7,130.1,132.2,129.3,131.4,129.3z"/>
	</g>
</g>
<g id="trazos">
	<path id="trazo1-2_1_" class="st6" d="M779.5,216.7c0,0,36.5,25.6-6,90.9c-10.8-13.7-77.3-5.1-94.5,39.6
		c21.6-8,139.3,7.8,126.2,47.4c-29.9-3,1.9,39.1-40.8,39.5c-18.8-4.5-42.4,45.5-17.2,67.1c0,0,40.9,114.4-29.6,119.9
		c-31.7,1.6-66.9,46.2-60.4,87.1C525.4,358.7,689.2,190,768,211.8c0,0,19.6-48.5,47.2-44.2c27,4.2,41.5,20.3,32,69.1"/>
</g>
<g id="p8" class="st7">
	<circle id="p4-9_1_" class="st8" cx="663.2" cy="708.6" r="12.5"/>
	<text id="_x39_" transform="matrix(1 0 0 1 657.7639 715.4324)" class="st4 st9 st10">8</text>
</g>
<g id="p9" class="st7">
	<circle id="p4-2" class="st8" cx="812" cy="170.4" r="12.5"/>
	<text id="_x39__1_" transform="matrix(1 0 0 1 806.5641 177.2821)" class="st4 st9 st10">9</text>
</g>
<g id="p10" class="st7">
	<circle id="p4-10" class="st8" cx="847.2" cy="236.7" r="12.5"/>
	<text transform="matrix(1 0 0 1 838.7056 242.3485)" class="st4 st9 st11">10</text>
</g>
<g id="p2" class="st7">
	<circle id="p4-3" class="st8" cx="773.5" cy="312.5" r="12.5"/>
	<text transform="matrix(1 0 0 1 768.0273 319.4361)" class="st4 st9 st10">2</text>
</g>
<g id="p5" class="st7">
	<circle id="p4-4" class="st8" cx="762.8" cy="439" r="12.5"/>
	<text transform="matrix(1 0 0 1 757.2728 445.951)" class="st4 st9 st10">5</text>
</g>
<g id="p7" class="st7">
	<circle id="p4-5" class="st8" cx="712.2" cy="621" r="12.5"/>
	<text transform="matrix(1 0 0 1 706.7043 627.999)" class="st4 st9 st10">7</text>
</g>
<g id="p4" class="st7">
	<circle id="p4-7" class="st8" cx="799.5" cy="394.9" r="12.5"/>
	<text transform="matrix(1 0 0 1 794.0952 401.7133)" class="st4 st9 st10">4</text>
</g>
<g id="p6" class="st7">
	<circle id="p4-8" class="st8" cx="742.1" cy="501.1" r="12.5"/>
	<text transform="matrix(1 0 0 1 736.6865 508.0416)" class="st4 st9 st10">6</text>
</g>
<g id="p3" class="st7">
	<circle id="p4-9" class="st8" cx="680" cy="351.7" r="12.5"/>
	<text transform="matrix(1 0 0 1 674.5854 358.7005)" class="st4 st9 st10">3</text>
</g>
<g id="p1" class="st7">
	<circle class="st8" cx="774.2" cy="216.7" r="12.5"/>
	<text transform="matrix(1 0 0 1 768.8276 223.6201)" class="st4 st9 st10">1</text>
</g>
<g id="persona">
	<path class="st12" d="M7.9,18.4H6.5c-0.1,0.3-0.3,0.5-0.5,0.5H5.8v1.2h4.9v-1.2H8.4C8.1,18.9,7.9,18.7,7.9,18.4z"/>
	<rect x="5.8" y="14.5" class="st12" width="5" height="1.2"/>
	<path class="st13" d="M10.3,21.2H6.1c0.4,0.7,1.2,1.2,2,1.2C9,22.4,9.8,22,10.3,21.2z"/>
	<path class="st13" d="M7.9,18.4c0-0.3,0.2-0.5,0.5-0.5h2.3v-1.2H5.8v1.2h0.1c0.3,0,0.5,0.2,0.5,0.5H7.9z"/>
	<path class="st13" d="M6.5,12.3c-0.3,0-0.6,0.2-0.6,0.6V13l0,0v0.5h5v-0.6c-0.1-0.4-0.4-0.6-0.8-0.6C10.1,12.3,6.5,12.3,6.5,12.3z"
		/>
	<path class="st14" d="M5.7,7.3c0,1.4,1.1,2.6,2.6,2.6s2.6-1.1,2.6-2.6c-1.2-0.1-2.2-0.4-3.2-1C7.2,6.8,6.5,7.2,5.7,7.3z"/>
	<path class="st15" d="M6.5,11.3h3.6c0.5,0,0.9,0.2,1.3,0.5h1.3v-5c0-2.4-1.9-4.3-4.3-4.4l0,0H8.3c-0.5,0-1,0.1-1.4,0.3
		C7,3.5,7.4,4.3,8.1,4.9L8.2,5c0.8,0.8,2,1.3,3.1,1.3c0.2,0,0.5,0.1,0.5,0.4v0.1c0,2-1.6,3.6-3.6,3.6S4.7,8.8,4.7,6.8
		c0-0.1,0-0.3,0.1-0.4c0.1,0,0.3-0.1,0.4-0.1c0.7,0,1.5-0.3,1.9-0.9C6.5,4.8,6.1,4,5.8,3.2C4.7,4,4,5.4,3.9,6.8v4.9h1.3
		C5.5,11.3,6,11.2,6.5,11.3z"/>
	<path class="st16" d="M3.9,6.8c0-1.4,0.7-2.8,1.9-3.6C6.1,4,6.5,4.8,7.1,5.4C6.6,5.9,5.9,6.3,5.2,6.3c-0.1,0-0.3,0-0.4,0.1
		S4.7,6.7,4.5,6.8c0,2,1.6,3.6,3.6,3.6s3.6-1.6,3.6-3.6l0,0l0,0c0-0.1,0-0.3-0.1-0.4s-0.2-0.1-0.3-0.1c-1.1,0-2.3-0.4-3.2-1.2L8,5
		C7.4,4.4,7,3.6,6.7,2.8C9,2,11.5,3.1,12.3,5.4c0.1,0.5,0.2,0.9,0.3,1.4v4.9c0,0.3,0.2,0.6,0.5,0.6s0.5-0.2,0.5-0.5v-5
		c0-3-2.4-5.4-5.4-5.4l0,0C7.5,1.4,6.7,1.6,6,1.9l0,0C4.1,2.8,2.8,4.7,2.8,6.8v4.9c0,0.3,0.2,0.6,0.6,0.6l0,0h0.1
		c0.3,0,0.5-0.2,0.5-0.5L3.9,6.8z M10.7,7.3c0,1.4-1.2,2.6-2.6,2.6S5.6,8.7,5.6,7.3c0.9-0.1,1.7-0.5,2.3-1.2
		C8.7,6.8,9.7,7.2,10.7,7.3z"/>
	<path class="st16" d="M14.8,16.4c-0.5-1.6-1.6-3-3.1-3.8c0-0.3-0.2-0.6-0.4-0.8c-0.3-0.4-0.8-0.5-1.3-0.5H6.3
		c-0.5,0-0.9,0.2-1.3,0.5l-0.4,0.8c-3.2,1.8-4.4,5.7-2.7,9c0.1,0.2,0.3,0.3,0.5,0.3h0.3C3,21.8,3.1,21.4,3,21.1
		c-1.3-2.5-0.5-5.6,1.8-7.2V20c0,0.9,0.3,1.8,0.9,2.4l0.5,9l-1.5,0.5c-0.2,0.1-0.4,0.4-0.4,0.6l0,0c0.1,0.3,0.2,0.4,0.5,0.4h0.1
		l1.9-0.6c0.3-0.2,0.4-0.3,0.4-0.6l-0.5-8.6c0.9,0.4,2,0.4,2.9,0l-0.5,8.6c0,0.3,0.1,0.5,0.4,0.5l1.9,0.6h0.1c0.3,0,0.4-0.1,0.5-0.4
		c0.1-0.2,0-0.5-0.2-0.6l0,0l-1.5-0.5l0.5-9c0.6-0.7,0.9-1.5,0.9-2.4v-6c1,0.7,1.7,1.7,2,2.8c0.5,1.4,0.4,3-0.4,4.4
		c-0.1,0.2,0,0.5,0.2,0.6h0.3c0.2,0,0.4-0.1,0.5-0.3C15.3,19.9,15.4,18.1,14.8,16.4z M5.8,15.6v-1.2h5v1.2H5.8z M10.7,20v0.3H5.8
		v-1.2h0.1c0.3,0,0.5-0.2,0.5-0.5S6.2,18,6,18H5.8v-1.1h5v1.2H8.4c-0.3,0-0.5,0.2-0.5,0.5s0.2,0.5,0.5,0.5h2.3V20z M10.7,12.9v0.5
		h-5v-0.5c0-0.3,0.2-0.6,0.6-0.6l0,0H10C10.4,12.3,10.7,12.5,10.7,12.9z M6.1,21.2h4.2C9.5,22.3,8,22.7,6.8,22L6.1,21.2z"/>
</g>
<g id="barco">
	<path id="trazado1" class="st17" d="M44.4,29.4L32.5,41.3L20.6,29.4c-6.6-6.6-6.6-17.2,0-23.8l0,0c6.6-6.5,17.2-6.5,23.7,0l0,0
		C50.9,12.2,50.9,22.8,44.4,29.4z"/>
	<path id="Trazado_2" class="st18" d="M47.2,17.7c0,3.1-1,6.1-2.7,8.6c-1.7,2.4-4.2,4.3-6.9,5.3c-2.9,1.1-6.2,1.2-9.2,0.4
		c-2.9-0.8-5.5-2.5-7.4-4.8S17.9,22,17.6,19c-0.3-3.1,0.5-6.2,2-8.8s3.8-4.6,6.5-5.9c2.8-1.3,6-1.7,9-1.1s5.7,2.1,7.8,4.2
		c2.1,2.2,3.5,4.9,4,7.9C47.1,16,47.2,16.8,47.2,17.7c0,0.5,0.7,0.5,0.7,0c0-3.1-1-6.2-2.7-8.8c-1.7-2.5-4.2-4.5-7.1-5.6
		c-2.9-1.2-6.2-1.4-9.3-0.7c-3,0.7-5.7,2.3-7.8,4.5c-2.1,2.3-3.5,5.1-4,8.2c-0.5,3.2,0,6.4,1.4,9.3c1.3,2.7,3.5,5,6.1,6.6
		c2.7,1.6,5.9,2.3,9,2.1s6.1-1.4,8.5-3.4c2.4-1.9,4.2-4.5,5.1-7.4c0.5-1.5,0.7-3.1,0.7-4.7C47.9,17.2,47.2,17.2,47.2,17.7z"/>
	<path id="Trazado3" class="st19" d="M41,13.5c0.7,0.2,1,0.7,0.8,1.3c-0.1,0.4-0.4,0.6-0.8,0.6c-0.2,0-0.2,0.1-0.2,0.2
		c-0.2,1.9-0.4,3.8-0.6,5.8c-0.2,2.1-0.5,4.2-0.7,6.3c-0.1,0.7-0.1,1.3-0.2,2c0,0.4-0.3,0.6-0.6,0.6s-0.5-0.3-0.5-0.7
		c0.2-1.6,0.3-3.2,0.5-4.8s0.3-3.2,0.5-4.8c0.1-1.3,0.3-2.7,0.4-4c0-0.1,0-0.2,0-0.4c-0.1,0-0.2,0-0.3,0c-0.6,0-1.3,0-1.9-0.1
		c-0.9-0.1-1.7-0.5-2.4-1.2c-0.2-0.2-0.4-0.4-0.6-0.6c0,0.1-0.1,0.2-0.1,0.3c-0.5,1.7-0.9,3.3-1.4,5c-0.2,0.8-0.7,1.5-1.6,1.8
		c-0.1,0.1-0.2,0.1-0.2,0.3c0,0.9-0.2,1.8-0.4,2.7c-0.4,1.3-1.1,2.3-2,3.3c-1,1-2,2-3.1,3c-0.5,0.5-1.3,0.5-1.9,0
		c-0.5-0.5-0.6-1.3-0.1-1.8c0.6-0.6,1.2-1.2,1.9-1.9c0.5-0.4,0.9-0.9,1.4-1.3c0.8-0.8,1.2-1.8,1.3-2.9c0.1-0.6,0.1-1.1,0.1-1.7
		c0-0.1,0-0.3-0.1-0.4c-0.5-0.6-0.6-1.4-0.4-2.1c0.6-2.3,1.2-4.6,1.9-6.9c0.3-1,0.9-1.6,1.9-1.8s1.9,0.1,2.5,0.9
		c0.3,0.4,0.5,0.8,0.8,1.2s0.5,0.9,0.8,1.3c0.5,0.7,1.2,1.1,2.1,1.1c0.6,0,1.1,0,1.7,0c0.2,0,0.2-0.1,0.2-0.2c0-0.2,0-0.4,0.1-0.6
		c0-0.3,0.3-0.6,0.6-0.5c0.3,0,0.5,0.3,0.5,0.6C41,13,41,13.2,41,13.5z"/>
	<path id="Trazado4" class="st19" d="M27.7,8.4c0.9,0,1.5,0.6,1.3,1.5c-0.1,0.6-0.2,1.1-0.4,1.7c-0.5,1.7-0.9,3.4-1.4,5.1
		c-0.3,1.1-0.7,1.3-1.8,1.1c-0.6-0.1-1.2-0.3-1.7-0.5c-0.7-0.2-0.9-0.7-0.7-1.4c0.4-1.6,0.8-3.2,1.3-4.8c0.4-1.3,1.3-2.2,2.6-2.6
		C27.1,8.5,27.4,8.5,27.7,8.4z"/>
	<path id="Trazado5" class="st19" d="M31.5,21.4c0.9-0.3,1.6-0.9,2-1.8c0,0,0,0,0.1,0c1.1,1.2,2,2.5,2.2,4.1
		c0.1,0.7,0.2,1.4,0.2,2.1c0.1,1,0.1,2,0.1,2.9c0,1-0.9,1.6-1.8,1.3c-0.6-0.2-0.9-0.6-0.9-1.3c-0.1-1.2-0.2-2.4-0.2-3.6
		c0-1.4-0.5-2.6-1.4-3.6C31.6,21.6,31.6,21.5,31.5,21.4L31.5,21.4z"/>
	<path id="Trazado6" class="st19" d="M33.7,8.5c-1.4,0-2.5-1.1-2.4-2.4c0-1.3,1.1-2.4,2.5-2.4s2.5,1.1,2.5,2.4
		C36.2,7.4,35.1,8.5,33.7,8.5z"/>
</g>
<g id="avion">
	<g>
		<path class="st20" d="M5.6,13.1c-0.8,0-1.4,0.6-1.4,1.4v2c0,0.8,0.6,1.4,1.4,1.4S7,17.3,7,16.5v-2C7.1,13.8,6.4,13.1,5.6,13.1z"/>
		<path class="st20" d="M8.8,11.7c-0.6,0-1,0.5-1,1v2.2c0,0.6,0.5,1,1,1c0.6,0,1-0.5,1-1v-2.1C9.9,12.2,9.4,11.7,8.8,11.7z"/>
	</g>
	<path class="st21" d="M15,25.8c0,0-4.2,4-4.6,4.5s-0.2,2,0,2.6c0.2,0.7,5.3-3.3,5.3-3.3L15,25.8z"/>
	<path class="st21" d="M14.6,10c0,0-12.4,7.8-12.9,8.1S1.2,20.8,1.2,21C1.3,21.3,15,17.4,15,17.4L14.6,10z"/>
	<path class="st22" d="M17.4,0.9v30.6c0,0-1.4-0.2-2.3-1.3C14.2,29.1,14,6.8,13.9,5.7S15.8,0.9,17.4,0.9z"/>
	<path class="st21" d="M17.4,26.7V33c0,0-0.7,0-1.3,0c-0.5,0,0.2-5.6,0.2-5.9C16.4,26.8,17,26.5,17.4,26.7z"/>
	<path class="st23" d="M17.4,3.6c-0.9,0-1.8,0.8-2.1,1.6S15.2,6,15.4,6.1c0.3,0,1.1-1.2,2-1.2C17.4,4.8,17.4,4.5,17.4,3.6z"/>
	<g>
		<path class="st24" d="M29.2,13.1c0.8,0,1.4,0.6,1.4,1.4v2c0,0.8-0.6,1.4-1.4,1.4s-1.4-0.6-1.4-1.4v-2
			C27.7,13.8,28.4,13.1,29.2,13.1z"/>
		<path class="st24" d="M26,11.7c0.6,0,1,0.5,1,1v2.2c0,0.6-0.5,1-1,1c-0.6,0-1-0.5-1-1v-2.1C24.9,12.2,25.4,11.7,26,11.7z"/>
	</g>
	<path class="st25" d="M19.8,25.8c0,0,4.2,4,4.6,4.5s0.2,2,0,2.6c-0.2,0.7-5.2-3.3-5.2-3.3L19.8,25.8z"/>
	<path class="st25" d="M20.2,10c0,0,12.4,7.8,12.9,8.1s0.5,2.6,0.4,2.9s-13.8-3.6-13.8-3.6L20.2,10z"/>
	<path class="st21" d="M17.4,0.9v30.6c0,0,1.4-0.2,2.3-1.3c0.9-1.1,1.1-23.4,1.2-24.5S19,0.9,17.4,0.9z"/>
	<path class="st25" d="M17.4,26.7V33c0,0,0.7,0,1.3,0c0.5,0-0.2-5.6-0.2-5.9C18.4,26.8,17.8,26.5,17.4,26.7z"/>
	<path class="st23" d="M17.4,3.6c0.9,0,1.8,0.8,2.1,1.6C19.8,6,19.6,6,19.4,6.1c-0.3,0-1.1-1.2-2-1.2C17.4,4.8,17.4,4.5,17.4,3.6z"
		/>
</g>
<g id="repeat">
	<path class="st26" d="M1362.1,42c0-13.3,10.8-24.2,24.2-24.2c13.3,0,24.2,10.8,24.2,24.2c0,13.3-10.8,24.2-24.2,24.2
		S1362.1,55.4,1362.1,42z"/>
	<path class="st4" d="M1395.1,31.6c-2-0.6-4.6-0.2-6.7-0.2c-1.7,0-3.5,0-5.2,0c0-1,0-1.9,0-2.9c0-0.3-0.1-0.5-0.3-0.6
		c-0.2-0.2-0.5-0.3-0.8-0.1c-2.8,1.8-5.5,3.5-8.3,5.3c-0.5,0.3-0.5,0.9,0,1.2c2.8,1.8,5.5,3.5,8.3,5.3c0.5,0.3,1.1-0.1,1.1-0.6
		c0-1.1,0-2.3,0-3.4c3.4,0,6.7,0,10.1,0c2.2,0,2.7,1.6,2.7,3.4c0,2.2,0,4.4,0,6.7c0,1.9-1.4,2.7-3.1,2.7c-2,0-4,0-5.9,0
		c-3.8,0-7.7,0-11.5,0c-2.8,0-2.8,4.3,0,4.3c4.4,0,8.8,0,13.3,0c1.6,0,3.2,0,4.8,0c3.7,0,6.7-3.1,6.7-6.8
		C1400.2,40.7,1401.5,33.4,1395.1,31.6z"/>
</g>
</svg>
